<svg width="300" height="120" viewBox="0 0 300 120" fill="none" xmlns="http://www.w3.org/2000/svg">
<path d="M88.6582 75.4272H100.685L96.2147 100.8H84.1879L80.7486 120H52.9096L56.3489 100.8H0L4.47034 75.4272L14.7387 59.9894H21.8008L61.702 0H92.6271L52.5918 59.9894H45.5297L35.226 75.4272H60.8263L63.5099 59.9894H70.572L72.3588 49.7164H100.191L98.404 59.9894H91.3418L88.6582 75.4272ZM204.47 61.6452C197.938 97.2486 177.323 120 146.222 120C115.12 120 101.01 94.7472 106.773 59.9894H113.835C113.927 59.4469 114.004 58.9044 114.103 58.3548C120.636 22.7444 141.427 0 172.528 0C203.63 0 217.571 25.2387 211.808 59.9894H204.746C204.654 60.5461 204.569 61.0886 204.47 61.6523V61.6452ZM184.216 59.9894C188.333 37.7453 183.524 25.7178 169.096 25.7178C154.668 25.7178 145.558 37.7453 141.434 59.9894H134.371C134.371 59.9894 134.371 59.9965 134.371 60.0035C130.247 82.2547 135.057 94.2892 149.492 94.2892C163.927 94.2892 173.03 82.2547 177.154 60.0035C177.154 60.0035 177.154 59.9965 177.154 59.9894H184.216ZM287.973 75.4272L290.657 59.9894H297.719L299.506 49.7164H271.667L269.88 59.9894H262.818L260.134 75.4272H234.534L244.838 59.9894H251.9L291.942 0H261.017L221.116 59.9894H214.054L203.785 75.4272L199.315 100.8H255.671L252.232 120H280.064L283.503 100.8H295.53L300 75.4272H287.973Z" fill="#CDCDCD"/>
</svg>
