<svg width="40" height="22" viewBox="0 0 40 22" fill="none" xmlns="http://www.w3.org/2000/svg">
<rect width="40" height="22" rx="10" fill="#EBEBEB"/>
<path d="M11.3157 9.65352L11.9828 11.2626H10.6486L11.3157 9.65352ZM25.2199 9.72236H22.647V10.4366H25.1766V11.5036H22.647V12.2952H25.2199V12.932L27.0132 11.0045L25.2199 8.99094V9.72236ZM32.9734 7.7002L29.9327 11.0131L32.9474 14.3002H28.7632L27.8275 13.2762L26.8573 14.3002H12.234L11.8095 13.2762H10.8306L10.4061 14.3002H7.02747L9.86896 7.7002H12.8317L13.057 7.7088H16.5135L17.2846 9.36956L17.9949 7.7002H26.9612L27.8968 8.72418L28.8584 7.7002H32.9734ZM20.5505 8.63814H18.61L17.3106 11.6757L15.9071 8.63814H13.9839V12.7685L12.1993 8.63814H10.4754L8.41356 13.3709H9.75634L10.1808 12.3469H12.4419L12.8664 13.3709H15.2227V9.98911L16.7388 13.3709H17.7697L19.2771 9.99772V13.3709H20.5419L20.5505 8.63814ZM28.6245 11.0131L30.8163 8.63814H29.2396L27.8535 10.1182L26.5107 8.63814H21.4169V13.3795H26.4414L27.8362 11.8822L29.179 13.3795H30.799L28.6245 11.0131Z" fill="#374957"/>
</svg>
