<svg width="120" height="40" viewBox="0 0 120 40" fill="none" xmlns="http://www.w3.org/2000/svg">
<path d="M110.453 0H9.56711C9.19606 0 8.83504 0 8.47402 0C8.16314 0 7.86228 0 7.55139 0.010005C6.87949 0.030015 6.20759 0.070035 5.54571 0.190095C4.87381 0.310155 4.25205 0.510255 3.64032 0.82041C3.03861 1.13057 2.48706 1.53077 2.01572 2.001C1.53436 2.47124 1.13321 3.02151 0.83236 3.62181C0.521479 4.23212 0.320921 4.85243 0.200581 5.52276C0.0802395 6.18309 0.0401179 6.85343 0.0200611 7.52376C0.0200611 7.83392 0.0100284 8.13407 0 8.44422V31.5658C0 31.8759 4.28505e-06 32.1761 0.0200611 32.4862C0.0401179 33.1566 0.0802395 33.8269 0.200581 34.4872C0.320921 35.1576 0.511451 35.7879 0.83236 36.3882C1.13321 36.9885 1.53436 37.5288 2.01572 37.999C2.48706 38.4792 3.03861 38.8794 3.64032 39.1796C4.25205 39.4897 4.87381 39.6898 5.54571 39.8099C6.20759 39.93 6.88952 39.97 7.55139 39.99C7.86228 39.99 8.16314 40 8.47402 40C8.84507 40 9.20609 40 9.56711 40H110.453C110.814 40 111.175 40 111.536 40C111.837 40 112.158 40 112.459 39.99C113.131 39.97 113.802 39.93 114.464 39.8099C115.136 39.6898 115.758 39.4897 116.38 39.1796C116.981 38.8794 117.523 38.4792 118.004 37.999C118.486 37.5288 118.877 36.9785 119.188 36.3882C119.499 35.7779 119.699 35.1576 119.809 34.4872C119.93 33.8269 119.97 33.1566 120 32.4862C120 32.1761 120 31.8759 120 31.5658C120 31.2056 120 30.8454 120 30.4752V9.54477C120 9.17459 120 8.81441 120 8.45423C120 8.14407 120 7.84392 120 7.53377C119.98 6.86343 119.94 6.1931 119.809 5.53277C119.699 4.86243 119.499 4.24212 119.188 3.63182C118.877 3.03152 118.476 2.48124 118.004 2.01101C117.533 1.54077 116.981 1.14057 116.38 0.830415C115.758 0.52026 115.136 0.32016 114.464 0.2001C113.802 0.08004 113.131 0.04002 112.459 0.02001C112.158 0.02001 111.837 0.010005 111.536 0.010005C111.175 0.010005 110.814 0.010005 110.453 0.010005V0Z" fill="#B7B7B7"/>
<path d="M8.47384 39.1397C8.17299 39.1397 7.87213 39.1397 7.57127 39.1297C7.00968 39.1097 6.34781 39.0797 5.69597 38.9697C5.08423 38.8596 4.54269 38.6795 4.03125 38.4194C3.50977 38.1593 3.03844 37.8091 2.62727 37.3989C2.21611 36.9887 1.87514 36.5284 1.60437 35.9982C1.34363 35.4979 1.16311 34.9477 1.06283 34.3373C0.942487 33.667 0.912404 32.9767 0.892347 32.4564C0.892347 32.2463 0.882324 31.546 0.882324 31.546V8.4444C0.882324 8.4444 0.882319 7.75406 0.892347 7.55396C0.902376 7.0337 0.932459 6.34335 1.06283 5.68302C1.17314 5.07272 1.34363 4.52244 1.60437 4.02219C1.87514 3.50193 2.21611 3.0317 2.62727 2.62149C3.03844 2.21129 3.50977 1.86111 4.03125 1.60098C4.54269 1.34085 5.09425 1.16076 5.68593 1.06071C6.35783 0.94065 7.0498 0.910635 7.57127 0.90063H8.47384L111.536 0.890625H112.448C112.96 0.92064 113.652 0.950655 114.314 1.07072C114.915 1.18077 115.467 1.35086 115.988 1.62099C116.5 1.88112 116.971 2.2313 117.382 2.6415C117.794 3.05171 118.135 3.52194 118.405 4.0422C118.666 4.55246 118.837 5.09273 118.947 5.69303C119.067 6.32334 119.097 6.97367 119.117 7.58397C119.117 7.86411 119.117 8.17427 119.117 8.47442C119.117 8.85461 119.117 9.20478 119.117 9.56496V30.5054C119.117 30.8656 119.117 31.2258 119.117 31.586C119.117 31.9161 119.117 32.2063 119.117 32.5164C119.097 33.1067 119.057 33.7571 118.947 34.3674C118.847 34.9777 118.666 35.5279 118.405 36.0382C118.135 36.5585 117.794 37.0287 117.382 37.4289C116.971 37.8491 116.5 38.1893 115.978 38.4494C115.457 38.7095 114.925 38.8896 114.304 38.9997C113.662 39.1197 113 39.1498 112.428 39.1598C112.138 39.1598 111.827 39.1698 111.526 39.1698H110.443H8.4638L8.47384 39.1397Z" fill="#374957"/>
<path d="M27.8786 23.7518C27.8585 23.8318 27.4273 25.3226 26.3542 26.8433C25.4617 28.184 24.519 29.4846 23.0248 29.5147C21.5707 29.5447 21.0893 28.6642 19.4246 28.6642C17.7599 28.6642 17.2284 29.4946 15.8344 29.5447C14.4104 29.5947 13.3273 28.114 12.3947 26.7933C10.5394 24.0819 9.08531 19.1595 11.0308 15.8078C11.9735 14.167 13.6884 13.1064 15.5135 13.0764C16.9376 13.0464 18.2613 14.0369 19.1338 14.0369C20.0063 14.0369 21.6208 12.8563 23.3056 13.0364C24.0076 13.0564 26.0133 13.3166 27.307 15.1975C27.2067 15.2575 24.9202 16.5982 24.9402 19.3496C24.9703 22.6512 27.8284 23.7418 27.8685 23.7518H27.8786ZM22.2125 11.2555C22.9646 10.3251 23.4761 9.05442 23.3257 7.76378C22.2426 7.8138 20.8888 8.51415 20.1065 9.42461C19.4146 10.225 18.8028 11.5457 18.9633 12.7863C20.1767 12.8763 21.4303 12.176 22.2125 11.2555ZM39.1304 17.1185L34.6377 29.5447H36.6434L37.7866 26.183H42.5301L43.6733 29.5447H45.7191L41.2264 17.1185H39.1405H39.1304ZM38.278 24.6422L40.1333 19.1895H40.1834L42.0387 24.6422H38.278ZM51.6058 20.3901C50.3422 20.3901 49.2291 21.0204 48.7176 21.9909H48.6875V20.4801H46.8824V32.5362H48.7477V28.0539H48.7878C49.3193 29.0644 50.3522 29.6347 51.6459 29.6347C53.9224 29.6347 55.4366 27.8238 55.4366 25.0124C55.4366 22.201 53.9224 20.3901 51.6158 20.3901H51.6058ZM51.1144 28.0639C49.6904 28.0639 48.7276 26.8433 48.7276 25.0124C48.7276 23.1815 49.6904 21.9709 51.1144 21.9709C52.5384 21.9709 53.5112 23.1815 53.5112 25.0124C53.5112 26.8433 52.5585 28.0639 51.1144 28.0639ZM61.5941 20.3901C60.3305 20.3901 59.2174 21.0204 58.7059 21.9909H58.6758V20.4801H56.8707V32.5362H58.736V28.0539H58.7761C59.3076 29.0644 60.3405 29.6347 61.6342 29.6347C63.9107 29.6347 65.4249 27.8238 65.4249 25.0124C65.4249 22.201 63.9107 20.3901 61.6041 20.3901H61.5941ZM61.1027 28.0639C59.6787 28.0639 58.7159 26.8433 58.7159 25.0124C58.7159 23.1815 59.6787 21.9709 61.1027 21.9709C62.5267 21.9709 63.4995 23.1815 63.4995 25.0124C63.4995 26.8433 62.5468 28.0639 61.1027 28.0639ZM79.6753 25.9729C79.6753 28.294 77.8201 29.7548 74.8717 29.7548C72.1139 29.7548 70.2486 28.3341 70.1283 26.0829H72.0337C72.1741 27.3136 73.3674 28.124 75.0121 28.124C76.6568 28.124 77.7097 27.3136 77.7097 26.203C77.7097 25.2425 77.0278 24.6622 75.4132 24.262L73.7987 23.8718C71.5122 23.3216 70.4492 22.251 70.4492 20.5202C70.4492 18.3791 72.3245 16.9083 74.982 16.9083C77.6395 16.9083 79.4146 18.3791 79.4747 20.5202H77.5894C77.4791 19.2795 76.4462 18.5292 74.9519 18.5292C73.4577 18.5292 72.4248 19.2895 72.4248 20.3901C72.4248 21.2705 73.0766 21.7808 74.6812 22.181L76.0551 22.5212C78.6123 23.1215 79.6753 24.152 79.6753 25.9629V25.9729ZM83.6967 20.4901H85.4216V21.9609H83.6967V26.9534C83.6967 27.7338 84.0377 28.0939 84.7998 28.0939C84.9904 28.0939 85.2912 28.0639 85.4116 28.0539V29.5147C85.201 29.5647 84.7898 29.6047 84.3786 29.6047C82.5434 29.6047 81.8214 28.9144 81.8214 27.1635V21.9709H80.4977V20.5001H81.8214V18.3591H83.6967V20.5001V20.4901ZM90.7266 20.3801C88.0992 20.3801 86.4244 22.171 86.4244 25.0224C86.4244 27.8738 88.0891 29.6647 90.7266 29.6647C93.3641 29.6647 95.0288 27.8838 95.0288 25.0224C95.0288 22.161 93.3541 20.3801 90.7266 20.3801ZM90.7266 28.124C89.2123 28.124 88.3198 26.9834 88.3198 25.0124C88.3198 23.0414 89.2123 21.9008 90.7266 21.9008C92.2409 21.9008 93.1335 23.0514 93.1335 25.0124C93.1335 26.9734 92.2309 28.124 90.7266 28.124ZM100.575 20.3901C100.845 20.3901 101.066 20.4301 101.216 20.4601V22.201C101.066 22.141 100.745 22.0909 100.384 22.0909C99.1806 22.0909 98.4385 22.9013 98.4385 24.172V29.5447H96.5732V20.4901H98.3482V22.0309H98.3883C98.6691 21.0104 99.5015 20.3901 100.575 20.3901ZM109.911 25.4826V24.8423C109.911 22.0909 108.326 20.3701 105.819 20.3701C103.312 20.3701 101.617 22.211 101.617 25.0524C101.617 27.8938 103.252 29.6547 105.9 29.6547C107.955 29.6547 109.56 28.5242 109.811 26.8833H108.046C107.795 27.6637 106.983 28.154 105.95 28.154C104.486 28.154 103.503 27.1335 103.503 25.5927V25.4826H109.911ZM105.819 21.8808C107.113 21.8808 108.006 22.7913 108.046 24.182H103.503C103.593 22.8113 104.526 21.8808 105.819 21.8808ZM40.8553 10.7353C40.8553 8.85432 39.8124 7.77378 38.0374 7.77378H35.8712V13.7468H38.0374C39.8224 13.7468 40.8553 12.6462 40.8553 10.7453V10.7353ZM36.8139 12.8963V8.6142H37.9371C39.1806 8.6142 39.9127 9.4046 39.9127 10.7453C39.9127 12.0859 39.1906 12.8963 37.9371 12.8963H36.8139ZM44.0444 9.14447C42.7306 9.14447 41.9183 10.0249 41.9183 11.4856C41.9183 12.9464 42.7306 13.8268 44.0444 13.8268C45.3581 13.8268 46.1704 12.9464 46.1704 11.4856C46.1704 10.0249 45.3581 9.14447 44.0444 9.14447ZM44.0444 13.0364C43.2722 13.0364 42.8309 12.4661 42.8309 11.4856C42.8309 10.5051 43.2621 9.93486 44.0444 9.93486C44.8266 9.93486 45.2578 10.5051 45.2578 11.4856C45.2578 12.4661 44.8166 13.0364 44.0444 13.0364ZM48.0557 13.7368L46.8122 9.23451H47.7148L48.5271 12.6762H48.5973L49.5299 9.23451H50.3823L51.315 12.6762H51.3852L52.1874 9.23451H53.08L51.8364 13.7368H50.9138L49.9812 10.4151H49.911L48.9784 13.7368H48.0658H48.0557ZM57.0613 11.0454C57.0613 10.3251 56.7504 9.96488 56.0885 9.96488C55.4266 9.96488 55.0054 10.4051 55.0054 11.1054V13.7368H54.1129V9.23451H54.9753V9.95487H55.0455C55.2662 9.45462 55.7174 9.15447 56.3894 9.15447C57.3922 9.15447 57.9538 9.75477 57.9538 10.8253V13.7468H57.0613V11.0554V11.0454ZM60.2603 13.7368H59.3678V7.47363H60.2603V13.7368ZM63.6299 9.14447C62.3161 9.14447 61.5038 10.0249 61.5038 11.4856C61.5038 12.9464 62.3161 13.8268 63.6299 13.8268C64.9436 13.8268 65.7559 12.9464 65.7559 11.4856C65.7559 10.0249 64.9436 9.14447 63.6299 9.14447ZM63.6299 13.0364C62.8577 13.0364 62.4164 12.4661 62.4164 11.4856C62.4164 10.5051 62.8477 9.93486 63.6299 9.93486C64.4121 9.93486 64.8433 10.5051 64.8433 11.4856C64.8433 12.4661 64.4021 13.0364 63.6299 13.0364ZM70.4893 13.7368V10.6552C70.4893 9.70475 69.8475 9.14447 68.7143 9.14447C67.6914 9.14447 66.9593 9.64472 66.869 10.4151H67.7315C67.8318 10.0949 68.1727 9.91485 68.6742 9.91485C69.2859 9.91485 69.5968 10.185 69.5968 10.6552V11.0454L68.3733 11.1155C67.3003 11.1855 66.6986 11.6457 66.6986 12.4561C66.6986 13.2665 67.3303 13.8068 68.2028 13.8068C68.7945 13.8068 69.2859 13.5467 69.5566 13.0964H69.6269V13.7268H70.4893V13.7368ZM69.6068 12.0859C69.6068 12.6462 69.1054 13.0664 68.4335 13.0664C67.9521 13.0664 67.6011 12.8263 67.6011 12.4261C67.6011 12.0259 67.8819 11.8158 68.5037 11.7758L69.6068 11.7057V12.0859ZM73.5379 13.8168C74.1597 13.8168 74.6912 13.5267 74.9519 13.0264H75.0221V13.7368H75.8745V7.47363H74.982V9.94487H74.9118C74.6712 9.44462 74.1497 9.15447 73.5279 9.15447C72.3847 9.15447 71.6526 10.0549 71.6526 11.4756C71.6526 12.8963 72.3746 13.8068 73.5279 13.8068L73.5379 13.8168ZM73.7886 9.96488C74.5307 9.96488 75.0021 10.5552 75.0021 11.4956C75.0021 12.4361 74.5408 13.0264 73.7886 13.0264C73.0365 13.0264 72.5852 12.4561 72.5852 11.4956C72.5852 10.5352 73.0465 9.96488 73.7886 9.96488ZM83.8271 11.4856C83.8271 10.0349 83.0148 9.14447 81.701 9.14447C80.3873 9.14447 79.575 10.0249 79.575 11.4856C79.575 12.9464 80.3873 13.8268 81.701 13.8268C83.0148 13.8268 83.8271 12.9464 83.8271 11.4856ZM80.4876 11.4856C80.4876 10.5051 80.9188 9.93486 81.701 9.93486C82.4833 9.93486 82.9145 10.5051 82.9145 11.4856C82.9145 12.4661 82.4732 13.0364 81.701 13.0364C80.9289 13.0364 80.4876 12.4661 80.4876 11.4856ZM86.986 9.96488C86.3242 9.96488 85.903 10.4051 85.903 11.1054V13.7368H85.0104V9.23451H85.8729V9.95487H85.9431C86.1637 9.45462 86.615 9.15447 87.2869 9.15447C88.2897 9.15447 88.8513 9.75477 88.8513 10.8253V13.7468H87.9588V11.0554C87.9588 10.3351 87.6479 9.97488 86.986 9.97488V9.96488ZM93.0031 10.0049H92.2911V9.25452H93.0031V8.11395H93.8956V9.25452H94.8784V10.0049H93.8956V12.3261C93.8956 12.7963 94.0862 13.0064 94.5374 13.0064C94.6778 13.0064 94.748 13.0064 94.8784 12.9864V13.7268C94.738 13.7468 94.5675 13.7768 94.397 13.7768C93.4042 13.7768 93.0131 13.4266 93.0131 12.5562V10.0149L93.0031 10.0049ZM96.9743 13.7368H96.0818V7.47363H96.9643V9.95487H97.0345C97.2551 9.45462 97.7265 9.14447 98.4084 9.14447C99.3711 9.14447 99.9628 9.75477 99.9628 10.8253V13.7368H99.0703V11.0454C99.0703 10.3251 98.7393 9.96488 98.1075 9.96488C97.3755 9.96488 96.9743 10.4251 96.9743 11.1054V13.7368ZM103.212 13.8268C104.245 13.8268 104.967 13.3266 105.168 12.5262H104.305C104.135 12.8763 103.774 13.0764 103.232 13.0764C102.52 13.0764 102.059 12.5762 102.029 11.7858V11.7358H105.218V11.4256C105.218 10.0149 104.456 9.15447 103.202 9.15447C101.948 9.15447 101.116 10.0649 101.116 11.5056C101.116 12.9464 101.908 13.8268 103.202 13.8268H103.212ZM103.202 9.90485C103.864 9.90485 104.295 10.3651 104.315 11.0754H102.039C102.089 10.3751 102.55 9.90485 103.212 9.90485H103.202Z" fill="white"/>
</svg>
