<svg width="120" height="40" viewBox="0 0 120 40" fill="none" xmlns="http://www.w3.org/2000/svg">
<path d="M110.453 0H9.56711C9.19606 0 8.83504 0 8.47402 0C8.16314 0 7.86228 0 7.55139 0.010005C6.87949 0.030015 6.20759 0.070035 5.54571 0.190095C4.87381 0.310155 4.25205 0.510255 3.64032 0.82041C3.03861 1.13057 2.48706 1.53077 2.01572 2.001C1.53436 2.47124 1.13321 3.02151 0.83236 3.62181C0.521479 4.23212 0.320921 4.85243 0.200581 5.52276C0.0802395 6.18309 0.0401179 6.85343 0.0200611 7.52376C0.0200611 7.83392 0.0100284 8.13407 0 8.44422V31.5658C0 31.8759 4.28505e-06 32.1761 0.0200611 32.4862C0.0401179 33.1566 0.0802395 33.8269 0.200581 34.4872C0.320921 35.1576 0.511451 35.7879 0.83236 36.3882C1.13321 36.9885 1.53436 37.5288 2.01572 37.999C2.48706 38.4792 3.03861 38.8794 3.64032 39.1796C4.25205 39.4897 4.87381 39.6898 5.54571 39.8099C6.20759 39.93 6.88952 39.97 7.55139 39.99C7.86228 39.99 8.16314 40 8.47402 40C8.84507 40 9.20609 40 9.56711 40H110.453C110.814 40 111.175 40 111.536 40C111.837 40 112.158 40 112.459 39.99C113.131 39.97 113.802 39.93 114.464 39.8099C115.136 39.6898 115.758 39.4897 116.38 39.1796C116.981 38.8794 117.523 38.4792 118.004 37.999C118.486 37.5288 118.877 36.9785 119.188 36.3882C119.499 35.7779 119.699 35.1576 119.809 34.4872C119.93 33.8269 119.97 33.1566 120 32.4862C120 32.1761 120 31.8759 120 31.5658C120 31.2056 120 30.8454 120 30.4752V9.54477C120 9.17459 120 8.81441 120 8.45423C120 8.14407 120 7.84392 120 7.53377C119.98 6.86343 119.94 6.1931 119.809 5.53277C119.699 4.86243 119.499 4.24212 119.188 3.63182C118.877 3.03152 118.476 2.48124 118.004 2.01101C117.533 1.54077 116.981 1.14057 116.38 0.830415C115.758 0.52026 115.136 0.32016 114.464 0.2001C113.802 0.08004 113.131 0.04002 112.459 0.02001C112.158 0.02001 111.837 0.010005 111.536 0.010005C111.175 0.010005 110.814 0.010005 110.453 0.010005V0Z" fill="#B7B7B7"/>
<path d="M8.47384 39.1397C8.17299 39.1397 7.87213 39.1397 7.57127 39.1297C7.00968 39.1097 6.34781 39.0797 5.69597 38.9697C5.08423 38.8596 4.54269 38.6795 4.03125 38.4194C3.50977 38.1593 3.03844 37.8091 2.62727 37.3989C2.21611 36.9887 1.87514 36.5284 1.60437 35.9982C1.34363 35.4979 1.16311 34.9477 1.06283 34.3373C0.942487 33.667 0.912404 32.9767 0.892347 32.4564C0.892347 32.2463 0.882324 31.546 0.882324 31.546V8.4444C0.882324 8.4444 0.882319 7.75406 0.892347 7.55396C0.902376 7.0337 0.932459 6.34335 1.06283 5.68302C1.17314 5.07272 1.34363 4.52244 1.60437 4.02219C1.87514 3.50193 2.21611 3.0317 2.62727 2.62149C3.03844 2.21129 3.50977 1.86111 4.03125 1.60098C4.54269 1.34085 5.09425 1.16076 5.68593 1.06071C6.35783 0.94065 7.0498 0.910635 7.57127 0.90063H8.47384L111.536 0.890625H112.448C112.96 0.92064 113.652 0.950655 114.314 1.07072C114.915 1.18077 115.467 1.35086 115.988 1.62099C116.5 1.88112 116.971 2.2313 117.382 2.6415C117.794 3.05171 118.135 3.52194 118.405 4.0422C118.666 4.55246 118.837 5.09273 118.947 5.69303C119.067 6.32334 119.097 6.97367 119.117 7.58397C119.117 7.86411 119.117 8.17427 119.117 8.47442C119.117 8.85461 119.117 9.20478 119.117 9.56496V30.5054C119.117 30.8656 119.117 31.2258 119.117 31.586C119.117 31.9161 119.117 32.2063 119.117 32.5164C119.097 33.1067 119.057 33.7571 118.947 34.3674C118.847 34.9777 118.666 35.5279 118.405 36.0382C118.135 36.5585 117.794 37.0287 117.382 37.4289C116.971 37.8491 116.5 38.1893 115.978 38.4494C115.457 38.7095 114.925 38.8896 114.304 38.9997C113.662 39.1197 113 39.1498 112.428 39.1598C112.138 39.1598 111.827 39.1698 111.526 39.1698H110.443H8.4638L8.47384 39.1397Z" fill="#374957"/>
<path d="M27.7778 22.9711C27.7577 23.051 27.3263 24.5402 26.2529 26.0593C25.36 27.3986 24.417 28.6978 22.9222 28.7278C21.4676 28.7578 20.986 27.8783 19.3207 27.8783C17.6553 27.8783 17.1236 28.7078 15.7292 28.7578C14.3046 28.8078 13.2211 27.3286 12.2881 26.0094C10.4322 23.3009 8.97751 18.3836 10.9237 15.0355C11.8668 13.3964 13.5823 12.337 15.4081 12.307C16.8327 12.277 18.1569 13.2665 19.0297 13.2665C19.9025 13.2665 21.5177 12.0872 23.2031 12.267C23.9054 12.287 25.9118 12.5469 27.206 14.4258C27.1056 14.4858 24.8183 15.8251 24.8384 18.5735C24.8685 21.8717 27.7276 22.9611 27.7678 22.9711H27.7778ZM22.1096 10.488C22.862 9.55857 23.3737 8.28928 23.2232 7C22.1397 7.04997 20.7854 7.74958 20.0029 8.65907C19.3106 9.45862 18.6987 10.7779 18.8592 12.0172C20.0731 12.1071 21.3271 11.4075 22.1096 10.488Z" fill="white"/>
<path d="M39.3836 16.6063L34.9019 29.0132H36.9026L38.0431 25.6567H42.7748L43.9153 29.0132H45.956L41.4744 16.6063H39.3936H39.3836ZM38.5333 24.1184L40.3839 18.6741H40.434L42.2847 24.1184H38.5333ZM51.8282 19.8729C50.6478 19.8329 49.5374 20.4522 48.9472 21.4712H48.9171V19.9628H47.1165V32H48.9772V27.5247H49.0172C49.5874 28.5537 50.6878 29.173 51.8682 29.1031C54.1391 29.1031 55.6497 27.295 55.6497 24.488C55.6497 21.6809 54.1391 19.8729 51.8382 19.8729H51.8282ZM51.338 27.5347C49.9175 27.5347 48.9572 26.316 48.9572 24.488C48.9572 22.6599 49.9175 21.4512 51.338 21.4512C52.7586 21.4512 53.7289 22.6599 53.7289 24.488C53.7289 26.316 52.7786 27.5347 51.338 27.5347ZM61.792 19.8729C60.6115 19.8329 59.5011 20.4522 58.9109 21.4712H58.8809V19.9628H57.0802V32H58.9409V27.5247H58.9809C59.5511 28.5537 60.6515 29.173 61.832 29.1031C64.1028 29.1031 65.6134 27.295 65.6134 24.488C65.6134 21.6809 64.1028 19.8729 61.802 19.8729H61.792ZM61.3018 27.5347C59.8812 27.5347 58.9209 26.316 58.9209 24.488C58.9209 22.6599 59.8812 21.4512 61.3018 21.4512C62.7223 21.4512 63.6927 22.6599 63.6927 24.488C63.6927 26.316 62.7423 27.5347 61.3018 27.5347ZM79.8287 25.4469C79.8287 27.7645 77.978 29.2229 75.0369 29.2229C72.2859 29.2229 70.4252 27.8044 70.3051 25.5568H72.2059C72.3459 26.7855 73.5363 27.5947 75.177 27.5947C76.8176 27.5947 77.868 26.7855 77.868 25.6767C77.868 24.7177 77.1877 24.1383 75.5771 23.7388L73.9665 23.3492C71.6857 22.7998 70.6253 21.7309 70.6253 20.0027C70.6253 17.865 72.496 16.3965 75.1469 16.3965C77.7979 16.3965 79.5686 17.865 79.6286 20.0027H77.7479C77.6379 18.764 76.6075 18.0148 75.1169 18.0148C73.6264 18.0148 72.596 18.774 72.596 19.8729C72.596 20.7519 73.2462 21.2614 74.8468 21.661L76.2174 22.0006C78.7683 22.6 79.8287 23.6289 79.8287 25.437V25.4469ZM83.8402 19.9728H85.5609V21.4412H83.8402V26.4259C83.8402 27.2051 84.1803 27.5647 84.9406 27.5647C85.1407 27.5647 85.3508 27.5447 85.5508 27.5247V28.9832C85.2107 29.0431 84.8606 29.0731 84.5205 29.0731C82.6898 29.0731 81.9695 28.3838 81.9695 26.6357V21.4512H80.649V19.9827H81.9695V17.845H83.8402V19.9827V19.9728ZM90.8528 19.8629C88.2318 19.8629 86.5612 21.651 86.5612 24.498C86.5612 27.3449 88.2218 29.133 90.8528 29.133C93.4838 29.133 95.1444 27.3549 95.1444 24.498C95.1444 21.641 93.4738 19.8629 90.8528 19.8629ZM90.8528 27.5947C89.3423 27.5947 88.4519 26.4559 88.4519 24.488C88.4519 22.5201 89.3423 21.3813 90.8528 21.3813C92.3634 21.3813 93.2537 22.53 93.2537 24.488C93.2537 26.4459 92.3534 27.5947 90.8528 27.5947ZM100.677 19.8729C100.887 19.8729 101.107 19.8928 101.317 19.9428V21.6809C101.047 21.601 100.767 21.5611 100.476 21.5711C99.4461 21.5311 98.5657 22.3303 98.5257 23.3692C98.5257 23.469 98.5257 23.559 98.5357 23.6588V29.0232H96.675V19.9827H98.4457V21.5211H98.4857C98.7358 20.5322 99.6461 19.8529 100.667 19.8829L100.677 19.8729ZM109.99 24.9575V24.3181C109.99 21.5711 108.409 19.8529 105.908 19.8529C103.408 19.8529 101.717 21.6909 101.717 24.5279C101.717 27.3649 103.348 29.1231 105.988 29.1231C108.039 29.1231 109.64 27.9942 109.89 26.356H108.129C107.789 27.1951 106.939 27.7145 106.039 27.6246C105.938 27.6246 105.838 27.6246 105.748 27.6246C104.448 27.5148 103.488 26.366 103.608 25.0674V24.9575H110H109.99ZM103.598 23.6389C103.598 22.3702 104.638 21.3513 105.908 21.3613C105.968 21.3613 106.019 21.3613 106.079 21.3613C107.279 21.4312 108.199 22.4501 108.129 23.6588H103.598C103.598 23.6588 103.598 23.6489 103.598 23.6389ZM78.3281 8.18526C78.3482 7.87559 78.6083 7.63584 78.9184 7.65582C79.2185 7.6758 79.4486 7.91555 79.4486 8.21523C79.4486 8.5249 79.2185 8.77463 78.9084 8.78462C78.8884 8.78462 78.8683 8.78462 78.8583 8.78462C78.5482 8.76464 78.3081 8.50492 78.3281 8.19525V8.18526ZM85.1407 9.1842C85.0607 9.1842 84.9906 9.1842 84.9106 9.1842C83.8902 9.29408 83.1399 10.2031 83.25 11.232C83.25 11.6316 83.29 12.0212 83.4 12.4108H82.0295C81.8094 12.4108 81.5994 12.3708 81.3893 12.2909V9.71364H80.4589V13.15C80.4589 13.6495 79.9187 13.7993 79.5286 13.7993H78.9784C78.1981 13.7993 77.0377 13.7993 77.0377 12.5906C77.0977 12.0112 77.2177 11.4418 77.3978 10.8924L77.5178 10.5028L76.6675 10.273C76.3974 11.0223 76.2174 11.8014 76.1273 12.5906C76.1273 14.3487 77.4678 14.6084 78.7383 14.6084H79.3885C81.0392 14.6084 81.3893 13.6894 81.3893 13.2299V13.11C81.5994 13.17 81.8094 13.1999 82.0295 13.2099H84.1703C84.5505 13.3498 84.9406 13.4397 85.3408 13.4796C86.5512 13.4796 86.8613 12.2809 86.8613 11.3919C86.8613 10.1931 86.3812 9.1842 85.1407 9.1842ZM85.2707 12.6705C84.9506 12.6505 84.6305 12.5806 84.3404 12.4507C84.2203 12.0811 84.1603 11.6816 84.1703 11.292C84.1703 10.5428 84.4504 9.95338 85.0807 9.95338C85.7909 9.95338 85.951 10.7925 85.951 11.3719C85.951 11.9513 85.8009 12.6705 85.2607 12.6705H85.2707ZM96.765 15.1679C96.4549 15.1479 96.2148 14.8881 96.2348 14.5785C96.2549 14.2688 96.515 14.0291 96.8251 14.049C97.1252 14.069 97.3553 14.3088 97.3553 14.6084C97.3553 14.9181 97.1252 15.1679 96.8151 15.1778C96.7951 15.1778 96.775 15.1778 96.755 15.1778L96.765 15.1679ZM98.2856 14.0391C98.5857 14.059 98.8158 14.2988 98.8158 14.5985C98.8158 14.9081 98.5857 15.1579 98.2756 15.1679C98.2556 15.1679 98.2356 15.1679 98.2256 15.1679C97.9155 15.1479 97.6754 14.8881 97.6954 14.5785C97.7154 14.2688 97.9755 14.0291 98.2856 14.049V14.0391ZM97.2452 13.2199H95.6346C95.4145 13.2199 95.2045 13.19 94.9944 13.12V13.2399C94.9944 13.6894 94.6442 14.6184 92.9936 14.6184H92.3434C91.0729 14.6184 89.7324 14.3587 89.7324 12.6006C89.8224 11.8114 90.0025 11.0322 90.2726 10.283L91.1229 10.5128L91.0029 10.9024C90.8228 11.4518 90.7028 12.0212 90.6428 12.6006C90.6428 13.8093 91.8032 13.8093 92.5835 13.8093H93.1337C93.5238 13.8093 94.064 13.6495 94.064 13.16V7.34615H94.9944V12.2909C95.1945 12.3808 95.4145 12.4208 95.6346 12.4108H97.2152C97.9555 12.4108 98.1556 12.0911 98.1556 11.5417V9.23415H99.0959V11.6816C99.0959 12.7204 98.4757 13.2199 97.2452 13.2199ZM102.277 13.2199C102.287 13.8093 102.077 14.3887 101.677 14.8282C101.257 15.1778 100.717 15.3676 100.156 15.3377C99.9562 15.3377 99.7562 15.3177 99.5661 15.2977L99.7962 14.5185C99.9262 14.5385 100.066 14.5385 100.196 14.5485C100.967 14.5485 101.347 14.109 101.347 13.2099V9.71364H102.287V12.4208H103.748C104.458 12.4208 104.598 12.3109 104.598 11.7814V9.23415H105.528V12.2609C105.748 12.3708 105.988 12.4208 106.239 12.4208H107.169C107.909 12.4208 108.109 12.1011 108.109 11.5517V9.23415H109.05V11.6816C109.05 12.7204 108.429 13.2199 107.199 13.2199H106.229C105.848 13.2099 105.488 13.11 105.158 12.9202C104.708 13.16 104.198 13.2599 103.688 13.2199H102.267H102.277ZM101.237 8.27516C101.257 7.96549 101.517 7.72575 101.827 7.74573C102.127 7.7657 102.357 8.00545 102.357 8.30513C102.357 8.60481 102.127 8.86454 101.817 8.87453C101.797 8.87453 101.777 8.87453 101.757 8.87453C101.447 8.85455 101.207 8.59482 101.227 8.28515L101.237 8.27516ZM104.498 7.7657C104.518 7.45603 104.778 7.21629 105.088 7.23627C105.388 7.25624 105.618 7.49599 105.618 7.79567C105.618 8.09535 105.388 8.35508 105.078 8.36507C105.058 8.36507 105.038 8.36507 105.018 8.36507C104.708 8.34509 104.468 8.08537 104.488 7.77569L104.498 7.7657ZM107.139 7.7657C107.159 7.45603 107.419 7.21629 107.729 7.23627C108.029 7.25624 108.259 7.49599 108.259 7.79567C108.259 8.09535 108.029 8.35508 107.719 8.36507C107.699 8.36507 107.679 8.36507 107.659 8.36507C107.349 8.34509 107.109 8.08537 107.129 7.77569L107.139 7.7657ZM108.599 7.7657C108.619 7.45603 108.88 7.21629 109.19 7.23627C109.49 7.25624 109.72 7.49599 109.72 7.79567C109.72 8.09535 109.49 8.35508 109.18 8.36507C109.16 8.36507 109.14 8.36507 109.12 8.36507C108.81 8.34509 108.569 8.08537 108.589 7.77569L108.599 7.7657Z" fill="white"/>
</svg>
