<svg width="40" height="22" viewBox="0 0 40 22" fill="none" xmlns="http://www.w3.org/2000/svg">
<rect width="40" height="22" rx="10" fill="#EBEBEB"/>
<path d="M14.2353 13.0863C14.2353 13.0863 14.0644 13.7071 13.6341 14.3344C13.267 14.8905 12.881 15.4079 12.2735 15.4273C11.6723 15.4467 11.4761 15.0845 10.8053 15.0845C10.1345 15.0845 9.91935 15.4273 9.36246 15.4531C8.78025 15.4725 8.32461 14.8711 7.95757 14.3344C7.18551 13.235 6.62229 11.2368 7.40068 9.88522C7.78671 9.19974 8.47649 8.79234 9.23589 8.76647C9.8181 8.76647 10.356 9.15448 10.7041 9.15448C11.0521 9.15448 11.6723 8.7018 12.4064 8.74707C12.6848 8.76647 13.5075 8.85054 14.0011 9.62655C13.9568 9.64595 13.0329 10.1827 13.0519 11.3014C13.0519 12.6336 14.2163 13.0604 14.2353 13.0863ZM12.4 6.6001C11.9507 6.6195 11.4065 6.89757 11.0838 7.26618C10.8053 7.58952 10.5459 8.12626 10.6091 8.61773C11.1281 8.6824 11.6217 8.40433 11.9444 8.01632C12.2482 7.62832 12.4633 7.11744 12.3937 6.6001H12.4ZM30.17 14.2891H30.151L28.6385 9.45842H27.3222L29.4802 15.382C29.4802 15.382 29.3726 15.7247 29.3726 15.7506C29.1764 16.352 28.879 16.5848 28.3158 16.5848C28.2272 16.5848 28.012 16.5848 27.9297 16.5654V17.5548C28.0373 17.5742 28.3411 17.5742 28.4234 17.6001C29.651 17.6001 30.2332 17.1474 30.7522 15.7118L32.9734 9.46488H31.6824L30.17 14.2956V14.2891ZM26.8476 11.282V15.3626H25.6832V14.399H25.6642C25.3225 15.0651 24.5631 15.4725 23.791 15.4725C22.5823 15.4725 21.766 14.7418 21.766 13.6877C21.766 12.6336 22.5633 12.0128 23.9872 11.9287L25.6262 11.8447V11.392C25.6262 10.7259 25.1706 10.3379 24.4428 10.3379C23.7151 10.3379 23.2974 10.6806 23.1898 11.198H22.0254C22.0887 10.1245 23.019 9.32908 24.4871 9.32908C25.9553 9.32908 26.8603 10.0792 26.8603 11.282H26.8476ZM25.6199 12.6789L24.1517 12.7629C23.4177 12.8082 23.0063 13.1315 23.0063 13.6424C23.0063 14.1533 23.4366 14.5025 24.0821 14.5025C24.9428 14.5025 25.6136 13.9205 25.6136 13.1509V12.6789H25.6199ZM21.4369 9.88522C21.4369 11.4761 20.3168 12.5689 18.6967 12.5689H16.9501V15.3367H15.6781V7.22091H18.741C20.3358 7.22091 21.4369 8.3138 21.4369 9.88522ZM20.1206 9.90462C20.1206 8.87641 19.4941 8.29439 18.393 8.29439H16.9248V11.5149H18.393C19.4941 11.5149 20.1206 10.9134 20.1206 9.90462Z" fill="#374957"/>
</svg>
