<svg width="177" height="36" viewBox="0 0 177 36" fill="none" xmlns="http://www.w3.org/2000/svg">
<rect y="6" width="177" height="30" rx="5" fill="white"/>
<path d="M53.9646 25C53.2686 25 52.7246 24.896 52.3326 24.688C51.9486 24.472 51.6766 24.144 51.5166 23.704C51.3646 23.256 51.2886 22.688 51.2886 22C51.2886 21.312 51.3646 20.748 51.5166 20.308C51.6766 19.86 51.9486 19.532 52.3326 19.324C52.7246 19.108 53.2686 19 53.9646 19H56.4486V24.52H55.5126V19.444L55.9926 19.852H53.9646C53.5006 19.852 53.1406 19.908 52.8846 20.02C52.6366 20.132 52.4646 20.344 52.3686 20.656C52.2726 20.96 52.2246 21.408 52.2246 22C52.2246 22.592 52.2726 23.044 52.3686 23.356C52.4646 23.66 52.6366 23.868 52.8846 23.98C53.1406 24.092 53.5006 24.148 53.9646 24.148H57.7446V25H53.9646ZM57.7446 25V24.148C57.7926 24.148 57.8326 24.16 57.8646 24.184C57.8966 24.2 57.9206 24.228 57.9366 24.268C57.9526 24.3 57.9646 24.344 57.9726 24.4C57.9806 24.448 57.9846 24.504 57.9846 24.568C57.9846 24.632 57.9806 24.692 57.9726 24.748C57.9646 24.804 57.9526 24.852 57.9366 24.892C57.9206 24.924 57.8966 24.952 57.8646 24.976C57.8326 24.992 57.7926 25 57.7446 25ZM52.8006 17.92V16.84H53.7366V17.92H52.8006ZM54.4446 17.92V16.84H55.3806V17.92H54.4446ZM60.1341 25V24.148H61.4301V25H60.1341ZM57.7461 25C57.6981 25 57.6581 24.992 57.6261 24.976C57.5941 24.952 57.5701 24.924 57.5541 24.892C57.5381 24.852 57.5261 24.804 57.5181 24.748C57.5101 24.692 57.5061 24.632 57.5061 24.568C57.5061 24.48 57.5141 24.408 57.5301 24.352C57.5381 24.288 57.5621 24.24 57.6021 24.208C57.6341 24.168 57.6821 24.148 57.7461 24.148V25ZM59.1981 25V16.396H60.1341V25H59.1981ZM57.7461 25V24.148H59.1981V25H57.7461ZM61.4301 25V24.148C61.4781 24.148 61.5181 24.16 61.5501 24.184C61.5821 24.2 61.6061 24.228 61.6221 24.268C61.6381 24.3 61.6501 24.344 61.6581 24.4C61.6661 24.448 61.6701 24.504 61.6701 24.568C61.6701 24.632 61.6661 24.692 61.6581 24.748C61.6501 24.804 61.6381 24.852 61.6221 24.892C61.6061 24.924 61.5821 24.952 61.5501 24.976C61.5181 24.992 61.4781 25 61.4301 25ZM61.4258 25V24.148H67.9898L67.2938 24.64V22.06C67.2938 21.5 67.2298 21.06 67.1018 20.74C66.9738 20.42 66.7538 20.192 66.4418 20.056C66.1378 19.92 65.7218 19.852 65.1938 19.852C64.8578 19.852 64.5218 19.876 64.1858 19.924C63.8578 19.972 63.6018 20.036 63.4178 20.116L63.9818 19.54C63.9338 19.732 63.8858 19.976 63.8378 20.272C63.7898 20.56 63.7498 20.872 63.7178 21.208C63.6858 21.544 63.6698 21.88 63.6698 22.216C63.6698 22.56 63.6858 22.896 63.7178 23.224C63.7498 23.552 63.7858 23.836 63.8258 24.076C63.8658 24.316 63.8978 24.484 63.9218 24.58L63.0338 24.832C63.0018 24.728 62.9618 24.548 62.9138 24.292C62.8738 24.036 62.8338 23.728 62.7938 23.368C62.7618 23.008 62.7458 22.624 62.7458 22.216C62.7458 21.824 62.7618 21.444 62.7938 21.076C62.8338 20.7 62.8778 20.36 62.9258 20.056C62.9818 19.752 63.0338 19.508 63.0818 19.324C63.2578 19.252 63.5378 19.18 63.9218 19.108C64.3058 19.036 64.7298 19 65.1938 19C65.8658 19 66.4258 19.1 66.8738 19.3C67.3298 19.5 67.6698 19.824 67.8938 20.272C68.1178 20.712 68.2298 21.308 68.2298 22.06V25H61.4258ZM61.4258 25C61.3778 25 61.3378 24.992 61.3058 24.976C61.2738 24.952 61.2498 24.924 61.2338 24.892C61.2178 24.852 61.2058 24.804 61.1978 24.748C61.1898 24.692 61.1858 24.632 61.1858 24.568C61.1858 24.48 61.1938 24.408 61.2098 24.352C61.2178 24.288 61.2418 24.24 61.2818 24.208C61.3138 24.168 61.3618 24.148 61.4258 24.148V25ZM71.201 25V24.148H72.665V25H71.201ZM70.277 25V16.396H71.201V25H70.277ZM72.665 25V24.148C72.713 24.148 72.753 24.16 72.785 24.184C72.817 24.2 72.841 24.228 72.857 24.268C72.873 24.3 72.885 24.344 72.893 24.4C72.901 24.448 72.905 24.504 72.905 24.568C72.905 24.632 72.901 24.692 72.893 24.748C72.885 24.804 72.873 24.852 72.857 24.892C72.841 24.924 72.817 24.952 72.785 24.976C72.753 24.992 72.713 25 72.665 25ZM81.6881 25V24.148H82.9841V25H81.6881ZM72.6641 25C72.6161 25 72.5761 24.992 72.5441 24.976C72.5121 24.952 72.4881 24.924 72.4721 24.892C72.4561 24.852 72.4441 24.804 72.4361 24.748C72.4281 24.692 72.4241 24.632 72.4241 24.568C72.4241 24.48 72.4321 24.408 72.4481 24.352C72.4561 24.288 72.4801 24.24 72.5201 24.208C72.5521 24.168 72.6001 24.148 72.6641 24.148V25ZM78.9761 25C78.7041 25 78.4361 24.948 78.1721 24.844C77.9161 24.74 77.6681 24.576 77.4281 24.352L78.0401 23.716C78.2241 23.868 78.3881 23.98 78.5321 24.052C78.6761 24.116 78.8241 24.148 78.9761 24.148H81.1121L80.7521 24.532V21.664C80.7521 21.52 80.7361 21.316 80.7041 21.052C80.6801 20.788 80.6401 20.492 80.5841 20.164C80.5361 19.828 80.4761 19.492 80.4041 19.156L81.3161 19C81.3721 19.28 81.4281 19.592 81.4841 19.936C81.5401 20.28 81.5881 20.608 81.6281 20.92C81.6681 21.224 81.6881 21.472 81.6881 21.664V25H78.9761ZM72.6641 25V24.148H74.4161L74.1761 24.388V20.2H75.1001V25H72.6641ZM75.1001 25V24.148H76.4561C76.7281 24.148 76.9321 24.108 77.0681 24.028C77.2121 23.948 77.3121 23.788 77.3681 23.548C77.4241 23.308 77.4521 22.956 77.4521 22.492V19.6H78.3881V22.492C78.3881 23.116 78.3201 23.612 78.1841 23.98C78.0561 24.348 77.8521 24.612 77.5721 24.772C77.2921 24.924 76.9201 25 76.4561 25H75.1001ZM82.9841 25V24.148C83.0321 24.148 83.0721 24.16 83.1041 24.184C83.1361 24.2 83.1601 24.228 83.1761 24.268C83.1921 24.3 83.2041 24.344 83.2121 24.4C83.2201 24.448 83.2241 24.504 83.2241 24.568C83.2241 24.632 83.2201 24.692 83.2121 24.748C83.2041 24.804 83.1921 24.852 83.1761 24.892C83.1601 24.924 83.1361 24.952 83.1041 24.976C83.0721 24.992 83.0321 25 82.9841 25ZM77.4881 16.336V15.316H78.3521V16.336H77.4881ZM76.6241 17.92V16.84H77.5601V17.92H76.6241ZM78.2681 17.92V16.84H79.2041V17.92H78.2681ZM84.4403 25V16.396H85.3763V25H84.4403ZM82.9883 25V24.148H84.4403V25H82.9883ZM82.9883 25C82.9403 25 82.9003 24.992 82.8683 24.976C82.8363 24.952 82.8123 24.924 82.7963 24.892C82.7803 24.852 82.7683 24.804 82.7603 24.748C82.7523 24.692 82.7483 24.632 82.7483 24.568C82.7483 24.48 82.7563 24.408 82.7723 24.352C82.7803 24.288 82.8043 24.24 82.8443 24.208C82.8763 24.168 82.9243 24.148 82.9883 24.148V25ZM87.445 25V16.396H88.369V25H87.445Z" fill="#374957"/>
<path d="M96.2563 27.976C95.5603 27.976 94.9363 27.848 94.3843 27.592C93.8403 27.344 93.4123 26.996 93.1003 26.548C92.7883 26.1 92.6323 25.592 92.6323 25.024C92.6323 24.864 92.6443 24.652 92.6683 24.388C92.6923 24.124 92.7243 23.828 92.7643 23.5C92.8123 23.172 92.8603 22.84 92.9083 22.504C92.9643 22.16 93.0163 21.828 93.0643 21.508L94.6483 21.724C94.5603 22.26 94.4843 22.752 94.4203 23.2C94.3643 23.64 94.3203 24.016 94.2883 24.328C94.2563 24.64 94.2403 24.868 94.2403 25.012C94.2403 25.332 94.3203 25.608 94.4803 25.84C94.6403 26.072 94.8683 26.252 95.1643 26.38C95.4683 26.516 95.8323 26.584 96.2563 26.584C96.6963 26.584 97.0523 26.52 97.3243 26.392C97.5963 26.264 97.7923 26.088 97.9123 25.864C98.0403 25.64 98.1043 25.388 98.1043 25.108V18.976H99.7123V25.108C99.7123 25.684 99.5603 26.188 99.2563 26.62C98.9603 27.052 98.5523 27.384 98.0323 27.616C97.5123 27.856 96.9203 27.976 96.2563 27.976ZM99.6883 25L99.7123 23.608H105.664L104.308 24.784V22.264C104.308 21.808 104.244 21.444 104.116 21.172C103.996 20.892 103.824 20.688 103.6 20.56C103.376 20.432 103.104 20.368 102.784 20.368C102.44 20.368 102.112 20.436 101.8 20.572C101.496 20.708 101.212 20.884 100.948 21.1C100.684 21.316 100.44 21.548 100.216 21.796C99.9923 22.044 99.7923 22.284 99.6163 22.516C99.4403 22.74 99.2883 22.932 99.1603 23.092L98.7883 21.928C99.1003 21.552 99.3803 21.208 99.6283 20.896C99.8843 20.584 100.124 20.308 100.348 20.068C100.58 19.828 100.82 19.628 101.068 19.468C101.316 19.308 101.592 19.188 101.896 19.108C102.2 19.02 102.552 18.976 102.952 18.976C103.48 18.976 103.932 19.068 104.308 19.252C104.684 19.428 104.988 19.672 105.22 19.984C105.46 20.296 105.632 20.648 105.736 21.04C105.848 21.432 105.904 21.84 105.904 22.264V25H99.6883ZM101.344 17.884V16.516H102.952V17.884H101.344ZM109.67 27.976C109.374 27.976 109.062 27.952 108.734 27.904C108.414 27.864 108.07 27.808 107.702 27.736L107.942 26.452C108.342 26.5 108.682 26.536 108.962 26.56C109.242 26.584 109.478 26.596 109.67 26.596C110.246 26.596 110.662 26.492 110.918 26.284C111.174 26.076 111.302 25.764 111.302 25.348V20.08L111.698 20.368H110.198C109.87 20.368 109.606 20.408 109.406 20.488C109.206 20.56 109.058 20.716 108.962 20.956C108.874 21.188 108.83 21.544 108.83 22.024C108.83 22.48 108.87 22.824 108.95 23.056C109.038 23.28 109.182 23.428 109.382 23.5C109.582 23.572 109.854 23.608 110.198 23.608H111.302V25H110.198C109.518 25 108.958 24.892 108.518 24.676C108.078 24.46 107.75 24.132 107.534 23.692C107.326 23.252 107.222 22.696 107.222 22.024C107.222 21.352 107.326 20.792 107.534 20.344C107.75 19.888 108.078 19.548 108.518 19.324C108.958 19.092 109.518 18.976 110.198 18.976H112.91V25.348C112.91 25.892 112.774 26.36 112.502 26.752C112.238 27.152 111.862 27.456 111.374 27.664C110.894 27.872 110.326 27.976 109.67 27.976ZM116.522 25V23.608H118.07V25H116.522ZM114.194 27.976C114.09 27.976 113.978 27.972 113.858 27.964C113.738 27.956 113.614 27.944 113.486 27.928L113.546 26.56C113.674 26.568 113.794 26.576 113.906 26.584C114.026 26.592 114.114 26.596 114.17 26.596C114.482 26.596 114.73 26.472 114.914 26.224C115.106 25.976 115.202 25.628 115.202 25.18V18.976H116.81V25.18C116.81 25.724 116.698 26.208 116.474 26.632C116.258 27.056 115.954 27.384 115.562 27.616C115.17 27.856 114.714 27.976 114.194 27.976ZM118.07 25V23.608C118.118 23.608 118.154 23.624 118.178 23.656C118.21 23.688 118.234 23.736 118.25 23.8C118.274 23.864 118.29 23.94 118.298 24.028C118.306 24.108 118.31 24.2 118.31 24.304C118.31 24.408 118.306 24.504 118.298 24.592C118.29 24.68 118.274 24.756 118.25 24.82C118.234 24.876 118.21 24.92 118.178 24.952C118.154 24.984 118.118 25 118.07 25ZM118.074 25V23.608H120.618C120.962 23.608 121.294 23.544 121.614 23.416C121.934 23.28 122.226 23.104 122.49 22.888C122.762 22.664 122.998 22.42 123.198 22.156C123.406 21.884 123.566 21.608 123.678 21.328C123.798 21.048 123.858 20.784 123.858 20.536V19.768L124.626 21.04C124.21 20.816 123.786 20.648 123.354 20.536C122.922 20.424 122.51 20.368 122.118 20.368C121.734 20.368 121.322 20.424 120.882 20.536C120.45 20.648 120.03 20.816 119.622 21.04L120.39 19.768V20.536C120.39 20.784 120.446 21.048 120.558 21.328C120.678 21.608 120.838 21.884 121.038 22.156C121.238 22.42 121.474 22.664 121.746 22.888C122.018 23.104 122.314 23.28 122.634 23.416C122.954 23.544 123.282 23.608 123.618 23.608H126.09V25H124.122C123.498 25 122.914 24.9 122.37 24.7C121.826 24.5 121.334 24.236 120.894 23.908C120.454 23.572 120.074 23.208 119.754 22.816C119.442 22.416 119.202 22.02 119.034 21.628C118.866 21.228 118.782 20.864 118.782 20.536V19.852C119.126 19.66 119.49 19.5 119.874 19.372C120.266 19.244 120.654 19.148 121.038 19.084C121.43 19.012 121.79 18.976 122.118 18.976C122.454 18.976 122.814 19.012 123.198 19.084C123.582 19.148 123.966 19.244 124.35 19.372C124.742 19.5 125.11 19.66 125.454 19.852V20.536C125.454 20.864 125.37 21.228 125.202 21.628C125.034 22.02 124.79 22.416 124.47 22.816C124.158 23.208 123.782 23.572 123.342 23.908C122.902 24.236 122.41 24.5 121.866 24.7C121.322 24.9 120.738 25 120.114 25H118.074ZM118.074 25C118.026 25 117.99 24.984 117.966 24.952C117.934 24.92 117.91 24.876 117.894 24.82C117.87 24.756 117.854 24.68 117.846 24.592C117.838 24.504 117.834 24.408 117.834 24.304C117.834 24.16 117.842 24.04 117.858 23.944C117.874 23.84 117.902 23.76 117.942 23.704C117.974 23.64 118.018 23.608 118.074 23.608V25ZM126.09 25V23.608C126.138 23.608 126.178 23.624 126.21 23.656C126.242 23.688 126.266 23.736 126.282 23.8C126.298 23.864 126.31 23.94 126.318 24.028C126.326 24.108 126.33 24.2 126.33 24.304C126.33 24.408 126.326 24.504 126.318 24.592C126.31 24.68 126.298 24.756 126.282 24.82C126.266 24.876 126.242 24.92 126.21 24.952C126.178 24.984 126.138 25 126.09 25ZM127.446 25V16.516H129.054V25H127.446ZM126.09 25V23.608H127.446V25H126.09ZM126.09 25C126.042 25 126.006 24.984 125.982 24.952C125.95 24.92 125.926 24.876 125.91 24.82C125.886 24.756 125.87 24.68 125.862 24.592C125.854 24.504 125.85 24.408 125.85 24.304C125.85 24.16 125.858 24.04 125.874 23.944C125.89 23.84 125.918 23.76 125.958 23.704C125.99 23.64 126.034 23.608 126.09 23.608V25ZM130.978 25V16.516H132.574V25H130.978ZM143.833 25V23.608H145.093V25H143.833ZM140.377 27.976C139.681 27.976 139.057 27.848 138.505 27.592C137.961 27.344 137.533 26.996 137.221 26.548C136.909 26.1 136.753 25.592 136.753 25.024C136.753 24.864 136.765 24.652 136.789 24.388C136.813 24.124 136.845 23.828 136.885 23.5C136.933 23.172 136.981 22.84 137.029 22.504C137.085 22.16 137.137 21.828 137.185 21.508L138.769 21.724C138.681 22.26 138.605 22.752 138.541 23.2C138.485 23.64 138.441 24.016 138.409 24.328C138.377 24.64 138.361 24.868 138.361 25.012C138.361 25.332 138.441 25.608 138.601 25.84C138.761 26.072 138.989 26.252 139.285 26.38C139.589 26.516 139.953 26.584 140.377 26.584C140.817 26.584 141.173 26.52 141.445 26.392C141.717 26.264 141.913 26.088 142.033 25.864C142.161 25.64 142.225 25.388 142.225 25.108V16.516H143.833V25.108C143.833 25.684 143.681 26.188 143.377 26.62C143.081 27.052 142.673 27.384 142.153 27.616C141.633 27.856 141.041 27.976 140.377 27.976ZM145.093 25V23.608C145.141 23.608 145.177 23.624 145.201 23.656C145.233 23.688 145.257 23.736 145.273 23.8C145.297 23.864 145.313 23.94 145.321 24.028C145.329 24.108 145.333 24.2 145.333 24.304C145.333 24.408 145.329 24.504 145.321 24.592C145.313 24.68 145.297 24.756 145.273 24.82C145.257 24.876 145.233 24.92 145.201 24.952C145.177 24.984 145.141 25 145.093 25ZM154.422 25V23.608H155.682V25H154.422ZM145.098 25C145.05 25 145.014 24.984 144.99 24.952C144.958 24.92 144.934 24.876 144.918 24.82C144.894 24.756 144.878 24.68 144.87 24.592C144.862 24.504 144.858 24.408 144.858 24.304C144.858 24.16 144.866 24.04 144.882 23.944C144.898 23.84 144.926 23.76 144.966 23.704C144.998 23.64 145.042 23.608 145.098 23.608V25ZM145.098 25V23.608H154.17L152.814 24.784V22.264C152.814 21.808 152.754 21.444 152.634 21.172C152.514 20.892 152.338 20.688 152.106 20.56C151.882 20.432 151.61 20.368 151.29 20.368C150.946 20.368 150.618 20.436 150.306 20.572C150.002 20.708 149.718 20.884 149.454 21.1C149.19 21.316 148.946 21.548 148.722 21.796C148.498 22.044 148.298 22.284 148.122 22.516C147.946 22.74 147.794 22.932 147.666 23.092L147.306 21.928C147.618 21.552 147.898 21.208 148.146 20.896C148.394 20.584 148.63 20.308 148.854 20.068C149.086 19.828 149.326 19.628 149.574 19.468C149.83 19.308 150.106 19.188 150.402 19.108C150.706 19.02 151.058 18.976 151.458 18.976C151.994 18.976 152.45 19.068 152.826 19.252C153.202 19.428 153.506 19.672 153.738 19.984C153.978 20.296 154.15 20.648 154.254 21.04C154.366 21.432 154.422 21.84 154.422 22.264V25H145.098ZM146.61 23.608V18.976H148.218V23.608H146.61ZM155.682 25V23.608C155.73 23.608 155.766 23.624 155.79 23.656C155.822 23.688 155.846 23.736 155.862 23.8C155.886 23.864 155.902 23.94 155.91 24.028C155.918 24.108 155.922 24.2 155.922 24.304C155.922 24.408 155.918 24.504 155.91 24.592C155.902 24.68 155.886 24.756 155.862 24.82C155.846 24.876 155.822 24.92 155.79 24.952C155.766 24.984 155.73 25 155.682 25ZM149.85 17.884V16.516H151.458V17.884H149.85ZM155.68 25V23.608H161.284L160.792 24.028V20.02L161.2 20.368H159.688C159.336 20.368 159.06 20.412 158.86 20.5C158.66 20.588 158.52 20.752 158.44 20.992C158.36 21.224 158.32 21.556 158.32 21.988C158.32 22.46 158.36 22.812 158.44 23.044C158.52 23.268 158.66 23.42 158.86 23.5C159.06 23.572 159.336 23.608 159.688 23.608V24.856C159.008 24.856 158.448 24.76 158.008 24.568C157.568 24.376 157.24 24.072 157.024 23.656C156.816 23.232 156.712 22.676 156.712 21.988C156.712 21.332 156.816 20.78 157.024 20.332C157.24 19.884 157.568 19.548 158.008 19.324C158.448 19.092 159.008 18.976 159.688 18.976H162.4V25H155.68ZM155.68 25C155.632 25 155.596 24.984 155.572 24.952C155.54 24.92 155.516 24.876 155.5 24.82C155.476 24.756 155.46 24.68 155.452 24.592C155.444 24.504 155.44 24.408 155.44 24.304C155.44 24.16 155.448 24.04 155.464 23.944C155.48 23.84 155.508 23.76 155.548 23.704C155.58 23.64 155.624 23.608 155.68 23.608V25ZM159.052 17.872V16.504H160.66V17.872H159.052ZM164.318 25V16.516H165.914V25H164.318ZM164.39 15.556C164.238 15.372 164.122 15.196 164.042 15.028C163.962 14.86 163.922 14.68 163.922 14.488C163.922 14.216 163.994 13.972 164.138 13.756C164.282 13.532 164.47 13.36 164.702 13.24C164.934 13.112 165.19 13.048 165.47 13.048C165.622 13.048 165.778 13.068 165.938 13.108C166.098 13.148 166.234 13.208 166.346 13.288L165.938 14.02C165.866 13.98 165.794 13.956 165.722 13.948C165.658 13.932 165.59 13.924 165.518 13.924C165.326 13.924 165.178 13.976 165.074 14.08C164.97 14.176 164.918 14.308 164.918 14.476C164.918 14.572 164.938 14.664 164.978 14.752C165.018 14.84 165.078 14.936 165.158 15.04L164.39 15.556ZM163.658 15.652V14.776H166.562V15.652H163.658Z" fill="#6543F5"/>
<path d="M38.892 11.8545C38.3626 11.3443 37.8332 10.8341 37.2939 10.3439C36.7844 9.8737 36.4348 9.24343 36.295 8.56315C36.1352 7.83285 35.9654 7.10254 35.7956 6.38224C35.6557 5.71196 35.3061 5.10171 34.7867 4.64152C34.2673 4.19133 33.618 3.92122 32.9388 3.8712C32.1897 3.81117 31.4405 3.76115 30.6914 3.74114C29.9522 3.73114 29.243 3.47103 28.6737 3.01084C28.1143 2.57065 27.545 2.15048 26.9756 1.7203C26.4163 1.2501 25.7171 1 24.9879 1C24.2587 1 23.5595 1.26011 23.0002 1.7203C22.4108 2.17049 21.8215 2.62068 21.2322 3.07086C20.7527 3.45102 20.1734 3.67111 19.5641 3.72113C18.795 3.77115 18.0258 3.82118 17.2567 3.85119C16.5375 3.85119 15.8284 4.1113 15.269 4.57149C14.7096 5.03168 14.3301 5.67195 14.1802 6.38224C14.0104 7.10254 13.8406 7.81284 13.6808 8.53314C13.541 9.24343 13.1814 9.8837 12.652 10.3639C12.1226 10.8541 11.6032 11.3543 11.0838 11.8545C10.5344 12.3347 10.1748 12.985 10.0449 13.7053C9.92509 14.4256 10.0449 15.1659 10.4045 15.7962C10.7342 16.4564 11.0538 17.1167 11.3934 17.767C11.723 18.4173 11.8429 19.1576 11.733 19.8779C11.6231 20.7182 11.5333 21.5686 11.4434 22.3789C11.4234 23.0192 11.6032 23.6494 11.9528 24.1897C12.3024 24.7299 12.8018 25.1501 13.3911 25.4002C14.0604 25.7103 14.7396 26.0004 15.4288 26.2805C16.098 26.5506 16.6574 27.0208 17.027 27.6311C17.4465 28.3114 17.866 28.9917 18.3355 29.6319C18.6551 30.1421 19.1346 30.5423 19.6939 30.7724C20.2533 31.0025 20.8726 31.0525 21.4619 30.9125C22.311 30.7324 23.14 30.4423 23.979 30.1822C24.6183 29.9721 25.2975 29.9621 25.9468 30.1622C26.656 30.3822 27.3552 30.5923 28.0644 30.8124C28.7436 31.0625 29.5027 31.0625 30.182 30.8124C30.8712 30.5623 31.4405 30.0821 31.8101 29.4519C32.2097 28.8416 32.6092 28.2414 32.9888 27.6211C33.3583 27.0208 33.9077 26.5607 34.557 26.2905C35.2961 25.9804 36.0353 25.6703 36.7545 25.3201C37.3538 25.04 37.8532 24.5698 38.1729 23.9896C38.4925 23.4093 38.6223 22.7391 38.5424 22.0788C38.4825 21.4785 38.4226 20.8783 38.3227 20.288C38.1129 19.2776 38.2827 18.2272 38.8121 17.3368C39.1018 16.8366 39.3415 16.3064 39.5912 15.7862C39.9508 15.1459 40.0807 14.4056 39.9508 13.6853C39.831 12.965 39.4614 12.3047 38.912 11.8245L38.892 11.8545Z" fill="white" stroke="#374957" stroke-width="0.5" stroke-linecap="round" stroke-linejoin="round"/>
<path d="M24.4766 8.09961C26.3743 8.09961 27.9661 8.57937 29.1768 9.51367L29.1777 9.51465C30.3547 10.4157 31.1594 11.7451 31.5381 13.4609L31.5557 13.5391H32.5518C32.9145 13.5391 33.2193 13.7029 33.4697 14.0479V14.0488L33.4727 14.0518C33.7221 14.3642 33.8496 14.775 33.8496 15.2578V15.9043L33.5234 15.5566L33.5244 15.5557L33.5166 15.5498L33.4004 15.4619C33.2793 15.385 33.1426 15.3408 32.9844 15.3408H31.8184V16.6592H32.585C32.9477 16.6592 33.2525 16.8229 33.5029 17.168L33.5332 17.21H33.5488C33.7812 17.5328 33.9004 17.9154 33.9004 18.3779V19.0439L33.626 18.7285H33.627L33.6172 18.7207L33.4814 18.6123C33.3421 18.5167 33.1919 18.4609 33.0176 18.4609H31.6221L31.6045 18.5391C31.2493 20.1484 30.5491 21.4031 29.4932 22.3096L29.2764 22.4863C28.066 23.4204 26.4743 23.9004 24.5264 23.9004H19.2695L19.5 23.7031C19.5181 23.6949 19.5334 23.6853 19.5439 23.6748C19.56 23.6587 19.5711 23.6385 19.5811 23.6201C19.5822 23.6209 19.582 23.6211 19.582 23.6211L19.583 23.6201C19.5834 23.6195 19.5834 23.6181 19.584 23.6172C19.5853 23.6151 19.5874 23.6123 19.5898 23.6084C19.595 23.6001 19.6036 23.5876 19.6143 23.5693C19.6357 23.5328 19.6695 23.4732 19.7197 23.3809L19.7207 23.377C19.7887 23.2407 19.858 23.0853 19.9102 22.9111L19.9092 22.9102C19.9614 22.752 20.0137 22.5137 20.0635 22.1982C20.1147 21.8903 20.1309 21.5501 20.1309 21.1807V18.4443H19.3984C19.0515 18.4443 18.7305 18.279 18.4805 17.9346L18.4795 17.9336L18.3906 17.8057C18.1977 17.499 18.0996 17.1326 18.0996 16.7256V16.0928L18.3799 16.3643C18.5591 16.56 18.7498 16.6592 18.9824 16.6592H20.1309V15.3242H19.3984C19.0516 15.3242 18.7304 15.1597 18.4805 14.8154L18.4795 14.8135L18.3906 14.6855C18.1978 14.3789 18.0996 14.0124 18.0996 13.6055V12.9521L18.3916 13.2549V13.2559C18.5568 13.4398 18.7493 13.5391 18.9824 13.5391H20.1309V10.9199C20.1309 10.5505 20.1145 10.1943 20.0635 9.87012C20.0133 9.55189 19.9625 9.31006 19.8926 9.11719H19.8916C19.866 9.03238 19.837 8.95162 19.8057 8.87402L19.7061 8.64355C19.6712 8.55677 19.6365 8.4906 19.6094 8.44531C19.5957 8.42253 19.5837 8.40482 19.5752 8.39258C19.5709 8.38645 19.567 8.38139 19.5645 8.37793C19.5633 8.37635 19.5623 8.37504 19.5615 8.37402L19.5605 8.37207V8.37109H19.5596L19.5566 8.36719L19.3203 8.09961H24.4766ZM22.3457 22.8818H24.3457C25.7454 22.848 26.8549 22.442 27.627 21.6855L27.6279 21.6846C28.3454 20.9654 28.8348 19.9266 29.0703 18.5781L29.0908 18.4609H22.3457V22.8818ZM22.3457 16.6592H29.4131L29.2549 16.501V15.3242H22.3457V16.6592ZM22.3291 13.5391H29.0732L29.0537 13.4229C28.8184 11.9913 28.3124 10.9175 27.5762 10.2139L27.5752 10.2129L27.4238 10.0781C26.6486 9.42823 25.6072 9.10164 24.3105 9.10156H22.3291V13.5391Z" fill="#6543F5" stroke="#374957" stroke-width="0.2"/>
</svg>
