<svg width="177" height="36" viewBox="0 0 177 36" fill="none" xmlns="http://www.w3.org/2000/svg">
<rect y="6" width="177" height="30" rx="5" fill="white"/>
<path d="M55.784 20.644C56.492 21.016 56.96 21.7 56.96 22.6C56.96 23.992 55.832 25 54.44 25H50.84V16.6H54.176C55.532 16.6 56.636 17.584 56.636 18.928C56.636 19.66 56.312 20.26 55.784 20.644ZM54.176 17.896H52.22V20.104H54.176C54.788 20.104 55.256 19.624 55.256 19C55.256 18.376 54.788 17.896 54.176 17.896ZM54.44 23.704C55.088 23.704 55.58 23.188 55.58 22.528C55.58 21.868 55.088 21.352 54.44 21.352H52.22V23.704H54.44ZM59.1588 22.552C59.3628 23.488 60.1188 23.968 61.0788 23.968C61.7988 23.968 62.3388 23.644 62.6268 23.224L63.6948 23.848C63.1428 24.664 62.2428 25.156 61.0668 25.156C59.0868 25.156 57.8028 23.8 57.8028 22C57.8028 20.224 59.0868 18.844 60.9708 18.844C62.7588 18.844 63.9828 20.284 63.9828 22.012C63.9828 22.192 63.9588 22.384 63.9348 22.552H59.1588ZM59.1468 21.496H62.6748C62.4948 20.464 61.7388 20.02 60.9588 20.02C59.9868 20.02 59.3268 20.596 59.1468 21.496ZM66.0528 20.656C66.0528 21.748 69.2808 21.088 69.2808 23.308C69.2808 24.508 68.2368 25.156 66.9408 25.156C65.7408 25.156 64.8768 24.616 64.4928 23.752L65.6088 23.104C65.8008 23.644 66.2808 23.968 66.9408 23.968C67.5168 23.968 67.9608 23.776 67.9608 23.296C67.9608 22.228 64.7328 22.828 64.7328 20.68C64.7328 19.552 65.7048 18.844 66.9288 18.844C67.9128 18.844 68.7288 19.3 69.1488 20.092L68.0568 20.704C67.8408 20.236 67.4208 20.02 66.9288 20.02C66.4608 20.02 66.0528 20.224 66.0528 20.656ZM73.5337 20.248H72.0457V23.128C72.0457 23.896 72.5497 23.884 73.5337 23.836V25C71.5417 25.24 70.7497 24.688 70.7497 23.128V20.248H69.6457V19H70.7497V17.704L72.0457 17.32V19H73.5337V20.248ZM81.7877 25.156C79.3637 25.156 77.4317 23.236 77.4317 20.8C77.4317 18.364 79.3637 16.444 81.7877 16.444C84.2237 16.444 86.1437 18.364 86.1437 20.8C86.1437 23.236 84.2237 25.156 81.7877 25.156ZM81.7877 23.812C83.4677 23.812 84.7637 22.528 84.7637 20.8C84.7637 19.072 83.4677 17.788 81.7877 17.788C80.1077 17.788 78.8117 19.072 78.8117 20.8C78.8117 22.528 80.1077 23.812 81.7877 23.812ZM93.7625 17.572C92.8505 17.488 92.3465 17.836 92.3465 18.76V19H93.7625V20.248H92.3465V25H91.0505V20.248H89.0465V25H87.7505V20.248H86.8385V19H87.7505V18.88C87.7505 17.26 88.6625 16.324 90.4625 16.444V17.692C89.5505 17.608 89.0465 17.956 89.0465 18.88V19H91.0505V18.76C91.0505 17.14 91.9625 16.204 93.7625 16.324V17.572ZM95.5338 22.552C95.7378 23.488 96.4938 23.968 97.4538 23.968C98.1738 23.968 98.7138 23.644 99.0018 23.224L100.07 23.848C99.5178 24.664 98.6178 25.156 97.4418 25.156C95.4618 25.156 94.1778 23.8 94.1778 22C94.1778 20.224 95.4618 18.844 97.3458 18.844C99.1338 18.844 100.358 20.284 100.358 22.012C100.358 22.192 100.334 22.384 100.31 22.552H95.5338ZM95.5218 21.496H99.0498C98.8698 20.464 98.1138 20.02 97.3338 20.02C96.3618 20.02 95.7018 20.596 95.5218 21.496ZM102.794 20.008C103.154 19.192 103.886 18.892 104.642 18.892V20.296C103.79 20.236 102.794 20.632 102.794 21.976V25H101.498V19H102.794V20.008ZM106.553 20.656C106.553 21.748 109.781 21.088 109.781 23.308C109.781 24.508 108.737 25.156 107.441 25.156C106.241 25.156 105.377 24.616 104.993 23.752L106.109 23.104C106.301 23.644 106.781 23.968 107.441 23.968C108.017 23.968 108.461 23.776 108.461 23.296C108.461 22.228 105.233 22.828 105.233 20.68C105.233 19.552 106.205 18.844 107.429 18.844C108.413 18.844 109.229 19.3 109.649 20.092L108.557 20.704C108.341 20.236 107.921 20.02 107.429 20.02C106.961 20.02 106.553 20.224 106.553 20.656Z" fill="#6543F5"/>
<path d="M116.764 25.144C115.216 25.144 114.076 24.364 113.644 23.092L114.364 22.672C114.664 23.68 115.456 24.328 116.776 24.328C118.048 24.328 118.756 23.716 118.756 22.816C118.756 21.844 117.928 21.532 116.692 21.124C115.324 20.668 114.004 20.308 114.004 18.76C114.004 17.284 115.192 16.456 116.584 16.456C117.964 16.456 118.924 17.272 119.356 18.268L118.648 18.664C118.336 17.908 117.688 17.272 116.584 17.272C115.576 17.272 114.844 17.8 114.844 18.724C114.844 19.636 115.564 19.924 116.704 20.296C118.228 20.8 119.596 21.232 119.596 22.792C119.596 24.232 118.444 25.144 116.764 25.144ZM121.314 17.728C120.99 17.728 120.738 17.464 120.738 17.152C120.738 16.84 120.99 16.576 121.314 16.576C121.638 16.576 121.89 16.84 121.89 17.152C121.89 17.464 121.638 17.728 121.314 17.728ZM120.918 25V19H121.71V25H120.918ZM126.571 19.768H124.843V23.404C124.843 24.436 125.407 24.352 126.571 24.304V25C124.951 25.24 124.051 24.844 124.051 23.404V19.768H122.791V19H124.051V17.56L124.843 17.32V19H126.571V19.768ZM130.3 18.856C132.136 18.856 133.276 20.38 133.276 22.024C133.276 22.144 133.264 22.276 133.252 22.396H127.984C128.152 23.62 129.1 24.376 130.372 24.376C131.32 24.376 131.98 23.932 132.304 23.356L133 23.764C132.496 24.58 131.572 25.144 130.36 25.144C128.464 25.144 127.168 23.812 127.168 22C127.168 20.236 128.44 18.856 130.3 18.856ZM130.3 19.624C129.04 19.624 128.14 20.452 127.984 21.628H132.46C132.292 20.308 131.332 19.624 130.3 19.624ZM134.655 21.676V20.908H138.975V21.676H134.655ZM147.877 19H148.693L146.845 25H145.98L144.433 20.164L142.885 25H142.021L140.173 19H140.989L142.465 23.98L144.037 19H144.829L146.401 23.98L147.877 19ZM150.283 17.728C149.959 17.728 149.707 17.464 149.707 17.152C149.707 16.84 149.959 16.576 150.283 16.576C150.607 16.576 150.859 16.84 150.859 17.152C150.859 17.464 150.607 17.728 150.283 17.728ZM149.887 25V19H150.679V25H149.887ZM157.52 16.6H158.312V25H157.52V23.824C157.016 24.628 156.164 25.144 155.096 25.144C153.404 25.144 152 23.776 152 22C152 20.224 153.404 18.856 155.096 18.856C156.164 18.856 157.016 19.372 157.52 20.176V16.6ZM155.156 24.376C156.488 24.376 157.52 23.332 157.52 22C157.52 20.668 156.488 19.624 155.156 19.624C153.824 19.624 152.792 20.668 152.792 22C152.792 23.332 153.824 24.376 155.156 24.376ZM162.76 18.856C164.596 18.856 165.736 20.38 165.736 22.024C165.736 22.144 165.724 22.276 165.712 22.396H160.444C160.612 23.62 161.56 24.376 162.832 24.376C163.78 24.376 164.44 23.932 164.764 23.356L165.46 23.764C164.956 24.58 164.032 25.144 162.82 25.144C160.924 25.144 159.628 23.812 159.628 22C159.628 20.236 160.9 18.856 162.76 18.856ZM162.76 19.624C161.5 19.624 160.6 20.452 160.444 21.628H164.92C164.752 20.308 163.792 19.624 162.76 19.624Z" fill="#374957"/>
<path d="M38.892 11.8545C38.3626 11.3443 37.8332 10.8341 37.2939 10.3439C36.7844 9.8737 36.4348 9.24343 36.295 8.56315C36.1352 7.83285 35.9654 7.10254 35.7956 6.38224C35.6557 5.71196 35.3061 5.10171 34.7867 4.64152C34.2673 4.19133 33.618 3.92122 32.9388 3.8712C32.1897 3.81117 31.4405 3.76115 30.6914 3.74114C29.9522 3.73114 29.243 3.47103 28.6737 3.01084C28.1143 2.57065 27.545 2.15048 26.9756 1.7203C26.4163 1.2501 25.7171 1 24.9879 1C24.2587 1 23.5595 1.26011 23.0002 1.7203C22.4108 2.17049 21.8215 2.62068 21.2322 3.07086C20.7527 3.45102 20.1734 3.67111 19.5641 3.72113C18.795 3.77115 18.0258 3.82118 17.2567 3.85119C16.5375 3.85119 15.8284 4.1113 15.269 4.57149C14.7096 5.03168 14.3301 5.67195 14.1802 6.38224C14.0104 7.10254 13.8406 7.81284 13.6808 8.53314C13.541 9.24343 13.1814 9.8837 12.652 10.3639C12.1226 10.8541 11.6032 11.3543 11.0838 11.8545C10.5344 12.3347 10.1748 12.985 10.0449 13.7053C9.92509 14.4256 10.0449 15.1659 10.4045 15.7962C10.7342 16.4564 11.0538 17.1167 11.3934 17.767C11.723 18.4173 11.8429 19.1576 11.733 19.8779C11.6231 20.7182 11.5333 21.5686 11.4434 22.3789C11.4234 23.0192 11.6032 23.6494 11.9528 24.1897C12.3024 24.7299 12.8018 25.1501 13.3911 25.4002C14.0604 25.7103 14.7396 26.0004 15.4288 26.2805C16.098 26.5506 16.6574 27.0208 17.027 27.6311C17.4465 28.3114 17.866 28.9917 18.3355 29.6319C18.6551 30.1421 19.1346 30.5423 19.6939 30.7724C20.2533 31.0025 20.8726 31.0525 21.4619 30.9125C22.311 30.7324 23.14 30.4423 23.979 30.1822C24.6183 29.9721 25.2975 29.9621 25.9468 30.1622C26.656 30.3822 27.3552 30.5923 28.0644 30.8124C28.7436 31.0625 29.5027 31.0625 30.182 30.8124C30.8712 30.5623 31.4405 30.0821 31.8101 29.4519C32.2097 28.8416 32.6092 28.2414 32.9888 27.6211C33.3583 27.0208 33.9077 26.5607 34.557 26.2905C35.2961 25.9804 36.0353 25.6703 36.7545 25.3201C37.3538 25.04 37.8532 24.5698 38.1729 23.9896C38.4925 23.4093 38.6223 22.7391 38.5424 22.0788C38.4825 21.4785 38.4226 20.8783 38.3227 20.288C38.1129 19.2776 38.2827 18.2272 38.8121 17.3368C39.1018 16.8366 39.3415 16.3064 39.5912 15.7862C39.9508 15.1459 40.0807 14.4056 39.9508 13.6853C39.831 12.965 39.4614 12.3047 38.912 11.8245L38.892 11.8545Z" fill="white" stroke="#374957" stroke-width="0.5" stroke-linecap="round" stroke-linejoin="round"/>
<path d="M31.0742 20.8516C31.4178 20.8121 31.7472 20.977 31.9131 21.2773L31.9053 21.29C32.1531 21.7674 31.9336 22.2146 31.6719 22.71L31.6641 22.7227L31.584 22.6631L31.6641 22.7236H31.6631L31.6621 22.7246C31.6614 22.7256 31.6604 22.7269 31.6592 22.7285C31.6566 22.7319 31.653 22.7374 31.6484 22.7432C31.6393 22.7545 31.6261 22.7696 31.6113 22.7861C31.5966 22.8026 31.579 22.821 31.5605 22.8379C31.548 22.8494 31.5303 22.8598 31.5127 22.8711L31.5146 22.873C31.4103 22.9621 31.2778 23.0352 31.1455 23.0791L31.1357 23.082V23.0811L26.626 24.0977L26.6045 24.0996H26.4336C26.4198 24.0994 26.4004 24.0995 26.3799 24.0986C26.3596 24.0978 26.3364 24.0959 26.3154 24.0938C26.3045 24.0926 26.2917 24.0885 26.2783 24.0859C26.2156 24.0854 26.1427 24.0697 26.0811 24.0176L25.9561 23.9209C25.8328 23.807 25.7205 23.6449 25.6748 23.4629V23.4619C25.557 23.1364 25.6897 22.7557 26.0137 22.2236C26.0189 22.2064 26.0265 22.1913 26.0342 22.1797C26.0458 22.1623 26.0627 22.1452 26.084 22.1309C26.183 22.0236 26.3549 21.9274 26.5186 21.873L26.5283 21.8701L31.0117 20.8545L31.0332 20.8516H31.0742ZM32.0996 18.1436C32.0996 18.242 32.0959 18.3598 32.0488 18.5273C32.0024 18.6927 31.9151 18.904 31.752 19.1953C31.6575 19.4069 31.4725 19.5569 31.2305 19.6035L31.2314 19.6045L30.9053 19.6826C30.9043 19.6831 30.9034 19.6841 30.9023 19.6846C30.8936 19.6887 30.8814 19.6945 30.8682 19.7002C30.8553 19.7057 30.8401 19.7118 30.8252 19.7168C30.8172 19.7194 30.8023 19.7212 30.7861 19.7236L30.7871 19.7256L26.9619 20.6074L26.9395 20.6104H26.8594C26.7517 20.6104 26.5044 20.6125 26.2871 20.4424V20.4414C26.1001 20.2975 25.9537 20.0572 25.9424 19.7939L25.9268 19.7881V17.4678L24.9863 17.6875V20.3633C24.9863 20.6601 24.8775 20.981 24.6943 21.2432C24.5111 21.5053 24.2464 21.7184 23.9268 21.7852L23.9258 21.7842L18.9229 22.9746L18.8994 22.9766H18.7246C18.5084 22.9765 18.2692 22.8713 18.1035 22.6797C18.0965 22.6727 18.079 22.6557 18.0635 22.6357C18.0555 22.6255 18.0459 22.6118 18.0381 22.5967C18.0339 22.5885 18.029 22.5767 18.0254 22.5625C17.872 22.2755 17.8854 22.0269 17.9307 21.8613L17.9316 21.8574L18.0391 21.5488C18.1411 21.2866 18.2246 21.1545 18.2754 21.0635L18.2861 21.0566L18.2881 21.0508C18.3995 20.8451 18.6194 20.7695 18.6602 20.7451L18.7119 20.7314H18.7412L22.9072 19.749V18.1494L19.5664 18.9365L19.5439 18.9395H19.5303V18.9385C19.2683 18.978 19.0027 18.8691 18.8018 18.6689L18.7949 18.6621C18.6059 18.4304 18.5571 18.1535 18.5977 17.9395V17.9033L18.6016 17.876C18.7902 17.2184 18.9896 16.8662 19.3867 16.7139L19.4229 16.707H19.4629L22.9336 15.8984V9.17285C22.9336 8.95882 23.0247 8.74955 23.1436 8.60156L23.167 8.58984L23.6211 8.13867C23.7475 8.01287 23.8971 7.93091 24.0576 7.90723C24.2192 7.88338 24.3849 7.9194 24.5381 8.01855H24.5371C24.8032 8.13726 24.9589 8.44225 24.959 8.75781V15.4102L25.9004 15.1895V9.97461C25.9004 9.67033 26.0677 9.45967 26.1377 9.37598L26.1445 9.36719L26.1455 9.36816L26.5879 8.94043C26.8295 8.68712 27.1827 8.62231 27.4912 8.81445C27.7555 8.93836 27.9521 9.24212 27.9521 9.56055V14.7295L31.0645 14.0088C31.2607 13.9553 31.4567 13.9957 31.6191 14.083C31.7761 14.1675 31.9072 14.2998 31.9854 14.4463C32.0045 14.4663 32.024 14.489 32.0352 14.5186C32.0452 14.5451 32.0448 14.5714 32.0449 14.5889C32.0729 14.7586 32.0739 14.899 32.0283 15.0752C31.9837 15.2475 31.8955 15.4529 31.7549 15.7529C31.6631 16.0017 31.4411 16.199 31.1758 16.2217L27.9795 16.9531V18.124L31.1182 17.3779L31.1406 17.375H31.2217C31.3319 17.375 31.5949 17.3741 31.8262 17.5889H31.8252C31.9763 17.711 32.0685 17.866 32.0986 18.0762L32.0996 18.0908V18.1436Z" fill="#6543F5" stroke="#374957" stroke-width="0.2" stroke-linejoin="bevel"/>
</svg>
