<svg width="133" height="35" viewBox="0 0 133 35" fill="none" xmlns="http://www.w3.org/2000/svg">
<rect y="5" width="133" height="30" rx="5" fill="white"/>
<path d="M65.7058 26.34L65.9338 27.636C65.5738 27.708 65.2298 27.764 64.9018 27.804C64.5818 27.852 64.2698 27.876 63.9658 27.876C63.3178 27.876 62.7498 27.772 62.2618 27.564C61.7818 27.356 61.4058 27.052 61.1338 26.652C60.8698 26.26 60.7378 25.792 60.7378 25.248C60.7378 24.76 60.8418 24.328 61.0498 23.952C61.2578 23.568 61.5538 23.252 61.9378 23.004C62.3218 22.756 62.7658 22.588 63.2698 22.5L63.4018 22.404C63.6338 22.324 63.8738 22.22 64.1218 22.092C64.3698 21.956 64.6058 21.796 64.8298 21.612C65.0618 21.428 65.2658 21.228 65.4418 21.012C65.6178 20.788 65.7578 20.552 65.8618 20.304C65.9738 20.056 66.0298 19.8 66.0298 19.536V18.768L66.7978 20.04C66.3818 19.816 65.9538 19.648 65.5138 19.536C65.0818 19.424 64.6738 19.368 64.2898 19.368C63.8978 19.368 63.4858 19.424 63.0538 19.536C62.6218 19.648 62.1978 19.816 61.7818 20.04L62.5498 18.768V19.536C62.5498 19.784 62.6058 20.048 62.7178 20.328C62.8378 20.608 62.9978 20.884 63.1978 21.156C63.3978 21.42 63.6338 21.664 63.9058 21.888C64.1778 22.104 64.4738 22.28 64.7938 22.416C65.1138 22.544 65.4418 22.608 65.7778 22.608H68.2018V24H66.2938C65.6698 24 65.0858 23.9 64.5418 23.7C63.9978 23.5 63.5058 23.236 63.0658 22.908C62.6258 22.572 62.2458 22.208 61.9258 21.816C61.6138 21.416 61.3738 21.02 61.2058 20.628C61.0378 20.228 60.9538 19.864 60.9538 19.536V18.852C61.2978 18.66 61.6618 18.5 62.0458 18.372C62.4378 18.244 62.8258 18.148 63.2098 18.084C63.5938 18.012 63.9538 17.976 64.2898 17.976C64.6258 17.976 64.9858 18.012 65.3698 18.084C65.7538 18.148 66.1378 18.244 66.5218 18.372C66.9138 18.5 67.2818 18.66 67.6258 18.852V19.536C67.6258 19.944 67.5378 20.34 67.3618 20.724C67.1858 21.1 66.9458 21.452 66.6418 21.78C66.3458 22.108 66.0098 22.404 65.6338 22.668C65.2578 22.932 64.8698 23.152 64.4698 23.328C64.4058 23.36 64.3138 23.404 64.1938 23.46C64.0738 23.508 63.9458 23.56 63.8098 23.616C63.6818 23.664 63.5698 23.708 63.4738 23.748C63.3778 23.78 63.3178 23.804 63.2938 23.82C63.1338 23.892 62.9818 23.988 62.8378 24.108C62.6938 24.236 62.5738 24.392 62.4778 24.576C62.3898 24.76 62.3458 24.988 62.3458 25.26C62.3458 25.66 62.4778 25.964 62.7418 26.172C63.0138 26.388 63.4218 26.496 63.9658 26.496C64.1578 26.496 64.3938 26.48 64.6738 26.448C64.9618 26.424 65.3058 26.388 65.7058 26.34ZM68.2018 24V22.608C68.2498 22.608 68.2858 22.624 68.3098 22.656C68.3418 22.688 68.3658 22.736 68.3818 22.8C68.4058 22.864 68.4218 22.94 68.4298 23.028C68.4378 23.108 68.4418 23.2 68.4418 23.304C68.4418 23.408 68.4378 23.504 68.4298 23.592C68.4218 23.68 68.4058 23.756 68.3818 23.82C68.3658 23.876 68.3418 23.92 68.3098 23.952C68.2858 23.984 68.2498 24 68.2018 24ZM68.2031 24V22.608H71.0471L70.1111 23.388V17.976H71.7071V24H68.2031ZM68.2031 24C68.1551 24 68.1191 23.984 68.0951 23.952C68.0631 23.92 68.0391 23.876 68.0231 23.82C67.9991 23.756 67.9831 23.68 67.9751 23.592C67.9671 23.504 67.9631 23.408 67.9631 23.304C67.9631 23.16 67.9711 23.04 67.9871 22.944C68.0031 22.84 68.0311 22.76 68.0711 22.704C68.1031 22.64 68.1471 22.608 68.2031 22.608V24ZM68.6351 26.556V25.188H70.1831V26.556H68.6351ZM70.8191 26.556V25.188H72.3671V26.556H70.8191ZM84.6154 24C84.2874 24 83.9634 23.94 83.6434 23.82C83.3234 23.692 83.0234 23.504 82.7434 23.256L83.7394 22.236C83.8914 22.364 84.0394 22.46 84.1834 22.524C84.3274 22.58 84.4714 22.608 84.6154 22.608H86.8714L86.0314 23.364V20.7C86.0314 20.572 86.0154 20.38 85.9834 20.124C85.9594 19.86 85.9234 19.564 85.8754 19.236C85.8274 18.9 85.7674 18.56 85.6954 18.216L87.2674 17.976C87.3234 18.264 87.3794 18.588 87.4354 18.948C87.4914 19.3 87.5354 19.636 87.5674 19.956C87.6074 20.268 87.6274 20.516 87.6274 20.7V24H84.6154ZM76.4314 20.568V19.164H78.9514V20.568H76.4314ZM78.9514 24V17.976H80.5594V24H78.9514ZM80.5594 24V22.608H81.5314C81.7874 22.608 81.9834 22.572 82.1194 22.5C82.2554 22.42 82.3514 22.264 82.4074 22.032C82.4634 21.792 82.4914 21.436 82.4914 20.964V18.6H84.0994V20.964C84.0994 21.676 84.0074 22.256 83.8234 22.704C83.6394 23.152 83.3594 23.48 82.9834 23.688C82.6074 23.896 82.1234 24 81.5314 24H80.5594ZM73.8154 26.976C73.7114 26.976 73.5994 26.972 73.4794 26.964C73.3594 26.956 73.2354 26.944 73.1074 26.928L73.1674 25.56C73.2954 25.568 73.4154 25.576 73.5274 25.584C73.6474 25.592 73.7354 25.596 73.7914 25.596C74.1034 25.596 74.3514 25.472 74.5354 25.224C74.7274 24.976 74.8234 24.628 74.8234 24.18V17.976H76.4314V24.18C76.4314 24.724 76.3194 25.208 76.0954 25.632C75.8794 26.056 75.5754 26.384 75.1834 26.616C74.7914 26.856 74.3354 26.976 73.8154 26.976Z" fill="#6543F5"/>
<path d="M98.1936 24V23.148H99.4896V24H98.1936ZM94.9536 26.976C94.3216 26.976 93.7496 26.86 93.2376 26.628C92.7256 26.396 92.3216 26.072 92.0256 25.656C91.7296 25.24 91.5816 24.764 91.5816 24.228C91.5816 24.06 91.5936 23.84 91.6176 23.568C91.6496 23.288 91.6856 22.98 91.7256 22.644C91.7736 22.3 91.8256 21.956 91.8816 21.612C91.9376 21.26 91.9896 20.928 92.0376 20.616L92.9616 20.76C92.8736 21.312 92.7936 21.824 92.7216 22.296C92.6576 22.76 92.6056 23.16 92.5656 23.496C92.5336 23.824 92.5176 24.068 92.5176 24.228C92.5176 24.596 92.6176 24.92 92.8176 25.2C93.0256 25.488 93.3136 25.712 93.6816 25.872C94.0496 26.04 94.4736 26.124 94.9536 26.124C95.4336 26.124 95.8456 26.048 96.1896 25.896C96.5336 25.744 96.7976 25.532 96.9816 25.26C97.1656 24.988 97.2576 24.668 97.2576 24.3V15.396H98.1936V24.3C98.1936 24.86 98.0456 25.34 97.7496 25.74C97.4616 26.14 97.0736 26.444 96.5856 26.652C96.0976 26.868 95.5536 26.976 94.9536 26.976ZM99.4896 24V23.148C99.5376 23.148 99.5776 23.16 99.6096 23.184C99.6416 23.2 99.6656 23.228 99.6816 23.268C99.6976 23.3 99.7096 23.344 99.7176 23.4C99.7256 23.448 99.7296 23.504 99.7296 23.568C99.7296 23.632 99.7256 23.692 99.7176 23.748C99.7096 23.804 99.6976 23.852 99.6816 23.892C99.6656 23.924 99.6416 23.952 99.6096 23.976C99.5776 23.992 99.5376 24 99.4896 24ZM101.724 24V23.148H103.02V24H101.724ZM103.02 24V23.148C103.068 23.148 103.108 23.16 103.14 23.184C103.172 23.2 103.196 23.228 103.212 23.268C103.228 23.3 103.24 23.344 103.248 23.4C103.256 23.448 103.26 23.504 103.26 23.568C103.26 23.632 103.256 23.692 103.248 23.748C103.24 23.804 103.228 23.852 103.212 23.892C103.196 23.924 103.172 23.952 103.14 23.976C103.108 23.992 103.068 24 103.02 24ZM99.4922 24C99.4442 24 99.4042 23.992 99.3722 23.976C99.3402 23.952 99.3162 23.924 99.3002 23.892C99.2842 23.852 99.2722 23.804 99.2642 23.748C99.2562 23.692 99.2522 23.632 99.2522 23.568C99.2522 23.48 99.2602 23.408 99.2762 23.352C99.2842 23.288 99.3082 23.24 99.3482 23.208C99.3802 23.168 99.4282 23.148 99.4922 23.148V24ZM99.4922 24V23.148H101.22L100.788 23.496V18H101.724V24H99.4922ZM99.9722 26.16V25.08H100.908V26.16H99.9722ZM101.616 26.16V25.08H102.552V26.16H101.616ZM103.02 24V23.148H111.888L111.024 23.928V21.108C111.024 20.604 110.952 20.188 110.808 19.86C110.672 19.524 110.464 19.272 110.184 19.104C109.912 18.936 109.568 18.852 109.152 18.852C108.8 18.852 108.472 18.912 108.168 19.032C107.872 19.144 107.596 19.296 107.34 19.488C107.084 19.672 106.844 19.88 106.62 20.112C106.404 20.336 106.204 20.564 106.02 20.796C105.836 21.028 105.668 21.24 105.516 21.432L105.216 20.58C105.416 20.332 105.616 20.084 105.816 19.836C106.024 19.588 106.24 19.356 106.464 19.14C106.688 18.916 106.932 18.72 107.196 18.552C107.468 18.384 107.764 18.252 108.084 18.156C108.404 18.052 108.764 18 109.164 18C109.732 18 110.196 18.096 110.556 18.288C110.924 18.48 111.208 18.736 111.408 19.056C111.616 19.368 111.76 19.704 111.84 20.064C111.92 20.424 111.96 20.772 111.96 21.108V24H103.02ZM104.724 23.148V18H105.66V23.148H104.724ZM103.02 24C102.972 24 102.932 23.992 102.9 23.976C102.868 23.952 102.844 23.924 102.828 23.892C102.812 23.852 102.8 23.804 102.792 23.748C102.784 23.692 102.78 23.632 102.78 23.568C102.78 23.48 102.788 23.408 102.804 23.352C102.812 23.288 102.836 23.24 102.876 23.208C102.908 23.168 102.956 23.148 103.02 23.148V24ZM118.503 24V23.148H119.799V24H118.503ZM115.659 26.652C115.379 26.652 115.079 26.628 114.759 26.58C114.447 26.54 114.103 26.48 113.727 26.4L113.871 25.644C114.295 25.7 114.647 25.74 114.927 25.764C115.215 25.788 115.459 25.8 115.659 25.8C116.323 25.8 116.807 25.672 117.111 25.416C117.415 25.168 117.567 24.804 117.567 24.324V18.54L118.047 18.852H116.019C115.555 18.852 115.195 18.908 114.939 19.02C114.691 19.132 114.519 19.344 114.423 19.656C114.327 19.96 114.279 20.408 114.279 21C114.279 21.592 114.327 22.044 114.423 22.356C114.519 22.66 114.691 22.868 114.939 22.98C115.195 23.092 115.555 23.148 116.019 23.148H117.567V24H116.019C115.323 24 114.779 23.896 114.387 23.688C114.003 23.472 113.731 23.144 113.571 22.704C113.419 22.256 113.343 21.688 113.343 21C113.343 20.312 113.419 19.748 113.571 19.308C113.731 18.86 114.003 18.532 114.387 18.324C114.779 18.108 115.323 18 116.019 18H118.503V24.312C118.503 24.808 118.387 25.232 118.155 25.584C117.931 25.936 117.607 26.2 117.183 26.376C116.759 26.56 116.251 26.652 115.659 26.652ZM119.799 24V23.148C119.847 23.148 119.887 23.16 119.919 23.184C119.951 23.2 119.975 23.228 119.991 23.268C120.007 23.3 120.019 23.344 120.027 23.4C120.035 23.448 120.039 23.504 120.039 23.568C120.039 23.632 120.035 23.692 120.027 23.748C120.019 23.804 120.007 23.852 119.991 23.892C119.975 23.924 119.951 23.952 119.919 23.976C119.887 23.992 119.847 24 119.799 24ZM119.801 24V23.148H121.529L121.097 23.496V18H122.033V24H119.801ZM119.801 24C119.753 24 119.713 23.992 119.681 23.976C119.649 23.952 119.625 23.924 119.609 23.892C119.593 23.852 119.581 23.804 119.573 23.748C119.565 23.692 119.561 23.632 119.561 23.568C119.561 23.48 119.569 23.408 119.585 23.352C119.593 23.288 119.617 23.24 119.657 23.208C119.689 23.168 119.737 23.148 119.801 23.148V24ZM120.281 16.92V15.84H121.217V16.92H120.281ZM121.925 16.92V15.84H122.861V16.92H121.925Z" fill="#374957"/>
<mask id="mask0_4760_3300" style="mask-type:luminance" maskUnits="userSpaceOnUse" x="0" y="0" width="50" height="35">
<path d="M44 0H6C2.68629 0 0 2.68629 0 6V29C0 32.3137 2.68629 35 6 35H44C47.3137 35 50 32.3137 50 29V6C50 2.68629 47.3137 0 44 0Z" fill="white"/>
</mask>
<g mask="url(#mask0_4760_3300)">
<mask id="mask1_4760_3300" style="mask-type:luminance" maskUnits="userSpaceOnUse" x="0" y="0" width="50" height="35">
<path d="M50 0H0V35H50V0Z" fill="white"/>
</mask>
<g mask="url(#mask1_4760_3300)">
<path d="M17.8 8.65894C17.8 8.65894 21.3 5.50494 21.556 5.30394C21.7578 5.16861 22.0033 5.11473 22.2432 5.15313C22.4831 5.19154 22.6996 5.31938 22.849 5.51094C23.28 6.01694 23.144 6.53394 22.527 7.07394C21.91 7.61394 20.075 9.25494 20.075 9.25494C20.075 9.25494 23.613 6.05494 23.888 5.83994C24.0128 5.76435 24.1522 5.7159 24.297 5.69776C24.4418 5.67961 24.5888 5.69217 24.7284 5.73463C24.8681 5.77708 24.9972 5.84847 25.1074 5.94415C25.2176 6.03983 25.3064 6.15765 25.368 6.28994C25.645 7.02494 25.055 7.48994 23.773 8.62794C22.491 9.76594 21.373 10.7199 21.373 10.7199C21.373 10.7199 24.404 8.11994 24.773 7.87994C25.142 7.63994 26.296 8.11394 26.04 8.89694C25.784 9.67994 22.573 12.3299 22.573 12.3299C22.573 12.3299 24.622 10.5479 24.973 10.3389C25.324 10.1299 26.529 10.7389 26.099 11.5209C25.669 12.3029 20.8 16.5489 20.27 16.9059C19.5662 17.336 18.7378 17.516 17.919 17.4169C17.571 17.3887 17.2213 17.443 16.8983 17.5754C16.5752 17.7078 16.288 17.9146 16.06 18.1789C16.06 18.1789 1.918 30.4409 -0.4 32.5469C-2.718 34.6529 -5 25.3669 -5 25.3669C-5 25.3669 7.227 18.8069 12.514 13.7329C12.514 13.7329 13.521 12.8509 13.693 12.6249C13.9365 11.6985 14.2456 10.7905 14.618 9.90794C15.391 8.27494 16.61 5.27494 17.038 5.14794C17.466 5.02094 18.338 5.52394 18.186 6.82194C18.034 8.11994 17.586 8.13394 17.9 9.10894C18.214 10.0839 19.081 11.6279 17.018 13.0189" fill="#6543F5"/>
<path d="M17.8 8.65894C17.8 8.65894 21.3 5.50494 21.556 5.30394C21.7578 5.16861 22.0033 5.11473 22.2432 5.15313C22.4831 5.19154 22.6996 5.31938 22.849 5.51094C23.28 6.01694 23.144 6.53394 22.527 7.07394C21.91 7.61394 20.075 9.25494 20.075 9.25494C20.075 9.25494 23.613 6.05494 23.888 5.83994C24.0128 5.76435 24.1522 5.7159 24.297 5.69776C24.4418 5.67961 24.5888 5.69217 24.7284 5.73463C24.8681 5.77708 24.9972 5.84847 25.1074 5.94415C25.2176 6.03983 25.3064 6.15765 25.368 6.28994C25.645 7.02494 25.055 7.48994 23.773 8.62794C22.491 9.76594 21.373 10.7199 21.373 10.7199C21.373 10.7199 24.404 8.11994 24.773 7.87994C25.142 7.63994 26.296 8.11394 26.04 8.89694C25.784 9.67994 22.573 12.3299 22.573 12.3299C22.573 12.3299 24.622 10.5479 24.973 10.3389C25.324 10.1299 26.529 10.7389 26.099 11.5209C25.669 12.3029 20.8 16.5489 20.27 16.9059C19.5662 17.336 18.7378 17.516 17.919 17.4169C17.571 17.3887 17.2213 17.443 16.8983 17.5754C16.5752 17.7078 16.288 17.9146 16.06 18.1789C16.06 18.1789 1.918 30.4409 -0.4 32.5469C-2.718 34.6529 -5 25.3669 -5 25.3669C-5 25.3669 7.227 18.8069 12.514 13.7329C12.514 13.7329 13.521 12.8509 13.693 12.6249C13.9365 11.6985 14.2456 10.7905 14.618 9.90794C15.391 8.27494 16.61 5.27494 17.038 5.14794C17.466 5.02094 18.338 5.52394 18.186 6.82194C18.034 8.11994 17.586 8.13394 17.9 9.10894C18.214 10.0839 19.081 11.6279 17.018 13.0189" stroke="#374957" stroke-width="0.2" stroke-linejoin="round"/>
<path d="M16.8979 9.447L32.7039 1L48.4129 9.839L32.8629 18.677L16.8979 9.447Z" fill="white" stroke="#374957" stroke-width="0.5" stroke-linejoin="round"/>
<path d="M16.8979 9.43164V18.9596L32.813 28.5596V18.6596L16.8979 9.43164Z" fill="white" stroke="#374957" stroke-width="0.5" stroke-linejoin="round"/>
<path d="M32.8641 18.6779L48.4101 9.83887V18.7679L32.8101 28.5729L32.8641 18.6779Z" fill="white" stroke="#374957" stroke-width="0.5" stroke-linejoin="round"/>
<path d="M34.3611 20.5707C34.3611 20.5707 37.3171 16.9037 37.5421 16.6637C37.7201 16.4982 37.9541 16.4062 38.1971 16.4062C38.4401 16.4062 38.6741 16.4982 38.8521 16.6637C39.3521 17.0957 39.3031 17.6267 38.7791 18.2577C38.2551 18.8887 36.7001 20.7997 36.7001 20.7997C36.7001 20.7997 39.6901 17.0797 39.9291 16.8247C40.0402 16.7301 40.1701 16.66 40.3102 16.619C40.4503 16.5781 40.5974 16.5671 40.7421 16.587C40.8867 16.6068 41.0255 16.6569 41.1494 16.7341C41.2733 16.8112 41.3795 16.9137 41.4611 17.0347C41.8501 17.7167 41.3411 18.2707 40.2541 19.5957C39.1671 20.9207 38.2121 22.0407 38.2121 22.0407C38.2121 22.0407 40.7961 18.9917 41.1191 18.6997C41.4421 18.4077 42.6601 18.6897 42.5311 19.4997C42.4021 20.3097 39.6481 23.4417 39.6481 23.4417C39.6481 23.4417 41.3911 21.3577 41.7021 21.0957C42.0131 20.8337 43.3021 21.2417 43.0021 22.0857C42.7021 22.9297 38.5691 27.8857 38.1021 28.3237C37.4747 28.8592 36.6853 29.1678 35.8611 29.1997C35.513 29.2268 35.1762 29.3358 34.8781 29.5177C34.5801 29.6997 34.3293 29.9494 34.1461 30.2467C34.1461 30.2467 22.1081 44.5887 20.1461 47.0357C18.1841 49.4827 14.4761 40.6697 14.4761 40.6697C14.4761 40.6697 25.5141 32.2617 29.9381 26.4167C29.9381 26.4167 30.7941 25.3867 30.9291 25.1367C31.0239 24.1834 31.1864 23.238 31.4151 22.3077C31.9221 20.5727 32.6541 17.4177 33.0571 17.2257C33.4601 17.0337 34.4021 17.3907 34.4571 18.6977C34.5121 20.0047 34.0741 20.0877 34.5341 20.9977" fill="#6543F5"/>
<path d="M34.3611 20.5707C34.3611 20.5707 37.3171 16.9037 37.5421 16.6637C37.7201 16.4982 37.9541 16.4062 38.1971 16.4062C38.4401 16.4062 38.6741 16.4982 38.8521 16.6637C39.3521 17.0957 39.3031 17.6267 38.7791 18.2577C38.2551 18.8887 36.7001 20.7997 36.7001 20.7997C36.7001 20.7997 39.6901 17.0797 39.9291 16.8247C40.0402 16.7301 40.1701 16.66 40.3102 16.619C40.4503 16.5781 40.5974 16.5671 40.7421 16.587C40.8867 16.6068 41.0255 16.6569 41.1494 16.7341C41.2733 16.8112 41.3795 16.9137 41.4611 17.0347C41.8501 17.7167 41.3411 18.2707 40.2541 19.5957C39.1671 20.9207 38.2121 22.0407 38.2121 22.0407C38.2121 22.0407 40.7961 18.9917 41.1191 18.6997C41.4421 18.4077 42.6601 18.6897 42.5311 19.4997C42.4021 20.3097 39.6481 23.4417 39.6481 23.4417C39.6481 23.4417 41.3911 21.3577 41.7021 21.0957C42.0131 20.8337 43.3021 21.2417 43.0021 22.0857C42.7021 22.9297 38.5691 27.8857 38.1021 28.3237C37.4747 28.8592 36.6853 29.1678 35.8611 29.1997C35.513 29.2268 35.1762 29.3358 34.8781 29.5177C34.5801 29.6997 34.3293 29.9494 34.1461 30.2467C34.1461 30.2467 22.1081 44.5887 20.1461 47.0357C18.1841 49.4827 14.4761 40.6697 14.4761 40.6697C14.4761 40.6697 25.5141 32.2617 29.9381 26.4167C29.9381 26.4167 30.7941 25.3867 30.9291 25.1367C31.0239 24.1834 31.1864 23.238 31.4151 22.3077C31.9221 20.5727 32.6541 17.4177 33.0571 17.2257C33.4601 17.0337 34.4021 17.3907 34.4571 18.6977C34.5121 20.0047 34.0741 20.0877 34.5341 20.9977" stroke="#374957" stroke-width="0.2" stroke-linejoin="round"/>
<path d="M35.3609 12.7589L36.4519 12.2429L37.1749 11.9019L36.6859 11.6659L36.5859 11.6189L36.9779 11.4339L37.6959 11.7799L38.3959 12.1149L38.4559 12.1449L38.0619 12.3309L38.0009 12.3019L37.4749 12.0479L35.6609 12.9049L35.3609 12.7589ZM34.4429 12.3159L35.2219 11.2049L33.6629 11.9409L33.5199 11.8719L33.3599 11.7949L35.5689 10.7509L35.7299 10.8249L35.8819 10.8989L35.1029 12.0109L36.6589 11.2759L36.9589 11.4219L34.7519 12.4649L34.4429 12.3159ZM33.3329 11.7809L33.0049 11.6249L32.2699 11.2699L31.6489 10.9699L31.5719 10.9329L30.7269 10.5249L31.2269 10.2879L31.2379 10.2829L31.4849 10.1669C31.3934 10.1991 31.3003 10.2265 31.2059 10.2489C31.1639 10.2589 31.1219 10.2699 31.0799 10.2779C30.9858 10.2971 30.8906 10.3108 30.7949 10.3189C30.7279 10.3249 30.6619 10.3289 30.5949 10.3289C30.389 10.335 30.1842 10.2961 29.9949 10.2149C29.7709 10.1059 29.7239 9.97391 29.7239 9.88291C29.7258 9.83085 29.7394 9.77989 29.7639 9.73391C29.9099 9.51842 30.1197 9.35406 30.3639 9.26391C30.4489 9.22391 30.5369 9.18791 30.6249 9.15591C30.79 9.0961 30.96 9.0506 31.1329 9.01991H31.1399C31.3115 8.98962 31.4857 8.97689 31.6599 8.98191C31.7259 8.98191 31.7909 8.98891 31.8539 8.99791C31.9889 9.01428 32.1205 9.05174 32.2439 9.10891C32.3425 9.14782 32.4238 9.22095 32.4729 9.31491C32.483 9.33476 32.4901 9.35599 32.4939 9.37791C32.4945 9.38523 32.4945 9.39259 32.4939 9.39991V9.41091C32.4952 9.44515 32.489 9.47925 32.4759 9.51091C32.4737 9.51676 32.471 9.52245 32.4679 9.52791V9.53691V9.54191C32.4115 9.64322 32.3303 9.72855 32.2319 9.78991C32.2019 9.81091 32.1699 9.83191 32.1319 9.85091L32.1179 9.85891L32.0949 9.84891L31.9549 9.78291L31.9419 9.77691L31.8099 9.71391L31.8579 9.68391C31.8943 9.66013 31.9279 9.63228 31.9579 9.60091C31.9784 9.58348 31.9952 9.56209 32.0072 9.53804C32.0192 9.51398 32.0263 9.48775 32.0279 9.46091C32.0279 9.38791 31.9539 9.33791 31.8949 9.30991C31.8749 9.29991 31.8529 9.29391 31.8319 9.28591C31.6324 9.22278 31.4203 9.21075 31.2149 9.25091H31.1919C31.0383 9.27823 30.8881 9.32215 30.7439 9.38191C30.7089 9.39691 30.6739 9.40991 30.6439 9.42691C30.4645 9.49183 30.3094 9.61057 30.1999 9.76691C30.1841 9.80638 30.1841 9.85044 30.1999 9.88991C30.2297 9.93999 30.275 9.97897 30.3289 10.0009C30.5754 10.0931 30.8452 10.1033 31.0979 10.0299C31.1548 10.0164 31.2109 9.99966 31.2659 9.97991H31.2779L31.3989 10.0379L31.5409 10.1059L31.5739 10.1219H31.5819L32.0259 9.91191L32.0389 9.90591L32.2389 9.80591L32.9389 9.47491L34.3389 10.1489L34.6629 10.3049L35.5519 10.7329L35.1609 10.9249L34.3489 10.5339L34.0439 10.3849L32.8509 9.81091L32.3509 10.0489H32.3419L32.3559 10.0559L33.6179 10.6649L34.1249 10.9099L34.5719 11.1249L34.1949 11.3059L33.9279 11.1779L33.2679 10.8599L32.5229 10.5009L32.3479 10.4169L31.9629 10.2319L31.7169 10.3479L31.4679 10.4649L31.4169 10.4889L31.4889 10.5239L32.1549 10.8449L32.3199 10.9249L32.7089 11.1119L32.8089 11.1599L33.5999 11.5409L33.7249 11.6009L33.3379 11.7839L33.3329 11.7809ZM35.3679 10.5309L35.9819 9.65391L36.1469 9.41891L34.5879 10.1549L34.4249 10.0769L34.2849 10.0089L34.6949 9.81591L36.4949 8.96591L36.8079 9.11691L36.6709 9.31191L36.0269 10.2249L37.5819 9.48991L37.8819 9.63591L35.6769 10.6799L35.3679 10.5309ZM33.0649 9.42491L35.2729 8.37791L35.5309 8.50191L36.4609 8.94991L36.0749 9.13291L35.3949 8.80591L35.1889 8.70591L34.6749 8.94891L35.1749 9.19191L35.4909 9.34391L35.1199 9.52491L34.9949 9.45991L34.2999 9.12491L33.7539 9.38291L34.6489 9.81491L34.2619 9.99691L33.0649 9.42491ZM29.1649 9.67191C28.9708 9.67055 28.7793 9.62794 28.6029 9.54691C28.3789 9.43391 28.3319 9.31591 28.3329 9.23491C28.3329 9.09491 28.4729 8.95491 28.7329 8.82991L28.7509 8.82491L29.0279 8.95791L29.0429 8.96591L29.0769 8.98191L29.0599 8.99091L29.0289 9.00591H29.0199C28.9443 9.03761 28.8777 9.08741 28.8259 9.15091C28.8121 9.1744 28.8071 9.20207 28.8119 9.22891C28.8117 9.2329 28.8117 9.23691 28.8119 9.24091C28.814 9.2459 28.8167 9.25061 28.8199 9.25491C28.8514 9.2938 28.8919 9.32436 28.9379 9.34391C28.9672 9.35768 28.9972 9.3697 29.0279 9.37991C29.1485 9.41946 29.2767 9.42941 29.4019 9.40891C29.4784 9.39669 29.5528 9.3738 29.6229 9.34091C29.6929 9.30791 29.7319 9.27391 29.7339 9.24091C29.7339 9.18991 29.6429 9.12291 29.5509 9.05891C29.4249 8.97091 29.2829 8.87191 29.2939 8.74491C29.3019 8.64491 29.4049 8.54491 29.6179 8.44491C29.8646 8.33157 30.1366 8.28469 30.4069 8.30891C30.5566 8.32093 30.7028 8.35954 30.8389 8.42291C30.8705 8.43805 30.9009 8.45543 30.9299 8.47491C30.991 8.51098 31.0406 8.5637 31.0729 8.62691C31.0767 8.63404 31.08 8.64139 31.0829 8.64891C31.0956 8.68064 31.099 8.7153 31.0929 8.74891C31.0895 8.76593 31.0838 8.78241 31.0759 8.79791C31.072 8.80793 31.0674 8.81763 31.0619 8.82691C30.9823 8.94325 30.8693 9.03283 30.7379 9.08391L30.7249 9.08991L30.5459 9.00491L30.4059 8.93691L30.4649 8.92491C30.497 8.90803 30.5274 8.88828 30.5559 8.86591C30.6059 8.82691 30.6349 8.78891 30.6339 8.75491C30.631 8.7375 30.6242 8.72097 30.614 8.70659C30.6038 8.6922 30.5904 8.68034 30.5749 8.67191C30.5543 8.65392 30.5318 8.63817 30.5079 8.62491C30.4075 8.57779 30.2977 8.55386 30.1867 8.5549C30.0758 8.55594 29.9665 8.58191 29.8669 8.63091C29.8281 8.6447 29.7936 8.6685 29.7669 8.69991C29.7602 8.7166 29.7602 8.73522 29.7669 8.75191C29.816 8.81245 29.8756 8.8636 29.9429 8.90291C30.0426 8.95898 30.1271 9.03863 30.1889 9.13491C30.2011 9.15604 30.2075 9.18001 30.2075 9.20441C30.2075 9.22881 30.2011 9.25278 30.1889 9.27391C30.1845 9.28277 30.1791 9.29115 30.1729 9.29891C30.102 9.39522 30.0058 9.46999 29.8949 9.51491C29.8059 9.55674 29.7132 9.59022 29.6179 9.61491C29.4812 9.65147 29.3404 9.67029 29.1989 9.67091L29.1649 9.67191ZM32.6329 9.15891C32.5133 9.13799 32.3969 9.10134 32.2869 9.04991L31.7549 8.78891L31.6159 8.72491L31.7549 8.65991L33.0309 8.05991L33.8249 7.68491L34.4499 7.98491C34.5755 8.0316 34.6788 8.12414 34.7389 8.24391C34.7544 8.27962 34.761 8.31855 34.7582 8.35737C34.7554 8.39619 34.7433 8.43376 34.7229 8.46691C34.5809 8.66886 34.3806 8.8227 34.1489 8.90791C33.8579 9.04609 33.546 9.13497 33.2259 9.17091C33.1439 9.1797 33.0614 9.18437 32.9789 9.18491C32.8632 9.1851 32.7477 9.17472 32.6339 9.15391L32.6329 9.15891ZM32.9629 8.35891L32.2509 8.69491L32.6319 8.87891C32.6718 8.89718 32.7129 8.91255 32.7549 8.92491C33.1542 9.01478 33.5724 8.95761 33.9329 8.76391C34.4139 8.53691 34.5019 8.30791 34.1729 8.14891L33.7949 7.96591L32.9629 8.35891ZM31.4629 8.65191L31.0699 8.46191L30.9059 8.38291L30.8949 8.37391L30.4159 8.14291L30.7509 7.98491L31.0119 7.86091L31.1119 7.81391L32.4679 7.17291L32.6239 7.09991L32.9239 7.24591L32.2859 7.54591L31.1399 8.08791L31.0799 8.11591L31.1859 8.16691L31.8379 8.48091L31.9579 8.53891L31.7659 8.62991L31.5949 8.71191L31.4629 8.65191ZM30.2229 7.91791C30.0101 7.92117 29.7991 7.87889 29.6039 7.79391C29.5691 7.77725 29.5357 7.75786 29.5039 7.73591C29.4533 7.70847 29.4105 7.66852 29.3797 7.61985C29.3489 7.57118 29.3311 7.51542 29.3279 7.45791C29.3279 7.28891 29.4829 7.11191 29.7649 6.94591L29.7949 6.92491C29.8479 6.89491 29.9039 6.86491 29.9649 6.83591C30.0259 6.80691 30.0849 6.78491 30.1469 6.76191C30.1949 6.74391 30.2339 6.72491 30.2779 6.71291L30.3339 6.69491C30.722 6.56364 31.136 6.52763 31.5409 6.58991C31.6488 6.60945 31.7537 6.64307 31.8529 6.68991C31.8639 6.68991 31.8709 6.69991 31.8799 6.70491C31.9811 6.7486 32.0624 6.82847 32.1079 6.92891C32.1228 6.96501 32.1293 7.00404 32.1269 7.04302C32.1245 7.08201 32.1132 7.11993 32.0939 7.15391C31.9552 7.37275 31.7482 7.53972 31.5049 7.62891C31.3784 7.68772 31.2481 7.73816 31.1149 7.77991C31.0709 7.79391 31.0279 7.80691 30.9839 7.81891C30.8919 7.84391 30.7999 7.86491 30.7089 7.88091C30.559 7.9075 30.4071 7.92122 30.2549 7.92191L30.2229 7.91791ZM30.4539 6.89991C30.4229 6.91091 30.3929 6.92491 30.3609 6.93691C30.3289 6.94891 30.2959 6.96191 30.2609 6.97791C30.1255 7.03827 30.0016 7.12187 29.8949 7.22491C29.7479 7.37791 29.7629 7.52491 29.9659 7.62491C30.0102 7.64549 30.0564 7.66158 30.1039 7.67291C30.2786 7.71023 30.4588 7.71396 30.6349 7.68391C30.716 7.66894 30.7961 7.64924 30.8749 7.62491C30.9725 7.59959 31.0683 7.5682 31.1619 7.53091C31.2079 7.51191 31.2529 7.49391 31.2989 7.47291C31.7499 7.25991 31.8659 7.00891 31.5599 6.86091C31.5144 6.83961 31.4668 6.82286 31.4179 6.81091C31.318 6.78739 31.2155 6.77664 31.1129 6.77891C30.8877 6.78178 30.6655 6.82269 30.4539 6.89991ZM28.5539 7.24491L28.7539 7.14491C28.6542 7.15497 28.5537 7.15497 28.4539 7.14491C28.3301 7.13468 28.2089 7.10428 28.0949 7.05491L28.0539 7.04691C27.8389 6.94291 27.7949 6.81691 27.7949 6.72491C27.8002 6.64754 27.8296 6.57377 27.8789 6.51391C27.9104 6.47282 27.9459 6.43497 27.9849 6.40091C28.124 6.28182 28.2797 6.18347 28.4469 6.10891C28.4949 6.08791 28.5349 6.06891 28.5799 6.05091C28.6466 6.02424 28.7133 5.99991 28.7799 5.97791C28.8669 5.94791 28.9559 5.92291 29.0439 5.90191C29.4674 5.77937 29.9192 5.79691 30.3319 5.95191C30.44 5.99431 30.5279 6.07616 30.5779 6.18091C30.5905 6.20942 30.597 6.24024 30.597 6.27141C30.597 6.30257 30.5905 6.3334 30.5779 6.36191V6.36691C30.5779 6.37291 30.5719 6.37791 30.5699 6.38391C30.5103 6.49406 30.4209 6.5852 30.3119 6.64691L30.2669 6.67091L30.2529 6.67991L29.9529 6.53391L29.9949 6.50391C30.0849 6.44491 30.1319 6.37991 30.1289 6.31791C30.1259 6.25591 30.0749 6.20091 29.9829 6.15491C29.7863 6.07478 29.5711 6.05156 29.3619 6.08791C29.1419 6.11702 28.9276 6.18011 28.7269 6.27491C28.6467 6.31205 28.5691 6.35482 28.4949 6.40291C28.4061 6.45346 28.3323 6.5266 28.2809 6.61491C28.2654 6.65375 28.2654 6.69707 28.2809 6.73591C28.3109 6.78679 28.357 6.82621 28.4119 6.84791L28.4499 6.86291C28.7435 6.95538 29.0602 6.94193 29.3449 6.82491L28.8809 6.59891L29.2379 6.43091L29.6069 6.60891L30.0189 6.80891L29.7579 6.93191L28.8189 7.37591L28.5539 7.24491Z" fill="#374957"/>
</g>
</g>
</svg>
