<svg width="40" height="22" viewBox="0 0 40 22" fill="none" xmlns="http://www.w3.org/2000/svg">
<rect width="40" height="22" rx="10" fill="#EBEBEB"/>
<path d="M22.4608 7.91227C21.9916 7.45524 21.4182 7.22672 20.7458 7.22672H18.0925V15.1663H19.0934V11.9458H20.7458C21.4235 11.9458 21.9969 11.7226 22.4608 11.2709C22.9404 10.8192 23.1801 10.2612 23.1801 9.58628C23.1801 8.91136 22.9404 8.3693 22.4608 7.91227ZM21.7571 10.5641C21.4964 10.8351 21.1628 10.9733 20.7667 10.9733H19.0934V8.20987H20.7667C21.168 8.20987 21.4964 8.34804 21.7571 8.6297C22.0229 8.90073 22.1584 9.22491 22.1584 9.5916C22.1584 9.95829 22.0229 10.2931 21.7571 10.5641ZM27.5484 10.1602C27.121 9.75634 26.5371 9.5544 25.7969 9.5544C24.8482 9.5544 24.1289 9.91046 23.6441 10.6279L24.525 11.1912C24.8482 10.7076 25.2913 10.4685 25.849 10.4685C26.2192 10.4685 26.5423 10.5907 26.8186 10.8405C27.0949 11.0902 27.2304 11.3878 27.2304 11.7439V11.9777C26.8499 11.7545 26.3599 11.6429 25.7656 11.6429C25.0724 11.6429 24.5146 11.8077 24.0976 12.1425C23.6806 12.472 23.4721 12.9184 23.4721 13.4817C23.4721 14.0131 23.6701 14.4542 24.0663 14.8103C24.4625 15.1663 24.9525 15.3417 25.5415 15.3417C26.2296 15.3417 26.7821 15.0335 27.1939 14.4117H27.2356V15.1663H28.1896V11.8183C28.1896 11.1168 27.9758 10.5641 27.5484 10.1602ZM26.7404 13.9493C26.412 14.2682 26.0367 14.4276 25.6145 14.4276C25.3174 14.4276 25.0567 14.3373 24.8378 14.1619C24.6136 13.9865 24.5042 13.7633 24.5042 13.4976C24.5042 13.2053 24.6397 12.9556 24.916 12.7483C25.187 12.5517 25.5259 12.4507 25.9325 12.4507C26.4902 12.4507 26.9229 12.5782 27.2356 12.828C27.2356 13.2585 27.0688 13.6305 26.7404 13.9493ZM33.6316 9.72977L30.2955 17.5525H29.2634L30.504 14.8156L28.3042 9.72977H29.3937L30.9784 13.6305H30.9992L32.5422 9.72977H33.6316ZM15.029 10.3457C15.0832 10.6518 15.1124 10.9701 15.1124 11.3028C15.1124 12.6867 14.6313 13.8579 13.7915 14.6503C13.0539 15.3459 12.0411 15.7504 10.8349 15.7504C9.08966 15.7504 7.57953 14.73 6.84402 13.2436C6.54064 12.6287 6.36914 11.9347 6.36914 11.1992C6.36914 10.4637 6.54012 9.76963 6.84402 9.15476C7.57901 7.66781 9.09018 6.64746 10.8349 6.64746C12.0395 6.64746 13.0487 7.09865 13.8228 7.83362L12.5483 9.13191C12.0828 8.68019 11.4932 8.44902 10.8349 8.44902C9.66983 8.44902 8.6815 9.24935 8.32756 10.3282C8.23738 10.6034 8.18786 10.8963 8.18786 11.1992C8.18786 11.5021 8.23738 11.7944 8.32756 12.0697C8.6815 13.1485 9.66983 13.9488 10.8349 13.9488C11.438 13.9488 11.953 13.7878 12.3533 13.513C12.8366 13.1809 13.1519 12.6835 13.2499 12.1H10.8338V10.3457H15.029Z" fill="#374957"/>
</svg>
