<svg width="121" height="40" viewBox="0 0 121 40" fill="none" xmlns="http://www.w3.org/2000/svg">
<path d="M111.4 0H9.95957C9.58648 0 9.22347 0 8.86046 0C8.54787 0 8.24536 0 7.93277 0.010005C7.25717 0.030015 6.58157 0.070035 5.91606 0.190095C5.24046 0.310155 4.61528 0.510255 4.00018 0.82041C3.39517 1.13057 2.84057 1.53077 2.36664 2.001C1.88263 2.47124 1.47929 3.02151 1.17678 3.62181C0.864189 4.23212 0.662518 4.85243 0.541515 5.52276C0.420512 6.18309 0.380178 6.85343 0.360011 7.52376C0.360011 7.83392 0.349927 8.13407 0.339844 8.44422V31.5658C0.339844 31.8759 0.339844 32.1761 0.360011 32.4862C0.380178 33.1566 0.420512 33.8269 0.541515 34.4872C0.662518 35.1576 0.854106 35.7879 1.17678 36.3882C1.47929 36.9885 1.88263 37.5288 2.36664 37.999C2.84057 38.4792 3.39517 38.8794 4.00018 39.1796C4.61528 39.4897 5.24046 39.6898 5.91606 39.8099C6.58157 39.93 7.26726 39.97 7.93277 39.99C8.24536 39.99 8.54787 40 8.86046 40C9.23355 40 9.59656 40 9.95957 40H111.4C111.763 40 112.126 40 112.489 40C112.792 40 113.114 40 113.417 39.99C114.093 39.97 114.768 39.93 115.434 39.8099C116.109 39.6898 116.734 39.4897 117.36 39.1796C117.965 38.8794 118.509 38.4792 118.993 37.999C119.477 37.5288 119.87 36.9785 120.183 36.3882C120.496 35.7779 120.697 35.1576 120.808 34.4872C120.929 33.8269 120.97 33.1566 121 32.4862C121 32.1761 121 31.8759 121 31.5658C121 31.2056 121 30.8454 121 30.4752V9.54477C121 9.17459 121 8.81441 121 8.45423C121 8.14407 121 7.84392 121 7.53377C120.98 6.86343 120.939 6.1931 120.808 5.53277C120.697 4.86243 120.496 4.24212 120.183 3.63182C119.87 3.03152 119.467 2.48124 118.993 2.01101C118.519 1.54077 117.965 1.14057 117.36 0.830415C116.734 0.52026 116.109 0.32016 115.434 0.2001C114.768 0.08004 114.093 0.04002 113.417 0.02001C113.114 0.02001 112.792 0.010005 112.489 0.010005C112.126 0.010005 111.763 0.010005 111.4 0.010005V0Z" fill="#B7B7B7"/>
<path d="M8.86031 39.1397C8.55781 39.1397 8.2553 39.1397 7.95279 39.1297C7.38811 39.1097 6.7226 39.0797 6.06716 38.9697C5.45207 38.8596 4.90755 38.6795 4.39329 38.4194C3.86895 38.1593 3.39502 37.8091 2.98159 37.3989C2.56817 36.9887 2.22532 36.5284 1.95307 35.9982C1.6909 35.4979 1.50939 34.9477 1.40856 34.3373C1.28755 33.667 1.2573 32.9767 1.23713 32.4564C1.23713 32.2463 1.22705 31.546 1.22705 31.546V8.4444C1.22705 8.4444 1.22705 7.75406 1.23713 7.55396C1.24722 7.0337 1.27747 6.34335 1.40856 5.68302C1.51947 5.07272 1.6909 4.52244 1.95307 4.02219C2.22532 3.50193 2.56817 3.0317 2.98159 2.62149C3.39502 2.21129 3.86895 1.86111 4.39329 1.60098C4.90755 1.34085 5.46215 1.16076 6.05708 1.06071C6.73268 0.94065 7.42845 0.910635 7.95279 0.90063H8.86031L112.489 0.890625H113.407C113.921 0.92064 114.617 0.950655 115.282 1.07072C115.887 1.18077 116.442 1.35086 116.966 1.62099C117.481 1.88112 117.954 2.2313 118.368 2.6415C118.781 3.05171 119.124 3.52194 119.396 4.0422C119.659 4.55246 119.83 5.09273 119.941 5.69303C120.062 6.32334 120.092 6.97367 120.112 7.58397C120.112 7.86411 120.112 8.17427 120.112 8.47442C120.112 8.85461 120.112 9.20478 120.112 9.56496V30.5054C120.112 30.8656 120.112 31.2258 120.112 31.586C120.112 31.9161 120.112 32.2063 120.112 32.5164C120.092 33.1067 120.052 33.7571 119.941 34.3674C119.84 34.9777 119.659 35.5279 119.396 36.0382C119.124 36.5585 118.781 37.0287 118.368 37.4289C117.954 37.8491 117.481 38.1893 116.956 38.4494C116.432 38.7095 115.897 38.8896 115.272 38.9997C114.627 39.1197 113.961 39.1498 113.387 39.1598C113.094 39.1598 112.782 39.1698 112.479 39.1698H111.39H8.85023L8.86031 39.1397Z" fill="#374957"/>
<path d="M18.6111 20.01L9.03174 29.5148C9.32416 30.6053 10.3224 31.4057 11.5123 31.4057C11.9862 31.4057 12.4299 31.2756 12.8131 31.0555L12.8433 31.0355L23.5521 24.9025L18.6111 20V20.01Z" fill="#E94434"/>
<path d="M28.1602 17.7888L23.5419 15.1274L18.8833 19.7498L18.8328 19.7998L18.6211 20.0099L23.562 24.9123L28.1602 22.281C28.9668 21.8508 29.5113 21.0104 29.5113 20.0299C29.5113 19.0494 28.9668 18.229 28.1702 17.7888H28.1602Z" fill="#FBBD05"/>
<path d="M18.6111 20.0106L18.3287 19.7305L9.03167 10.5059C8.97117 10.716 8.94092 10.9361 8.94092 11.1662V28.865C8.94092 29.0952 8.97117 29.3153 9.03167 29.5154L18.6111 20.0106Z" fill="#5280BD"/>
<path d="M18.6111 20.0104L18.8229 19.8003L18.8733 19.7503L23.5319 15.128L12.8433 8.97493C12.4501 8.74481 11.9963 8.61475 11.5123 8.61475C10.3224 8.61475 9.32416 9.41515 9.03174 10.5057L18.3288 19.7303L18.6111 20.0104Z" fill="#36A954"/>
<path d="M99.9937 22.2951C98.7993 22.2951 97.5607 22.8148 97.0475 23.9494L98.5162 24.547C98.8259 23.9494 99.4098 23.7502 100.02 23.7502C100.87 23.7502 101.746 24.2525 101.754 25.1446V25.2572C101.454 25.0926 100.817 24.8414 100.029 24.8414C98.4454 24.8414 96.844 25.6902 96.844 27.2752C96.844 28.7215 98.1358 29.6569 99.5868 29.6569C100.693 29.6569 101.312 29.1719 101.692 28.6003H101.746V29.4404H103.338V25.2918C103.338 23.3691 101.869 22.2951 99.9761 22.2951H99.9937ZM99.7991 28.2278C99.2594 28.2278 98.5074 27.9594 98.5074 27.3098C98.5074 26.4783 99.4452 26.1579 100.259 26.1579C100.985 26.1579 101.33 26.3138 101.763 26.5217C101.639 27.5263 100.755 28.2365 99.7991 28.2365V28.2278ZM72.7878 18.6316H74.4423V29.4577H72.7878V18.6316ZM82.0068 24.6596C81.6972 23.8368 80.7417 22.3125 78.7864 22.3125C76.8311 22.3125 75.2385 23.8021 75.2385 25.9933C75.2385 28.0546 76.8311 29.6742 78.9722 29.6742C80.6974 29.6742 81.6972 28.6436 82.1042 28.046L80.8213 27.2059C80.3966 27.8208 79.8127 28.2278 78.9722 28.2278C78.1317 28.2278 77.53 27.8554 77.1496 27.1106L82.1838 25.0753L82.0157 24.6596H82.0068ZM76.8753 25.8894C76.8311 24.469 77.9989 23.7415 78.8395 23.7415C79.4942 23.7415 80.0516 24.062 80.2373 24.521L76.8753 25.8894ZM70.0805 23.1439H70.0274C69.6558 22.7109 68.948 22.3211 68.0455 22.3211C66.161 22.3211 64.4358 23.9407 64.4358 26.0193C64.4358 28.0979 66.161 29.6915 68.0455 29.6915C68.948 29.6915 69.6558 29.3018 70.0274 28.8514H70.0805V29.3797C70.0805 30.7915 69.3107 31.545 68.0721 31.545C67.0635 31.545 66.4353 30.8348 66.1787 30.2372L64.7366 30.8261C65.1524 31.8048 66.2495 33 68.0721 33C70.0097 33 71.6465 31.8827 71.6465 29.1632V22.5463H70.0805V23.1439ZM68.1782 28.2365C67.0369 28.2365 66.0814 27.3011 66.0814 26.0193C66.0814 24.7375 67.0369 23.7761 68.1782 23.7761C69.3196 23.7761 70.1866 24.7288 70.1866 26.0193C70.1866 27.3098 69.3019 28.2365 68.1782 28.2365ZM59.9589 22.3211C57.8798 22.3211 56.1811 23.8714 56.1811 26.002C56.1811 28.1326 57.8798 29.6829 59.9589 29.6829C62.0381 29.6829 63.7368 28.1239 63.7368 26.002C63.7368 23.8801 62.0381 22.3211 59.9589 22.3211ZM59.9589 28.2365C58.8176 28.2365 57.8356 27.3185 57.8356 26.002C57.8356 24.6855 58.8176 23.7675 59.9589 23.7675C61.1003 23.7675 62.0823 24.6769 62.0823 26.002C62.0823 27.3271 61.1003 28.2365 59.9589 28.2365ZM47.2982 23.447C47.3513 23.7242 47.3867 24.062 47.3867 24.4257C47.3867 25.5949 47.0593 27.05 46.0065 28.0806C44.9802 29.1286 43.6708 29.6829 41.9278 29.6829C38.7073 29.6829 36 27.1193 36 23.958C36 20.7968 38.7073 18.2332 41.9278 18.2332C43.7061 18.2332 44.9802 18.9174 45.9357 19.8095L44.8121 20.9094C44.1308 20.2858 43.2018 19.7921 41.9367 19.7921C39.5832 19.7921 37.743 21.6456 37.743 23.9494C37.743 26.2532 39.5832 28.1066 41.9367 28.1066C43.4584 28.1066 44.3343 27.509 44.8829 26.9634C45.3429 26.513 45.6349 25.8721 45.7499 24.9973H41.9278V23.4384H47.2982V23.447ZM94.2871 18.6316H95.9416V29.4577H94.2871V18.6316ZM51.722 22.3211C49.6428 22.3211 47.9441 23.8714 47.9441 26.002C47.9441 28.1326 49.6428 29.6829 51.722 29.6829C53.8011 29.6829 55.4998 28.1239 55.4998 26.002C55.4998 23.8801 53.8011 22.3211 51.722 22.3211ZM51.722 28.2365C50.5806 28.2365 49.5986 27.3185 49.5986 26.002C49.5986 24.6855 50.5806 23.7675 51.722 23.7675C52.8633 23.7675 53.8453 24.6769 53.8453 26.002C53.8453 27.3271 52.8633 28.2365 51.722 28.2365ZM111 22.5376L106.461 32.7488H104.736L106.417 29.1026L103.471 22.5376H105.249L107.213 27.2318H107.266L109.16 22.5376H110.991H111ZM89.7484 18.6316H85.7936V29.4577H87.448V25.3524H89.7572C91.5887 25.3524 93.3847 24.0533 93.3847 21.992C93.3847 19.9307 91.5887 18.6316 89.7572 18.6316H89.7484ZM89.7926 23.8541H87.448V20.1386H89.7926C91.0313 20.1386 91.7302 21.1432 91.7302 21.992C91.7302 22.8408 91.0313 23.8454 89.7926 23.8454V23.8541ZM65.2232 12.8981V13.4437C65.0639 13.435 64.9224 13.4004 64.7897 13.3484L64.657 13.2878L64.6746 13.7035C64.6746 14.0759 64.5508 14.431 64.3119 14.7775C64.0642 15.1239 63.728 15.4097 63.3033 15.6262C62.8786 15.8428 62.4362 15.9554 61.9762 15.9554C61.4453 15.9554 61.0295 15.8081 60.7375 15.5137C60.4456 15.2192 60.2952 14.7948 60.2952 14.2492C60.2952 14.0673 60.304 13.9027 60.3305 13.7468C60.3482 13.6083 60.3925 13.4004 60.4633 13.1233L60.6491 13.1666C60.5871 13.4091 60.5606 13.6169 60.5606 13.7815C60.5606 14.2665 60.6844 14.6476 60.941 14.9247C61.1976 15.2019 61.5515 15.3404 62.0027 15.3404C62.4982 15.3404 62.9936 15.2192 63.4802 14.9853C63.9757 14.7515 64.3119 14.4484 64.48 14.1019L64.4977 14.0673L64.48 14.0326C64.0642 13.1406 63.8518 12.543 63.8518 12.2485C63.8518 12.1013 63.8961 11.9714 63.9757 11.8501C64.0465 11.7462 64.1615 11.6422 64.3296 11.5383C64.365 11.7808 64.4358 12.1446 64.5331 12.6382V12.7249L64.5862 12.7422C64.7808 12.8374 64.9843 12.8807 65.2143 12.8981H65.2232ZM62.6486 10.8454C62.5159 11.0187 62.3478 11.2092 62.1354 11.4171C61.9054 11.2352 61.7196 11.0706 61.5692 10.9147C61.8169 10.6722 62.0027 10.4817 62.1266 10.3431C62.2947 10.5163 62.4716 10.6895 62.6486 10.8454ZM64.4623 14.8728C64.2057 15.2365 63.843 15.5396 63.3918 15.7735C62.9405 16.0073 62.4716 16.1199 61.985 16.1199C61.4099 16.1199 60.9499 15.9554 60.6225 15.6262C60.2952 15.2971 60.1359 14.8294 60.1359 14.2405C60.1359 14.0586 60.1447 13.8767 60.1713 13.7122C60.1978 13.5476 60.2421 13.3138 60.3305 12.9933L60.3482 12.9067L60.8791 13.028L60.8525 13.1146C60.7818 13.3831 60.7464 13.6083 60.7464 13.7728C60.7464 14.2145 60.8614 14.561 61.0826 14.8035C61.3038 15.046 61.6046 15.1672 62.0116 15.1672C62.4805 15.1672 62.9494 15.0546 63.4095 14.8294C63.8518 14.6216 64.1526 14.3618 64.3119 14.0586C63.8872 13.1492 63.6837 12.5516 63.6837 12.2398C63.6837 12.058 63.7368 11.8934 63.843 11.7462C63.9492 11.5989 64.1173 11.4604 64.365 11.3131L64.48 11.2438L64.4977 11.3738C64.5242 11.5903 64.6039 12.006 64.7189 12.5949C64.9135 12.6815 65.117 12.7249 65.3471 12.7249C65.3559 12.7249 65.3648 12.7249 65.3736 12.7249C65.3205 12.7249 65.2851 12.7595 65.2586 12.7941C65.0374 12.7855 64.8251 12.7422 64.6393 12.6469V12.6123C64.5154 12.0147 64.4358 11.5989 64.4092 11.3824C64.1792 11.521 64.0111 11.6509 63.9138 11.7895C63.8164 11.9194 63.7722 12.0753 63.7722 12.2398C63.7722 12.543 63.9845 13.1492 64.4092 14.0586C64.25 14.3964 63.9315 14.6736 63.4537 14.9074C62.9759 15.1412 62.4982 15.2538 62.0116 15.2538C61.5869 15.2538 61.2595 15.1239 61.0206 14.8641C60.7818 14.6043 60.6667 14.2405 60.6667 13.7815C60.6667 13.6083 60.7021 13.3831 60.7729 13.1059L60.419 13.0193C60.3394 13.3311 60.2863 13.5736 60.2686 13.7295C60.2421 13.8941 60.2332 14.0673 60.2332 14.2492C60.2332 14.8208 60.3925 15.2625 60.7021 15.5743C61.0118 15.8861 61.4453 16.042 62.0027 16.042C62.4716 16.042 62.9228 15.9294 63.3652 15.7042C63.8076 15.479 64.1526 15.1845 64.4092 14.8294C64.6658 14.4744 64.7897 14.1019 64.7897 13.7122L64.772 13.435C64.9224 13.5043 65.0816 13.5303 65.2674 13.539C65.294 13.5909 65.3294 13.6169 65.3913 13.6256C65.3824 13.6256 65.3736 13.6256 65.3648 13.6256C65.1878 13.6256 65.0197 13.5996 64.8693 13.5563V13.6949C64.8693 14.1019 64.7454 14.5003 64.48 14.8728H64.4623ZM62.0823 11.5989L62.1443 11.6422L62.1974 11.5903C62.4628 11.3391 62.684 11.0966 62.8344 10.8801L62.8786 10.8195L62.8167 10.7675C62.5955 10.5769 62.3832 10.3691 62.1797 10.1526L62.1089 10.0833L62.047 10.1612C61.9231 10.2998 61.7019 10.5336 61.3745 10.8541L61.3126 10.9147L61.3745 10.9753C61.5515 11.1659 61.7904 11.3738 62.0823 11.6076V11.5989ZM62.1177 10.2132C62.3212 10.4297 62.5424 10.6376 62.7636 10.8281C62.6132 11.0446 62.4008 11.2785 62.1354 11.5296C61.8435 11.3045 61.6134 11.0966 61.4365 10.9147C61.7727 10.5856 61.9939 10.3604 62.1177 10.2132ZM62.7636 10.8368C62.5424 10.6462 62.3212 10.4384 62.1177 10.2219C61.9939 10.3604 61.7727 10.5943 61.4365 10.9234C61.6134 11.1139 61.8435 11.3218 62.1354 11.5383C62.4008 11.2871 62.6132 11.0533 62.7636 10.8368ZM61.5603 10.9147C61.8081 10.6722 61.9939 10.4817 62.1177 10.3431C62.2858 10.5163 62.4628 10.6895 62.6397 10.8454C62.507 11.0187 62.3389 11.2092 62.1266 11.4171C61.8965 11.2352 61.7107 11.0706 61.5603 10.9147ZM65.2232 13.4697C65.2232 13.4697 65.2409 13.513 65.2497 13.539C65.0728 13.5303 64.9047 13.4957 64.7543 13.435L64.772 13.7122C64.772 14.1019 64.6481 14.4744 64.3915 14.8294C64.135 15.1845 63.7899 15.479 63.3475 15.7042C62.9052 15.9294 62.4539 16.042 61.985 16.042C61.4276 16.042 60.9941 15.8861 60.6844 15.5743C60.3748 15.2625 60.2155 14.8208 60.2155 14.2492C60.2155 14.0673 60.2244 13.8941 60.2509 13.7295C60.2775 13.565 60.3217 13.3311 60.4013 13.0193L60.7552 13.1059C60.6844 13.3831 60.6491 13.6083 60.6491 13.7815C60.6491 14.2492 60.7641 14.6129 61.0029 14.8641C61.2418 15.1239 61.5692 15.2538 61.9939 15.2538C62.4716 15.2538 62.9582 15.1412 63.436 14.9074C63.9138 14.6736 64.2323 14.3964 64.3915 14.0586C63.9669 13.1492 63.7545 12.543 63.7545 12.2398C63.7545 12.0753 63.7987 11.928 63.8961 11.7895C63.9934 11.6596 64.1526 11.521 64.3915 11.3824C64.4181 11.6076 64.4977 12.0147 64.6127 12.6123V12.6469C64.8074 12.7422 65.0109 12.7855 65.2409 12.7941C65.2232 12.8201 65.2055 12.8461 65.2055 12.8807C64.9843 12.8634 64.772 12.8201 64.5773 12.7249L64.5331 12.7075V12.6209C64.4269 12.1272 64.3561 11.7635 64.3208 11.521C64.1615 11.6249 64.0376 11.7288 63.9669 11.8328C63.8784 11.954 63.843 12.0839 63.843 12.2312C63.843 12.517 64.0553 13.1233 64.4712 14.0153L64.4889 14.05L64.4712 14.0846C64.3031 14.4397 63.9669 14.7342 63.4714 14.968C62.9848 15.2019 62.4893 15.3231 61.9939 15.3231C61.5426 15.3231 61.1887 15.1845 60.9322 14.9074C60.6756 14.6302 60.5517 14.2492 60.5517 13.7642C60.5517 13.5996 60.5783 13.3917 60.6402 13.1492L60.4544 13.1059C60.3836 13.3831 60.3482 13.5823 60.3217 13.7295C60.2952 13.8854 60.2863 14.0586 60.2863 14.2318C60.2863 14.7775 60.4367 15.2019 60.7287 15.4963C61.0206 15.7908 61.4365 15.938 61.9673 15.938C62.4185 15.938 62.8609 15.8254 63.2944 15.6089C63.7191 15.3924 64.0642 15.1066 64.3031 14.7602C64.5419 14.4224 64.6658 14.0586 64.6658 13.6862L64.6481 13.2705L64.7808 13.3311C64.9047 13.3917 65.0551 13.4177 65.2143 13.4264V13.4437L65.2232 13.4697ZM65.5152 13.4524C65.6921 13.4437 65.8602 13.4091 65.9929 13.3398C66.161 13.2618 66.3203 13.1233 66.4618 12.9327L66.5061 12.8721L66.5769 12.9067C66.86 13.0713 67.2227 13.2012 67.6562 13.3051C68.0721 13.4091 68.4791 13.461 68.8507 13.461C69.0099 13.3311 69.1249 13.1925 69.1869 13.054C69.2576 12.9067 69.293 12.7335 69.293 12.5603C69.293 12.2398 69.2399 11.9021 69.1249 11.5556C69.0099 11.2092 68.8684 10.9234 68.6826 10.7069C68.5145 10.499 68.3464 10.4037 68.1871 10.4037C67.9305 10.4037 67.6828 10.5077 67.4616 10.6982C67.2316 10.9061 66.9927 11.2612 66.745 11.7722L66.5503 12.1532C66.4176 12.4044 66.2672 12.5949 66.0814 12.7162C65.931 12.8201 65.7363 12.8721 65.524 12.8894V13.435L65.5152 13.4524ZM66.8334 12.3005C67.0192 11.9367 67.1696 11.6855 67.2758 11.5383C67.3908 11.3824 67.5058 11.2612 67.6209 11.1832C67.7447 11.1053 67.8774 11.062 68.019 11.062C68.2048 11.062 68.3552 11.2525 68.5145 11.6596C68.656 12.0233 68.7356 12.4131 68.7445 12.8201V12.9241L68.6472 12.9154C67.9305 12.8374 67.3289 12.6729 66.8688 12.4304L66.798 12.3871L66.8334 12.3091V12.3005ZM65.5152 13.4524C65.5152 13.4524 65.4621 13.4524 65.4267 13.461V12.9067C65.4267 12.9067 65.4798 12.9067 65.5152 12.8981V13.4437V13.4524ZM65.4267 12.9067V13.461C65.4267 13.461 65.409 13.461 65.4001 13.461V12.9067C65.4001 12.9067 65.4178 12.9067 65.4267 12.9067ZM68.4348 11.6942C68.2933 11.3304 68.1606 11.1572 68.019 11.1572C67.8951 11.1572 67.7801 11.1919 67.6739 11.2612C67.5678 11.3304 67.4616 11.443 67.3466 11.5903C67.2404 11.7375 67.09 11.9887 66.9131 12.3438C67.3731 12.5863 67.9482 12.7508 68.6649 12.8201C68.656 12.4304 68.5764 12.0493 68.4348 11.6855V11.6942ZM67.4262 11.6422C67.5324 11.5037 67.6297 11.3997 67.727 11.3304C67.8243 11.2698 67.9217 11.2352 68.0278 11.2352C68.0632 11.2352 68.1871 11.2698 68.3552 11.7202C68.4791 12.0406 68.5498 12.3784 68.5764 12.7249C67.9659 12.6556 67.4528 12.5083 67.0369 12.3091C67.205 11.9973 67.3289 11.7722 67.4262 11.6422ZM65.3736 12.7422C65.3736 12.7422 65.3913 12.7422 65.4001 12.7422C65.6302 12.7422 65.816 12.6902 65.9752 12.5863C66.1345 12.4823 66.2672 12.3091 66.3911 12.0839L66.5857 11.7029C66.8423 11.1746 67.09 10.7935 67.3377 10.5769C67.5943 10.3518 67.8774 10.2305 68.1871 10.2305C68.4083 10.2305 68.6206 10.3518 68.8241 10.6029C69.0188 10.8368 69.178 11.1399 69.293 11.5037C69.408 11.8674 69.47 12.2225 69.47 12.5603C69.47 12.7682 69.4346 12.9587 69.355 13.1319C69.2753 13.3051 69.1426 13.4697 68.948 13.6256L68.9214 13.6429H68.886C68.4879 13.6429 68.0632 13.5909 67.6209 13.4783C67.2139 13.3831 66.8511 13.2532 66.568 13.0973C66.4176 13.2791 66.2583 13.4091 66.0814 13.4957C65.8956 13.5909 65.6656 13.6342 65.4001 13.6342C65.3913 13.6342 65.3824 13.6342 65.3736 13.6342C65.4355 13.6342 65.4709 13.5909 65.4886 13.5476C65.6921 13.539 65.8779 13.5043 66.0372 13.4264C66.223 13.3398 66.3822 13.1925 66.5326 12.9933C66.8246 13.1579 67.1962 13.2965 67.6297 13.4004C68.0721 13.5043 68.4791 13.5563 68.8772 13.5563C69.063 13.4091 69.1869 13.2618 69.2576 13.0973C69.3284 12.9414 69.3638 12.7595 69.3638 12.569C69.3638 12.2398 69.3019 11.8934 69.1869 11.5383C69.0718 11.1832 68.9214 10.8887 68.7268 10.6636C68.541 10.4384 68.3464 10.3258 68.1606 10.3258C67.8774 10.3258 67.612 10.4297 67.3731 10.6462C67.1342 10.8628 66.8865 11.2265 66.6388 11.7462L66.4441 12.1272C66.3203 12.3698 66.1699 12.543 66.0018 12.6642C65.8514 12.7682 65.6744 12.8115 65.4621 12.8288C65.4355 12.7941 65.4001 12.7682 65.3471 12.7595L65.3736 12.7422ZM65.3117 12.9067V13.461C65.3117 13.461 65.2497 13.461 65.2232 13.461V12.9154C65.2497 12.9154 65.2763 12.9241 65.3117 12.9241V12.9067ZM65.3736 13.6256C65.3117 13.6256 65.2763 13.5823 65.2497 13.539C65.2851 13.539 65.3117 13.5476 65.3471 13.5476C65.3648 13.5476 65.3559 13.5303 65.3736 13.5217C65.3824 13.5217 65.3736 13.5476 65.4001 13.5476C65.4355 13.5476 65.4621 13.5476 65.4975 13.539C65.4798 13.5909 65.4355 13.6169 65.3825 13.6256H65.3736ZM65.3736 12.7422C65.4267 12.7422 65.4621 12.7682 65.4886 12.8115C65.4621 12.8115 65.4355 12.8201 65.4001 12.8201C65.3825 12.8201 65.3913 12.8374 65.3736 12.8461C65.3648 12.8461 65.3736 12.8201 65.3471 12.8201C65.3117 12.8201 65.2851 12.8201 65.2586 12.8115C65.2851 12.7768 65.3205 12.7508 65.3736 12.7422ZM65.232 12.8981C65.232 12.8981 65.2497 12.8374 65.2674 12.8115C65.294 12.8115 65.3294 12.8201 65.3559 12.8201C65.3736 12.8201 65.3648 12.8374 65.3825 12.8461C65.3559 12.8548 65.3205 12.8634 65.3205 12.9067C65.3205 12.9067 65.2674 12.9067 65.232 12.9067V12.8981ZM65.3471 13.5476C65.3471 13.5476 65.2851 13.5476 65.2497 13.539C65.2409 13.513 65.2232 13.4957 65.2232 13.4697V13.4524C65.2232 13.4524 65.2851 13.4524 65.3117 13.4524C65.3117 13.5043 65.3382 13.5043 65.3736 13.5217C65.3648 13.5217 65.3736 13.5476 65.3471 13.5476ZM68.656 12.9067H68.7533V12.8201C68.7445 12.4217 68.6649 12.032 68.5233 11.6596C68.364 11.2525 68.2048 11.062 68.0278 11.062C67.8863 11.062 67.7536 11.1053 67.6297 11.1832C67.5147 11.2612 67.3997 11.3738 67.2847 11.5383C67.1785 11.6855 67.0281 11.9367 66.8423 12.3005L66.8069 12.3784L66.8777 12.4217C67.3466 12.6729 67.9394 12.8374 68.656 12.9067ZM67.3554 11.5903C67.4616 11.443 67.5678 11.3304 67.6828 11.2612C67.789 11.1919 67.904 11.1572 68.0278 11.1572C68.1606 11.1572 68.3021 11.3391 68.4437 11.6942C68.5852 12.058 68.656 12.4304 68.6737 12.8288C67.9659 12.7508 67.382 12.5949 66.9219 12.3524C67.1077 11.9973 67.2493 11.7462 67.3554 11.5989V11.5903ZM65.5152 12.8894C65.5152 12.8894 65.4975 12.8288 65.4798 12.8028C65.6833 12.7855 65.8691 12.7422 66.0195 12.6382C66.1876 12.5257 66.338 12.3438 66.4618 12.1013L66.6565 11.7202C66.9042 11.2005 67.1519 10.8281 67.3908 10.6203C67.6297 10.4037 67.8951 10.2998 68.1782 10.2998C68.364 10.2998 68.5587 10.4124 68.7445 10.6376C68.9303 10.8628 69.0807 11.1572 69.2046 11.5123C69.3196 11.8674 69.3815 12.2139 69.3815 12.543C69.3815 12.7422 69.3461 12.9154 69.2753 13.0713C69.2046 13.2272 69.0718 13.3831 68.8949 13.5303C68.5056 13.5303 68.0898 13.4783 67.6474 13.3744C67.205 13.2705 66.8423 13.1319 66.5503 12.9674C66.3999 13.1666 66.2318 13.3138 66.0549 13.4004C65.9044 13.4783 65.7187 13.513 65.5063 13.5217C65.5152 13.4957 65.5329 13.4783 65.5329 13.4524V13.435C65.7098 13.4264 65.8779 13.3917 66.0106 13.3225C66.1787 13.2445 66.338 13.1059 66.4795 12.9154L66.5238 12.8548L66.5946 12.8894C66.8777 13.054 67.2404 13.1839 67.6739 13.2878C68.0898 13.3917 68.4968 13.4437 68.8684 13.4437C69.0276 13.3138 69.1426 13.1752 69.2046 13.0366C69.2753 12.8894 69.3107 12.7162 69.3107 12.543C69.3107 12.2225 69.2576 11.8847 69.1426 11.5383C69.0276 11.1919 68.886 10.9061 68.7002 10.6895C68.5322 10.4817 68.364 10.3864 68.2048 10.3864C67.9482 10.3864 67.7005 10.4903 67.4793 10.6809C67.2493 10.8887 67.0104 11.2438 66.7627 11.7548L66.568 12.1359C66.4353 12.3871 66.2849 12.5776 66.0991 12.6989C65.9487 12.8028 65.754 12.8548 65.5417 12.8721L65.5152 12.8894ZM65.3382 13.461C65.3382 13.461 65.3205 13.461 65.3117 13.461V12.9067C65.3117 12.9067 65.3294 12.9067 65.3382 12.9067V13.461ZM65.4267 12.8981C65.4267 12.8981 65.4001 12.8548 65.3648 12.8374C65.3736 12.8374 65.3648 12.8115 65.3913 12.8115C65.4267 12.8115 65.4532 12.8028 65.4798 12.8028C65.4975 12.8288 65.5063 12.8548 65.5152 12.8894C65.4886 12.8894 65.4621 12.8981 65.4267 12.8981ZM65.5152 13.4697C65.5152 13.4697 65.4975 13.513 65.4886 13.539C65.4532 13.539 65.4267 13.5476 65.3913 13.5476C65.3736 13.5476 65.3824 13.5303 65.3648 13.5217C65.3913 13.513 65.4267 13.5043 65.4267 13.461C65.4267 13.461 65.4886 13.4437 65.5152 13.4437V13.461V13.4697ZM65.3117 12.8981C65.3117 12.8981 65.3382 12.8548 65.3736 12.8374C65.4001 12.8461 65.4355 12.8548 65.4355 12.8981C65.4355 12.8981 65.409 12.8981 65.4001 12.8981V13.4524C65.4001 13.4524 65.4267 13.4524 65.4355 13.4524C65.4355 13.5043 65.409 13.513 65.3736 13.5217C65.3471 13.513 65.3117 13.5043 65.3117 13.461C65.3117 13.461 65.3294 13.461 65.3382 13.461V12.9067C65.3382 12.9067 65.3205 12.9067 65.3117 12.9067V12.8981ZM76.3356 12.8981V13.4437C76.0171 13.4264 75.7517 13.3744 75.5482 13.2532C75.327 13.1233 75.2031 12.9414 75.1677 12.6989L75.1324 12.4823L74.8669 10.8454L74.8315 10.7242L74.7431 10.7502C73.9556 11.0187 73.3806 11.3651 73.0444 11.7808L72.9913 11.8501L73.0532 11.9021C73.3186 12.1272 73.6283 12.2831 73.9556 12.3524C74.2565 12.4217 74.5927 12.4564 74.9643 12.4737L74.6369 13.0713C74.3184 13.0453 74.0972 13.0107 73.9733 12.9847C73.8406 12.9587 73.7079 12.9154 73.5664 12.8634C73.4248 12.8115 73.2832 12.7422 73.1328 12.6642C72.9913 12.5863 72.8763 12.5083 72.8055 12.439C72.7435 12.3784 72.717 12.3264 72.717 12.2831C72.717 12.2312 72.7347 12.1272 72.8409 11.8847C72.9293 11.6769 73.0001 11.5383 73.0532 11.443C73.1417 11.2785 73.354 11.0793 73.6725 10.8628C73.9999 10.6376 74.3449 10.447 74.7077 10.3085L74.7696 10.2825L74.7342 9.99667C74.9023 9.84943 75.0793 9.71952 75.2651 9.61559L75.3535 12.5603V12.6123L75.3978 12.6382C75.6721 12.7941 75.9906 12.8721 76.3356 12.8894V12.8981ZM76.486 13.6256C76.486 13.6256 76.4683 13.6342 76.4595 13.6342C76.0525 13.6342 75.7163 13.5563 75.4597 13.4091C75.212 13.2618 75.0527 13.054 75.0085 12.7941L74.7431 13.2791H74.6811C74.3272 13.2445 74.0795 13.2099 73.938 13.1839C73.7964 13.1492 73.6548 13.1059 73.5044 13.054C73.354 13.002 73.2036 12.9241 73.0532 12.8461C72.894 12.7595 72.7701 12.6729 72.6905 12.5863C72.5931 12.491 72.5489 12.3957 72.5489 12.3091C72.5489 12.2139 72.5931 12.0666 72.6905 11.8414C72.7789 11.6249 72.8497 11.4777 72.9116 11.3824C73.0178 11.1919 73.239 10.984 73.5841 10.7415C73.9026 10.525 74.2388 10.3344 74.5927 10.1959L74.5573 9.95336L74.5927 9.91872C74.8227 9.71952 75.0704 9.5463 75.3182 9.40773L75.442 9.33844V9.47702L75.5393 12.5256C75.8048 12.6729 76.1233 12.7422 76.4595 12.7422C76.4683 12.7422 76.4772 12.7422 76.486 12.7508C76.4329 12.7508 76.3975 12.7768 76.371 12.8201C76.026 12.8115 75.7163 12.7335 75.442 12.5776L75.3535 9.48568C75.1058 9.61559 74.8669 9.78881 74.6457 9.97935L74.6811 10.2392C74.3095 10.3864 73.9556 10.5769 73.6283 10.8021C73.3009 11.036 73.0798 11.2352 72.9824 11.4171C72.9293 11.5123 72.8497 11.6596 72.7701 11.8674C72.6816 12.0753 72.6374 12.2139 72.6374 12.3005C72.6374 12.3698 72.6728 12.439 72.7524 12.517C72.832 12.5949 72.947 12.6729 73.0974 12.7595C73.2478 12.8461 73.3983 12.9154 73.5398 12.9674C73.6814 13.0193 73.8229 13.0626 73.9556 13.0973C74.0884 13.1233 74.3361 13.1579 74.69 13.1839L75.0439 12.5256L75.0793 12.7249C75.1147 12.9847 75.2562 13.1925 75.504 13.3398C75.7251 13.4697 76.0171 13.539 76.3622 13.5476C76.3799 13.5996 76.4241 13.6256 76.4772 13.6342L76.486 13.6256ZM74.7696 10.8541C73.991 11.1139 73.4425 11.4517 73.1063 11.8588C73.3629 12.0753 73.6548 12.2225 73.9733 12.2918C74.2919 12.3611 74.6369 12.4044 75.0262 12.4044L74.7785 10.8714V10.8541H74.7696ZM73.9999 12.2052C73.7256 12.1446 73.469 12.0233 73.239 11.8414C73.5487 11.495 74.0441 11.2005 74.7077 10.9667L74.9289 12.3178C74.5927 12.3091 74.283 12.2658 73.9999 12.2052ZM76.3356 13.4524C76.0171 13.435 75.7517 13.3831 75.5482 13.2618C75.327 13.1319 75.2031 12.95 75.1677 12.7075L75.1324 12.491L74.8669 10.8541L74.8315 10.7328L74.7431 10.7588C73.9556 11.0273 73.3806 11.3738 73.0444 11.7895L72.9913 11.8588L73.0532 11.9107C73.3186 12.1359 73.6283 12.2918 73.9556 12.3611C74.2565 12.4304 74.5927 12.465 74.9643 12.4823L74.6369 13.0799C74.3184 13.054 74.0972 13.0193 73.9733 12.9933C73.8406 12.9674 73.7079 12.9241 73.5664 12.8721C73.4248 12.8201 73.2832 12.7508 73.1328 12.6729C72.9913 12.5949 72.8763 12.517 72.8055 12.4477C72.7435 12.3871 72.717 12.3351 72.717 12.2918C72.717 12.2398 72.7347 12.1359 72.8409 11.8934C72.9293 11.6855 73.0001 11.547 73.0532 11.4517C73.1417 11.2871 73.354 11.0879 73.6725 10.8714C73.9999 10.6462 74.3449 10.4557 74.7077 10.3171L74.7696 10.2911L74.7342 10.0053C74.9023 9.85809 75.0793 9.72818 75.2651 9.62425L75.3535 12.569V12.6209L75.3978 12.6469C75.6721 12.8028 75.9906 12.8807 76.3356 12.8981C76.3356 12.8634 76.3533 12.8374 76.371 12.8115C76.026 12.8028 75.7163 12.7249 75.442 12.569L75.3535 9.47702C75.1058 9.60693 74.8669 9.78015 74.6457 9.97069L74.6811 10.2305C74.3095 10.3777 73.9556 10.5683 73.6283 10.7935C73.3009 11.0273 73.0798 11.2265 72.9824 11.4084C72.9293 11.5037 72.8497 11.6509 72.7701 11.8588C72.6816 12.0666 72.6374 12.2052 72.6374 12.2918C72.6374 12.3611 72.6728 12.4304 72.7524 12.5083C72.832 12.5863 72.947 12.6642 73.0974 12.7508C73.2478 12.8374 73.3983 12.9067 73.5398 12.9587C73.6814 13.0107 73.8229 13.054 73.9556 13.0886C74.0884 13.1146 74.3361 13.1492 74.69 13.1752L75.0439 12.517L75.0793 12.7162C75.1147 12.976 75.2562 13.1839 75.504 13.3311C75.7251 13.461 76.0171 13.5303 76.3622 13.539C76.3533 13.513 76.3356 13.4957 76.3356 13.4697V13.4524ZM73.9822 12.2831C73.6637 12.2139 73.3806 12.0666 73.1151 11.8501C73.4425 11.443 73.9999 11.1053 74.7785 10.8454V10.8628L75.035 12.3957C74.6546 12.3957 74.3007 12.3524 73.9822 12.2831ZM79.4588 12.8288C79.6534 12.8807 79.8658 12.9067 80.0781 12.9067V13.461C79.5119 13.461 79.0164 13.2791 78.6183 12.9327L78.5475 12.8721L78.3351 13.1492C78.3351 13.1492 78.2113 13.2445 77.6804 13.3484C77.3265 13.4177 76.9726 13.4524 76.6276 13.4697V12.9154C76.9815 12.9154 77.2911 12.8981 77.5389 12.8634C77.8397 12.8288 78.0432 12.7682 78.1759 12.6729C78.3086 12.5776 78.4767 12.3264 78.7156 11.8847L78.8837 11.5816C78.9102 11.5383 78.9633 11.4777 79.1049 11.4777C79.1491 11.4777 79.1933 11.4777 79.2287 11.5037C79.1226 11.7548 79.0341 11.954 78.9545 12.1272C78.8395 12.3611 78.8129 12.4131 78.8041 12.4217L78.7333 12.4997L78.8218 12.5516C79.0429 12.6902 79.2553 12.7941 79.4588 12.8461V12.8288ZM79.1137 15.1499C78.9014 14.9767 78.7244 14.8208 78.6006 14.6909C78.7333 14.5696 78.9014 14.3964 79.1049 14.1712C79.1933 14.2578 79.3438 14.4051 79.5915 14.6302C79.4853 14.7775 79.3261 14.9507 79.1137 15.1499ZM77.6539 15.2885C77.4327 15.1153 77.2646 14.9594 77.1407 14.8294C77.2823 14.6909 77.4592 14.5177 77.645 14.3098C77.7247 14.3877 77.8751 14.535 78.1228 14.7688C78.0166 14.9161 77.8574 15.0979 77.6539 15.2885ZM76.6276 12.9067V13.461C76.6276 13.461 76.5657 13.461 76.5391 13.461V12.8981C76.5391 12.8981 76.5922 12.8981 76.6276 12.8981V12.9067ZM76.5391 12.9067V13.4697C76.5391 13.4697 76.5214 13.4697 76.5126 13.4697V12.9067C76.5126 12.9067 76.5303 12.9067 76.5391 12.9067ZM79.0606 15.3318L79.1226 15.3751L79.1757 15.3231C79.4499 15.072 79.6534 14.8468 79.7773 14.6562L79.8127 14.5956L79.7596 14.5436C79.3968 14.2059 79.2199 14.024 79.1668 13.972L79.1049 13.9027L79.0429 13.972C78.7775 14.2665 78.5652 14.483 78.4236 14.6043L78.3617 14.6562L78.4148 14.7169C78.5652 14.8901 78.7864 15.0893 79.0695 15.3058L79.0606 15.3318ZM79.1049 14.0413C79.158 14.1019 79.3615 14.2925 79.7065 14.6216C79.5915 14.8035 79.3968 15.02 79.1226 15.2712C78.8395 15.0546 78.6271 14.8554 78.4767 14.6909C78.6271 14.561 78.8306 14.3444 79.1049 14.05V14.0413ZM80.1754 13.6083C80.1754 13.6083 80.1312 13.6342 80.1046 13.6342C79.5207 13.6342 79.0075 13.461 78.5829 13.1233L78.4855 13.2532C78.4236 13.3225 78.2909 13.4004 77.7247 13.513C77.3177 13.5909 76.9107 13.6342 76.5126 13.6342C76.5037 13.6342 76.4949 13.6342 76.486 13.6256C76.5391 13.6256 76.5833 13.5909 76.601 13.539C76.9638 13.539 77.3265 13.4957 77.6981 13.4264C78.1051 13.3484 78.3351 13.2705 78.4059 13.2012L78.5652 12.9933C78.9899 13.3658 79.503 13.5476 80.1046 13.5476C80.1223 13.5823 80.14 13.5996 80.1754 13.6169V13.6083ZM77.6097 15.4704L77.6716 15.5223L77.7247 15.4704C77.9989 15.2192 78.1936 14.994 78.3174 14.8035L78.3528 14.7428L78.2998 14.6909C77.937 14.3444 77.7601 14.1712 77.707 14.1193L77.6362 14.05L77.5743 14.1193C77.3265 14.3877 77.123 14.6043 76.9549 14.7515L76.893 14.8121L76.9461 14.8728C77.0877 15.0373 77.3088 15.2365 77.6008 15.4617L77.6097 15.4704ZM77.645 14.1799C77.6981 14.2405 77.9016 14.431 78.2378 14.7515C78.1228 14.9334 77.9282 15.1499 77.6627 15.4011C77.3708 15.1672 77.1584 14.9767 77.0169 14.8208C77.185 14.6649 77.3973 14.4484 77.645 14.1799ZM76.486 12.7422C76.486 12.7422 76.5037 12.7335 76.5126 12.7335C76.9107 12.7335 77.2469 12.7162 77.5212 12.6815C77.7866 12.6469 77.9724 12.5949 78.0786 12.5256C78.1493 12.4737 78.2909 12.3091 78.5652 11.7981L78.7333 11.4863C78.7864 11.3997 78.8925 11.2871 79.1137 11.2871C79.2199 11.2871 79.3172 11.3218 79.4057 11.3738L79.4588 11.4171L79.4322 11.4777C79.3084 11.7635 79.211 11.9887 79.1226 12.1706C79.0606 12.2918 79.0252 12.3698 78.9987 12.4131C79.1845 12.517 79.3526 12.5949 79.5119 12.6469C79.6888 12.6989 79.8923 12.7249 80.1046 12.7249C80.14 12.7249 80.1577 12.7422 80.1754 12.7508C80.14 12.7682 80.1223 12.7855 80.1046 12.8201C79.8835 12.8201 79.68 12.7941 79.4853 12.7422C79.2995 12.6902 79.096 12.5949 78.8748 12.4564C78.8925 12.439 78.9456 12.3351 79.0341 12.1446C79.1226 11.9627 79.2287 11.7288 79.3438 11.4517C79.273 11.3997 79.1933 11.3738 79.1049 11.3738C78.9633 11.3738 78.866 11.4257 78.8041 11.5296L78.636 11.8328C78.4148 12.2572 78.2378 12.5083 78.1228 12.5949C78.0078 12.6729 77.8131 12.7335 77.53 12.7682C77.2734 12.8028 76.9549 12.8115 76.5922 12.8201C76.5657 12.7768 76.5303 12.7508 76.4772 12.7422H76.486ZM76.3356 12.8981C76.3356 12.8981 76.3887 12.9067 76.4241 12.9067V13.461C76.4241 13.461 76.371 13.461 76.3356 13.4524V12.9067V12.8981ZM76.486 13.6256C76.4241 13.6256 76.3887 13.5823 76.371 13.539C76.4064 13.539 76.4329 13.5476 76.4683 13.5476C76.486 13.5476 76.4772 13.5303 76.4949 13.5217C76.5037 13.5217 76.4949 13.5476 76.5214 13.5476C76.548 13.5476 76.5833 13.5476 76.6099 13.5476C76.5833 13.5909 76.548 13.6256 76.4949 13.6342L76.486 13.6256ZM76.486 12.7422C76.5391 12.7422 76.5745 12.7768 76.601 12.8201C76.5657 12.8201 76.548 12.8201 76.5126 12.8201C76.4949 12.8201 76.5037 12.8374 76.486 12.8461C76.4772 12.8461 76.486 12.8201 76.4595 12.8201C76.4329 12.8201 76.4064 12.8115 76.371 12.8115C76.3975 12.7768 76.4329 12.7508 76.486 12.7422ZM76.4241 13.4697C76.4241 13.4697 76.4506 13.513 76.4772 13.5217C76.4683 13.5217 76.4772 13.5476 76.4506 13.5476C76.4152 13.5476 76.3887 13.5476 76.3533 13.539C76.3445 13.513 76.3268 13.4957 76.3268 13.4697V13.4524C76.3268 13.4524 76.3799 13.461 76.4152 13.461L76.4241 13.4697ZM76.3356 12.8981C76.3356 12.8981 76.3533 12.8374 76.371 12.8115C76.3975 12.8115 76.4241 12.8201 76.4595 12.8201C76.4772 12.8201 76.4683 12.8374 76.486 12.8461C76.4595 12.8548 76.4329 12.8634 76.4329 12.8981C76.4329 12.8981 76.3799 12.8981 76.3445 12.8981H76.3356ZM80.0781 13.4697C80.0781 13.4697 80.0958 13.5217 80.1046 13.539C79.503 13.539 78.9899 13.3571 78.5652 12.9847L78.4059 13.1925C78.344 13.2618 78.1051 13.3398 77.6981 13.4177C77.3265 13.4957 76.9638 13.5303 76.601 13.5303C76.6099 13.5043 76.6276 13.487 76.6276 13.4524C76.9726 13.435 77.3265 13.4004 77.6804 13.3225C78.2201 13.2185 78.3174 13.1406 78.3351 13.1233L78.5475 12.8461L78.6183 12.9067C79.0252 13.2532 79.5119 13.435 80.0781 13.435V13.4697ZM76.6276 12.8981C76.6276 12.8981 76.6099 12.8374 76.5922 12.8201C76.9549 12.8201 77.2646 12.8028 77.53 12.7682C77.8131 12.7335 78.0078 12.6729 78.1228 12.5949C78.2378 12.517 78.4059 12.2658 78.636 11.8328L78.8041 11.5296C78.8571 11.4257 78.9633 11.3738 79.1049 11.3738C79.1933 11.3738 79.273 11.3997 79.3438 11.4517C79.2287 11.7288 79.1226 11.9627 79.0341 12.1446C78.9456 12.3264 78.8925 12.4304 78.8748 12.4564C79.096 12.5949 79.2995 12.6902 79.4853 12.7422C79.6711 12.7941 79.8746 12.8201 80.1046 12.8201C80.0958 12.8461 80.0781 12.8634 80.0781 12.8894C79.8658 12.8894 79.6534 12.8721 79.4588 12.8115C79.2641 12.7595 79.0518 12.6556 78.8218 12.517L78.7333 12.465L78.8041 12.3871C78.8041 12.3871 78.8395 12.3351 78.9545 12.0926C79.0341 11.928 79.1226 11.7202 79.2287 11.469C79.1933 11.4517 79.1491 11.443 79.1049 11.443C78.9633 11.443 78.9102 11.5037 78.8837 11.547L78.7156 11.8501C78.4767 12.2918 78.3086 12.543 78.1759 12.6382C78.0432 12.7249 77.8397 12.7855 77.5389 12.8288C77.2911 12.8634 76.9726 12.8721 76.6276 12.8807V12.8981ZM79.1226 15.2625C79.3968 15.0113 79.5915 14.7948 79.7065 14.6129C79.3615 14.2925 79.1668 14.1019 79.1049 14.0326C78.8306 14.3271 78.6271 14.5436 78.4767 14.6736C78.6271 14.8381 78.8395 15.0373 79.1226 15.2538V15.2625ZM79.1049 14.1712C79.1933 14.2578 79.3438 14.4051 79.5915 14.6302C79.4853 14.7775 79.3261 14.9507 79.1137 15.1499C78.9014 14.9767 78.7244 14.8208 78.6006 14.6909C78.7333 14.5696 78.9014 14.3964 79.1049 14.1712ZM77.6627 15.4011C77.9282 15.1499 78.1228 14.9334 78.2378 14.7515C77.9016 14.431 77.6981 14.2405 77.645 14.1799C77.3973 14.457 77.185 14.6649 77.0169 14.8208C77.1584 14.9767 77.3708 15.1759 77.6627 15.4011ZM77.645 14.3098C77.7247 14.3877 77.8751 14.535 78.1228 14.7688C78.0166 14.9161 77.8574 15.0979 77.6539 15.2885C77.4327 15.1153 77.2646 14.9594 77.1407 14.8294C77.2823 14.6909 77.4592 14.5177 77.645 14.3098ZM76.4241 13.461V12.9067C76.4241 12.9067 76.4418 12.9067 76.4506 12.9067V13.461C76.4506 13.461 76.4329 13.461 76.4241 13.461ZM76.6276 13.4697C76.6276 13.4697 76.6099 13.5217 76.601 13.5476C76.5745 13.5476 76.5391 13.5476 76.5126 13.5476C76.4949 13.5476 76.5037 13.5303 76.486 13.5217C76.5126 13.513 76.5391 13.5043 76.5391 13.4697C76.5391 13.4697 76.601 13.4697 76.6276 13.4697ZM76.5391 12.8981C76.5391 12.8981 76.5126 12.8548 76.486 12.8461C76.4949 12.8461 76.486 12.8201 76.5126 12.8201C76.548 12.8201 76.5745 12.8201 76.601 12.8201C76.6187 12.8461 76.6364 12.8634 76.6364 12.8981C76.6364 12.8981 76.5833 12.8981 76.548 12.8981H76.5391ZM76.5391 13.4697C76.5391 13.4697 76.5126 13.513 76.486 13.5217C76.4595 13.513 76.4329 13.5043 76.4329 13.4697C76.4329 13.4697 76.4506 13.4697 76.4595 13.4697V12.9154C76.4595 12.9154 76.4418 12.9154 76.4329 12.9154C76.4329 12.9154 76.4595 12.8634 76.486 12.8548C76.5126 12.8634 76.5391 12.8721 76.5391 12.9067C76.5391 12.9067 76.5214 12.9067 76.5037 12.9067V13.4697C76.5037 13.4697 76.5303 13.4697 76.5391 13.4697ZM82.5908 12.8981V13.4437C82.2015 13.4264 81.8741 13.3311 81.6529 13.1406L81.6087 13.0973L81.5556 13.1233C81.3256 13.2532 81.1221 13.3398 80.9363 13.3831C80.7593 13.4264 80.5382 13.4524 80.2727 13.4524V12.8981C80.6443 12.8981 81.0071 12.8115 81.361 12.6469L81.4141 12.6209V12.5603C81.3256 11.9021 81.2194 10.6809 81.0956 8.9487L81.0071 7.71885C81.1575 7.57162 81.3167 7.44171 81.4937 7.32045C81.5291 8.20386 81.5645 9.53764 81.5822 11.2698L81.6176 12.6209L81.6618 12.6469C81.9361 12.8028 82.2546 12.8807 82.5996 12.8981H82.5908ZM80.2727 12.9067V13.461C80.2727 13.461 80.2727 13.461 80.2639 13.461V12.9067C80.2639 12.9067 80.2639 12.9067 80.2727 12.9067ZM82.7323 13.6256C82.7323 13.6256 82.7146 13.6342 82.7058 13.6342C82.2369 13.6342 81.8564 13.5303 81.5822 13.3138C81.361 13.435 81.1575 13.513 80.9717 13.565C80.777 13.6169 80.5293 13.6429 80.2462 13.6429C80.2108 13.6429 80.1931 13.6256 80.1754 13.6169C80.2108 13.5996 80.2285 13.5823 80.2462 13.5476C80.5293 13.5476 80.7593 13.5217 80.954 13.4783C81.1398 13.4264 81.361 13.3398 81.591 13.2099C81.8387 13.4177 82.1838 13.5217 82.6173 13.539C82.635 13.5909 82.6793 13.6169 82.7323 13.6256ZM80.1754 12.7595C80.1754 12.7595 80.2197 12.7335 80.2462 12.7335C80.5824 12.7335 80.9009 12.6642 81.2106 12.5256C81.1309 11.8414 81.0248 10.6722 80.9098 8.96602L80.8124 7.65823L80.839 7.63225C81.0336 7.43304 81.2637 7.25117 81.5114 7.08661L81.6441 7V7.1559C81.6883 8.03931 81.7237 9.42505 81.7503 11.2698L81.7857 12.5256C82.0511 12.6729 82.3696 12.7422 82.7058 12.7422C82.7146 12.7422 82.7235 12.7422 82.7323 12.7508C82.6793 12.7508 82.6439 12.7855 82.6262 12.8201C82.2811 12.8115 81.9715 12.7335 81.6972 12.5776L81.6618 11.2698C81.6353 9.39907 81.5999 8.03065 81.5645 7.16456C81.3167 7.32045 81.1044 7.50233 80.9098 7.69287L81.0071 8.96602C81.1309 10.7069 81.2283 11.9194 81.3167 12.5863C80.9717 12.7508 80.6178 12.8288 80.255 12.8288C80.2374 12.7941 80.2197 12.7768 80.1843 12.7595H80.1754ZM80.0781 12.8981C80.0781 12.8981 80.0781 12.8981 80.0869 12.8981V13.461C80.0869 13.461 80.0869 13.461 80.0781 13.461V12.9067V12.8981ZM80.1754 13.6083C80.1754 13.6083 80.1223 13.5736 80.1046 13.539C80.1489 13.539 80.1666 13.513 80.1754 13.4697C80.1754 13.513 80.202 13.5303 80.2462 13.539C80.2285 13.5736 80.2108 13.5909 80.1754 13.6083ZM80.1754 12.7595C80.1754 12.7595 80.2285 12.7941 80.2462 12.8288C80.2108 12.8288 80.1843 12.8548 80.1754 12.8981C80.1754 12.8548 80.1489 12.8374 80.1046 12.8288C80.1223 12.7941 80.14 12.7768 80.1754 12.7595ZM80.1666 13.4697C80.1666 13.513 80.14 13.5303 80.0958 13.539C80.0869 13.513 80.0692 13.4957 80.0692 13.4697C80.0692 13.4697 80.0781 13.4697 80.0869 13.4697V12.9067H80.0692C80.0692 12.8807 80.0869 12.8548 80.0958 12.8374C80.14 12.8374 80.1577 12.8634 80.1666 12.9067V13.4783V13.4697ZM80.2727 12.8981C80.2727 12.8981 80.255 12.8461 80.2462 12.8288C80.6178 12.8288 80.9717 12.7508 81.3079 12.5863C81.2194 11.9194 81.1221 10.7069 80.9982 8.96602L80.9009 7.69287C81.0956 7.49367 81.3167 7.32045 81.5556 7.16456C81.5999 8.03931 81.6264 9.40773 81.6529 11.2698L81.6883 12.5776C81.9626 12.7335 82.2723 12.8028 82.6173 12.8201C82.5996 12.8461 82.5908 12.8721 82.5819 12.8981C82.2369 12.8894 81.9184 12.8115 81.6441 12.6469L81.5999 12.6209L81.5645 11.2698C81.5379 9.53764 81.5114 8.20386 81.476 7.32045C81.299 7.44171 81.1398 7.58028 80.9894 7.71885L81.0779 8.9487C81.2017 10.6895 81.299 11.9021 81.3875 12.5603V12.6209L81.3344 12.6469C80.9894 12.8115 80.6266 12.8981 80.2462 12.8981H80.2727ZM82.5908 13.4697C82.5908 13.4697 82.6085 13.513 82.6173 13.539C82.1926 13.5217 81.8476 13.4177 81.591 13.2099C81.3521 13.3398 81.1398 13.4264 80.954 13.4783C80.7682 13.5303 80.5293 13.5476 80.2462 13.5476C80.255 13.5217 80.2727 13.5043 80.2727 13.4783C80.5382 13.4697 80.7593 13.4437 80.9363 13.4004C81.1221 13.3571 81.3256 13.2705 81.5556 13.1406L81.6087 13.1146L81.6529 13.1579C81.883 13.3484 82.2015 13.4437 82.5908 13.461V13.487V13.4697ZM80.2727 13.4697C80.2727 13.4697 80.255 13.5217 80.2462 13.539C80.2108 13.539 80.1843 13.513 80.1754 13.4697V12.8981C80.1754 12.8548 80.202 12.8374 80.2462 12.8288C80.255 12.8548 80.2727 12.8721 80.2727 12.8981C80.2727 12.8981 80.2639 12.8981 80.255 12.8981V13.4524H80.2727V13.4697ZM82.8827 13.4524V12.8981C83.2543 12.8981 83.6259 12.8981 83.971 12.8721L84.2453 12.8548L84.0152 12.7075C83.8737 12.6123 83.7409 12.4823 83.6348 12.3264C83.5286 12.1706 83.4755 11.9973 83.4755 11.8241C83.4755 11.573 83.5463 11.2958 83.6967 11.01C83.8383 10.7242 84.0241 10.4903 84.2541 10.3171C84.4753 10.1439 84.7053 10.0573 84.9442 10.0573C85.1565 10.0573 85.36 10.1093 85.5458 10.2132C85.7316 10.3171 85.9528 10.4644 86.1917 10.6722L86.0944 10.8454C85.8732 10.7675 85.7051 10.7069 85.5901 10.6895C85.4662 10.6636 85.3335 10.6462 85.1831 10.6462C84.7673 10.6462 84.3337 10.7675 83.8914 11.01L83.8471 11.036V11.0879C83.8471 11.3738 83.9179 11.6422 84.0595 11.8761C84.201 12.1099 84.4134 12.3091 84.6788 12.4477C84.9442 12.5863 85.2627 12.6729 85.6255 12.6902H85.6343H85.6432C85.8909 12.6382 86.1298 12.5776 86.3598 12.5083C86.581 12.439 86.873 12.3351 87.2534 12.1879C87.2976 12.2485 87.3242 12.3264 87.3242 12.4131V12.4997C87.2799 12.6815 87.1738 12.7855 86.9791 12.8374C86.2094 13.028 85.6166 13.1579 85.2362 13.2272C84.8469 13.2965 84.4399 13.3484 84.0241 13.3831C83.6525 13.4177 83.2632 13.4264 82.8739 13.435L82.8827 13.4524ZM82.7943 13.461V12.9067C82.7943 12.9067 82.8562 12.9067 82.8827 12.9067V13.461C82.8827 13.461 82.8208 13.461 82.7943 13.461ZM82.7589 12.9067C82.7589 12.9067 82.7854 12.9067 82.7943 12.9067V13.461C82.7943 13.461 82.7766 13.461 82.7677 13.461V12.9067H82.7589ZM87.0322 13.028C86.2448 13.2185 85.6697 13.3484 85.2716 13.4177C84.8823 13.487 84.4664 13.539 84.0418 13.5823C83.6259 13.6169 83.1924 13.6342 82.75 13.6342C82.7412 13.6342 82.7323 13.6342 82.7235 13.6256C82.7766 13.6256 82.8208 13.5909 82.8385 13.5476C83.2455 13.5476 83.6348 13.5303 84.0241 13.4957C84.4399 13.461 84.8469 13.4091 85.245 13.3311C85.6432 13.2618 86.2271 13.1319 86.9968 12.9414C87.2269 12.8894 87.3596 12.7508 87.4038 12.5343V12.439C87.4126 12.2918 87.3684 12.1792 87.2799 12.1013C86.873 12.2572 86.5633 12.3698 86.3333 12.439C86.1121 12.5083 85.8732 12.569 85.6255 12.6209C85.2804 12.6036 84.9707 12.5256 84.7142 12.3871C84.4576 12.2485 84.2629 12.0666 84.1302 11.8414C83.9975 11.6163 83.9267 11.3651 83.9267 11.0966C84.3603 10.8628 84.7761 10.7502 85.1742 10.7502C85.3158 10.7502 85.4397 10.7588 85.5635 10.7848C85.6785 10.8108 85.8643 10.8714 86.1209 10.9667L86.289 10.6636C86.0147 10.4297 85.7759 10.2565 85.5724 10.1526C85.3689 10.04 85.1477 9.98801 84.9265 9.98801C84.6699 9.98801 84.4222 10.0833 84.1833 10.2652C83.9444 10.447 83.7498 10.6895 83.5994 10.984C83.449 11.2785 83.3782 11.5643 83.3782 11.8328C83.3782 12.032 83.4313 12.2139 83.5551 12.3871C83.6702 12.5603 83.8029 12.6989 83.9621 12.7941C83.5994 12.8115 83.2278 12.8201 82.8385 12.8201C82.812 12.7768 82.7766 12.7508 82.7235 12.7422C82.7323 12.7422 82.7412 12.7335 82.75 12.7335C83.0862 12.7335 83.4047 12.7335 83.7233 12.7162C83.6348 12.6382 83.5552 12.543 83.4844 12.4304C83.3605 12.2398 83.2986 12.0406 83.2986 11.8328C83.2986 11.547 83.3782 11.2525 83.5286 10.9407C83.6879 10.6376 83.8914 10.3777 84.1391 10.1872C84.608 9.82345 85.1565 9.81479 85.6255 10.066C85.8378 10.1785 86.0855 10.3518 86.3598 10.5943L86.4129 10.6376L86.1652 11.0706L86.0944 11.0446C85.8466 10.9494 85.6608 10.8887 85.5458 10.8628C85.4397 10.8368 85.3158 10.8281 85.1831 10.8281C84.8115 10.8281 84.4222 10.932 84.0241 11.1399C84.0241 11.3738 84.0948 11.5989 84.2099 11.7895C84.3337 11.9973 84.5195 12.1706 84.7584 12.3005C84.9973 12.4304 85.2893 12.4997 85.6166 12.5256C85.8555 12.4737 86.0855 12.4217 86.3067 12.3524C86.5279 12.2831 86.8464 12.1706 87.2445 12.0147L87.2976 11.9973L87.3419 12.032C87.448 12.1272 87.5011 12.2658 87.5011 12.439V12.543C87.448 12.7941 87.2799 12.9587 87.0234 13.028H87.0322ZM82.6616 12.8981C82.6616 12.8981 82.6704 12.8981 82.6793 12.8981V13.4524C82.6793 13.4524 82.6262 13.4437 82.5908 13.4437V12.8981C82.6173 12.8981 82.635 12.8981 82.6616 12.8981ZM82.7323 12.7422C82.7854 12.7422 82.8208 12.7768 82.8474 12.8201C82.812 12.8201 82.7854 12.8201 82.7589 12.8201C82.7412 12.8201 82.75 12.8374 82.7323 12.8461C82.7235 12.8461 82.7323 12.8201 82.7058 12.8201C82.6793 12.8201 82.6527 12.8115 82.6173 12.8115C82.6439 12.7768 82.6793 12.7508 82.7235 12.7422H82.7323ZM82.7323 13.6256C82.6704 13.6256 82.635 13.5823 82.6173 13.539C82.6527 13.539 82.6793 13.5476 82.7146 13.5476C82.7323 13.5476 82.7323 13.5303 82.7412 13.5217C82.75 13.5217 82.7412 13.5476 82.7677 13.5476C82.8031 13.5476 82.8297 13.5476 82.865 13.5476C82.8385 13.5909 82.8031 13.6256 82.75 13.6256H82.7323ZM82.6793 13.4697C82.6793 13.4697 82.7058 13.513 82.7323 13.5217C82.7235 13.5217 82.7323 13.5476 82.7058 13.5476C82.6704 13.5476 82.6439 13.539 82.6085 13.539C82.5996 13.513 82.5819 13.5043 82.5819 13.4697V13.4437C82.5819 13.4437 82.635 13.4524 82.6704 13.4524L82.6793 13.4697ZM82.5908 12.8894C82.5908 12.8894 82.6085 12.8288 82.6262 12.8115C82.6527 12.8115 82.6793 12.8201 82.7146 12.8201C82.7323 12.8201 82.7323 12.8374 82.7412 12.8461C82.7146 12.8548 82.6881 12.8634 82.6881 12.8981C82.6881 12.8981 82.6792 12.8981 82.6704 12.8981C82.6439 12.8981 82.6262 12.8981 82.5996 12.8981L82.5908 12.8894ZM82.8827 12.8981C82.8827 12.8981 82.865 12.8374 82.8474 12.8201C83.2278 12.8201 83.6082 12.8115 83.971 12.7941C83.8206 12.6989 83.679 12.5603 83.564 12.3871C83.449 12.2139 83.3871 12.032 83.3871 11.8328C83.3871 11.5643 83.4667 11.2785 83.6082 10.984C83.7586 10.6895 83.9533 10.447 84.1922 10.2652C84.431 10.0833 84.6788 9.98801 84.9354 9.98801C85.1565 9.98801 85.3777 10.04 85.5812 10.1526C85.7847 10.2652 86.0236 10.4384 86.2979 10.6636L86.1298 10.9667C85.8732 10.8714 85.6874 10.8108 85.5724 10.7848C85.4574 10.7588 85.3246 10.7502 85.1831 10.7502C84.7849 10.7502 84.3691 10.8628 83.9356 11.0966C83.9356 11.3651 84.0064 11.6163 84.1391 11.8414C84.2718 12.0666 84.4664 12.2485 84.723 12.3871C84.9796 12.5256 85.2804 12.6036 85.6343 12.6209C85.882 12.569 86.1209 12.5083 86.3421 12.439C86.5633 12.3698 86.8818 12.2572 87.2888 12.1013C87.3773 12.1792 87.4215 12.2918 87.4215 12.439V12.5343C87.3773 12.7508 87.2357 12.8807 87.0057 12.9414C86.2359 13.1319 85.652 13.2618 85.2539 13.3311C84.8557 13.4004 84.4487 13.4524 84.0329 13.4957C83.6436 13.5303 83.2543 13.5476 82.8474 13.5476C82.8562 13.5217 82.8739 13.5043 82.8739 13.4697C83.2632 13.4524 83.6525 13.4437 84.0241 13.4091C84.4399 13.3744 84.8469 13.3225 85.2362 13.2532C85.6255 13.1839 86.2094 13.054 86.9791 12.8634C87.1738 12.8115 87.2888 12.7075 87.3153 12.5256V12.439C87.3153 12.3438 87.2976 12.2658 87.2534 12.2139C86.8641 12.3611 86.5721 12.465 86.3598 12.5343C86.1386 12.6036 85.8909 12.6642 85.6432 12.7162H85.6343H85.6255C85.2627 12.6989 84.9442 12.6123 84.6788 12.4737C84.4134 12.3264 84.201 12.1359 84.0595 11.9021C83.9179 11.6682 83.8471 11.3997 83.8471 11.1139V11.062L83.8914 11.036C84.3337 10.7935 84.7673 10.6722 85.1831 10.6722C85.3335 10.6722 85.4662 10.6895 85.5901 10.7155C85.6962 10.7415 85.8732 10.7935 86.0944 10.8714L86.1917 10.6982C85.9528 10.4903 85.7316 10.3431 85.5458 10.2392C85.3512 10.1352 85.1477 10.0833 84.9442 10.0833C84.7053 10.0833 84.4753 10.1699 84.2541 10.3431C84.0329 10.5163 83.8383 10.7502 83.6967 11.036C83.5551 11.3218 83.4755 11.5903 83.4755 11.8501C83.4755 12.032 83.5286 12.1965 83.6348 12.3524C83.7409 12.517 83.8737 12.6469 84.0152 12.7335L84.2453 12.8807L83.971 12.8981C83.6259 12.9154 83.2543 12.9241 82.8827 12.9241V12.8981ZM82.6793 13.461V12.9067C82.6793 12.9067 82.6969 12.9067 82.7058 12.9067V13.4697C82.7058 13.4697 82.6881 13.4697 82.6793 13.4697V13.461ZM82.7589 12.8201C82.7589 12.8201 82.8208 12.8201 82.8474 12.8201C82.865 12.8461 82.8827 12.8634 82.8827 12.8981C82.8827 12.8981 82.8208 12.8981 82.7943 12.8981C82.7943 12.8548 82.7589 12.8461 82.7323 12.8374C82.7412 12.8374 82.7323 12.8115 82.7589 12.8115V12.8201ZM82.8827 13.4697C82.8827 13.4697 82.8651 13.5217 82.8562 13.5476C82.8208 13.5476 82.7943 13.5476 82.7589 13.5476C82.7412 13.5476 82.75 13.5303 82.7323 13.5217C82.7589 13.513 82.7943 13.5043 82.7943 13.4697C82.7943 13.4697 82.8562 13.461 82.8827 13.461V13.4697ZM82.7943 13.4697C82.7943 13.4697 82.7589 13.513 82.7323 13.5217C82.7058 13.513 82.6793 13.5043 82.6793 13.4697C82.6793 13.4697 82.6969 13.4697 82.7146 13.4697V12.9067C82.7146 12.9067 82.6969 12.9067 82.6793 12.9067C82.6793 12.9067 82.7058 12.8634 82.7323 12.8548C82.7589 12.8634 82.7943 12.8721 82.7943 12.9067C82.7943 12.9067 82.7677 12.9067 82.7589 12.9067V13.461C82.7589 13.461 82.7854 13.461 82.7943 13.461V13.4697ZM95.5435 12.8981V13.4437C95.3665 13.4264 95.1984 13.3917 95.0392 13.3138L94.9064 13.2532V13.7035C94.9153 14.0759 94.8003 14.4397 94.5614 14.7775C94.3225 15.1239 93.9863 15.4011 93.5616 15.6262C93.137 15.8428 92.6946 15.9554 92.2522 15.9554C91.7214 15.9554 91.3055 15.8081 91.0224 15.5137C90.7304 15.2192 90.58 14.7948 90.58 14.2492C90.58 14.0673 90.5889 13.9027 90.6154 13.7468C90.6331 13.6083 90.6774 13.4004 90.7481 13.1233L90.9339 13.1666C90.872 13.4177 90.8455 13.6169 90.8455 13.7815C90.8455 14.2665 90.9693 14.6476 91.2259 14.9247C91.4825 15.2019 91.8364 15.3404 92.2876 15.3404C92.6061 15.3404 92.9335 15.2885 93.2785 15.1759C93.6147 15.072 93.9244 14.9161 94.181 14.7342C94.4464 14.5436 94.6322 14.3271 94.7472 14.1019V14.0759L94.5083 12.5083C94.234 10.8714 94.0482 9.77149 93.9686 9.13924C93.8801 8.51566 93.8359 8.09993 93.8359 7.90073C93.8359 7.70153 93.8801 7.56296 93.9686 7.45903C94.0394 7.37242 94.1633 7.30313 94.3225 7.25983C94.3225 7.26849 94.3225 7.27715 94.3225 7.28581C94.3225 7.32045 94.411 7.58028 94.6233 8.25583L94.4021 8.44637L94.7472 11.469C94.8003 11.8847 94.8445 12.2831 94.8711 12.6469L94.8888 12.7162L94.9241 12.7335C95.1099 12.8288 95.3223 12.8807 95.5612 12.8981H95.5435ZM95.685 13.6256C95.685 13.6256 95.6673 13.6256 95.6585 13.6256C95.4638 13.6256 95.2692 13.5909 95.0834 13.5217V13.6949C95.0834 14.1106 94.9595 14.5003 94.6941 14.8728C94.4375 15.2365 94.0748 15.5396 93.6324 15.7735C93.1812 16.0073 92.7123 16.1199 92.2345 16.1199C91.6594 16.1199 91.1994 15.9554 90.872 15.6262C90.5447 15.2971 90.3766 14.8381 90.3766 14.2405C90.3766 14.0586 90.3854 13.8767 90.4119 13.7122C90.4385 13.5476 90.4827 13.3138 90.5712 12.9933L90.5889 12.9067L91.1197 13.028L91.0932 13.1146C91.0224 13.3831 90.987 13.6083 90.987 13.7728C90.987 14.2145 91.102 14.561 91.3232 14.8035C91.5444 15.046 91.8452 15.1672 92.2522 15.1672C92.5442 15.1672 92.8627 15.1153 93.19 15.0113C93.5086 14.9074 93.8005 14.7688 94.0394 14.5956C94.2694 14.431 94.4375 14.2492 94.5349 14.05L94.296 12.5343C94.0129 10.8974 93.8359 9.79747 93.7563 9.16522C93.6678 8.53298 93.6236 8.10859 93.6236 7.90073C93.6236 7.66689 93.6855 7.47635 93.8005 7.34644C93.9155 7.21652 94.0925 7.12125 94.3314 7.06929L94.411 7.05197L94.4375 7.16456C94.4375 7.16456 94.4464 7.21652 94.4552 7.2425C94.4641 7.28581 94.6233 7.77948 94.7737 8.26449L94.7914 8.31646L94.5526 8.51566L94.5702 8.61959L94.8888 11.443C94.9418 11.8414 94.9861 12.2398 95.0126 12.6036C95.1984 12.6902 95.4108 12.7335 95.6408 12.7335C95.6496 12.7335 95.6585 12.7335 95.6673 12.7335C95.6142 12.7335 95.5789 12.7682 95.5523 12.8028C95.3223 12.7941 95.1099 12.7422 94.9241 12.6469V12.6296C94.8888 12.2485 94.8445 11.8588 94.7914 11.443L94.4729 8.61959L94.4552 8.47235L94.6853 8.27315C94.4818 7.63225 94.3756 7.28581 94.3668 7.25117C94.3579 7.21652 94.3491 7.18188 94.3402 7.13857C94.119 7.18188 93.9598 7.26849 93.8536 7.38108C93.7474 7.50233 93.7032 7.66689 93.7032 7.87475C93.7032 8.07395 93.7474 8.49833 93.8359 9.13058C93.9244 9.76282 94.1013 10.8887 94.3756 12.4997L94.6233 14.0413C94.5172 14.2578 94.3402 14.457 94.0836 14.6389C93.8271 14.8208 93.5351 14.968 93.2077 15.072C92.8715 15.1759 92.553 15.2278 92.2434 15.2278C91.8187 15.2278 91.4913 15.0979 91.2524 14.8381C91.0136 14.5783 90.8986 14.2145 90.8986 13.7555C90.8986 13.5823 90.9339 13.3571 91.0047 13.0799L90.6508 12.9933C90.5712 13.3051 90.5181 13.5476 90.5004 13.7035C90.4739 13.8681 90.465 14.0413 90.465 14.2232C90.465 14.7948 90.6243 15.2365 90.9339 15.5483C91.2436 15.8601 91.6771 16.016 92.2345 16.016C92.7034 16.016 93.1547 15.9034 93.5882 15.6782C94.0217 15.453 94.3668 15.1586 94.6233 14.8035C94.8799 14.4484 94.9949 14.0673 94.9949 13.6775V13.3658C95.163 13.4524 95.3577 13.4957 95.5523 13.5043C95.57 13.5563 95.6142 13.5823 95.6762 13.5909L95.685 13.6256ZM95.5435 13.4697C95.5435 13.4697 95.5612 13.513 95.57 13.539C95.3754 13.5303 95.1807 13.487 95.0038 13.4004V13.7122C95.0038 14.1019 94.8888 14.483 94.641 14.8381C94.3933 15.1932 94.0482 15.4877 93.6059 15.7129C93.1723 15.938 92.7211 16.0506 92.2522 16.0506C91.6948 16.0506 91.2613 15.8947 90.9516 15.5829C90.642 15.2712 90.4827 14.8294 90.4827 14.2578C90.4827 14.0759 90.4916 13.9027 90.5181 13.7382C90.5447 13.5736 90.5889 13.3398 90.6685 13.028L91.0224 13.1146C90.9516 13.3917 90.9162 13.6169 90.9162 13.7901C90.9162 14.2578 91.0313 14.6216 91.2701 14.8728C91.509 15.1326 91.8364 15.2625 92.2611 15.2625C92.5707 15.2625 92.8892 15.2105 93.2254 15.1066C93.5616 15.0027 93.8536 14.8554 94.1013 14.6736C94.3579 14.4917 94.5349 14.2925 94.641 14.0759L94.3933 12.5343C94.119 10.9234 93.9332 9.79747 93.8536 9.16522C93.7651 8.53298 93.7209 8.11726 93.7209 7.90939C93.7209 7.69287 93.774 7.52831 93.8713 7.41572C93.9686 7.29447 94.1367 7.21652 94.3579 7.17322C94.3668 7.21652 94.3756 7.25117 94.3844 7.28581C94.3844 7.32045 94.4995 7.65823 94.703 8.30779L94.4729 8.507L94.4906 8.65423L94.8091 11.4777C94.8622 11.8934 94.9064 12.2831 94.9418 12.6642V12.6815C95.1276 12.7768 95.34 12.8201 95.57 12.8374C95.5523 12.8634 95.5346 12.8894 95.5346 12.9241C95.3046 12.9067 95.0834 12.8634 94.8976 12.7595L94.8622 12.7422L94.8445 12.6729C94.818 12.3005 94.7737 11.9021 94.7207 11.495L94.3756 8.47235L94.5968 8.28181C94.3844 7.60626 94.3048 7.34644 94.296 7.31179C94.296 7.31179 94.296 7.29447 94.296 7.28581C94.1367 7.32911 94.0217 7.3984 93.9421 7.48501C93.8536 7.58894 93.8094 7.73618 93.8094 7.92672C93.8094 8.11726 93.8536 8.54164 93.9421 9.16522C94.0306 9.79747 94.2075 10.8974 94.4818 12.5343L94.7295 14.1019V14.1279C94.6056 14.3531 94.4198 14.5696 94.1544 14.7602C93.8978 14.9507 93.5882 15.0979 93.252 15.2019C92.9069 15.3058 92.5796 15.3664 92.2611 15.3664C91.8098 15.3664 91.4559 15.2278 91.1994 14.9507C90.9428 14.6736 90.8189 14.2925 90.8189 13.8075C90.8189 13.6429 90.8455 13.4437 90.9074 13.1925L90.7216 13.1492C90.6508 13.4264 90.6154 13.6256 90.5889 13.7728C90.5623 13.9287 90.5535 14.1019 90.5535 14.2751C90.5535 14.8208 90.7039 15.2452 90.9959 15.5396C91.2878 15.8341 91.7037 15.9813 92.2257 15.9813C92.6769 15.9813 93.1193 15.8688 93.5351 15.6522C93.9598 15.4357 94.296 15.1499 94.5349 14.8035C94.7737 14.4657 94.8976 14.1019 94.8976 13.7295V13.2791L95.0126 13.3398C95.1719 13.4177 95.34 13.4524 95.5169 13.4697V13.487L95.5435 13.4697ZM103.25 12.8894C102.896 12.8894 102.56 12.8028 102.285 12.6382L102.197 12.5863L102.259 12.5083C102.498 12.2225 102.613 11.9021 102.613 11.5383C102.613 11.3911 102.515 11.2005 102.321 10.9927C102.117 10.7675 101.878 10.5856 101.622 10.447C101.365 10.3085 101.153 10.2392 100.985 10.2392C100.144 10.2392 99.1002 11.0446 97.8792 12.6209L97.8438 12.6729L97.7819 12.6556C97.6138 12.6036 97.4457 12.543 97.2864 12.465L97.2068 12.4304L97.2422 12.3524C97.2953 12.2398 97.3837 12.0406 97.5076 11.7548C97.4722 11.7375 97.4368 11.7288 97.3837 11.7288C97.2776 11.7288 97.1979 11.7722 97.1537 11.8501L97.0033 12.1099C96.8264 12.4217 96.6406 12.6296 96.4548 12.7422C96.2955 12.8374 96.0832 12.8807 95.8354 12.8981V13.461C96.2336 13.435 96.5344 13.3311 96.7113 13.1406L96.9237 12.9067L96.9856 12.9414C97.2687 13.0973 97.658 13.2185 98.1358 13.3225C99.0471 13.5043 99.9141 13.539 100.79 13.3225C101.197 13.2185 101.542 13.0799 101.825 12.8981L101.887 12.8634L101.94 12.9154C102.108 13.0799 102.321 13.2185 102.577 13.3225C102.798 13.4091 103.02 13.4524 103.241 13.4697V12.9241C103.241 12.9241 103.241 12.9241 103.241 12.9154L103.25 12.8894ZM99.6664 12.9067C99.2329 12.9067 98.7551 12.8634 98.2419 12.7682L98.0915 12.7422L98.1889 12.6296C98.6932 12.0493 99.1621 11.6076 99.5868 11.3131C100.029 11.01 100.41 10.8541 100.737 10.8541C101.02 10.8541 101.312 10.958 101.604 11.1486C101.887 11.3391 102.135 11.6163 102.338 11.9627L102.383 12.032L102.312 12.0753C101.418 12.6209 100.525 12.9067 99.6664 12.9067ZM95.8354 12.8981V13.461C95.8354 13.461 95.7824 13.461 95.747 13.461V12.8981C95.747 12.8981 95.8 12.8981 95.8354 12.8894V12.8981ZM95.747 12.9067V13.4697C95.747 13.4697 95.7293 13.4697 95.7204 13.4697V12.9067C95.7204 12.9067 95.7381 12.9067 95.747 12.9067ZM95.685 12.7422C95.685 12.7422 95.7027 12.7422 95.7116 12.7422C95.9858 12.7422 96.1982 12.6902 96.3574 12.6036C96.5167 12.5083 96.6759 12.3178 96.844 12.032L96.9944 11.7635C97.0741 11.6249 97.2156 11.5556 97.3837 11.5556C97.4988 11.5556 97.5961 11.5903 97.6757 11.6682L97.7199 11.7115L97.6934 11.7635C97.5872 12.0233 97.4988 12.2225 97.4368 12.3524C97.543 12.4044 97.658 12.4477 97.773 12.4823C99.0294 10.8628 100.073 10.0746 100.976 10.0746C101.179 10.0746 101.409 10.1526 101.701 10.3085C101.976 10.4557 102.223 10.6549 102.444 10.8887C102.675 11.1399 102.781 11.3564 102.781 11.5556C102.781 11.928 102.675 12.2658 102.453 12.5603C102.71 12.6902 103.02 12.7595 103.356 12.7595C103.365 12.7595 103.373 12.7595 103.382 12.7682C103.329 12.7682 103.294 12.7941 103.267 12.8374C102.913 12.8288 102.586 12.7508 102.321 12.5863C102.568 12.2831 102.692 11.9454 102.692 11.5556C102.692 11.3824 102.586 11.1832 102.374 10.9494C102.161 10.7155 101.922 10.5336 101.648 10.3864C101.383 10.2392 101.153 10.1699 100.967 10.1699C100.091 10.1699 99.0382 10.9753 97.7907 12.5863C97.6226 12.5343 97.4634 12.4737 97.3041 12.4044C97.3572 12.2831 97.4545 12.0666 97.5961 11.7462C97.5341 11.6855 97.4634 11.6596 97.3661 11.6596C97.2245 11.6596 97.1272 11.7115 97.0564 11.8241L96.906 12.0926C96.729 12.3871 96.5609 12.5949 96.3928 12.6989C96.2424 12.7941 96.0301 12.8374 95.7912 12.8461C95.7647 12.8115 95.7293 12.7855 95.6762 12.7768L95.685 12.7422ZM101.551 11.2265C101.277 11.036 101.002 10.9407 100.737 10.9407C100.427 10.9407 100.065 11.0879 99.6399 11.3824C99.2152 11.6769 98.7551 12.1099 98.2596 12.6815C98.7639 12.7768 99.2329 12.8201 99.6664 12.8201C100.516 12.8201 101.383 12.5516 102.268 12.006C102.073 11.6682 101.834 11.4084 101.56 11.2265H101.551ZM99.6664 12.7335C99.2859 12.7335 98.8701 12.6989 98.4277 12.6209C98.879 12.1099 99.3036 11.7202 99.6929 11.4517C100.1 11.1746 100.454 11.0273 100.737 11.0273C100.985 11.0273 101.241 11.1139 101.507 11.2958C101.746 11.4604 101.967 11.6942 102.144 11.98C101.303 12.4823 100.463 12.7335 99.6664 12.7335ZM103.382 13.6256C103.382 13.6256 103.365 13.6342 103.356 13.6342C103.073 13.6342 102.781 13.5736 102.498 13.461C102.241 13.3571 102.02 13.2272 101.852 13.0626C101.569 13.2358 101.224 13.3658 100.825 13.4697C99.923 13.6949 99.0294 13.6689 98.0915 13.4783C97.6226 13.3831 97.2422 13.2618 96.9502 13.1146L96.8264 13.2532C96.5963 13.5043 96.2159 13.6342 95.6939 13.6342C95.685 13.6342 95.6762 13.6342 95.6673 13.6342C95.7204 13.6342 95.7647 13.5996 95.7824 13.5476C96.2247 13.5303 96.5521 13.4177 96.7556 13.2012L96.9237 13.0193C97.2156 13.1752 97.6049 13.3051 98.1004 13.4091C98.5958 13.5043 99.0736 13.5563 99.5425 13.5563C99.9584 13.5563 100.374 13.5043 100.79 13.4004C101.206 13.2965 101.56 13.1492 101.852 12.9674C102.029 13.1406 102.25 13.2878 102.524 13.3917C102.763 13.487 103.011 13.5303 103.25 13.5476C103.267 13.5909 103.312 13.6256 103.365 13.6342L103.382 13.6256ZM95.5435 12.8981C95.5435 12.8981 95.5966 12.9067 95.6319 12.9067V13.461C95.6319 13.461 95.57 13.461 95.5435 13.4524V12.9067V12.8981ZM95.685 13.6256C95.6231 13.6256 95.5877 13.5823 95.5612 13.539C95.5966 13.539 95.6231 13.5476 95.6585 13.5476C95.6762 13.5476 95.6673 13.5303 95.685 13.5217C95.6939 13.5217 95.685 13.5476 95.7116 13.5476C95.747 13.5476 95.7735 13.5476 95.8089 13.5476C95.7824 13.5909 95.747 13.6256 95.6939 13.6342L95.685 13.6256ZM95.685 12.7422C95.7381 12.7422 95.7735 12.7768 95.8 12.8115C95.7647 12.8115 95.747 12.8201 95.7116 12.8201C95.6939 12.8201 95.7027 12.8374 95.685 12.8461C95.6762 12.8461 95.685 12.8201 95.6585 12.8201C95.6231 12.8201 95.5965 12.8201 95.57 12.8115C95.5965 12.7768 95.6319 12.7508 95.685 12.7422ZM95.5435 12.8981C95.5435 12.8981 95.5612 12.8374 95.5789 12.8115C95.6054 12.8115 95.6408 12.8201 95.6673 12.8201C95.685 12.8201 95.6762 12.8374 95.6939 12.8461C95.6673 12.8548 95.6319 12.8634 95.6319 12.9067C95.6319 12.9067 95.5789 12.9067 95.5435 12.9067V12.8981ZM95.6319 13.4697C95.6319 13.4697 95.6585 13.513 95.6939 13.5217C95.685 13.5217 95.6939 13.5476 95.6673 13.5476C95.6319 13.5476 95.6054 13.539 95.57 13.539C95.5612 13.513 95.5435 13.4957 95.5435 13.4697V13.4524C95.5435 13.4524 95.6054 13.461 95.6319 13.461V13.4697ZM103.241 13.4697C103.241 13.4697 103.258 13.513 103.267 13.539C103.02 13.5303 102.781 13.4783 102.542 13.3831C102.268 13.2705 102.046 13.1319 101.869 12.9587C101.577 13.1406 101.232 13.2878 100.808 13.3917C100.392 13.4957 99.9761 13.5476 99.5602 13.5476C99.0913 13.5476 98.6135 13.4957 98.1181 13.4004C97.6226 13.3051 97.2333 13.1752 96.9414 13.0107L96.7733 13.1925C96.5698 13.4091 96.2424 13.5217 95.8 13.539C95.8089 13.513 95.8266 13.4957 95.8266 13.4697C96.2247 13.435 96.5255 13.3311 96.7025 13.1406L96.9148 12.9067L96.9768 12.9414C97.2599 13.0973 97.6492 13.2185 98.1269 13.3225C99.0382 13.5043 99.9053 13.539 100.781 13.3225C101.188 13.2185 101.533 13.0799 101.816 12.8981L101.878 12.8634L101.931 12.9154C102.099 13.0799 102.312 13.2185 102.568 13.3225C102.79 13.4091 103.011 13.4524 103.232 13.4697V13.487L103.241 13.4697ZM102.383 12.0406L102.338 11.9714C102.135 11.6249 101.887 11.3564 101.604 11.1572C101.312 10.958 101.02 10.8628 100.737 10.8628C100.41 10.8628 100.029 11.01 99.5868 11.3218C99.1621 11.6163 98.6932 12.058 98.1889 12.6382L98.0915 12.7508L98.2419 12.7768C98.7551 12.8721 99.2329 12.9154 99.6664 12.9154C100.525 12.9154 101.418 12.6382 102.312 12.0839L102.383 12.0406ZM99.6664 12.8201C99.2329 12.8201 98.7639 12.7768 98.2596 12.6815C98.7551 12.1099 99.2152 11.6769 99.6399 11.3824C100.065 11.0879 100.427 10.9407 100.737 10.9407C101.002 10.9407 101.277 11.036 101.551 11.2265C101.825 11.4171 102.064 11.6769 102.259 12.006C101.374 12.5516 100.507 12.8201 99.6575 12.8201H99.6664ZM95.8266 12.8981C95.8266 12.8981 95.8089 12.8374 95.7912 12.8115C96.0389 12.8028 96.2424 12.7595 96.3928 12.6642C96.5609 12.5603 96.7379 12.3611 96.906 12.058L97.0564 11.7895C97.1272 11.6769 97.2245 11.6249 97.3661 11.6249C97.4545 11.6249 97.5341 11.6509 97.5961 11.7115C97.4634 12.032 97.3661 12.2572 97.3041 12.3698C97.4634 12.4477 97.6226 12.5083 97.7907 12.5516C99.0294 10.9407 100.091 10.1352 100.967 10.1352C101.153 10.1352 101.374 10.2045 101.648 10.3518C101.914 10.499 102.161 10.6809 102.374 10.9147C102.586 11.1486 102.692 11.3478 102.692 11.521C102.692 11.9021 102.568 12.2485 102.321 12.5516C102.595 12.7162 102.913 12.7855 103.267 12.8028C103.25 12.8288 103.241 12.8461 103.241 12.8807C102.887 12.8807 102.551 12.7941 102.276 12.6296L102.188 12.5776L102.25 12.4997C102.489 12.2139 102.604 11.8934 102.604 11.5296C102.604 11.3824 102.506 11.1919 102.312 10.984C102.108 10.7588 101.869 10.5769 101.613 10.4384C101.356 10.2998 101.144 10.2305 100.976 10.2305C100.135 10.2305 99.0913 11.036 97.8704 12.6123L97.835 12.6642L97.773 12.6469C97.6049 12.5949 97.4368 12.5343 97.2776 12.4564L97.1979 12.4217L97.2333 12.3438C97.2864 12.2312 97.3749 12.032 97.4988 11.7462C97.4634 11.7288 97.428 11.7202 97.3749 11.7202C97.2687 11.7202 97.1891 11.7635 97.1449 11.8414L96.9944 12.1013C96.8175 12.4131 96.6317 12.6209 96.4459 12.7335C96.2867 12.8288 96.0743 12.8721 95.8266 12.8894V12.8981ZM95.6319 13.461V12.9067C95.6319 12.9067 95.6496 12.9067 95.6585 12.9067V13.461C95.6585 13.461 95.6408 13.461 95.6319 13.461ZM95.747 12.8981C95.747 12.8981 95.7204 12.8548 95.6939 12.8374C95.7027 12.8374 95.6939 12.8115 95.7204 12.8115C95.7558 12.8115 95.7735 12.8115 95.8089 12.8028C95.8266 12.8288 95.8354 12.8548 95.8443 12.8894C95.8177 12.8894 95.7912 12.8894 95.7558 12.8981H95.747ZM95.8354 13.4697C95.8354 13.4697 95.8177 13.5217 95.8089 13.539C95.7735 13.539 95.747 13.539 95.7116 13.539C95.6939 13.539 95.7027 13.5217 95.685 13.513C95.7116 13.5043 95.7381 13.4957 95.7381 13.461C95.7381 13.461 95.8 13.461 95.8266 13.4524L95.8354 13.4697ZM95.747 13.4697C95.747 13.4697 95.7204 13.513 95.6939 13.5217C95.6673 13.513 95.6319 13.5043 95.6319 13.4697C95.6319 13.4697 95.6496 13.4697 95.6585 13.4697V12.9154C95.6585 12.9154 95.6408 12.9154 95.6319 12.9154C95.6319 12.9154 95.6585 12.8634 95.6939 12.8548C95.7204 12.8634 95.747 12.8721 95.747 12.9154C95.747 12.9154 95.7293 12.9154 95.7116 12.9154V13.4783C95.7116 13.4783 95.7381 13.4783 95.747 13.4783V13.4697ZM103.533 13.461V12.9067C104.426 12.9067 105.152 12.8201 105.683 12.6642L106.222 12.4823C106.585 12.3524 106.912 12.2572 107.187 12.2052L107.452 12.1619L107.213 12.0493C106.966 11.928 106.718 11.7722 106.479 11.5816C106.205 11.3738 105.992 11.2352 105.824 11.1486C105.647 11.062 105.47 11.0187 105.285 11.0187C104.957 11.0187 104.656 11.1053 104.4 11.2612L104.241 11.3651C104.196 11.2958 104.17 11.2092 104.17 11.1053C104.17 10.8974 104.267 10.7328 104.453 10.6029C104.648 10.4644 104.922 10.4037 105.249 10.4037C105.444 10.4037 105.638 10.447 105.842 10.525C106.045 10.6116 106.284 10.7502 106.559 10.9407C106.895 11.1832 107.196 11.3738 107.434 11.495C107.682 11.6163 107.93 11.7115 108.178 11.7635C108.399 11.8155 108.717 11.8414 109.115 11.8414L108.841 12.3611C108.664 12.3438 108.496 12.3264 108.355 12.3178H108.31H108.116C107.886 12.3178 107.656 12.3524 107.443 12.4217C107.231 12.491 106.921 12.6296 106.479 12.8548C106.001 13.0973 105.568 13.2618 105.187 13.3398C104.824 13.4177 104.267 13.4524 103.533 13.461ZM103.444 13.461V12.9067C103.444 12.9067 103.506 12.9067 103.533 12.9067V13.461C103.533 13.461 103.48 13.461 103.444 13.461ZM103.409 12.9067C103.409 12.9067 103.435 12.9067 103.444 12.9067V13.461C103.444 13.461 103.427 13.461 103.418 13.461V12.9067H103.409ZM103.409 13.6342C103.409 13.6342 103.391 13.6342 103.382 13.6256C103.435 13.6256 103.48 13.5909 103.497 13.5476C104.249 13.5476 104.824 13.5043 105.196 13.4264C105.585 13.3484 106.028 13.1839 106.514 12.9327C106.948 12.7162 107.266 12.5776 107.47 12.5083C107.673 12.439 107.886 12.4131 108.116 12.4131H108.319H108.355C108.514 12.4217 108.7 12.439 108.903 12.465L109.275 11.7635C108.806 11.7635 108.452 11.7375 108.213 11.6855C107.965 11.6336 107.726 11.547 107.488 11.4257C107.249 11.3045 106.966 11.1226 106.621 10.8714C106.337 10.6722 106.099 10.5336 105.886 10.447C105.674 10.3604 105.47 10.3171 105.258 10.3171C104.904 10.3171 104.621 10.3864 104.409 10.5336C104.196 10.6809 104.081 10.8714 104.081 11.1139C104.081 11.2698 104.126 11.3911 104.223 11.4863L104.453 11.3478C104.701 11.1919 104.975 11.1139 105.293 11.1139C105.461 11.1139 105.63 11.1572 105.798 11.2352C105.957 11.3131 106.169 11.4517 106.435 11.6596C106.682 11.8501 106.93 12.006 107.187 12.1359C106.904 12.1879 106.576 12.2745 106.205 12.4131L105.665 12.5949C105.134 12.7508 104.417 12.8288 103.506 12.8374C103.48 12.7941 103.444 12.7682 103.391 12.7595C103.4 12.7595 103.409 12.7508 103.418 12.7508C104.356 12.7508 105.108 12.6729 105.638 12.517L106.178 12.3351C106.452 12.2312 106.7 12.1532 106.93 12.1013C106.744 11.9973 106.559 11.8674 106.382 11.7288C106.125 11.5296 105.913 11.3911 105.762 11.3218C105.612 11.2525 105.453 11.2092 105.302 11.2092C105.01 11.2092 104.745 11.2785 104.515 11.4257L104.223 11.5989L104.17 11.547C104.055 11.4344 104.002 11.2958 104.002 11.1139C104.002 10.8454 104.126 10.6289 104.364 10.4644C104.594 10.3085 104.895 10.2305 105.267 10.2305C105.479 10.2305 105.709 10.2738 105.93 10.3691C106.152 10.4557 106.39 10.6029 106.682 10.8108C107.019 11.0533 107.302 11.2352 107.541 11.3564C107.771 11.4777 108.01 11.5556 108.24 11.6076C108.478 11.6596 108.824 11.6855 109.284 11.6855H109.425L108.956 12.569H108.894C108.7 12.5343 108.514 12.517 108.355 12.5083H108.31H108.125C107.903 12.5083 107.7 12.543 107.505 12.6036C107.311 12.6642 106.992 12.8028 106.567 13.0193C106.081 13.2705 105.63 13.435 105.231 13.5217C104.833 13.6083 104.232 13.6516 103.418 13.6516L103.409 13.6342ZM103.25 12.8894C103.25 12.8894 103.303 12.8981 103.338 12.8981V13.4524C103.338 13.4524 103.276 13.4524 103.25 13.4437V12.8981C103.25 12.8981 103.25 12.8981 103.25 12.8894ZM103.382 13.6256C103.32 13.6256 103.285 13.5823 103.267 13.539C103.303 13.539 103.329 13.5476 103.365 13.5476C103.382 13.5476 103.382 13.5303 103.391 13.5217C103.4 13.5217 103.391 13.5476 103.418 13.5476C103.453 13.5476 103.48 13.5476 103.515 13.5476C103.488 13.5909 103.453 13.6169 103.4 13.6256H103.382ZM103.382 12.7422C103.435 12.7422 103.48 12.7768 103.497 12.8201C103.462 12.8201 103.435 12.8201 103.409 12.8201C103.391 12.8201 103.4 12.8374 103.382 12.8461C103.373 12.8461 103.382 12.8201 103.356 12.8201C103.329 12.8201 103.303 12.8115 103.267 12.8115C103.294 12.7768 103.329 12.7508 103.382 12.7422ZM103.329 13.4697C103.329 13.4697 103.356 13.513 103.382 13.5217C103.373 13.5217 103.382 13.5476 103.356 13.5476C103.32 13.5476 103.294 13.5476 103.258 13.539C103.25 13.513 103.232 13.4957 103.232 13.4697V13.4524C103.232 13.4524 103.294 13.4524 103.32 13.461L103.329 13.4697ZM103.25 12.8894C103.25 12.8894 103.267 12.8374 103.276 12.8115C103.303 12.8115 103.329 12.8201 103.365 12.8201C103.382 12.8201 103.382 12.8374 103.391 12.8461C103.365 12.8548 103.338 12.8634 103.338 12.8981C103.312 12.8981 103.285 12.8981 103.25 12.8894ZM103.533 12.8981C103.533 12.8981 103.515 12.8374 103.497 12.8201C104.409 12.8201 105.125 12.7335 105.656 12.5776L106.196 12.3957C106.567 12.2572 106.895 12.1619 107.178 12.1186C106.921 11.9973 106.674 11.8328 106.426 11.6422C106.16 11.443 105.948 11.2958 105.789 11.2179C105.63 11.1399 105.461 11.0966 105.285 11.0966C104.975 11.0966 104.692 11.1746 104.444 11.3304L104.214 11.469C104.117 11.3738 104.072 11.2525 104.072 11.0966C104.072 10.8541 104.179 10.6636 104.4 10.5163C104.612 10.3691 104.895 10.2998 105.249 10.2998C105.453 10.2998 105.665 10.3431 105.877 10.4297C106.09 10.5163 106.329 10.6636 106.612 10.8541C106.948 11.0966 107.24 11.2871 107.479 11.4084C107.718 11.5296 107.956 11.6163 108.204 11.6682C108.452 11.7202 108.806 11.7462 109.266 11.7462L108.894 12.4477C108.691 12.4217 108.514 12.4044 108.346 12.3957H108.31H108.107C107.886 12.3957 107.665 12.4304 107.461 12.491C107.258 12.5603 106.939 12.6989 106.505 12.9154C106.019 13.1579 105.585 13.3225 105.187 13.4091C104.816 13.487 104.241 13.5303 103.488 13.5303C103.497 13.5043 103.515 13.487 103.515 13.4524C104.249 13.435 104.807 13.4004 105.17 13.3225C105.55 13.2445 105.983 13.0799 106.461 12.8374C106.904 12.6123 107.222 12.4737 107.426 12.4044C107.638 12.3351 107.868 12.3005 108.098 12.3005H108.293H108.337C108.478 12.3005 108.638 12.3264 108.824 12.3438L109.098 11.8241C108.7 11.8241 108.381 11.7895 108.16 11.7462C107.912 11.6942 107.656 11.5989 107.417 11.4777C107.178 11.3564 106.877 11.1659 106.541 10.9234C106.267 10.7328 106.028 10.5856 105.824 10.5077C105.63 10.4297 105.426 10.3864 105.231 10.3864C104.895 10.3864 104.63 10.4557 104.435 10.5856C104.241 10.7155 104.152 10.8801 104.152 11.0879C104.152 11.1919 104.179 11.2785 104.223 11.3478L104.382 11.2438C104.639 11.0793 104.939 11.0013 105.267 11.0013C105.453 11.0013 105.638 11.0446 105.807 11.1312C105.975 11.2092 106.187 11.3564 106.461 11.5643C106.7 11.7548 106.948 11.9107 107.196 12.032L107.434 12.1446L107.169 12.1879C106.895 12.2398 106.567 12.3264 106.205 12.465L105.665 12.6469C105.134 12.8028 104.409 12.8807 103.515 12.8894L103.533 12.8981ZM103.329 12.8981C103.338 12.8981 103.347 12.8981 103.356 12.8981L103.373 13.461C103.373 13.461 103.373 13.461 103.365 13.461C103.356 13.461 103.347 13.461 103.329 13.461V12.9067V12.8981ZM103.533 13.4697C103.533 13.4697 103.515 13.5217 103.506 13.5476C103.471 13.5476 103.444 13.5476 103.409 13.5476C103.391 13.5476 103.4 13.5303 103.382 13.5217C103.409 13.513 103.444 13.5043 103.444 13.4697C103.444 13.4697 103.506 13.461 103.533 13.461V13.4697ZM103.409 12.8201C103.409 12.8201 103.471 12.8201 103.497 12.8201C103.515 12.8461 103.533 12.8634 103.533 12.8981C103.533 12.8981 103.48 12.8981 103.444 12.8981C103.444 12.8548 103.409 12.8461 103.382 12.8374C103.391 12.8374 103.382 12.8115 103.409 12.8115V12.8201ZM103.444 13.4697C103.444 13.4697 103.409 13.513 103.382 13.5217C103.356 13.513 103.329 13.5043 103.329 13.4697C103.329 13.4697 103.347 13.4697 103.365 13.4697H103.373L103.356 12.9067C103.356 12.9067 103.338 12.9067 103.329 12.9067C103.329 12.8721 103.356 12.8634 103.382 12.8548C103.409 12.8634 103.444 12.8721 103.444 12.9067C103.444 12.9067 103.418 12.9067 103.409 12.9067V13.461C103.409 13.461 103.435 13.461 103.444 13.461V13.4697ZM109.806 7.996V7.87475C109.806 7.69287 109.841 7.5543 109.938 7.45037C110.018 7.36376 110.133 7.29447 110.292 7.25117C110.292 7.25983 110.292 7.26849 110.292 7.28581C110.301 7.32045 110.398 7.64091 110.593 8.25583L110.336 8.46369V8.5503C110.381 9.22585 110.398 9.83211 110.398 10.3691V10.9667C110.398 11.5556 110.381 12.3698 110.336 13.3917L110.062 13.4437C110.018 11.2612 109.929 9.42505 109.797 7.996H109.806ZM109.894 13.5476V13.6516L110.513 13.539V13.4697C110.558 12.4044 110.584 11.5816 110.584 10.9667V10.3691C110.584 9.83211 110.566 9.21719 110.531 8.54164L110.805 8.31646L110.788 8.26449C110.54 7.46769 110.478 7.26849 110.469 7.25117C110.46 7.21652 110.451 7.18188 110.443 7.14724L110.425 7.06929L110.345 7.08661C110.106 7.12991 109.921 7.22518 109.806 7.36376C109.691 7.50233 109.629 7.67555 109.629 7.90073V8.03065C109.77 9.48568 109.859 11.3478 109.903 13.5736L109.894 13.5476ZM109.868 7.3984C109.974 7.27715 110.133 7.1992 110.354 7.1559C110.363 7.1992 110.372 7.23384 110.381 7.26849C110.39 7.30313 110.496 7.64091 110.699 8.29047L110.434 8.507V8.5503C110.469 9.23451 110.487 9.84077 110.487 10.3777V10.9753C110.487 11.5903 110.46 12.4217 110.416 13.4697L109.974 13.5476C109.929 11.3218 109.841 9.46835 109.708 8.00466V7.88341C109.708 7.68421 109.753 7.51965 109.859 7.3984H109.868ZM109.983 13.5476L110.425 13.4697C110.469 12.4217 110.496 11.5816 110.496 10.9753V10.3777C110.496 9.84077 110.478 9.23451 110.443 8.5503V8.507L110.699 8.29047C110.496 7.64957 110.39 7.30313 110.381 7.26849C110.372 7.23384 110.363 7.1992 110.354 7.1559C110.133 7.1992 109.974 7.27715 109.868 7.3984C109.761 7.51965 109.717 7.67555 109.717 7.88341V8.00466C109.859 9.47702 109.947 11.3218 109.991 13.5476H109.983ZM109.938 7.45903C110.018 7.37242 110.133 7.30313 110.292 7.25983C110.292 7.26849 110.292 7.27715 110.292 7.29447C110.301 7.32911 110.398 7.64957 110.593 8.26449L110.336 8.47235V8.55896C110.381 9.23451 110.398 9.84077 110.398 10.3777V10.9753C110.398 11.5643 110.381 12.3784 110.336 13.4004L110.062 13.4524C110.018 11.2698 109.929 9.43371 109.797 8.00466V7.88341C109.797 7.70153 109.832 7.56296 109.929 7.45903H109.938Z" fill="white"/>
</svg>
