<svg width="121" height="40" viewBox="0 0 121 40" fill="none" xmlns="http://www.w3.org/2000/svg">
<path d="M111.06 0H9.61973C9.24663 0 8.88363 0 8.52062 0C8.20803 0 7.90552 0 7.59293 0.010005C6.91733 0.030015 6.24173 0.070035 5.57621 0.190095C4.90062 0.310155 4.27543 0.510255 3.66034 0.82041C3.05532 1.13057 2.50073 1.53077 2.0268 2.001C1.54279 2.47124 1.13944 3.02151 0.836936 3.62181C0.524346 4.23212 0.322674 4.85243 0.201671 5.52276C0.0806686 6.18309 0.0403343 6.85343 0.0201671 7.52376C0.0201671 7.83392 0.0100836 8.13407 0 8.44422V31.5658C0 31.8759 0 32.1761 0.0201671 32.4862C0.0403343 33.1566 0.0806686 33.8269 0.201671 34.4872C0.322674 35.1576 0.514262 35.7879 0.836936 36.3882C1.13944 36.9885 1.54279 37.5288 2.0268 37.999C2.50073 38.4792 3.05532 38.8794 3.66034 39.1796C4.27543 39.4897 4.90062 39.6898 5.57621 39.8099C6.24173 39.93 6.92741 39.97 7.59293 39.99C7.90552 39.99 8.20803 40 8.52062 40C8.89371 40 9.25672 40 9.61973 40H111.06C111.423 40 111.786 40 112.149 40C112.452 40 112.775 40 113.077 39.99C113.753 39.97 114.428 39.93 115.094 39.8099C115.769 39.6898 116.395 39.4897 117.02 39.1796C117.625 38.8794 118.169 38.4792 118.653 37.999C119.137 37.5288 119.531 36.9785 119.843 36.3882C120.156 35.7779 120.357 35.1576 120.468 34.4872C120.589 33.8269 120.63 33.1566 120.66 32.4862C120.66 32.1761 120.66 31.8759 120.66 31.5658C120.66 31.2056 120.66 30.8454 120.66 30.4752V9.54477C120.66 9.17459 120.66 8.81441 120.66 8.45423C120.66 8.14407 120.66 7.84392 120.66 7.53377C120.64 6.86343 120.6 6.1931 120.468 5.53277C120.357 4.86243 120.156 4.24212 119.843 3.63182C119.531 3.03152 119.127 2.48124 118.653 2.01101C118.179 1.54077 117.625 1.14057 117.02 0.830415C116.395 0.52026 115.769 0.32016 115.094 0.2001C114.428 0.08004 113.753 0.04002 113.077 0.02001C112.775 0.02001 112.452 0.010005 112.149 0.010005C111.786 0.010005 111.423 0.010005 111.06 0.010005V0Z" fill="#B7B7B7"/>
<path d="M8.52047 39.1397C8.21796 39.1397 7.91546 39.1397 7.61295 39.1297C7.04827 39.1097 6.38275 39.0797 5.72732 38.9697C5.11222 38.8596 4.56771 38.6795 4.05345 38.4194C3.5291 38.1593 3.05517 37.8091 2.64175 37.3989C2.22832 36.9887 1.88548 36.5284 1.61322 35.9982C1.35105 35.4979 1.16955 34.9477 1.06871 34.3373C0.947708 33.667 0.917458 32.9767 0.897291 32.4564C0.897291 32.2463 0.887207 31.546 0.887207 31.546V8.4444C0.887207 8.4444 0.887207 7.75406 0.897291 7.55396C0.907374 7.0337 0.937625 6.34335 1.06871 5.68302C1.17963 5.07272 1.35105 4.52244 1.61322 4.02219C1.88548 3.50193 2.22832 3.0317 2.64175 2.62149C3.05517 2.21129 3.5291 1.86111 4.05345 1.60098C4.56771 1.34085 5.12231 1.16076 5.71724 1.06071C6.39284 0.94065 7.0886 0.910635 7.61295 0.90063H8.52047L112.149 0.890625H113.067C113.581 0.92064 114.277 0.950655 114.942 1.07072C115.547 1.18077 116.102 1.35086 116.626 1.62099C117.141 1.88112 117.615 2.2313 118.028 2.6415C118.441 3.05171 118.784 3.52194 119.057 4.0422C119.319 4.55246 119.49 5.09273 119.601 5.69303C119.722 6.32334 119.752 6.97367 119.772 7.58397C119.772 7.86411 119.772 8.17427 119.772 8.47442C119.772 8.85461 119.772 9.20478 119.772 9.56496V30.5054C119.772 30.8656 119.772 31.2258 119.772 31.586C119.772 31.9161 119.772 32.2063 119.772 32.5164C119.752 33.1067 119.712 33.7571 119.601 34.3674C119.5 34.9777 119.319 35.5279 119.057 36.0382C118.784 36.5585 118.441 37.0287 118.028 37.4289C117.615 37.8491 117.141 38.1893 116.616 38.4494C116.092 38.7095 115.558 38.8896 114.932 38.9997C114.287 39.1197 113.622 39.1498 113.047 39.1598C112.754 39.1598 112.442 39.1698 112.139 39.1698H111.05H8.51039L8.52047 39.1397Z" fill="#374957"/>
<path d="M18.2713 20.01L8.69189 29.5148C8.98432 30.6053 9.98259 31.4057 11.1725 31.4057C11.6464 31.4057 12.0901 31.2756 12.4732 31.0555L12.5035 31.0355L23.2122 24.9025L18.2713 20V20.01Z" fill="#E94434"/>
<path d="M27.8203 17.7888L23.202 15.1274L18.5434 19.7498L18.493 19.7998L18.2812 20.0099L23.2222 24.9123L27.8203 22.281C28.627 21.8508 29.1715 21.0104 29.1715 20.0299C29.1715 19.0494 28.627 18.229 27.8304 17.7888H27.8203Z" fill="#FBBD05"/>
<path d="M18.2712 20.0106L17.9889 19.7305L8.69183 10.5059C8.63132 10.716 8.60107 10.9361 8.60107 11.1662V28.865C8.60107 29.0952 8.63132 29.3153 8.69183 29.5154L18.2712 20.0106Z" fill="#5280BD"/>
<path d="M18.2713 20.0104L18.483 19.8003L18.5335 19.7503L23.1921 15.128L12.5035 8.97493C12.1102 8.74481 11.6565 8.61475 11.1725 8.61475C9.98259 8.61475 8.98432 9.41515 8.69189 10.5057L17.9889 19.7303L18.2713 20.0104Z" fill="#36A954"/>
<path d="M37.3695 12.8265C36.8149 12.2762 36.5326 11.5859 36.5326 10.7755C36.5326 9.96508 36.8149 9.27473 37.3695 8.72446C37.9241 8.17418 38.6098 7.89404 39.4165 7.89404C39.8097 7.89404 40.1929 7.97408 40.5559 8.12416C40.9189 8.27423 41.2114 8.48434 41.4332 8.74447L41.4937 8.8145L40.8786 9.42481L40.808 9.34477C40.4652 8.94457 40.0114 8.74447 39.4165 8.74447C38.8821 8.74447 38.4081 8.93456 38.0249 9.30475C37.6317 9.67493 37.4401 10.1652 37.4401 10.7655C37.4401 11.3658 37.6418 11.856 38.0249 12.2262C38.4182 12.5964 38.8821 12.7865 39.4165 12.7865C39.9912 12.7865 40.4551 12.6064 40.8383 12.2262C41.0601 12.0061 41.1912 11.7059 41.2416 11.3158H39.3056V10.4753H42.0886L42.1088 10.5554C42.139 10.6954 42.1491 10.8355 42.1491 10.9756C42.1491 11.746 41.9172 12.3663 41.4534 12.8165C40.929 13.3568 40.2433 13.6369 39.4165 13.6369C38.5896 13.6369 37.9342 13.3568 37.3695 12.8065V12.8265ZM46.2632 12.6864H43.823V11.1957H46.0212V10.3553H43.823V8.86453H46.2632V8.0141H42.9356V13.5269H46.2632V12.6764V12.6864ZM49.1673 13.5369V8.87453H50.6697V8.02411H46.7876V8.87453H48.29V13.5369H49.1774H49.1673ZM54.0276 8.02411H53.1402V13.5369H54.0276V8.02411ZM57.0728 13.5369V8.87453H58.5652V8.02411H54.683V8.87453H56.1754V13.5369H57.0627H57.0728ZM61.4491 12.8165C60.9046 12.2662 60.6323 11.5759 60.6323 10.7755C60.6323 9.97508 60.9046 9.28474 61.4491 8.73446C61.9936 8.18419 62.6793 7.89404 63.486 7.89404C64.2926 7.89404 64.9682 8.17418 65.5228 8.73446C66.0674 9.29474 66.3396 9.97508 66.3396 10.7755C66.3396 11.5759 66.0674 12.2662 65.5228 12.8165C64.9783 13.3668 64.2926 13.6569 63.486 13.6569C62.6793 13.6569 61.9936 13.3768 61.4491 12.8165ZM62.0944 9.32476C61.7213 9.70495 61.5297 10.1952 61.5297 10.7855C61.5297 11.3758 61.7213 11.866 62.0944 12.2462C62.4675 12.6264 62.9314 12.8165 63.4759 12.8165C64.0204 12.8165 64.4842 12.6264 64.8573 12.2462C65.2304 11.866 65.422 11.3758 65.422 10.7855C65.422 10.1952 65.2304 9.70495 64.8573 9.32476C64.4842 8.94457 64.0204 8.75447 63.4759 8.75447C62.9314 8.75447 62.4675 8.94457 62.0944 9.32476ZM67.9933 10.1252L67.9731 9.42481L70.5646 13.5469H71.4419V8.03411H70.5545V11.2457L70.5747 11.9461L68.1042 8.02411H67.106V13.5369H67.9933V10.1252ZM82.9876 24.0221L77.9055 26.1031C78.2987 26.8635 78.8937 27.2437 79.7508 27.2437C80.6079 27.2437 81.1927 26.8335 81.6263 26.2032L82.917 27.0636C82.5036 27.6739 81.4952 28.7345 79.7508 28.7345C77.5929 28.7345 75.9795 27.0736 75.9795 24.9626C75.9795 22.7215 77.603 21.1907 79.5592 21.1907C81.5154 21.1907 82.4935 22.7515 82.8162 23.5919L82.9876 24.0221ZM81.0314 23.4518C80.8398 22.9816 80.2852 22.6514 79.6197 22.6514C78.7726 22.6514 77.5929 23.3918 77.6332 24.8525L81.0314 23.4518ZM56.0544 24.9626C56.0544 27.1337 54.3402 28.7345 52.2428 28.7345C50.1454 28.7345 48.4312 27.1337 48.4312 24.9626C48.4312 22.7915 50.1454 21.1907 52.2428 21.1907C54.3402 21.1907 56.0544 22.7715 56.0544 24.9626ZM54.3805 24.9626C54.3805 23.6019 53.3923 22.6814 52.2327 22.6814C51.0731 22.6814 50.0849 23.6119 50.0849 24.9626C50.0849 26.3133 51.0731 27.2437 52.2327 27.2437C53.3923 27.2437 54.3805 26.3032 54.3805 24.9626ZM42.3407 22.3513V23.9521H46.1926C46.0817 24.8525 45.7792 25.5129 45.3154 25.9631C44.7507 26.5234 43.8734 27.1337 42.3407 27.1337C39.9711 27.1337 38.1056 25.2327 38.1056 22.8815C38.1056 20.5304 39.961 18.6294 42.3407 18.6294C43.6213 18.6294 44.5591 19.1297 45.2448 19.77L46.3842 18.6394C45.4162 17.729 44.1356 17.0286 42.3407 17.0286C39.0837 17.0286 36.3511 19.6599 36.3511 22.8815C36.3511 26.1031 39.0837 28.7345 42.3407 28.7345C44.0953 28.7345 45.4162 28.1642 46.4548 27.0936C47.5237 26.0331 47.8463 24.5524 47.8463 23.3518C47.8463 22.9816 47.8161 22.6414 47.7556 22.3513H42.3306H42.3407ZM70.7663 21.4208H72.3494V28.1842C72.3494 30.9656 70.6957 32.1061 68.7395 32.1061C66.8942 32.1061 65.785 30.8755 65.3716 29.875L66.8236 29.2747C67.0858 29.885 67.711 30.6154 68.7395 30.6154C69.9899 30.6154 70.7663 29.845 70.7663 28.4043V27.864H70.7058C70.3327 28.3243 69.6168 28.7245 68.7092 28.7245C66.8135 28.7245 65.0691 27.0836 65.0691 24.9726C65.0691 22.8615 66.8135 21.1907 68.7092 21.1907C69.6168 21.1907 70.3327 21.5909 70.7058 22.0311H70.7663V21.4208ZM70.8873 24.9826C70.8873 23.6519 69.9999 22.6814 68.8605 22.6814C67.7211 22.6814 66.743 23.6519 66.743 24.9826C66.743 26.3133 67.711 27.2537 68.8605 27.2537C70.01 27.2537 70.8873 26.2932 70.8873 24.9826ZM64.3733 24.9626C64.3733 27.1337 62.6591 28.7345 60.5617 28.7345C58.4643 28.7345 56.7501 27.1337 56.7501 24.9626C56.7501 22.7915 58.4643 21.1907 60.5617 21.1907C62.6591 21.1907 64.3733 22.7715 64.3733 24.9626ZM62.6994 24.9626C62.6994 23.6019 61.7113 22.6814 60.5516 22.6814C59.392 22.6814 58.4038 23.6119 58.4038 24.9626C58.4038 26.3133 59.392 27.2437 60.5516 27.2437C61.7113 27.2437 62.6994 26.3032 62.6994 24.9626ZM110.233 21.4208L108.328 26.2232H108.267L106.281 21.4208H104.486L107.46 28.1342L105.766 31.866H107.501L112.089 21.4208H110.233ZM104.365 24.2422V28.4943H102.751V27.6439H102.691C102.308 28.2242 101.683 28.7245 100.563 28.7245C99.1011 28.7245 97.7903 27.774 97.7903 26.2832C97.7903 24.6624 99.4137 23.792 101.007 23.792C101.793 23.792 102.439 24.0521 102.741 24.2222V24.1122C102.731 23.2017 101.854 22.6914 100.987 22.6914C100.372 22.6914 99.7767 22.8915 99.4641 23.5018L97.9819 22.8915C98.4961 21.721 99.7465 21.1907 100.957 21.1907C102.862 21.1907 104.345 22.2912 104.345 24.2522L104.365 24.2422ZM102.761 25.4928C102.318 25.2827 101.975 25.1227 101.239 25.1227C100.422 25.1227 99.4742 25.4528 99.4742 26.3032C99.4742 26.9736 100.241 27.2437 100.785 27.2437C101.743 27.2437 102.64 26.5134 102.772 25.4928H102.761ZM94.3013 20.8705C94.3013 22.9816 92.4863 24.3123 90.641 24.3123H88.3117V28.5144H86.6479V17.4388H90.641C92.4863 17.4388 94.3013 18.7695 94.3013 20.8805V20.8705ZM92.6275 20.8705C92.6275 20.0001 91.9216 18.9696 90.6713 18.9696H88.3016V22.7715H90.6713C91.9216 22.7715 92.6275 21.731 92.6275 20.8705ZM95.2189 28.5043H96.8827V17.4288H95.2189V28.5043ZM73.4989 28.5043H75.1728V17.4288H73.4989V28.5043Z" fill="white"/>
</svg>
