<svg width="40" height="22" viewBox="0 0 40 22" fill="none" xmlns="http://www.w3.org/2000/svg">
<rect width="40" height="22" rx="10" fill="#EBEBEB"/>
<path d="M7.02747 11.6779H18.0044V15.4001H7.02747V11.6779ZM7.02747 10.3223H18.0044V6.6001H7.02747V10.3223ZM29.0716 11.138C29.3314 11.092 29.5911 11.0461 29.8452 11.0001V14.728C29.8452 14.9923 29.7492 15.1129 29.4895 15.1991C29.2015 15.2967 28.9192 15.3369 28.5352 15.3369C27.6261 15.3369 27.1066 14.7912 27.1066 13.8492C27.1066 13.1599 27.3325 12.3385 28.3997 12.3385C28.5973 12.3385 28.795 12.3959 28.8853 12.4246H28.9079L28.9869 12.4534V11.1552L29.0773 11.138H29.0716ZM28.9813 13.091L28.9361 13.0795C28.7385 13.022 28.6369 13.0105 28.5465 13.0048C28.0101 13.0048 27.9536 13.4873 27.9536 13.8492C27.9536 14.55 28.2924 14.6993 28.5804 14.6993C28.7046 14.6993 28.7667 14.6878 28.9361 14.6534L28.9869 14.6419V13.091H28.9813ZM32.9621 13.3322V15.4001C32.7024 15.3484 32.4426 15.3024 32.1885 15.2565L32.1095 15.245H32.0982H32.0869C31.8441 15.3024 31.5674 15.3427 31.3641 15.3427C30.7148 15.3427 30.3252 15.0152 30.3252 14.4753C30.3252 13.8434 30.743 13.5447 31.6521 13.5447H32.149V13.3724C32.149 12.9761 31.7933 12.9761 31.6747 12.9761C31.415 12.9761 31.0649 13.0335 30.7825 13.1312L30.5172 13.2231L30.4268 12.5912L30.6978 12.5108C31.1157 12.3787 31.4545 12.3212 31.7876 12.3212C32.5725 12.3212 32.9678 12.6602 32.9678 13.3322H32.9621ZM32.1603 14.0675H31.6295C31.2173 14.0675 31.1552 14.303 31.1552 14.4408C31.1552 14.6591 31.3077 14.7797 31.5561 14.7797C31.6578 14.7797 31.7989 14.7568 31.9514 14.7165L32.1151 14.6706L32.1603 14.6591V14.0617V14.0675ZM26.6323 13.3322V15.4001C26.3726 15.3484 26.1128 15.3024 25.8587 15.2565L25.7797 15.245H25.7684H25.7571C25.5143 15.3024 25.2376 15.3427 25.0343 15.3427C24.3793 15.3427 23.9897 15.0152 23.9897 14.4753C23.9897 13.8434 24.4132 13.5447 25.3223 13.5447H25.8192V13.3724C25.8192 12.9761 25.4635 12.9761 25.3449 12.9761C25.0852 12.9761 24.7351 13.0335 24.4528 13.1312L24.1874 13.2231L24.097 12.5912L24.3681 12.5108C24.7859 12.3787 25.1247 12.3212 25.4578 12.3212C26.2427 12.3212 26.638 12.6602 26.6323 13.338V13.3322ZM25.8249 14.6649V14.0675H25.2884C24.8819 14.0675 24.8198 14.303 24.8198 14.4408C24.8198 14.6591 24.9722 14.7797 25.2207 14.7797C25.328 14.7797 25.4635 14.7568 25.6159 14.7165L25.7797 14.6706L25.8249 14.6591V14.6649ZM22.3918 12.327C21.9796 12.327 21.6351 12.4648 21.5109 12.528L21.477 12.5453L21.4488 12.5223C21.2737 12.3902 21.014 12.327 20.6583 12.327C20.3421 12.327 20.0428 12.3729 19.7209 12.4706C19.4443 12.5568 19.337 12.6946 19.337 12.9474V15.3139H20.2065V13.1312L20.2517 13.1197C20.4268 13.0622 20.534 13.0508 20.6357 13.0508C20.8841 13.0508 21.014 13.1886 21.014 13.4528V15.3254H21.8666V13.4184C21.8666 13.3035 21.844 13.2403 21.8384 13.2288L21.8102 13.1714L21.8666 13.1427C21.9965 13.0852 22.1377 13.0508 22.2901 13.0508C22.4652 13.0508 22.6684 13.1197 22.6684 13.4528V15.3254H23.5211V13.3667C23.5211 12.6716 23.154 12.3385 22.3974 12.3385L22.3918 12.327ZM30.6019 9.59853C30.4607 9.62151 30.2913 9.65023 30.1501 9.67895H25.9604C25.9943 9.44918 26.0281 9.21942 26.0564 9.0471H27.4172C27.5245 9.0471 27.5922 9.07007 27.6035 9.07582L27.66 9.10454V8.18548C27.66 7.63404 27.4398 7.2779 27.0276 7.2779H26.2371C26.2709 7.0424 26.2935 6.87582 26.3274 6.64031H27.1179C27.931 6.64031 28.49 7.16877 28.507 8.13378V9.0471H30.0824L30.1106 8.98965C30.1106 8.98965 30.1388 8.93796 30.1388 8.82307V7.50767C30.1388 7.31237 30.1953 7.14579 30.2969 7.01367C30.4776 6.7437 30.9915 6.6001 31.4884 6.6001H31.511C32.3975 6.61733 32.9678 7.2377 32.9734 8.18548C32.9734 9.139 32.3862 9.75937 31.4714 9.75937C31.2004 9.75937 30.8051 9.70193 30.5962 9.59853H30.6019ZM30.9181 7.45597L30.9463 7.50767C30.9463 7.50767 30.9689 7.58234 30.9689 7.69148V8.96668L31.0197 8.97817C31.1835 9.01263 31.398 9.02412 31.5222 9.02412C31.8046 9.02412 32.149 8.87477 32.149 8.17399C32.149 7.81211 32.0869 7.3296 31.5561 7.3296C31.4771 7.33535 31.302 7.3296 31.11 7.3813C31.1044 7.3813 31.0988 7.3813 31.0875 7.38704C31.0705 7.39279 31.0479 7.39853 31.031 7.40428H31.0197C31.0197 7.40428 30.9915 7.42151 30.9745 7.42725L30.9181 7.45023V7.45597ZM24.2156 10.0638C25.1247 10.0638 25.5482 9.75937 25.5482 9.00689C25.5482 8.46694 25.1586 8.03613 24.5092 8.03613H23.6735C23.4251 8.03613 23.2726 7.89253 23.2726 7.64553C23.2726 7.47895 23.3347 7.27216 23.7469 7.27216H25.5764C25.6159 7.03091 25.6329 6.87582 25.6724 6.63456H23.7695C22.883 6.63456 22.4369 7.01367 22.4369 7.63978C22.4369 8.26589 22.8265 8.58757 23.4759 8.58757H24.3116C24.56 8.58757 24.7125 8.78861 24.7125 9.00114C24.7125 9.139 24.6504 9.42621 24.2438 9.42621H21.4205L20.9293 9.42046C20.5171 9.42046 20.2235 9.17921 20.2235 8.62777V8.24866C20.2235 7.67425 20.4493 7.31237 20.9293 7.31237H21.7255C21.7593 7.06537 21.7819 6.91028 21.8158 6.68052H20.7317C19.9186 6.68052 19.3596 7.23195 19.3426 8.19696V8.62777C19.3596 9.59279 19.9242 10.0523 20.7317 10.0523H22.979H23.8486H24.2212L24.2156 10.0638Z" fill="#374957"/>
</svg>
