<svg width="40" height="22" viewBox="0 0 40 22" fill="none" xmlns="http://www.w3.org/2000/svg">
<rect width="40" height="22" rx="10" fill="#EBEBEB"/>
<path d="M15.9271 16.3375C15.8291 16.2118 15.6806 16.1329 15.4787 16.1329C15.0808 16.1329 14.769 16.4398 14.769 16.8664C14.769 17.2931 15.0808 17.5999 15.4787 17.5999C15.6806 17.5999 15.8291 17.521 15.9271 17.3953V17.5648H16.2359V16.168H15.9271V16.3375ZM15.5173 17.3135C15.25 17.3135 15.0867 17.1119 15.0867 16.8664C15.0867 16.6209 15.25 16.4193 15.5173 16.4193C15.7845 16.4193 15.9449 16.6122 15.9449 16.8664C15.9449 17.1206 15.7727 17.3135 15.5173 17.3135ZM19.0837 17.2317L19.1727 17.4918C19.0747 17.559 18.9203 17.5999 18.7867 17.5999C18.4215 17.5999 18.2938 17.407 18.2938 17.0827V16.4456H18.0057V16.168H18.2938V15.7442H18.6056V16.168H19.1104V16.4456H18.6056V17.0768C18.6056 17.2171 18.656 17.3106 18.8105 17.3106C18.8906 17.3106 18.9916 17.2843 19.0837 17.2317ZM17.7979 17.144C17.7979 17.41 17.5603 17.5999 17.1505 17.5999C16.9189 17.5999 16.7051 17.5415 16.5358 17.4187L16.6813 17.182C16.7853 17.2609 16.9397 17.3281 17.1535 17.3281C17.3673 17.3281 17.4772 17.2668 17.4772 17.1586C17.4772 17.0797 17.397 17.0359 17.2277 17.0125L17.0822 16.9921C16.7645 16.9482 16.5922 16.808 16.5922 16.58C16.5922 16.3024 16.8239 16.1329 17.1832 16.1329C17.4089 16.1329 17.6138 16.1826 17.7622 16.279L17.6286 16.5245C17.5425 16.4719 17.3673 16.4047 17.1861 16.4047C17.0169 16.4047 16.9159 16.4661 16.9159 16.5683C16.9159 16.6618 17.0228 16.6881 17.1565 16.7057L17.302 16.7261C17.6108 16.77 17.7979 16.8986 17.7979 17.144ZM11.3496 9.66003C11.3496 6.75527 13.743 4.3999 16.6947 4.3999C17.789 4.3999 18.806 4.72428 19.6538 5.27951C19.6107 5.31458 19.5662 5.34819 19.5246 5.38472C18.2656 6.46304 17.5425 8.02209 17.5425 9.66003C17.5425 11.298 18.2641 12.857 19.5246 13.9353C19.5662 13.9704 19.6107 14.0055 19.6538 14.0405C18.806 14.5958 17.789 14.9202 16.6947 14.9202C13.743 14.9202 11.3496 12.5648 11.3496 9.66003ZM14.4958 16.6881V17.5648H14.184V16.7875C14.184 16.5508 14.083 16.4193 13.8722 16.4193C13.6614 16.4193 13.5248 16.5479 13.5248 16.7904V17.5648H13.213V16.7875C13.213 16.5508 13.109 16.4193 12.9041 16.4193C12.6992 16.4193 12.5567 16.5479 12.5567 16.7904V17.5648H12.2449V16.168H12.5537V16.3404C12.6695 16.1767 12.818 16.1329 12.9695 16.1329C13.1862 16.1329 13.3407 16.2264 13.4386 16.3813C13.5693 16.1855 13.7564 16.13 13.9375 16.1329C14.282 16.1358 14.4958 16.3579 14.4958 16.6881ZM19.7963 5.69156C19.8617 5.63457 19.93 5.58051 19.9983 5.52645C20.0666 5.58051 20.1349 5.63457 20.2002 5.69156C21.3271 6.65591 22.0398 8.07615 22.0398 9.66003C22.0398 11.2439 21.3271 12.6641 20.2002 13.6285C20.1349 13.6855 20.0666 13.7396 19.9983 13.7936C19.93 13.7396 19.8617 13.6855 19.7963 13.6285C18.6694 12.6641 17.9567 11.2439 17.9567 9.66003C17.9567 8.07615 18.6694 6.65591 19.7963 5.69156ZM26.0338 16.1329C26.0961 16.1329 26.1852 16.1446 26.2535 16.1709L26.1585 16.4573C26.0931 16.431 26.0278 16.4222 25.9655 16.4222C25.7635 16.4222 25.6626 16.5508 25.6626 16.7817V17.5648H25.3537V16.168H25.6596V16.3375C25.7398 16.2147 25.8556 16.1329 26.0338 16.1329ZM27.5037 16.3375C27.4057 16.2118 27.2572 16.1329 27.0553 16.1329C26.6573 16.1329 26.3455 16.4398 26.3455 16.8664C26.3455 17.2931 26.6573 17.5999 27.0553 17.5999C27.2572 17.5999 27.4057 17.521 27.5037 17.3953V17.5648H27.8125V15.6069H27.5037V16.3375ZM27.0939 17.3135C26.8266 17.3135 26.6633 17.1119 26.6633 16.8664C26.6633 16.6209 26.8266 16.4193 27.0939 16.4193C27.3611 16.4193 27.5215 16.6122 27.5215 16.8664C27.5215 17.1206 27.3492 17.3135 27.0939 17.3135ZM22.3768 16.8664C22.3768 17.1353 22.558 17.3106 22.8044 17.3135C22.9381 17.3135 23.0598 17.2697 23.1756 17.1879L23.3241 17.4333C23.1697 17.5531 23.0271 17.5999 22.8133 17.5999C22.356 17.5999 22.0561 17.2901 22.0561 16.8664C22.0561 16.4427 22.356 16.1329 22.8133 16.1329C23.0271 16.1329 23.1697 16.1797 23.3241 16.2995L23.1756 16.545C23.0598 16.4631 22.9381 16.4193 22.8044 16.4193C22.558 16.4222 22.3768 16.5976 22.3768 16.8664ZM24.6381 16.3375C24.5401 16.2118 24.3916 16.1329 24.1897 16.1329C23.7918 16.1329 23.48 16.4398 23.48 16.8664C23.48 17.2931 23.7918 17.5999 24.1897 17.5999C24.3916 17.5999 24.5401 17.521 24.6381 17.3953V17.5648H24.9469V16.168H24.6381V16.3375ZM24.2283 17.3135C23.961 17.3135 23.7977 17.1119 23.7977 16.8664C23.7977 16.6209 23.961 16.4193 24.2283 16.4193C24.4956 16.4193 24.6559 16.6122 24.6559 16.8664C24.6559 17.1206 24.4837 17.3135 24.2283 17.3135ZM20.4719 5.38472C20.4303 5.34819 20.3858 5.31458 20.3427 5.27951C21.1905 4.72428 22.2076 4.3999 23.3018 4.3999C26.2535 4.3999 28.6469 6.75527 28.6469 9.66003C28.6469 12.5648 26.2535 14.9202 23.3018 14.9202C22.2076 14.9202 21.1905 14.5958 20.3427 14.0405C20.3858 14.0055 20.4303 13.9704 20.4719 13.9353C21.731 12.857 22.4525 11.2994 22.4525 9.66003C22.4525 8.02062 21.731 6.46304 20.4704 5.38472H20.4719ZM21.7443 16.1329C21.8067 16.1329 21.8958 16.1446 21.9641 16.1709L21.869 16.4573C21.8037 16.431 21.7384 16.4222 21.676 16.4222C21.4741 16.4222 21.3731 16.5508 21.3731 16.7817V17.5648H21.0643V16.168H21.3702V16.3375C21.4503 16.2147 21.5662 16.1329 21.7443 16.1329ZM20.0725 16.1329C19.6568 16.1329 19.3658 16.431 19.3658 16.8664C19.3658 17.3018 19.6686 17.5999 20.0933 17.5999C20.3071 17.5999 20.5031 17.5473 20.6753 17.4041L20.5239 17.1791C20.4051 17.2726 20.2536 17.3252 20.1111 17.3252C19.9121 17.3252 19.731 17.2346 19.6865 16.9833H20.7406C20.7436 16.9453 20.7466 16.9073 20.7466 16.8664C20.7436 16.431 20.4704 16.1329 20.0725 16.1329ZM19.6894 16.7437C19.7221 16.542 19.8468 16.4047 20.0666 16.4047C20.2655 16.4047 20.3932 16.5274 20.4259 16.7437H19.6894Z" fill="#374957"/>
</svg>
