<svg width="178" height="36" viewBox="0 0 178 36" fill="none" xmlns="http://www.w3.org/2000/svg">
<rect y="6" width="178" height="30" rx="5" fill="white"/>
<path d="M33.172 4.55571L23.406 1.15271C22.8202 0.949096 22.1828 0.949096 21.597 1.15271L11.828 4.55271C11.2952 4.73549 10.8327 5.07999 10.505 5.53818C10.1773 5.99637 10.0007 6.5454 10 7.10871V17.0647C10.0013 20.0929 11.103 23.0174 13.1 25.2937C14.1191 26.4194 15.335 27.3496 16.688 28.0387L21.978 30.8677C22.1406 30.9546 22.3221 31 22.5065 31C22.6909 31 22.8724 30.9546 23.035 30.8677L28.315 28.0397C29.6666 27.3497 30.8814 26.4196 31.9 25.2947C33.896 23.0198 34.9977 20.0972 35 17.0707V7.10871C34.9995 6.5457 34.823 5.99692 34.4953 5.53916C34.1675 5.0814 33.7048 4.73754 33.172 4.55571Z" fill="white" stroke="#374957" stroke-width="0.5"/>
<path d="M19.3703 22.1955H19.3533C19.0326 22.1916 18.7163 22.1205 18.4248 21.9866C18.1333 21.8528 17.8732 21.6593 17.6613 21.4185C17.5868 21.3361 17.5215 21.2459 17.4663 21.1495L15.3793 17.5035C15.1772 17.1528 15.1132 16.7394 15.1997 16.344C15.2863 15.9486 15.5172 15.5997 15.8473 15.3655C16.0075 15.2589 16.1883 15.187 16.3779 15.1545C16.5676 15.122 16.762 15.1295 16.9486 15.1766C17.1352 15.2237 17.3098 15.3093 17.4613 15.428C17.6128 15.5466 17.7378 15.6957 17.8283 15.8655L19.4793 18.7495L27.3843 10.2495C27.5124 10.1065 27.6692 9.99206 27.8446 9.91373C28.0199 9.8354 28.2098 9.79492 28.4018 9.79492C28.5938 9.79492 28.7837 9.8354 28.959 9.91373C29.1343 9.99206 29.2912 10.1065 29.4193 10.2495C29.6915 10.5512 29.8422 10.9432 29.8422 11.3495C29.8422 11.7559 29.6915 12.1478 29.4193 12.4495L21.0603 21.4335C20.8474 21.6715 20.587 21.8622 20.296 21.9934C20.0049 22.1247 19.6896 22.1935 19.3703 22.1955Z" fill="#6543F5" stroke="#374957" stroke-width="0.2" stroke-linecap="round"/>
<path d="M49.02 24.208H51.48V25H45.48V24.208H48.18V17.524L46.296 18.088L46.08 17.368L48.3 16.6H49.02V24.208ZM55.2638 25.144C53.2118 25.144 52.0838 23.392 52.0838 20.8C52.0838 18.208 53.2118 16.456 55.2638 16.456C57.3158 16.456 58.4438 18.208 58.4438 20.8C58.4438 23.392 57.3158 25.144 55.2638 25.144ZM55.2638 24.328C56.7398 24.328 57.6038 23.044 57.6038 20.8C57.6038 18.556 56.7398 17.272 55.2638 17.272C53.7878 17.272 52.9238 18.556 52.9238 20.8C52.9238 23.044 53.7878 24.328 55.2638 24.328ZM62.1075 25.144C60.0555 25.144 58.9275 23.392 58.9275 20.8C58.9275 18.208 60.0555 16.456 62.1075 16.456C64.1595 16.456 65.2875 18.208 65.2875 20.8C65.2875 23.392 64.1595 25.144 62.1075 25.144ZM62.1075 24.328C63.5835 24.328 64.4475 23.044 64.4475 20.8C64.4475 18.556 63.5835 17.272 62.1075 17.272C60.6315 17.272 59.7675 18.556 59.7675 20.8C59.7675 23.044 60.6315 24.328 62.1075 24.328ZM68.0873 20.056C67.0312 20.056 66.2513 19.252 66.2513 18.256C66.2513 17.26 67.0312 16.456 68.0873 16.456C69.1433 16.456 69.9233 17.26 69.9233 18.256C69.9233 19.252 69.1673 20.056 68.0873 20.056ZM68.0873 19.336C68.7233 19.336 69.1553 18.856 69.1553 18.256C69.1553 17.656 68.7233 17.176 68.0873 17.176C67.4513 17.176 67.0193 17.656 67.0193 18.256C67.0193 18.856 67.4513 19.336 68.0873 19.336ZM66.6713 23.86L72.2993 17.536L72.8153 17.824L67.1753 24.148L66.6713 23.86ZM71.4833 25.144C70.4273 25.144 69.6473 24.34 69.6473 23.344C69.6473 22.348 70.4273 21.544 71.4833 21.544C72.5393 21.544 73.3193 22.348 73.3193 23.344C73.3193 24.34 72.5393 25.144 71.4833 25.144ZM71.4833 24.424C72.1193 24.424 72.5513 23.944 72.5513 23.344C72.5513 22.744 72.1193 22.264 71.4833 22.264C70.8473 22.264 70.4153 22.744 70.4153 23.344C70.4153 23.944 70.8473 24.424 71.4833 24.424Z" fill="#374957"/>
<path d="M81.8151 25.156C79.3911 25.156 77.4591 23.236 77.4591 20.8C77.4591 18.364 79.3911 16.444 81.8151 16.444C84.2511 16.444 86.1711 18.364 86.1711 20.8C86.1711 23.236 84.2511 25.156 81.8151 25.156ZM81.8151 23.812C83.4951 23.812 84.7911 22.528 84.7911 20.8C84.7911 19.072 83.4951 17.788 81.8151 17.788C80.1351 17.788 78.8391 19.072 78.8391 20.8C78.8391 22.528 80.1351 23.812 81.8151 23.812ZM88.6418 20.008C89.0018 19.192 89.7338 18.892 90.4898 18.892V20.296C89.6378 20.236 88.6418 20.632 88.6418 21.976V25H87.3458V19H88.6418V20.008ZM92.0954 18.1C91.6394 18.1 91.2674 17.716 91.2674 17.272C91.2674 16.816 91.6394 16.444 92.0954 16.444C92.5514 16.444 92.9234 16.816 92.9234 17.272C92.9234 17.716 92.5514 18.1 92.0954 18.1ZM91.4474 25V19H92.7434V25H91.4474ZM99.0242 19H100.296V24.724C100.296 26.656 98.7842 27.556 97.2122 27.556C95.8922 27.556 94.8722 27.064 94.3682 26.104L95.4842 25.456C95.7482 25.972 96.1922 26.38 97.2362 26.38C98.3522 26.38 99.0242 25.768 99.0242 24.724V23.992C98.5682 24.64 97.8602 25.036 96.9362 25.036C95.2442 25.036 93.9122 23.656 93.9122 21.94C93.9122 20.224 95.2442 18.844 96.9362 18.844C97.8602 18.844 98.5682 19.24 99.0242 19.888V19ZM97.1162 23.824C98.2082 23.824 99.0242 23.02 99.0242 21.94C99.0242 20.86 98.2082 20.056 97.1162 20.056C96.0242 20.056 95.2082 20.86 95.2082 21.94C95.2082 23.02 96.0242 23.824 97.1162 23.824ZM102.455 18.1C101.999 18.1 101.627 17.716 101.627 17.272C101.627 16.816 101.999 16.444 102.455 16.444C102.911 16.444 103.283 16.816 103.283 17.272C103.283 17.716 102.911 18.1 102.455 18.1ZM101.807 25V19H103.103V25H101.807ZM107.764 18.844C109.108 18.844 110.068 19.756 110.068 21.316V25H108.772V21.448C108.772 20.536 108.244 20.056 107.428 20.056C106.576 20.056 105.904 20.56 105.904 21.784V25H104.608V19H105.904V19.768C106.3 19.144 106.948 18.844 107.764 18.844ZM116.215 19H117.511V25H116.215V24.136C115.759 24.772 115.051 25.156 114.115 25.156C112.483 25.156 111.127 23.776 111.127 22C111.127 20.212 112.483 18.844 114.115 18.844C115.051 18.844 115.759 19.228 116.215 19.852V19ZM114.319 23.92C115.399 23.92 116.215 23.116 116.215 22C116.215 20.884 115.399 20.08 114.319 20.08C113.239 20.08 112.423 20.884 112.423 22C112.423 23.116 113.239 23.92 114.319 23.92ZM119.022 25V16.24H120.318V25H119.022ZM128.002 16.6C129.586 16.6 130.786 17.8 130.786 19.36C130.786 20.908 129.586 22.12 128.002 22.12H126.286V25H124.906V16.6H128.002ZM128.002 20.824C128.818 20.824 129.406 20.2 129.406 19.36C129.406 18.508 128.818 17.896 128.002 17.896H126.286V20.824H128.002ZM133.079 20.008C133.439 19.192 134.171 18.892 134.927 18.892V20.296C134.075 20.236 133.079 20.632 133.079 21.976V25H131.783V19H133.079V20.008ZM138.436 25.156C136.684 25.156 135.268 23.776 135.268 22C135.268 20.212 136.684 18.844 138.436 18.844C140.2 18.844 141.604 20.212 141.604 22C141.604 23.776 140.2 25.156 138.436 25.156ZM138.436 23.896C139.492 23.896 140.308 23.092 140.308 22C140.308 20.908 139.492 20.104 138.436 20.104C137.38 20.104 136.564 20.908 136.564 22C136.564 23.092 137.38 23.896 138.436 23.896ZM147.528 16.6H148.824V25H147.528V24.136C147.072 24.772 146.364 25.156 145.428 25.156C143.796 25.156 142.44 23.776 142.44 22C142.44 20.212 143.796 18.844 145.428 18.844C146.364 18.844 147.072 19.228 147.528 19.852V16.6ZM145.632 23.92C146.712 23.92 147.528 23.116 147.528 22C147.528 20.884 146.712 20.08 145.632 20.08C144.552 20.08 143.736 20.884 143.736 22C143.736 23.116 144.552 23.92 145.632 23.92ZM154.378 19H155.674V25H154.378V24.232C153.982 24.856 153.334 25.156 152.518 25.156C151.174 25.156 150.214 24.244 150.214 22.684V19H151.51V22.552C151.51 23.464 152.038 23.944 152.854 23.944C153.706 23.944 154.378 23.44 154.378 22.216V19ZM160.022 25.156C158.21 25.156 156.854 23.776 156.854 22C156.854 20.212 158.21 18.844 160.022 18.844C161.198 18.844 162.218 19.456 162.698 20.392L161.582 21.04C161.318 20.476 160.73 20.116 160.01 20.116C158.954 20.116 158.15 20.92 158.15 22C158.15 23.08 158.954 23.884 160.01 23.884C160.73 23.884 161.318 23.512 161.606 22.96L162.722 23.596C162.218 24.544 161.198 25.156 160.022 25.156ZM167.006 20.248H165.518V23.128C165.518 23.896 166.022 23.884 167.006 23.836V25C165.014 25.24 164.222 24.688 164.222 23.128V20.248H163.118V19H164.222V17.704L165.518 17.32V19H167.006V20.248Z" fill="#6543F5"/>
</svg>
