<svg width="157" height="36" viewBox="0 0 157 36" fill="none" xmlns="http://www.w3.org/2000/svg">
<rect y="6" width="157" height="30" rx="5" fill="white"/>
<path d="M33.172 4.55571L23.406 1.15271C22.8202 0.949096 22.1828 0.949096 21.597 1.15271L11.828 4.55271C11.2952 4.73549 10.8327 5.07999 10.505 5.53818C10.1773 5.99637 10.0007 6.5454 10 7.10871V17.0647C10.0013 20.0929 11.103 23.0174 13.1 25.2937C14.1191 26.4194 15.335 27.3496 16.688 28.0387L21.978 30.8677C22.1406 30.9546 22.3221 31 22.5065 31C22.6909 31 22.8724 30.9546 23.035 30.8677L28.315 28.0397C29.6666 27.3497 30.8814 26.4196 31.9 25.2947C33.896 23.0198 34.9977 20.0972 35 17.0707V7.10871C34.9995 6.5457 34.823 5.99692 34.4953 5.53916C34.1675 5.0814 33.7048 4.73754 33.172 4.55571Z" fill="white" stroke="#374957" stroke-width="0.5"/>
<path d="M19.3703 22.1955H19.3533C19.0326 22.1916 18.7163 22.1205 18.4248 21.9866C18.1333 21.8528 17.8732 21.6593 17.6613 21.4185C17.5868 21.3361 17.5215 21.2459 17.4663 21.1495L15.3793 17.5035C15.1772 17.1528 15.1132 16.7394 15.1997 16.344C15.2863 15.9486 15.5172 15.5997 15.8473 15.3655C16.0075 15.2589 16.1883 15.187 16.3779 15.1545C16.5676 15.122 16.762 15.1295 16.9486 15.1766C17.1352 15.2237 17.3098 15.3093 17.4613 15.428C17.6128 15.5466 17.7378 15.6957 17.8283 15.8655L19.4793 18.7495L27.3843 10.2495C27.5124 10.1065 27.6692 9.99206 27.8446 9.91373C28.0199 9.8354 28.2098 9.79492 28.4018 9.79492C28.5938 9.79492 28.7837 9.8354 28.959 9.91373C29.1343 9.99206 29.2912 10.1065 29.4193 10.2495C29.6915 10.5512 29.8422 10.9432 29.8422 11.3495C29.8422 11.7559 29.6915 12.1478 29.4193 12.4495L21.0603 21.4335C20.8474 21.6715 20.587 21.8622 20.296 21.9934C20.0049 22.1247 19.6896 22.1935 19.3703 22.1955Z" fill="#6543F5" stroke="#374957" stroke-width="0.2" stroke-linecap="round"/>
<path d="M48.1391 25.228L47.5391 25.048L50.0231 16.816L50.6231 17.008L48.1391 25.228ZM47.3591 20.32C47.0871 20.32 46.8511 20.26 46.6511 20.14C46.4591 20.012 46.3071 19.824 46.1951 19.576C46.0911 19.32 46.0391 19 46.0391 18.616C46.0391 18.232 46.0911 17.92 46.1951 17.68C46.3071 17.432 46.4591 17.252 46.6511 17.14C46.8511 17.02 47.0871 16.96 47.3591 16.96C47.6311 16.96 47.8631 17.02 48.0551 17.14C48.2551 17.252 48.4071 17.432 48.5111 17.68C48.6231 17.92 48.6791 18.232 48.6791 18.616C48.6791 19 48.6231 19.32 48.5111 19.576C48.4071 19.824 48.2551 20.012 48.0551 20.14C47.8631 20.26 47.6311 20.32 47.3591 20.32ZM47.3591 19.684C47.5031 19.684 47.6151 19.644 47.6951 19.564C47.7831 19.484 47.8431 19.364 47.8751 19.204C47.9151 19.044 47.9351 18.848 47.9351 18.616C47.9351 18.384 47.9151 18.192 47.8751 18.04C47.8431 17.888 47.7831 17.776 47.6951 17.704C47.6151 17.624 47.5031 17.584 47.3591 17.584C47.2151 17.584 47.0991 17.624 47.0111 17.704C46.9311 17.776 46.8711 17.888 46.8311 18.04C46.7991 18.192 46.7831 18.384 46.7831 18.616C46.7831 18.848 46.7991 19.044 46.8311 19.204C46.8711 19.364 46.9311 19.484 47.0111 19.564C47.0991 19.644 47.2151 19.684 47.3591 19.684ZM50.7791 25.12C50.5071 25.12 50.2711 25.06 50.0711 24.94C49.8711 24.812 49.7151 24.624 49.6031 24.376C49.4991 24.12 49.4471 23.8 49.4471 23.416C49.4471 23.032 49.4991 22.72 49.6031 22.48C49.7151 22.232 49.8711 22.052 50.0711 21.94C50.2711 21.82 50.5071 21.76 50.7791 21.76C51.0511 21.76 51.2831 21.82 51.4751 21.94C51.6751 22.052 51.8271 22.232 51.9311 22.48C52.0431 22.72 52.0991 23.036 52.0991 23.428C52.0991 23.812 52.0431 24.132 51.9311 24.388C51.8271 24.636 51.6751 24.82 51.4751 24.94C51.2831 25.06 51.0511 25.12 50.7791 25.12ZM50.7791 24.496C50.9231 24.496 51.0351 24.456 51.1151 24.376C51.2031 24.296 51.2631 24.176 51.2951 24.016C51.3351 23.856 51.3551 23.66 51.3551 23.428C51.3551 23.188 51.3351 22.992 51.2951 22.84C51.2631 22.688 51.2031 22.576 51.1151 22.504C51.0351 22.432 50.9231 22.396 50.7791 22.396C50.6351 22.396 50.5191 22.432 50.4311 22.504C50.3511 22.576 50.2911 22.688 50.2511 22.84C50.2111 22.992 50.1911 23.184 50.1911 23.416C50.1911 23.648 50.2111 23.848 50.2511 24.016C50.2911 24.176 50.3511 24.296 50.4311 24.376C50.5191 24.456 50.6351 24.496 50.7791 24.496ZM56.138 25V18.148L54.122 19.492L53.678 18.76L56.198 17.08H57.098V25H56.138ZM62.4928 25.12C62.0368 25.12 61.6288 25.056 61.2688 24.928C60.9168 24.8 60.6128 24.588 60.3568 24.292C60.1088 23.988 59.9168 23.58 59.7808 23.068C59.6528 22.556 59.5888 21.92 59.5888 21.16C59.5888 20.352 59.6528 19.676 59.7808 19.132C59.9088 18.588 60.0968 18.156 60.3448 17.836C60.6008 17.516 60.9048 17.288 61.2568 17.152C61.6168 17.016 62.0248 16.948 62.4808 16.948C62.9528 16.948 63.3688 17.016 63.7288 17.152C64.0888 17.288 64.3888 17.516 64.6288 17.836C64.8768 18.156 65.0648 18.588 65.1928 19.132C65.3208 19.668 65.3848 20.344 65.3848 21.16C65.3848 22.168 65.2688 22.96 65.0368 23.536C64.8048 24.112 64.4728 24.52 64.0408 24.76C63.6168 25 63.1008 25.12 62.4928 25.12ZM62.4928 24.268C62.8048 24.268 63.0768 24.22 63.3088 24.124C63.5488 24.028 63.7488 23.864 63.9088 23.632C64.0688 23.4 64.1888 23.084 64.2688 22.684C64.3488 22.276 64.3888 21.768 64.3888 21.16C64.3888 20.496 64.3488 19.948 64.2688 19.516C64.1968 19.084 64.0808 18.744 63.9208 18.496C63.7688 18.24 63.5728 18.06 63.3328 17.956C63.1008 17.852 62.8208 17.8 62.4928 17.8C62.1728 17.8 61.8928 17.852 61.6528 17.956C61.4128 18.06 61.2128 18.236 61.0528 18.484C60.9008 18.732 60.7848 19.076 60.7048 19.516C60.6248 19.948 60.5848 20.5 60.5848 21.172C60.5848 21.78 60.6248 22.288 60.7048 22.696C60.7928 23.096 60.9168 23.412 61.0768 23.644C61.2448 23.868 61.4448 24.028 61.6768 24.124C61.9168 24.22 62.1888 24.268 62.4928 24.268ZM69.2077 25.12C68.7517 25.12 68.3437 25.056 67.9837 24.928C67.6317 24.8 67.3277 24.588 67.0717 24.292C66.8237 23.988 66.6317 23.58 66.4957 23.068C66.3677 22.556 66.3037 21.92 66.3037 21.16C66.3037 20.352 66.3677 19.676 66.4957 19.132C66.6237 18.588 66.8117 18.156 67.0597 17.836C67.3157 17.516 67.6197 17.288 67.9717 17.152C68.3317 17.016 68.7397 16.948 69.1957 16.948C69.6677 16.948 70.0837 17.016 70.4437 17.152C70.8037 17.288 71.1037 17.516 71.3437 17.836C71.5917 18.156 71.7797 18.588 71.9077 19.132C72.0357 19.668 72.0997 20.344 72.0997 21.16C72.0997 22.168 71.9837 22.96 71.7517 23.536C71.5197 24.112 71.1877 24.52 70.7557 24.76C70.3317 25 69.8157 25.12 69.2077 25.12ZM69.2077 24.268C69.5197 24.268 69.7917 24.22 70.0237 24.124C70.2637 24.028 70.4637 23.864 70.6237 23.632C70.7837 23.4 70.9037 23.084 70.9837 22.684C71.0637 22.276 71.1037 21.768 71.1037 21.16C71.1037 20.496 71.0637 19.948 70.9837 19.516C70.9117 19.084 70.7957 18.744 70.6357 18.496C70.4837 18.24 70.2877 18.06 70.0477 17.956C69.8157 17.852 69.5357 17.8 69.2077 17.8C68.8877 17.8 68.6077 17.852 68.3677 17.956C68.1277 18.06 67.9277 18.236 67.7677 18.484C67.6157 18.732 67.4997 19.076 67.4197 19.516C67.3397 19.948 67.2997 20.5 67.2997 21.172C67.2997 21.78 67.3397 22.288 67.4197 22.696C67.5077 23.096 67.6317 23.412 67.7917 23.644C67.9597 23.868 68.1597 24.028 68.3917 24.124C68.6317 24.22 68.9037 24.268 69.2077 24.268Z" fill="#374957"/>
<path d="M78.6318 25C77.9518 25 77.3918 24.892 76.9518 24.676C76.5118 24.46 76.1838 24.132 75.9678 23.692C75.7598 23.252 75.6558 22.696 75.6558 22.024C75.6558 21.352 75.7598 20.792 75.9678 20.344C76.1838 19.888 76.5118 19.548 76.9518 19.324C77.3918 19.092 77.9518 18.976 78.6318 18.976H81.3438V24.244H79.7358V20.02L80.1318 20.368H78.6318C78.3038 20.368 78.0398 20.408 77.8398 20.488C77.6398 20.56 77.4918 20.716 77.3958 20.956C77.3078 21.188 77.2638 21.544 77.2638 22.024C77.2638 22.48 77.3038 22.824 77.3838 23.056C77.4718 23.28 77.6158 23.428 77.8158 23.5C78.0158 23.572 78.2878 23.608 78.6318 23.608H82.6038V25H78.6318ZM82.6038 25V23.608C82.6518 23.608 82.6878 23.624 82.7118 23.656C82.7438 23.688 82.7678 23.736 82.7838 23.8C82.8078 23.864 82.8238 23.94 82.8318 24.028C82.8398 24.108 82.8438 24.2 82.8438 24.304C82.8438 24.408 82.8398 24.504 82.8318 24.592C82.8238 24.68 82.8078 24.756 82.7838 24.82C82.7678 24.876 82.7438 24.92 82.7118 24.952C82.6878 24.984 82.6518 25 82.6038 25ZM76.8438 17.872V16.504H78.3918V17.872H76.8438ZM79.0278 17.872V16.504H80.5758V17.872H79.0278ZM86.1095 25V23.608H87.6095V25H86.1095ZM87.6095 25V23.608C87.6495 23.608 87.6855 23.624 87.7175 23.656C87.7495 23.688 87.7735 23.736 87.7895 23.8C87.8055 23.864 87.8175 23.94 87.8255 24.028C87.8415 24.108 87.8495 24.2 87.8495 24.304C87.8495 24.408 87.8415 24.504 87.8255 24.592C87.8175 24.68 87.8055 24.756 87.7895 24.82C87.7735 24.876 87.7495 24.92 87.7175 24.952C87.6935 24.984 87.6575 25 87.6095 25ZM82.6055 25C82.5575 25 82.5215 24.984 82.4975 24.952C82.4655 24.92 82.4415 24.876 82.4255 24.82C82.4015 24.756 82.3855 24.68 82.3775 24.592C82.3695 24.504 82.3655 24.408 82.3655 24.304C82.3655 24.16 82.3735 24.04 82.3895 23.944C82.4055 23.84 82.4335 23.76 82.4735 23.704C82.5055 23.64 82.5495 23.608 82.6055 23.608V25ZM82.6055 25V23.608H85.4495L84.5135 24.388V18.976H86.1095V25H82.6055ZM83.0375 27.556V26.188H84.5855V27.556H83.0375ZM85.2215 27.556V26.188H86.7695V27.556H85.2215ZM90.5734 25V23.608H91.8334V25H90.5734ZM87.6094 25C87.5614 25 87.5254 24.984 87.5014 24.952C87.4694 24.92 87.4454 24.876 87.4294 24.82C87.4054 24.756 87.3894 24.68 87.3814 24.592C87.3734 24.504 87.3694 24.408 87.3694 24.304C87.3694 24.16 87.3774 24.04 87.3934 23.944C87.4094 23.84 87.4374 23.76 87.4774 23.704C87.5094 23.64 87.5534 23.608 87.6094 23.608V25ZM88.9654 25V16.516H90.5734V25H88.9654ZM87.6094 25V23.608H88.9654V25H87.6094ZM91.8334 25V23.608C91.8814 23.608 91.9214 23.624 91.9534 23.656C91.9854 23.688 92.0094 23.736 92.0254 23.8C92.0414 23.864 92.0534 23.94 92.0614 24.028C92.0694 24.108 92.0734 24.2 92.0734 24.304C92.0734 24.408 92.0694 24.504 92.0614 24.592C92.0534 24.68 92.0414 24.756 92.0254 24.82C92.0094 24.876 91.9854 24.92 91.9534 24.952C91.9214 24.984 91.8814 25 91.8334 25ZM91.8281 25V23.608H100.9L99.5441 24.784V22.264C99.5441 21.808 99.4841 21.444 99.3641 21.172C99.2441 20.892 99.0681 20.688 98.8361 20.56C98.6121 20.432 98.3401 20.368 98.0201 20.368C97.6761 20.368 97.3481 20.436 97.0361 20.572C96.7321 20.708 96.4481 20.884 96.1841 21.1C95.9201 21.316 95.6761 21.548 95.4521 21.796C95.2281 22.044 95.0281 22.284 94.8521 22.516C94.6761 22.74 94.5241 22.932 94.3961 23.092L94.0361 21.928C94.3481 21.552 94.6281 21.208 94.8761 20.896C95.1241 20.584 95.3601 20.308 95.5841 20.068C95.8161 19.828 96.0561 19.628 96.3041 19.468C96.5601 19.308 96.8361 19.188 97.1321 19.108C97.4361 19.02 97.7881 18.976 98.1881 18.976C98.7241 18.976 99.1801 19.068 99.5561 19.252C99.9321 19.428 100.236 19.672 100.468 19.984C100.708 20.296 100.88 20.648 100.984 21.04C101.096 21.432 101.152 21.84 101.152 22.264V25H91.8281ZM93.3401 23.608V18.976H94.9481V23.608H93.3401ZM91.8281 25C91.7801 25 91.7441 24.984 91.7201 24.952C91.6881 24.92 91.6641 24.876 91.6481 24.82C91.6241 24.756 91.6081 24.68 91.6001 24.592C91.5921 24.504 91.5881 24.408 91.5881 24.304C91.5881 24.16 91.5961 24.04 91.6121 23.944C91.6281 23.84 91.6561 23.76 91.6961 23.704C91.7281 23.64 91.7721 23.608 91.8281 23.608V25ZM103.057 25V16.516H104.653V25H103.057ZM103.129 15.556C102.977 15.372 102.861 15.196 102.781 15.028C102.701 14.86 102.661 14.68 102.661 14.488C102.661 14.216 102.733 13.972 102.877 13.756C103.021 13.532 103.209 13.36 103.441 13.24C103.673 13.112 103.929 13.048 104.209 13.048C104.361 13.048 104.517 13.068 104.677 13.108C104.837 13.148 104.973 13.208 105.085 13.288L104.677 14.02C104.605 13.98 104.533 13.956 104.461 13.948C104.397 13.932 104.329 13.924 104.257 13.924C104.065 13.924 103.917 13.976 103.813 14.08C103.709 14.176 103.657 14.308 103.657 14.476C103.657 14.572 103.677 14.664 103.717 14.752C103.757 14.84 103.817 14.936 103.897 15.04L103.129 15.556ZM102.397 15.652V14.776H105.301V15.652H102.397ZM112.78 25C111.924 25 111.2 24.888 110.608 24.664C110.024 24.44 109.58 24.108 109.276 23.668C108.98 23.228 108.832 22.68 108.832 22.024C108.832 21.832 108.844 21.632 108.868 21.424C108.892 21.208 108.92 21.004 108.952 20.812C108.992 20.612 109.028 20.436 109.06 20.284C109.092 20.132 109.116 20.02 109.132 19.948L110.692 20.248C110.668 20.376 110.636 20.54 110.596 20.74C110.556 20.94 110.52 21.152 110.488 21.376C110.456 21.592 110.44 21.8 110.44 22C110.44 22.312 110.488 22.572 110.584 22.78C110.688 22.988 110.84 23.156 111.04 23.284C111.24 23.404 111.492 23.488 111.796 23.536C112.1 23.584 112.456 23.608 112.864 23.608H116.068V18.976H117.676V25H112.78ZM111.4 18.724V17.356H112.948V18.724H111.4ZM113.584 18.724V17.356H115.132V18.724H113.584ZM121.082 25V23.608H122.45V25H121.082ZM119.486 25V16.516H121.082V25H119.486ZM122.45 25V23.608C122.498 23.608 122.534 23.624 122.558 23.656C122.59 23.688 122.614 23.736 122.63 23.8C122.654 23.864 122.67 23.94 122.678 24.028C122.686 24.108 122.69 24.2 122.69 24.304C122.69 24.408 122.686 24.504 122.678 24.592C122.67 24.68 122.654 24.756 122.63 24.82C122.614 24.876 122.59 24.92 122.558 24.952C122.534 24.984 122.498 25 122.45 25ZM128.665 25V23.608H129.937V25H128.665ZM122.449 25C122.401 25 122.365 24.984 122.341 24.952C122.309 24.92 122.285 24.876 122.269 24.82C122.245 24.756 122.229 24.68 122.221 24.592C122.213 24.504 122.209 24.408 122.209 24.304C122.209 24.16 122.217 24.04 122.233 23.944C122.249 23.84 122.277 23.76 122.317 23.704C122.349 23.64 122.393 23.608 122.449 23.608V25ZM122.449 25V23.608H127.609L127.069 24.052V21.832C127.069 21.352 126.917 20.988 126.613 20.74C126.317 20.492 125.845 20.368 125.197 20.368C125.013 20.368 124.761 20.384 124.441 20.416C124.121 20.44 123.773 20.48 123.397 20.536L123.241 19.264C123.585 19.184 123.933 19.116 124.285 19.06C124.645 19.004 124.997 18.976 125.341 18.976C125.997 18.976 126.573 19.092 127.069 19.324C127.565 19.548 127.953 19.872 128.233 20.296C128.521 20.72 128.665 21.232 128.665 21.832V25H122.449ZM129.937 25V23.608C129.977 23.608 130.013 23.624 130.045 23.656C130.077 23.688 130.101 23.736 130.117 23.8C130.133 23.864 130.145 23.94 130.153 24.028C130.169 24.108 130.177 24.2 130.177 24.304C130.177 24.408 130.169 24.504 130.153 24.592C130.145 24.68 130.133 24.756 130.117 24.82C130.101 24.876 130.077 24.92 130.045 24.952C130.013 24.984 129.977 25 129.937 25ZM124.765 27.556V26.188H126.373V27.556H124.765ZM133.442 25V23.608H134.942V25H133.442ZM134.942 25V23.608C134.982 23.608 135.018 23.624 135.05 23.656C135.082 23.688 135.106 23.736 135.122 23.8C135.138 23.864 135.15 23.94 135.158 24.028C135.174 24.108 135.182 24.2 135.182 24.304C135.182 24.408 135.174 24.504 135.158 24.592C135.15 24.68 135.138 24.756 135.122 24.82C135.106 24.876 135.082 24.92 135.05 24.952C135.026 24.984 134.99 25 134.942 25ZM129.938 25C129.889 25 129.853 24.984 129.829 24.952C129.797 24.92 129.773 24.876 129.757 24.82C129.733 24.756 129.717 24.68 129.709 24.592C129.701 24.504 129.697 24.408 129.697 24.304C129.697 24.16 129.705 24.04 129.721 23.944C129.737 23.84 129.765 23.76 129.805 23.704C129.837 23.64 129.881 23.608 129.938 23.608V25ZM129.938 25V23.608H132.782L131.846 24.388V18.976H133.442V25H129.938ZM130.79 17.872V16.504H132.338V17.872H130.79ZM132.974 17.872V16.504H134.522V17.872H132.974ZM137.809 25V23.608H139.069V25H137.809ZM134.941 25C134.893 25 134.857 24.984 134.833 24.952C134.801 24.92 134.777 24.876 134.761 24.82C134.737 24.756 134.721 24.68 134.713 24.592C134.705 24.504 134.701 24.408 134.701 24.304C134.701 24.16 134.709 24.04 134.725 23.944C134.741 23.84 134.769 23.76 134.809 23.704C134.841 23.64 134.885 23.608 134.941 23.608V25ZM134.941 25V23.608H137.137L136.201 24.388V18.976H137.809V25H134.941ZM139.069 25V23.608C139.117 23.608 139.157 23.624 139.189 23.656C139.221 23.688 139.245 23.736 139.261 23.8C139.277 23.864 139.289 23.94 139.297 24.028C139.305 24.108 139.309 24.2 139.309 24.304C139.309 24.408 139.305 24.504 139.297 24.592C139.289 24.68 139.277 24.756 139.261 24.82C139.245 24.876 139.221 24.92 139.189 24.952C139.157 24.984 139.117 25 139.069 25ZM136.201 17.872V16.504H137.809V17.872H136.201ZM139.066 25V23.608H145.294L144.562 24.232V22.024C144.562 21.592 144.514 21.256 144.418 21.016C144.322 20.768 144.154 20.596 143.914 20.5C143.682 20.396 143.358 20.344 142.942 20.344C142.614 20.344 142.29 20.368 141.97 20.416C141.658 20.456 141.414 20.512 141.238 20.584L142.234 19.648C142.186 19.832 142.138 20.064 142.09 20.344C142.05 20.624 142.014 20.924 141.982 21.244C141.95 21.556 141.934 21.864 141.934 22.168C141.934 22.448 141.946 22.74 141.97 23.044C142.002 23.348 142.034 23.616 142.066 23.848C142.106 24.08 142.138 24.24 142.162 24.328L140.638 24.748C140.606 24.636 140.566 24.452 140.518 24.196C140.47 23.94 140.426 23.636 140.386 23.284C140.354 22.932 140.338 22.56 140.338 22.168C140.338 21.768 140.358 21.384 140.398 21.016C140.438 20.64 140.482 20.304 140.53 20.008C140.586 19.704 140.638 19.46 140.686 19.276C140.878 19.204 141.178 19.132 141.586 19.06C141.994 18.988 142.446 18.952 142.942 18.952C143.662 18.952 144.258 19.052 144.73 19.252C145.21 19.452 145.566 19.776 145.798 20.224C146.038 20.672 146.158 21.276 146.158 22.036V25H139.066ZM139.066 25C139.018 25 138.982 24.984 138.958 24.952C138.926 24.92 138.902 24.876 138.886 24.82C138.862 24.756 138.846 24.68 138.838 24.592C138.83 24.504 138.826 24.408 138.826 24.304C138.826 24.16 138.834 24.04 138.85 23.944C138.866 23.84 138.894 23.76 138.934 23.704C138.966 23.64 139.01 23.608 139.066 23.608V25Z" fill="#6543F5"/>
</svg>
