<svg width="20" height="20" viewBox="0 0 20 20" fill="none" xmlns="http://www.w3.org/2000/svg">
<path d="M10 20C15.5228 20 20 15.5228 20 10C20 4.47715 15.5228 0 10 0C4.47715 0 0 4.47715 0 10C0 15.5228 4.47715 20 10 20Z" fill="#D58A00"/>
<path d="M9.99 1.69C9.44 1.69 8.89 1.72 8.35 1.83C6.73 2.15 5.25 2.94 4.09 4.1L2.93 2.94C3.39 2.48 3.87 2.05 4.42 1.69C6.07 0.59 8 0 9.98 0C9.98 0 9.98 0 9.99 0V1.69ZM15.86 15.91C14.3 17.47 12.19 18.34 9.99 18.35V20C11.29 20 12.59 19.76 13.81 19.26C15.03 18.75 16.12 17.99 17.05 17.07L15.88 15.9C15.88 15.9 15.88 15.9 15.87 15.91H15.86ZM17.07 2.93L15.86 4.14C16.24 4.52 16.6 4.92 16.9 5.38C17.82 6.75 18.3 8.36 18.3 10.01H19.99H20C20 7.36 18.94 4.81 17.07 2.93ZM1.65 10.01H0C0 10.66 0.04 11.31 0.16 11.96C0.54 13.9 1.5 15.68 2.9 17.09L4.09 15.9C3.31 15.13 2.68 14.22 2.26 13.2C1.84 12.18 1.64 11.1 1.65 10.01Z" fill="#FFC72C"/>
<path d="M10.0004 18.3499C14.612 18.3499 18.3504 14.6115 18.3504 9.9999C18.3504 5.38833 14.612 1.6499 10.0004 1.6499C5.38881 1.6499 1.65039 5.38833 1.65039 9.9999C1.65039 14.6115 5.38881 18.3499 10.0004 18.3499Z" fill="#FFFF20"/>
<path d="M11.3079 14.5425L14.9875 13.6186C14.9499 14.1261 14.8373 14.6206 14.6496 15.0761L10.97 16C11.0075 15.4925 11.1202 15.011 11.2954 14.5425H11.3079ZM14.6496 9.46747C14.8248 9.01201 14.9499 8.51752 15 7.98398L12.0588 8.71271V3.67668C11.6333 3.96296 11.2328 4.34034 10.8824 4.82182V8.999L9.70588 9.28529V3C9.23029 3.2993 8.8423 3.68969 8.52941 4.14514V9.58458L5.90113 10.2352C5.72591 10.6907 5.60075 11.1852 5.55069 11.7187L8.52941 10.99V12.7467L5.33792 13.5405C5.15019 14.035 5.03755 14.5295 5 15.024L8.34168 14.2042C8.61702 14.1391 8.8423 13.983 8.99249 13.6967L9.60576 12.6426C9.68085 12.5255 9.7184 12.3954 9.7184 12.2653V10.7167L10.8949 10.4304V13.2282L14.6746 12.2913H14.6496C14.8248 11.8358 14.9499 11.3413 15 10.8078L12.0588 11.5365V10.1311L14.6621 9.49349L14.6496 9.46747Z" fill="#FFA500"/>
</svg>
