<svg width="40" height="22" viewBox="0 0 40 22" fill="none" xmlns="http://www.w3.org/2000/svg">
<rect width="40" height="22" rx="10" fill="#EBEBEB"/>
<path d="M12.1553 12.276C12.2333 12.4761 12.2723 12.6916 12.2723 12.9123C12.2723 13.1483 12.2333 13.3792 12.1504 13.5947C12.0675 13.8102 11.9408 14.0052 11.7799 14.1694C11.2876 14.6261 10.649 14.8673 9.99099 14.8416V14.8262C9.63515 14.8416 9.28419 14.7852 8.95272 14.6569C8.62125 14.5286 8.31903 14.3336 8.06068 14.077C7.78284 13.8 7.60736 13.4254 7.56836 13.02L8.87473 12.7224C8.88448 12.9277 8.96247 13.1278 9.10383 13.2714C9.22082 13.3895 9.3573 13.4818 9.51329 13.5434C9.6644 13.605 9.82526 13.6306 9.99099 13.6204C10.5174 13.6204 10.8343 13.4049 10.8343 13.0303C10.8343 12.7327 10.6393 12.5633 10.2055 12.4556L9.33781 12.2401C8.88935 12.1477 8.47502 11.9271 8.13868 11.5987C8.00219 11.455 7.89495 11.2805 7.82671 11.0907C7.75359 10.9008 7.72434 10.7007 7.72922 10.4955C7.72922 10.2543 7.77309 10.0131 7.8657 9.78735C7.95832 9.56157 8.09481 9.36659 8.26541 9.19726C8.73337 8.7765 9.33293 8.55586 9.95199 8.57638C10.6149 8.55586 11.2535 8.81242 11.7409 9.27936C12.0042 9.54105 12.1748 9.8951 12.2138 10.2748L10.9415 10.5724C10.922 10.3877 10.844 10.2184 10.727 10.0798C10.5174 9.87458 10.2347 9.76682 9.94712 9.78222C9.43042 9.78222 9.1087 10.0234 9.1087 10.3723C9.1087 10.634 9.32318 10.8239 9.67902 10.9008L10.5613 11.0804C11.0341 11.1574 11.4728 11.3832 11.8189 11.7218C11.9652 11.8758 12.0822 12.0605 12.1601 12.2606L12.1553 12.276ZM14.7144 10.3005H16.2304V8.77137H14.7144V10.3005ZM13.2082 13.02C13.1887 13.5023 13.3495 13.9693 13.6566 14.3285C13.8419 14.5081 14.0563 14.6415 14.2952 14.7338C14.5292 14.8211 14.7778 14.8621 15.0264 14.8467C15.4553 14.8621 15.8745 14.7338 16.2255 14.4721V13.1945C16.0013 13.3535 15.7332 13.4408 15.4602 13.4356C15.3578 13.4562 15.2506 13.451 15.1531 13.4151C15.0556 13.3843 14.963 13.3228 14.8899 13.2458C14.8168 13.1688 14.7631 13.0713 14.7339 12.9687C14.7046 12.8661 14.6998 12.7532 14.7193 12.6454V10.3056H13.213V13.0251L13.2082 13.02ZM13.2082 7.1499V8.77137H14.7144V7.1499H13.2082ZM20.5784 12.9944C20.3249 13.2407 19.9886 13.3792 19.6425 13.3689C19.4524 13.3689 19.2672 13.333 19.0917 13.2612C18.9162 13.1893 18.7554 13.0765 18.6237 12.9379C18.341 12.5993 18.1948 12.1631 18.2143 11.7167C18.1948 11.2651 18.3459 10.8187 18.6384 10.4801C18.9065 10.2081 19.2721 10.0542 19.6474 10.0593C19.8131 10.0542 19.9789 10.085 20.1348 10.1465C20.2908 10.2132 20.4322 10.3056 20.5492 10.4339C20.7149 10.6135 20.8416 10.829 20.905 11.0702L22.2699 10.5929C22.1578 10.1465 21.9335 9.74117 21.6313 9.40764C21.3632 9.14081 21.0512 8.93557 20.7052 8.79702C20.3591 8.65848 19.9935 8.59691 19.623 8.60717C19.2379 8.60717 18.8577 8.679 18.5068 8.82781C18.1509 8.97662 17.8292 9.19726 17.5562 9.47947C17.0103 10.0901 16.7129 10.8957 16.7129 11.7269C16.7129 12.5633 17.0249 13.3638 17.5757 13.9693C18.1314 14.5337 18.8723 14.8467 19.6474 14.8467V14.8313C20.0032 14.8416 20.3591 14.78 20.6905 14.6415C21.0269 14.5081 21.3291 14.3028 21.5874 14.0463C21.9189 13.7179 22.1578 13.2971 22.2796 12.8353L20.9391 12.3683C20.8758 12.6044 20.7539 12.825 20.5833 12.9944H20.5784ZM26.5448 10.2235C26.5448 11.1266 26.0232 11.7783 25.2579 11.7783C25.0971 11.7834 24.9314 11.7526 24.7851 11.6808C24.6389 11.6089 24.5073 11.5012 24.4049 11.3678V12.8456L23.7517 12.8302V8.77137H24.4049V9.09463C24.5073 8.96122 24.6389 8.8586 24.7851 8.78676C24.9314 8.71492 25.0971 8.68414 25.2579 8.68927C26.0086 8.68927 26.5448 9.32041 26.5448 10.2235ZM25.8673 10.244C25.8673 9.68985 25.5797 9.35633 25.1458 9.35633C24.985 9.35633 24.829 9.40251 24.6974 9.49487C24.5658 9.58723 24.4634 9.72064 24.4049 9.87458V10.6186C24.4683 10.7725 24.5706 10.906 24.7023 10.9983C24.8339 11.0907 24.9899 11.142 25.1507 11.142C25.5845 11.142 25.8721 10.7982 25.8721 10.244H25.8673ZM29.6353 9.47434V11.5371H28.9675V11.1779C28.8553 11.3216 28.7091 11.4345 28.5385 11.5114C28.3679 11.5884 28.1875 11.6192 28.0023 11.6089C27.8756 11.6243 27.7439 11.6089 27.6221 11.5679C27.5002 11.5268 27.3881 11.4653 27.2906 11.3832C27.1931 11.3011 27.12 11.1933 27.0664 11.0804C27.0128 10.9675 26.9884 10.8444 26.9884 10.7161C26.9787 10.4955 27.0615 10.2851 27.2078 10.1209C27.3589 9.95668 27.5733 9.85918 27.7976 9.84379L28.9675 9.70012V9.55644C28.9723 9.52052 28.9675 9.48461 28.9577 9.45382C28.948 9.42303 28.9285 9.39224 28.9041 9.36659C28.8797 9.34093 28.8505 9.32041 28.8163 9.31014C28.7822 9.29988 28.7481 9.29475 28.714 9.29988H27.237V8.68927H28.714C29.3038 8.68927 29.6353 8.97148 29.6353 9.47434ZM28.9675 10.2389L28.0754 10.362C27.8268 10.3928 27.705 10.5211 27.705 10.7212C27.705 10.9213 27.8804 11.0804 28.1875 11.0804H28.1729C28.3386 11.0804 28.4995 11.0342 28.6409 10.947C28.7822 10.8649 28.8943 10.7418 28.9675 10.5929V10.2338V10.2389ZM26.9884 10.7264C26.9884 10.7264 26.9884 10.7264 26.9884 10.7212V10.7315V10.7264ZM31.8142 8.68927L31.2682 10.7674L30.6979 8.68927H30.074L30.9952 11.6808L30.9173 11.9425C30.9075 12.0194 30.8685 12.0913 30.8149 12.1426C30.7613 12.1888 30.693 12.2144 30.6248 12.2042H30.191V12.8507H30.6589C31.1025 12.8507 31.2828 12.5993 31.4242 12.1272L32.4332 8.6944H31.819L31.8142 8.68927Z" fill="#374957"/>
</svg>
