<svg width="40" height="22" viewBox="0 0 40 22" fill="none" xmlns="http://www.w3.org/2000/svg">
<rect width="40" height="21.6216" rx="10" fill="#EBEBEB"/>
<path d="M33.5057 8.21505L31.7295 15.1355H30.3439V15.1205L30.764 13.512H29.4963L28.1401 8.21505H29.6216L30.8008 13.3848L32.1275 8.21505H33.5131H33.5057ZM7.4516 8.40957C8.29182 8.24498 8.76352 7.57164 8.76352 6.8983V6.48682H7.37789V8.41705L7.31156 8.4395L6.48608 8.56668V9.56921L7.29682 9.44202V9.90588L6.48608 10.0331V10.9907L7.29682 10.8635V12.0157C7.34104 13.0182 7.997 13.6167 9.05833 13.6167C9.43422 13.6167 9.85433 13.5269 10.1713 13.3848V12.1279H10.1565C9.97225 12.2326 9.72166 12.2925 9.48581 12.2925C8.98463 12.2925 8.70456 12.2102 8.67507 11.7987V11.7688C8.67507 11.7688 8.67507 11.7314 8.67507 11.7164V10.6391L10.3776 10.3697V9.41209L8.68244 9.68143V9.54676V9.21758L10.385 8.94824V7.94571L7.78326 8.3572L7.4516 8.40209V8.40957ZM14.7482 8.4395L16.1339 8.22253V13.5195H14.7482V11.8361C14.6966 12.9583 14.0112 13.6242 12.8909 13.6242C12.2497 13.6242 11.719 13.3698 11.3579 12.891C10.9967 12.4197 10.8125 11.7164 10.8125 10.8635C10.8125 10.0106 11.0041 9.31483 11.3579 8.83602C11.719 8.3572 12.2497 8.10283 12.8909 8.10283C14.0038 8.10283 14.6893 8.76868 14.7482 9.88343V8.43201V8.4395ZM14.8219 10.871C14.8219 10.3847 14.704 9.98069 14.4829 9.68143C14.2544 9.38217 13.9228 9.22506 13.5248 9.22506C12.714 9.22506 12.2276 9.83854 12.2276 10.8635C12.2276 11.8885 12.714 12.4945 13.5248 12.4945C14.3355 12.4945 14.8219 11.8586 14.8219 10.8635V10.871ZM22.2733 10.871C22.2733 12.5992 21.4921 13.6317 20.1875 13.6317C19.0746 13.6317 18.3818 12.9658 18.3302 11.8436V13.5269H16.9446V6.90578L18.3302 6.68882V9.89839C18.3818 8.77616 19.0672 8.11779 20.1875 8.11779C21.4921 8.11779 22.2733 9.15024 22.2733 10.8785V10.871ZM20.8509 10.871C20.8509 9.84602 20.3644 9.23254 19.5537 9.23254C19.1557 9.23254 18.824 9.38965 18.5955 9.68891C18.3744 9.98069 18.2565 10.3922 18.2565 10.871C18.2565 11.866 18.7651 12.502 19.5537 12.502C20.3423 12.502 20.8509 11.896 20.8509 10.871ZM28.1328 10.871C28.1328 12.5992 27.3515 13.6317 26.047 13.6317C24.934 13.6317 24.2412 12.9658 24.1896 11.8436V13.5269H22.804V6.90578L24.1896 6.68882V9.89839C24.2412 8.77616 24.9267 8.11779 26.047 8.11779C27.3515 8.11779 28.1328 9.15024 28.1328 10.8785V10.871ZM26.7177 10.871C26.7177 9.84602 26.2312 9.23254 25.4205 9.23254C25.0225 9.23254 24.6908 9.38965 24.4623 9.68891C24.2412 9.98069 24.1233 10.3922 24.1233 10.871C24.1233 11.866 24.6319 12.502 25.4205 12.502C26.2091 12.502 26.7177 11.896 26.7177 10.871Z" fill="#374957"/>
</svg>
