<svg width="56" height="25" viewBox="0 0 56 25" fill="none" xmlns="http://www.w3.org/2000/svg">
<rect x="0.75" width="55" height="25" rx="10" fill="url(#paint0_linear_8243_14928)"/>
<path d="M43.5652 18L43.5748 17.9811L44.186 15.9383H42.3108L40.3012 9.2H42.49L44.234 15.7749L46.1988 9.2H48.25L45.6132 18H43.5652ZM34.458 13.8043V15.9477H32.41V7.52957L34.458 7.253V11.3387C34.4688 11.0057 34.5509 10.6787 34.699 10.379C34.8471 10.0793 35.0578 9.81355 35.3175 9.59917C35.5771 9.38478 35.8799 9.22654 36.206 9.13474C36.532 9.04295 36.8741 9.01968 37.21 9.06643C39.146 9.06643 40.3012 10.3786 40.3012 12.5739C40.3012 14.7691 39.1412 16.0813 37.21 16.0813C36.8739 16.1271 36.5318 16.1029 36.2058 16.0105C35.8798 15.918 35.5773 15.7593 35.3178 15.5446C35.0583 15.3299 34.8477 15.064 34.6996 14.7642C34.5514 14.4644 34.4691 14.1373 34.458 13.8043ZM34.8612 11.0669C34.5111 11.4919 34.3308 12.0277 34.354 12.5739C34.3231 12.8375 34.3501 13.1046 34.433 13.3573C34.5159 13.6099 34.6529 13.8421 34.8347 14.0384C35.0166 14.2348 35.2391 14.3906 35.4874 14.4955C35.7356 14.6004 36.0038 14.6519 36.274 14.6466C36.5457 14.6583 36.8167 14.6112 37.0678 14.5086C37.319 14.4061 37.5441 14.2506 37.7272 14.0532C37.9104 13.8557 38.0472 13.6212 38.1278 13.3661C38.2085 13.111 38.2311 12.8416 38.194 12.577C38.2324 12.3113 38.211 12.0406 38.131 11.784C38.0511 11.5273 37.9147 11.2911 37.7316 11.092C37.5484 10.8929 37.3229 10.7358 37.071 10.6318C36.8191 10.5278 36.547 10.4794 36.274 10.4901C36.0098 10.4797 35.7464 10.5259 35.5021 10.6255C35.2579 10.7251 35.0402 10.8757 34.8612 11.0669ZM25.7764 13.8043V15.9477H23.7204V7.52957L25.7764 7.253V11.3387C25.7871 11.0063 25.8689 10.6797 26.0165 10.3804C26.1641 10.081 26.3743 9.81554 26.6332 9.6012C26.8922 9.38687 27.1942 9.22848 27.5197 9.13634C27.8451 9.04421 28.1866 9.02039 28.522 9.06643C30.4596 9.06643 31.6148 10.3786 31.6148 12.5739C31.6148 14.7691 30.4596 16.0813 28.522 16.0813C28.1864 16.1261 27.845 16.1013 27.5198 16.0084C27.1946 15.9155 26.8928 15.7566 26.6341 15.542C26.3753 15.3274 26.1652 15.0618 26.0175 14.7625C25.8698 14.4632 25.7876 14.1367 25.7764 13.8043ZM26.17 11.0669C25.8205 11.4921 25.6407 12.0279 25.6644 12.5739C25.6333 12.8376 25.66 13.1048 25.7428 13.3575C25.8256 13.6102 25.9626 13.8426 26.1445 14.039C26.3264 14.2354 26.5491 14.3912 26.7974 14.496C27.0458 14.6008 27.3141 14.6522 27.5844 14.6466C27.8561 14.6583 28.1271 14.6112 28.3782 14.5086C28.6294 14.4061 28.8545 14.2506 29.0376 14.0532C29.2208 13.8557 29.3576 13.6212 29.4382 13.3661C29.5189 13.111 29.5415 12.8416 29.5044 12.577C29.5428 12.3113 29.5214 12.0406 29.4414 11.784C29.3615 11.5273 29.2251 11.2911 29.042 11.092C28.8588 10.8929 28.6333 10.7358 28.3814 10.6318C28.1295 10.5278 27.8574 10.4794 27.5844 10.4901C27.3202 10.4798 27.0568 10.5261 26.8126 10.6256C26.5684 10.7252 26.3491 10.8758 26.17 11.0669ZM9.45 14.04V12.5786L8.25 12.7404V11.5194L9.4516 11.3623V10.762L8.25 10.9286V9.64786L9.4692 9.49071L9.5684 9.46557V7H11.6228V7.52486C11.5834 8.01996 11.3659 8.48512 11.0091 8.83699C10.6523 9.18886 10.1795 9.40446 9.6756 9.44514L10.17 9.387L14.01 8.86843V10.1429L11.4948 10.4823V10.9003V11.0857L14.01 10.74V11.961L11.4948 12.3004V13.6691C11.4948 13.6911 11.4948 13.7131 11.4948 13.7336V13.7681C11.538 14.2883 11.9556 14.3967 12.6932 14.3967C13.0362 14.3993 13.3758 14.3308 13.69 14.1956L13.7156 14.183V15.778H13.706C13.1798 15.9731 12.6221 16.0737 12.0596 16.075C10.482 16.0813 9.5172 15.3191 9.45 14.04ZM15.466 15.1494C14.8901 14.4139 14.6007 13.5005 14.65 12.5739C14.6008 11.6463 14.8902 10.7319 15.466 9.99514C15.7508 9.68574 16.1018 9.44203 16.4937 9.28147C16.8857 9.12091 17.309 9.04748 17.7332 9.06643C18.0679 9.02097 18.4086 9.04489 18.7333 9.13663C19.0581 9.22837 19.3596 9.38591 19.6186 9.59909C19.8776 9.81227 20.0882 10.0764 20.2369 10.3744C20.3856 10.6724 20.4691 10.9977 20.482 11.3293V9.48757L22.5348 9.21257V15.9477H20.4804V13.8043C20.469 14.1368 20.3866 14.4632 20.2387 14.7624C20.0908 15.0617 19.8806 15.3271 19.6216 15.5416C19.3627 15.756 19.0608 15.9147 18.7356 16.0074C18.4103 16.1001 18.0688 16.1248 17.7332 16.0797C17.309 16.0987 16.8857 16.0252 16.4937 15.8647C16.1018 15.7041 15.7508 15.4588 15.466 15.1494ZM16.746 12.5723C16.7087 12.8371 16.7311 13.1067 16.8117 13.3621C16.8922 13.6174 17.0289 13.8523 17.212 14.05C17.3952 14.2477 17.6204 14.4035 17.8716 14.5064C18.1229 14.6092 18.3941 14.6565 18.666 14.645C18.9361 14.6501 19.2042 14.5984 19.4523 14.4934C19.7004 14.3884 19.9228 14.2326 20.1046 14.0363C20.2864 13.8401 20.4234 13.6079 20.5065 13.3554C20.5895 13.1029 20.6166 12.8359 20.586 12.5723C20.6082 12.0248 20.428 11.4879 20.0788 11.0606C19.8997 10.869 19.6802 10.7182 19.4357 10.6186C19.1911 10.519 18.9273 10.473 18.6628 10.4839C18.3898 10.4738 18.1178 10.5228 17.8661 10.6273C17.6145 10.7318 17.3892 10.8892 17.2063 11.0885C17.0233 11.2878 16.8871 11.5242 16.8073 11.7808C16.7275 12.0374 16.706 12.3082 16.7444 12.5739L16.746 12.5723Z" fill="black"/>
<defs>
<linearGradient id="paint0_linear_8243_14928" x1="31.5833" y1="14.4231" x2="1.95938" y2="21.025" gradientUnits="userSpaceOnUse">
<stop offset="0.010489" stop-color="#3BFFC3"/>
<stop offset="1" stop-color="#3AFF9E"/>
</linearGradient>
</defs>
</svg>
