<svg width="40" height="22" viewBox="0 0 40 22" fill="none" xmlns="http://www.w3.org/2000/svg">
<rect width="40" height="21.6216" rx="10" fill="#EBEBEB"/>
<path d="M13.4067 9.37741C12.9217 9.19033 12.4564 9.10347 11.8666 9.23042C11.4078 9.33064 11.0343 9.51773 10.7918 9.99212C10.8967 10.079 10.995 10.1658 11.0867 10.2527C11.244 10.393 11.4013 10.5333 11.6175 10.6937C11.7879 10.4465 12.0829 10.1658 12.404 10.1592C12.771 10.1525 13.1249 10.3596 13.1839 10.667C13.2101 10.7939 13.2232 11.3151 13.2232 11.3151L13.0331 11.3552C12.9938 11.3685 12.9545 11.3685 12.9152 11.3552L12.8824 11.3418H12.8562C12.4564 11.1748 12.037 11.0879 11.611 11.0812C11.4668 11.0812 11.3226 11.0946 11.185 11.1146C10.7525 11.1814 10.2347 11.4353 10.2413 12.2371C10.2413 12.5445 10.3068 12.7717 10.4379 12.9587C10.5559 13.1258 10.7066 13.2661 10.8901 13.3596C11.067 13.4532 11.2702 13.5 11.4734 13.5C11.9649 13.5133 12.4499 13.3463 12.8234 13.0189C12.83 13.0189 12.9217 12.932 12.9479 12.912L13.2166 12.6982V13.4933H14.3242V10.7137C14.3242 10.0857 13.99 9.5979 13.4132 9.37073L13.4067 9.37741ZM13.0659 11.9899C12.83 12.4242 12.4433 12.6714 11.9977 12.6714H11.9387C11.8469 12.6714 11.7486 12.6581 11.6634 12.638C11.3292 12.5512 11.1391 12.2705 11.1522 11.9031V11.7427H13.2035L13.0659 11.9899ZM25.0065 9.37741C24.5216 9.19033 24.0563 9.10347 23.4664 9.23042C23.0077 9.33064 22.6341 9.51773 22.3917 9.99212C22.4965 10.079 22.5948 10.1658 22.6866 10.2527C22.8439 10.393 23.0011 10.5333 23.2174 10.6937C23.3878 10.4465 23.6827 10.1658 24.0038 10.1592C24.3708 10.1525 24.7247 10.3596 24.7837 10.667C24.8099 10.7939 24.823 11.3151 24.823 11.3151L24.633 11.3552C24.5937 11.3685 24.5543 11.3685 24.515 11.3552C24.5085 11.3552 24.4954 11.3485 24.4823 11.3418H24.456C24.0563 11.1748 23.6368 11.0879 23.2109 11.0812C23.0667 11.0812 22.9225 11.0946 22.7849 11.1146C22.3523 11.1814 21.8346 11.4353 21.8412 12.2371C21.8412 12.5445 21.9067 12.7717 22.0378 12.9587C22.1557 13.1258 22.3065 13.2661 22.49 13.3596C22.6669 13.4532 22.8701 13.5 23.0732 13.5C23.5648 13.5133 24.0497 13.3463 24.4233 13.0189C24.4298 13.0189 24.5216 12.932 24.5478 12.912L24.8165 12.6982V13.4933H25.924V10.7137C25.924 10.0857 25.5898 9.5979 25.0131 9.37073L25.0065 9.37741ZM24.6658 11.9899C24.4298 12.4242 24.0432 12.6714 23.5975 12.6714H23.5385C23.4468 12.6714 23.355 12.6581 23.2633 12.638C22.9291 12.5512 22.739 12.2705 22.7521 11.9031V11.7427H24.8034L24.6658 11.9899ZM32.5956 9.37741C32.1106 9.19033 31.6453 9.10347 31.0555 9.23042C30.5968 9.33064 30.2232 9.51773 29.9807 9.99212C30.0856 10.079 30.1839 10.1658 30.2756 10.2527C30.4329 10.393 30.5902 10.5333 30.8065 10.6937C30.9769 10.4465 31.2718 10.1658 31.5929 10.1592C31.9599 10.1525 32.3138 10.3596 32.3728 10.667C32.399 10.7939 32.4121 11.3151 32.4121 11.3151L32.2221 11.3552C32.1827 11.3685 32.1434 11.3685 32.1041 11.3552C32.0975 11.3552 32.0844 11.3485 32.0713 11.3418H32.0451C31.6453 11.1748 31.2259 11.0879 30.7999 11.0812C30.6557 11.0812 30.5116 11.0946 30.3739 11.1146C29.9414 11.1814 29.4237 11.4353 29.4302 12.2371C29.4302 12.5445 29.4958 12.7717 29.6268 12.9587C29.7448 13.1258 29.8955 13.2661 30.079 13.3596C30.256 13.4532 30.4591 13.5 30.6623 13.5C31.1538 13.5133 31.6388 13.3463 32.0123 13.0189C32.0189 13.0189 32.1106 12.932 32.1369 12.912L32.4056 12.6982V13.4933H33.5131V10.7137C33.5131 10.0857 33.1789 9.5979 32.6022 9.37073L32.5956 9.37741ZM32.2548 11.9899C32.0189 12.4242 31.6322 12.6714 31.1866 12.6714H31.1276C31.0359 12.6714 30.9375 12.6581 30.8524 12.638C30.5181 12.5512 30.3281 12.2705 30.3412 11.9031V11.7427H32.3859L32.2483 11.9899H32.2548ZM28.9649 9.52441C29.0436 9.52441 29.1288 9.52441 29.2205 9.52441V10.6068C29.1812 10.6068 28.8011 10.6068 28.6503 10.6336C28.421 10.6603 28.2113 10.7739 28.0474 10.9409C27.8901 11.1146 27.7918 11.3351 27.7787 11.5757C27.7722 11.7093 27.7787 11.8429 27.7787 11.9766V13.5133H26.7039V9.58454H27.7787V10.2393L28.0474 10.2995C28.0474 10.2995 28.1654 10.0589 28.185 10.0255C28.3554 9.71149 28.611 9.54445 28.9715 9.53109L28.9649 9.52441ZM8.52425 10.0857V11.8362C8.52425 11.9431 8.54391 12.0434 8.58323 12.1436C8.66188 12.3774 8.83882 12.5178 9.12063 12.5712C9.21238 12.5846 9.31068 12.5913 9.40243 12.5913H9.48108H9.52695V13.5066H9.42865C9.02888 13.5066 8.64877 13.5133 8.27522 13.4198C7.92787 13.3329 7.69195 13.1726 7.52811 12.9187C7.39048 12.6982 7.31839 12.4443 7.31839 12.1837C7.31184 11.7561 7.31184 10.0923 7.31184 10.0923H6.48608V9.28387H7.31184V8.10791H8.53081V9.28387L9.55972 9.12351L9.7891 9.9253C9.42865 10.0255 9.05509 10.0523 8.69465 10.0723H8.53081L8.52425 10.0857ZM21.2055 10.4665C21.2251 10.5935 21.2382 10.7204 21.2382 10.8474V13.5H20.1634V11.3485C20.1634 11.275 20.1634 11.2015 20.1503 11.1347C20.0717 10.7271 19.7768 10.5066 19.3508 10.5534C18.9969 10.5868 18.7348 10.9008 18.7348 11.295V13.5066H17.6075V11.3351C17.6141 11.1547 17.5682 10.9743 17.4699 10.8273C17.3061 10.5935 16.9849 10.4932 16.6769 10.5734C16.5459 10.6068 16.4279 10.6803 16.3427 10.7872C16.2575 10.8941 16.1985 11.0211 16.1854 11.1614C16.1789 11.2349 16.1723 11.3084 16.1723 11.3819V13.5133H15.0516V9.58454H16.1723V10.4665L16.3361 10.1792C16.6966 9.53109 17.3978 9.4175 17.8631 9.55113C18.2957 9.67808 18.5644 10.0322 18.6627 10.5133L18.8265 10.1725C19.187 9.52441 19.9668 9.42418 20.4321 9.55781C20.8581 9.68477 21.1137 9.97875 21.2055 10.4665Z" fill="#374957"/>
</svg>
