<svg width="40" height="22" viewBox="0 0 40 22" fill="none" xmlns="http://www.w3.org/2000/svg">
<rect width="40" height="22" rx="10" fill="#EBEBEB"/>
<path d="M17.3831 6.74561L16.0098 15.2715H18.2002L19.5678 6.74561H17.3831Z" fill="#374957"/>
<path d="M23.982 10.1691C23.2171 9.77836 22.7477 9.51594 22.7477 9.11938C22.7593 8.75782 23.1418 8.38459 24.011 8.38459C24.7237 8.3671 25.2453 8.53621 25.6393 8.71116L25.8364 8.80447L26.1319 6.96166C25.6973 6.78671 25.0135 6.6001 24.1674 6.6001C22.006 6.6001 20.4819 7.7606 20.4761 9.4168C20.4587 10.6414 21.5656 11.3179 22.3942 11.7261C23.2403 12.146 23.53 12.4143 23.53 12.7875C23.5242 13.359 22.8462 13.6214 22.2146 13.6214C21.3396 13.6214 20.8702 13.4873 20.1574 13.1666L19.8677 13.0324L19.5605 14.9452C20.0763 15.1785 21.0208 15.3884 22.0002 15.4001C24.2949 15.4001 25.7958 14.2571 25.8132 12.4901C25.8248 11.522 25.2395 10.7756 23.9762 10.1691H23.982Z" fill="#374957"/>
<path d="M31.7468 6.74561H30.0547C29.5332 6.74561 29.1333 6.89723 28.9131 7.45124L25.6622 15.2657H27.957C27.957 15.2657 28.3336 14.216 28.4148 13.9885H31.2253C31.289 14.286 31.486 15.2657 31.486 15.2657H33.5142L31.7468 6.74561ZM29.0464 12.2507C29.2261 11.7608 29.9214 9.86555 29.9214 9.86555C29.9098 9.88305 30.1011 9.36986 30.2112 9.04912L30.3618 9.78391C30.3618 9.78391 30.7791 11.825 30.866 12.2507H29.0464Z" fill="#374957"/>
<path d="M14.1822 6.74561L12.0381 12.554L11.8063 11.376C11.2964 9.97635 10.2707 8.74004 8.79883 7.87112L10.7459 15.254H13.0638L16.4944 6.74561H14.1764H14.1822Z" fill="#374957"/>
<path d="M11.8021 11.3818L11.0372 7.4629C10.9097 6.92056 10.5215 6.7631 10.0463 6.74561H6.52305L6.48828 6.92056C7.35171 7.14216 8.11663 7.47457 8.79462 7.87695C10.2665 8.74587 11.2922 9.98219 11.8021 11.3818Z" fill="#374957"/>
</svg>
