<svg width="26" height="20" viewBox="0 0 26 20" fill="none" xmlns="http://www.w3.org/2000/svg">
<mask id="mask0_6283_7672" style="mask-type:alpha" maskUnits="userSpaceOnUse" x="0" y="0" width="26" height="20">
<rect width="26" height="20" rx="3.1" fill="#D9D9D9"/>
</mask>
<g mask="url(#mask0_6283_7672)">
<path d="M10.4002 0H3.03027L10.4002 5.66667V0Z" fill="#012169"/>
<path d="M0 13.3333V17.6765L5.62997 13.3333H0Z" fill="#012169"/>
<path d="M15.5996 20H22.9696L15.5996 14.3333V20Z" fill="#012169"/>
<path d="M3.03027 20H10.4002V14.3333L3.03027 20Z" fill="#012169"/>
<path d="M22.9696 0H15.5996V5.66667L22.9696 0Z" fill="#012169"/>
<path d="M26.0001 6.66666V2.33333L20.3701 6.66666H26.0001Z" fill="#012169"/>
<path d="M26.0001 17.6765V13.3333H20.3701L26.0001 17.6765Z" fill="#012169"/>
<path d="M0 2.33333V6.66666H5.62997L0 2.33333Z" fill="#012169"/>
<path d="M17.3296 13.3333H15.5996V13.5588L23.9796 20H25.9996V18.451L19.3496 13.3333H17.3296Z" fill="#C8102E"/>
<path d="M10.4 13.3333H8.66996H6.64997L0 18.451V20H2.01999L10.4 13.5588V13.3333Z" fill="#C8102E"/>
<path d="M8.66996 6.66667H10.4V6.45098L2.01999 0H0V1.55882L6.64997 6.66667H8.66996Z" fill="#C8102E"/>
<path d="M15.5996 6.66667H17.3296L25.9996 0H23.9796L15.5996 6.45098V6.66667Z" fill="#C8102E"/>
<path d="M15.5999 8H14.5599V7.2451V6.47059V0H12.9999H11.4399V6.47059V7.2451V8H10.4H8.37996H7.36997H0V10V12H7.36997H8.37996H10.4H11.4399V12.7549V13.5392V20H12.9999H14.5599V13.5392V12.7549V12H15.5999H17.6199H18.6299H25.9999V10V8H18.6299H15.5999Z" fill="#C8102E"/>
<path d="M8.37996 8H10.4H11.4399V7.2451V6.47059V0H10.4V5.66667L3.02999 0H2.01999L10.4 6.45098V6.66667H8.66996H6.64997L0 1.55882V2.33333L5.62997 6.66667H0V8H7.36997H8.37996Z" fill="white"/>
<path d="M17.6196 12H15.5996H14.5596V12.7549V13.5392V20H15.5996V14.3333L22.9695 20H23.9795L15.5996 13.5588V13.3333H17.3296H19.3495L25.9995 18.451V17.6765L20.3695 13.3333H25.9995V12H18.6296H17.6196Z" fill="white"/>
<path d="M11.4399 12.7549V12H10.4H8.37996H7.36997H0V13.3333H5.62997L0 17.6765V18.451L6.64997 13.3333H8.66996H10.4V13.5588L2.01999 20H3.02999L10.4 14.3333V20H11.4399V13.5392V12.7549Z" fill="white"/>
<path d="M17.3296 6.66667H15.5996V6.45098L23.9795 0H22.9695L15.5996 5.66667V0H14.5596V6.47059V7.2451V8H15.5996H18.6296H25.9995V6.66667H20.3695L25.9995 2.33333V0L17.3296 6.66667Z" fill="white"/>
</g>
</svg>
