<svg width="20" height="15" viewBox="0 0 20 15" fill="none" xmlns="http://www.w3.org/2000/svg">
<mask id="mask0_5348_5787" style="mask-type:alpha" maskUnits="userSpaceOnUse" x="0" y="0" width="20" height="15">
<rect width="20" height="15" rx="3" fill="#D9D9D9"/>
</mask>
<g mask="url(#mask0_5348_5787)">
<path d="M20 0H0V15H20V0Z" fill="#8DC7EC"/>
<path d="M0.43 4.75553L0 4.97776V3.12219L0.17 2.94443L1.26 3.33331C1.36 3.36664 1.47 3.33332 1.55 3.25554L2.07 2.67775C2.25 2.48887 2.49 2.38886 2.74 2.41108L4.45 2.59997C4.6 2.61108 4.73 2.69998 4.82 2.83331L5.26 3.49998C5.38 3.67776 5.41 3.91108 5.35 4.11108L5.27 4.37775C5.24 4.47775 5.26 4.57775 5.31 4.65553L5.73 5.3222C5.8 5.43332 5.8 5.57776 5.73 5.68887L4.65 7.28886C4.61 7.34441 4.55 7.38886 4.49 7.41108L4.01 7.53331C3.79 7.58886 3.72 7.88887 3.88 8.06665L4.42 8.65554C4.51 8.75554 4.65 8.77775 4.76 8.71108L5.13 8.48886C5.22 8.43331 5.32 8.43331 5.41 8.48886L7.01 9.53331C7.15 9.6222 7.19 9.81109 7.11 9.96664L5.2 13.5889C5.12 13.7333 4.92 13.6778 4.91 13.5111L4.78 10.7555C4.78 10.6778 4.75 10.6111 4.7 10.5555L2.64 8.11109C2.64 8.11109 2.59 8.04441 2.58 7.99997L1.86 5.84443C1.76 5.53332 1.56 5.25554 1.31 5.07776L0.89 4.76665C0.76 4.67776 0.6 4.66665 0.47 4.73332L0.43 4.75553ZM5.23 1.67776L5.3 1.69997C5.6 1.78886 5.85 1.99997 6 2.31109L6.59 3.56665C6.7 3.78887 6.95 3.86665 7.14 3.7222L7.71 3.29997C7.78 3.24442 7.83 3.15554 7.84 3.06665L7.98 1.11108H5.02V1.37776C5.02 1.5222 5.11 1.64443 5.23 1.67776ZM9.17 9.19997C9.22 9.29997 9.32 9.36665 9.42 9.36665H10.24C10.37 9.36665 10.48 9.46664 10.52 9.59997L11.07 12.0111C11.1 12.1444 11.22 12.2444 11.35 12.2444H11.62C11.76 12.2444 11.88 12.1333 11.9 11.9777L12.14 10.0333C12.14 10.0333 12.16 9.95553 12.18 9.91108L13.15 8.12219C13.2 8.02219 13.29 7.96664 13.39 7.96664H13.77C13.86 7.96664 13.94 8.01108 14 8.08886L14.31 8.55553C14.36 8.6333 14.44 8.67775 14.52 8.67775L15.81 8.76664C15.9 8.76664 15.98 8.73331 16.04 8.66664L18.18 5.98886H18.19L19.92 3.98886C20.02 3.87775 20.02 3.7222 19.96 3.61108C19.95 3.58886 19.93 3.56664 19.91 3.54442C19.86 3.48886 19.79 3.45553 19.72 3.45553H19.23C19.07 3.45553 18.95 3.31109 18.95 3.14442V2.98886C18.95 2.81109 18.82 2.67775 18.67 2.67775H16.19C16.1 2.67775 16.01 2.63332 15.96 2.54443L15.77 2.25553C15.6 1.99997 15.29 1.93331 15.05 2.08887L12.07 4.05554C11.84 4.21109 11.7 4.48886 11.7 4.78886V6.04442C11.7 6.2222 11.83 6.35553 11.98 6.35553C12.26 6.35553 12.48 6.6111 12.47 6.92221C12.47 7.04443 12.4 7.14443 12.3 7.19999L11.74 7.48887C11.74 7.48887 11.66 7.5111 11.62 7.5111H10.76C10.6 7.5111 10.48 7.36665 10.48 7.19999C10.48 7.03332 10.35 6.88886 10.2 6.88886H9.6C9.5 6.88886 9.41 6.94441 9.36 7.04441L8.79 8.11109C8.74 8.19998 8.74 8.3222 8.79 8.4222L9.18 9.2222L9.17 9.19997ZM17.31 10.6333C17.23 10.5444 17.12 10.5 17.01 10.5H16.45C16.36 10.5 16.26 10.5333 16.19 10.6L15.52 11.1777C15.25 11.4111 15.33 11.8889 15.65 12L16.21 12.2C16.3 12.2333 16.38 12.3 16.43 12.3889L16.92 13.1889C17 13.3222 17.13 13.4 17.27 13.4H17.74C17.97 13.4 18.16 13.1889 18.16 12.9333V11.8111C18.16 11.6889 18.12 11.5666 18.04 11.4778L17.3 10.6555L17.31 10.6333Z" fill="#5C9140"/>
</g>
</svg>
