<svg width="20" height="15" viewBox="0 0 20 15" fill="none" xmlns="http://www.w3.org/2000/svg">
<mask id="mask0_5348_5821" style="mask-type:alpha" maskUnits="userSpaceOnUse" x="0" y="0" width="20" height="15">
<rect width="20" height="15" rx="3" fill="#D9D9D9"/>
</mask>
<g mask="url(#mask0_5348_5821)">
<path d="M20 0H0V15H20V0Z" fill="#046C38"/>
<path d="M14.08 10.6452H13.12V10.5572C13.12 10.5572 13.21 10.4692 13.21 10.4362C13.21 10.4032 13.2 10.3702 13.17 10.3372C13.14 10.3152 13.11 10.2932 13.07 10.2932C13.03 10.2932 13 10.3042 12.97 10.3372C12.94 10.3592 12.93 10.3922 12.93 10.4362C12.93 10.4692 12.98 10.5242 13.02 10.5572V10.6452H5.99C6.24 10.8981 6.61 10.8981 7.36 10.8981H13.02V10.9861C13.02 10.9861 12.93 11.063 12.93 11.107C12.93 11.151 13.04 11.239 13.07 11.239C13.1 11.239 13.15 11.184 13.19 11.14H13.5C13.5 11.14 13.53 11.173 13.55 11.184C13.57 11.184 13.59 11.195 13.62 11.195C13.65 11.195 13.67 11.195 13.69 11.184C13.71 11.184 13.73 11.162 13.74 11.14H14.11C14.11 11.14 14.15 11.173 14.18 11.184C14.2 11.184 14.23 11.195 14.26 11.195C14.37 11.195 14.43 11.151 14.43 10.8981C14.43 10.6671 14.33 10.6452 14.07 10.6452H14.08ZM14.07 11.063H13.74C13.74 11.063 13.71 11.041 13.69 11.03C13.67 11.03 13.65 11.0191 13.62 11.0191C13.59 11.0191 13.58 11.0191 13.55 11.03C13.53 11.03 13.51 11.052 13.5 11.063H13.19C13.19 11.063 13.14 11.0081 13.11 10.9861V10.8981H14.07C14.07 10.8981 14.05 11.0081 14.07 11.052V11.063ZM15.11 4.31084C15.09 4.75072 15.25 5.47653 15.25 6.14735C15.25 7.03811 14.85 7.28005 14.48 7.36802C14.08 7.456 14.27 7.33503 14.44 7.23606C14.65 7.13709 14.82 6.98313 14.93 6.78518C15.04 6.58723 15.08 6.35629 15.05 6.13635C15.03 5.79544 14.97 5.2016 14.82 4.0689C14.8 4.01392 14.81 3.95893 14.88 3.87096C14.95 3.78298 14.97 3.76099 15.02 3.87096C15.07 3.98093 15.14 4.11289 15.19 4.23386C15.24 4.35483 15.19 4.37682 15.11 4.31084ZM4.46 7.10409C4.46 7.41201 4.14 7.43401 4.12 7.17008C4.09 6.96113 4.12 6.75219 4.21 6.56524C4.23 6.47726 4.26 6.40028 4.28 6.45527C4.28 6.45527 4.28 6.55424 4.28 6.60923C4.28 6.66421 4.26 6.7192 4.24 6.77418C4.15 7.0821 4.28 7.23606 4.36 7.11509C4.43 7.00512 4.47 7.01612 4.46 7.11509V7.10409ZM6.36 6.79618C6.45 6.60923 6.47 6.40028 6.43 6.20234C6.43 6.09236 6.43 5.98239 6.42 5.86143C6.43 5.86143 6.44 5.83943 6.45 5.82844C6.52 6.03738 6.83 5.98239 6.93 5.86143C6.98 5.80644 6.98 5.79544 7.03 5.86143C7.1 5.9494 7.33 5.98239 7.39 5.86143C7.43 5.74046 7.44 5.61949 7.42 5.49852C7.41 5.39955 7.38 5.41055 7.31 5.45453C7.24 5.50952 7.29 5.52052 7.31 5.5865C7.34 5.86143 7.09 5.83943 7.06 5.55351C7.05 5.37756 7.01 5.44354 6.99 5.52052C6.88 5.85043 6.58 5.91641 6.61 5.53151C6.61 5.42154 6.54 5.45453 6.5 5.49852C6.47 5.53151 6.43 5.55351 6.4 5.5865C6.38 5.26758 6.35 4.91568 6.32 4.48679C6.41 4.59676 6.49 4.4758 6.43 4.35483C6.39 4.26685 6.32 4.05791 6.27 3.93694C6.22 3.82697 6.21 3.85996 6.11 3.94794C6.01 4.04691 6.04 4.0689 6.08 4.16788C6.08 4.33283 6.08 4.49779 6.12 4.66275C6.14 4.8387 6.2 5.2126 6.23 5.68547C6.19 5.70747 6.12 5.75146 6.07 5.77345C6.03 5.68547 5.97 5.60849 5.9 5.54251C5.76 5.41055 5.65 5.41055 5.54 5.56451C5.5 5.60849 5.47 5.66348 5.46 5.71846C5.44 5.77345 5.44 5.82844 5.46 5.89442C5.46 6.02638 5.44 6.08137 5.55 6.11436C5.58 6.12536 5.62 6.13635 5.66 6.13635C5.7 6.13635 5.73 6.13635 5.77 6.11436C5.82 6.10336 5.9 6.08137 5.97 6.04838C5.97 6.08137 5.97 6.12536 5.97 6.15835C5.97 6.19134 5.95 6.22433 5.93 6.25732C5.65 6.57624 5.22 6.79618 5.04 6.58723C4.98 6.52125 4.94 6.43327 4.92 6.3453C4.9 6.25732 4.9 6.16934 4.92 6.08137C4.95 5.90541 4.89 5.98239 4.87 6.04838C4.79 6.25732 4.79 6.49926 4.87 6.7082C4.9 6.76319 4.94 6.80717 4.99 6.85116C5.04 6.88415 5.1 6.91714 5.16 6.92814C5.22 6.93914 5.28 6.95014 5.35 6.92814C5.41 6.92814 5.47 6.89515 5.53 6.86216C5.85 6.73019 6.17 6.47726 6.15 6.14735C6.15 6.08137 6.15 6.02638 6.15 5.98239C6.18 5.9714 6.23 5.92741 6.27 5.91641C6.28 6.02638 6.27 6.16934 6.27 6.29031C6.29 6.40028 6.27 6.51025 6.22 6.62022C6.17 6.7192 6.1 6.80717 6 6.86216C5.8 7.00512 5.58 7.0931 5.34 7.13709C4.82 7.20307 4.7 6.89515 4.71 6.47726C4.71 6.41128 4.74 6.36729 4.74 6.27931C4.74 6.10336 4.71 6.12536 4.65 6.31231C4.56 6.60923 4.57 6.92814 4.7 7.21407C4.88 7.54398 5.49 7.456 5.96 7.23606C6.15 7.14808 6.29 6.99412 6.38 6.80717L6.36 6.79618ZM5.78 5.87242C5.65 5.90541 5.62 5.85043 5.63 5.78445C5.63 5.70747 5.65 5.68547 5.74 5.71846C5.79 5.75146 5.84 5.79544 5.87 5.85043C5.84 5.85043 5.81 5.87242 5.78 5.88342V5.87242ZM4.38 3.91495C4.29 3.98093 4.26 3.91495 4.32 3.84896C4.39 3.76099 4.49 3.728 4.52 3.88195C4.52 3.98093 4.46 4.0689 4.42 4.14588C4.47 3.98093 4.47 3.84896 4.39 3.90395L4.38 3.91495ZM12.19 4.49779C12.16 4.28885 12.05 4.1019 12.18 3.92594C12.26 3.80497 12.28 3.79398 12.33 3.93694C12.37 4.0909 12.44 4.24486 12.53 4.38782C12.61 4.50879 12.5 4.4758 12.39 4.43181H12.37C12.39 4.77272 12.51 5.64148 12.55 5.9714C12.65 6.26832 12.63 6.59823 12.5 6.89515C12.45 6.99412 12.42 6.97213 12.44 6.89515C12.48 6.68621 12.48 6.46626 12.44 6.26832C12.41 6.05937 12.31 5.27858 12.2 4.51978L12.19 4.49779ZM12.65 6.98313C12.73 6.81817 12.82 6.66421 12.92 6.51025C13.05 6.31231 13.11 6.26832 13.27 6.49926C13.36 6.63122 13.46 6.68621 13.56 6.65322C13.66 6.62022 13.72 6.52125 13.72 6.35629C13.72 5.87242 13.69 5.38855 13.64 4.90468C13.48 4.70673 13.32 4.50879 13.14 4.31084C13.05 4.21187 13.06 4.15688 13.07 4.0909C13.08 4.02492 13.07 3.95893 13.07 3.89295C13.07 3.82697 13.13 3.81597 13.2 3.89295C13.28 3.98093 13.37 4.0689 13.47 4.14588C13.55 4.21187 13.49 4.26685 13.43 4.23386C13.48 4.31084 13.54 4.39882 13.61 4.48679C13.61 4.39882 13.59 4.28885 13.58 4.18987C13.55 4.13489 13.54 4.0799 13.54 4.02492C13.54 3.96993 13.57 3.91495 13.61 3.87096C13.66 3.80497 13.69 3.80497 13.72 3.89295C13.75 3.98093 13.83 4.20087 13.87 4.28885C13.91 4.38782 13.87 4.39882 13.81 4.34383C13.81 4.49779 13.83 4.66275 13.84 4.8167C13.94 4.94867 14.06 5.10263 14.18 5.25659C14.1 4.87169 14.05 4.4758 14.04 4.0799C14 4.01392 14.03 3.96993 14.09 3.87096C14.15 3.77198 14.19 3.74999 14.23 3.85996C14.27 3.96993 14.33 4.21187 14.36 4.31084C14.39 4.39882 14.35 4.4648 14.28 4.39882C14.28 4.64075 14.33 5.10263 14.37 5.52052C14.49 5.68547 14.61 5.86143 14.75 6.04838C14.84 6.15835 14.91 6.30131 14.93 6.44427C14.95 6.75219 14.9 6.62022 14.81 6.46626C14.73 6.3453 14.61 6.16934 14.41 5.91641C14.43 6.10336 14.43 6.29031 14.41 6.47726C14.36 6.7192 14.31 6.7192 14.32 6.47726C14.32 6.22433 14.31 5.9714 14.25 5.72946C14.14 5.5865 14.01 5.41055 13.86 5.2126C13.89 5.64148 13.91 6.05937 13.93 6.35629C13.95 6.85116 13.67 6.98313 13.51 6.95014C13.44 6.95014 13.37 6.91715 13.3 6.88415C13.24 6.85116 13.18 6.79618 13.14 6.74119C13.09 6.68621 13.09 6.60923 13.01 6.7082C12.9 6.84017 12.85 7.06011 12.65 7.32404C12.55 7.456 12.49 7.445 12.31 7.29105C12.16 7.18107 12.08 7.06011 12.21 6.53225C12.26 6.31231 12.28 6.42228 12.28 6.56524C12.27 6.74119 12.3 6.90615 12.38 7.06011C12.48 7.23606 12.58 7.11509 12.64 6.99412L12.65 6.98313ZM13.7 7.25805C13.7 7.25805 13.72 7.19207 13.7 7.15908C13.66 7.13709 13.62 7.13709 13.63 7.0821C13.63 7.04911 13.65 7.02712 13.68 7.02712C13.72 7.02712 13.77 7.02712 13.81 7.02712C13.86 7.04911 13.87 7.0711 13.86 7.0931C13.85 7.11509 13.84 7.13709 13.82 7.15908C13.8 7.20307 13.8 7.22506 13.82 7.22506C13.85 7.22506 13.9 7.22506 13.92 7.23606C13.92 7.24706 13.92 7.25805 13.92 7.28005C13.92 7.29104 13.91 7.30204 13.9 7.31304C13.9 7.31304 13.72 7.42301 13.63 7.40102C13.58 7.39002 13.59 7.34603 13.61 7.32404C13.65 7.29104 13.67 7.28005 13.71 7.24706L13.7 7.25805ZM11.35 4.69574C11.37 4.79471 11.43 4.78371 11.45 4.69574C11.47 4.60776 11.5 4.55278 11.52 4.65175C11.54 4.70673 11.53 4.77272 11.51 4.8277C11.51 4.8277 11.5 4.8497 11.49 4.8497C11.49 4.8497 11.47 4.86069 11.46 4.86069C11.45 4.86069 11.44 4.86069 11.43 4.86069C11.42 4.86069 11.41 4.86069 11.4 4.8387C11.35 4.79471 11.33 4.79471 11.29 4.8387C11.21 4.91568 11.18 4.86069 11.16 4.76172C11.14 4.66275 11.19 4.64075 11.2 4.69574C11.23 4.78371 11.27 4.8277 11.29 4.71773C11.3 4.62975 11.34 4.59676 11.35 4.69574ZM11.62 4.20087C11.62 4.20087 11.59 4.14588 11.59 4.11289C11.59 4.0799 11.6 4.04691 11.62 4.02492C11.66 3.98093 11.7 3.94794 11.74 3.89295C11.78 3.83797 11.81 3.85996 11.85 3.98093C11.89 4.1019 11.92 4.23386 11.95 4.34383C11.99 4.4538 11.92 4.4538 11.86 4.39882C11.84 4.89368 11.97 5.30058 11.99 6.22433C12 6.75219 11.92 6.97213 11.76 7.14808C11.68 7.26905 11.57 7.36802 11.43 7.43401C11.29 7.49999 11.15 7.52198 11 7.49999C10.85 7.49999 10.9 7.445 11.05 7.40102C11.28 7.33503 11.49 7.19207 11.64 7.00512C11.9 6.73019 11.84 6.55424 11.82 6.14735C11.79 5.48753 11.73 4.8387 11.63 4.18987L11.62 4.20087ZM14.52 4.24486C14.47 4.16788 14.46 4.14588 14.5 4.0799C14.54 4.02492 14.56 3.96993 14.63 4.13489C14.69 4.28885 14.71 4.4538 14.68 4.60776C14.66 4.71773 14.61 4.73973 14.61 4.60776C14.61 4.4758 14.57 4.35483 14.51 4.24486H14.52ZM4.17 6.01538C4.11 6.05937 4.04 6.10336 4.12 6.01538C4.29 5.81744 4.51 5.67448 4.76 5.5975C4.85 5.56451 4.9 5.53151 4.9 5.61949C4.9 5.70747 4.9 5.70747 4.82 5.72946C4.59 5.79544 4.37 5.90541 4.17 6.02638V6.01538ZM11.14 3.88195C11.18 3.82697 11.21 3.79398 11.28 3.90395C11.32 3.96993 11.35 4.04691 11.36 4.12389C11.36 4.20087 11.36 4.27785 11.33 4.35483C11.26 4.49779 11.24 4.42081 11.26 4.32184C11.27 4.26685 11.26 4.21187 11.25 4.15688C11.23 4.1019 11.19 4.05791 11.15 4.03591C11.09 3.99192 11.11 3.94794 11.15 3.89295L11.14 3.88195ZM13.48 5.44354C13.5 5.52052 13.5 5.55351 13.42 5.5975C13.29 5.66348 13.17 5.72946 13.05 5.80644C12.98 5.86143 12.88 5.92741 12.88 5.88342C12.88 5.83943 12.91 5.81744 12.99 5.75146C13.07 5.69647 13.28 5.55351 13.34 5.48753C13.4 5.42154 13.46 5.36656 13.47 5.44354H13.48ZM13.28 5.82844C13.28 5.82844 13.36 5.77345 13.42 5.85043C13.46 5.89442 13.49 5.9494 13.5 6.00439C13.5 6.05937 13.5 6.12536 13.47 6.18034C13.4 6.29031 13.38 6.22433 13.4 6.15835C13.44 6.05937 13.35 5.98239 13.29 5.9494C13.23 5.91641 13.25 5.88342 13.29 5.83943L13.28 5.82844ZM12.81 4.99266C12.81 4.99266 12.81 4.91568 12.81 4.88269C12.81 4.87169 12.81 4.86069 12.81 4.8497C12.81 4.8387 12.83 4.8277 12.84 4.8277C12.85 4.8277 12.87 4.8277 12.88 4.8277C12.89 4.8277 12.9 4.8277 12.91 4.8497C12.97 4.92668 13.02 5.02565 13.05 5.11363C13.08 5.16861 13.09 5.15761 13.09 5.08063C13.08 5.00365 13.07 4.91568 13.07 4.8387C13.08 4.79471 13.11 4.75072 13.14 4.72873C13.19 4.69574 13.22 4.68474 13.25 4.75072C13.28 4.8167 13.31 4.8167 13.29 4.86069C13.26 4.92668 13.19 4.79471 13.15 4.89368C13.15 5.00365 13.14 5.12462 13.15 5.23459C13.15 5.30058 13.12 5.38855 13.07 5.28958C13.03 5.1906 12.97 5.10263 12.9 5.02565C12.89 5.09163 12.79 5.09163 12.8 5.02565L12.81 4.99266ZM5.34 3.94794C5.34 3.94794 5.34 3.88195 5.34 3.85996C5.38 3.77198 5.4 3.82697 5.4 3.90395C5.4 4.00292 5.47 4.02492 5.53 3.90395C5.56 3.82697 5.58 3.77198 5.58 3.88195C5.58 3.99192 5.68 4.01392 5.69 3.92594C5.71 3.87096 5.71 3.85996 5.73 3.90395C5.73 3.92594 5.73 3.94794 5.73 3.96993C5.73 3.99192 5.72 4.01392 5.71 4.02492C5.69 4.0689 5.61 4.0799 5.59 4.03591C5.55 3.98093 5.55 3.98093 5.51 4.03591C5.5 4.03591 5.49 4.04691 5.47 4.05791C5.46 4.05791 5.44 4.05791 5.43 4.05791C5.42 4.05791 5.4 4.05791 5.39 4.04691C5.38 4.04691 5.37 4.03591 5.36 4.02492C5.34 4.00292 5.33 3.96993 5.32 3.94794H5.34ZM7.14 4.77272C7.23 4.65175 7.28 4.67374 7.19 4.80571C7.06 4.99266 7.19 5.11363 7.31 4.98166C7.4 4.89368 7.42 4.90468 7.37 5.01465C7.32 5.12462 7.18 5.1906 7.11 5.12462C6.98 5.02565 7.05 4.87169 7.14 4.76172V4.77272ZM6.92 6.55424C6.94 6.48826 6.95 6.41128 6.93 6.3343C6.82 6.37829 6.79 6.30131 6.82 6.22433C6.84 6.16934 6.87 6.12536 6.94 6.15835C7.01 6.19134 7.01 6.21333 7.02 6.27931C7.04 6.37829 7.02 6.47726 6.97 6.56524C6.92 6.64222 6.89 6.62022 6.92 6.55424ZM7.37 4.34383C7.46 4.35483 7.48 4.28885 7.44 4.23386C7.47 4.17887 7.49 4.13489 7.5 4.0799C7.58 3.79398 7.28 3.76099 7.19 3.99192C7.19 3.99192 7.16 4.0909 7.17 4.14588C7.18 4.20087 7.21 4.24486 7.25 4.28885C7.1 4.4758 6.91 4.64075 6.7 4.76172C6.59 4.8277 6.61 4.87169 6.76 4.8167C7 4.72873 7.21 4.57477 7.37 4.36582V4.34383ZM7.32 4.02492C7.35 3.95893 7.39 4.00292 7.37 4.04691C7.37 4.04691 7.35 4.11289 7.34 4.14588C7.29 4.11289 7.3 4.0799 7.33 4.03591L7.32 4.02492ZM4.38 4.23386C4.38 4.23386 4.4 4.17887 4.41 4.15688C4.41 4.17887 4.4 4.21187 4.39 4.23386H4.38ZM4.14 5.2016C4.05 5.01465 4 4.8167 4 4.60776C4 4.51978 4.01 4.42081 4.04 4.33283C4.07 4.23386 4.1 4.24486 4.1 4.33283C4.09 4.55278 4.12 4.78371 4.21 4.99266C4.27 5.08063 4.32 5.06964 4.35 5.01465C4.39 4.92668 4.41 4.8277 4.42 4.72873C4.43 4.54178 4.49 4.36582 4.6 4.22286C4.65 4.14588 4.72 4.0909 4.8 4.13489C4.88 4.17887 4.83 4.34383 4.8 4.4538C4.75 4.59676 4.76 4.76172 4.82 4.90468C4.83 4.94867 4.86 4.98166 4.9 5.01465C4.94 5.03665 4.98 5.05864 5.03 5.05864C5.01 4.80571 4.98 4.51978 4.98 4.42081C4.96 4.26685 4.9 4.17887 4.94 4.12389C4.9 4.04691 4.86 4.01392 4.92 3.92594C4.98 3.83797 5.01 3.78298 5.08 3.92594C5.19 4.1019 5.25 4.26685 5.13 4.31084C5.15 4.54178 5.19 4.8277 5.21 5.03665C5.25 5.00365 5.29 4.95967 5.32 4.91568C5.35 4.87169 5.36 4.8167 5.36 4.76172C5.34 4.67374 5.32 4.53078 5.28 4.37682C5.26 4.28885 5.27 4.20087 5.29 4.11289C5.31 4.05791 5.32 4.03591 5.41 4.14588C5.44 4.18987 5.46 4.24486 5.47 4.28885C5.48 4.34383 5.48 4.39882 5.47 4.4428C5.47 4.56377 5.49 4.69574 5.53 4.80571C5.53 4.86069 5.57 4.91568 5.61 4.94867C5.65 4.98166 5.71 5.00366 5.77 5.00366C5.85 5.00366 5.9 4.97066 5.88 4.86069C5.85 4.67374 5.79 4.49779 5.72 4.32184C5.69 4.24486 5.69 4.22286 5.72 4.18987C5.75 4.15688 5.78 4.12389 5.81 4.0799C5.84 4.03591 5.89 4.0799 5.92 4.11289C5.96 4.15688 6 4.20087 6.02 4.24486C6.08 4.33283 6.04 4.39882 5.96 4.37682C6.06 4.71773 6.16 5.03665 5.93 5.17961C5.69 5.34456 5.51 5.23459 5.47 5.05864C5.45 4.97066 5.43 4.97066 5.37 5.06964C5.33 5.13562 5.29 5.17961 5.23 5.2236C5.26 5.54251 5.27 5.78445 5.29 5.92741C5.31 6.03738 5.29 6.14735 5.26 6.25732C5.21 6.35629 5.18 6.38929 5.18 6.22433C5.18 6.05937 5.11 5.5865 5.08 5.32257C4.65 5.32257 4.64 4.87169 4.69 4.57477C4.71 4.4648 4.69 4.33283 4.63 4.50879C4.52 4.79471 4.57 4.97066 4.45 5.15761C4.38 5.28958 4.27 5.32257 4.19 5.15761L4.14 5.2016ZM7.55 6.56524C7.55 6.56524 7.44 6.64222 7.39 6.68621C7.39 6.59823 7.39 6.46626 7.39 6.41128C7.39 6.3453 7.37 6.31231 7.33 6.40028C7.26 6.54324 7.2 6.68621 7.17 6.84016C6.88 7.02712 6.57 7.20307 6.25 7.35703C6.14 7.41201 6.21 7.445 6.29 7.41201C6.59 7.33503 6.88 7.23606 7.17 7.11509C7.17 7.20307 7.19 7.28005 7.24 7.34603C7.29 7.41201 7.36 7.467 7.44 7.48899C7.78 7.57697 8.15 7.29104 8.53 6.78518C8.6 6.97213 8.73 7.13709 8.89 7.24706C9.05 7.35703 9.25 7.43401 9.45 7.445C9.7 7.478 9.69 7.456 9.73 7.34603C9.77 7.23606 9.79 7.21407 9.59 7.15908C9.33 7.0711 9.24 6.88415 9.49 6.78518C9.77 6.67521 10.05 6.59823 10.34 6.54324C10.49 6.52125 10.55 6.54324 10.6 6.38929C10.65 6.23533 10.68 6.20234 10.5 6.22433C10.32 6.24632 9.42 6.25732 9.2 6.24632C9.4 6.14735 9.61 6.07037 9.83 5.99339C9.9 6.03738 9.93 6.02638 9.9 5.9714C9.97 5.9494 10.04 5.91641 10.1 5.88342C10.31 5.76245 10.41 5.52052 10.18 5.37756C9.95 5.2236 9.76 5.17961 9.64 5.34456C9.54 5.47653 9.46 5.60849 9.59 5.78445C9.39 5.83943 9.19 5.91641 9 5.98239C8.86 6.03738 8.8 6.05937 8.74 6.22433C8.68 6.38929 8.66 6.41128 8.86 6.42228C9.12 6.43327 9.36 6.42228 9.51 6.55424C9.26 6.64222 9.07 6.82917 9.17 7.0711C9.05 7.04911 8.94 6.99412 8.84 6.91714C8.64 6.74119 8.66 6.43327 8.58 6.07037C8.51 5.79544 8.41 5.53151 8.29 5.27858C8.24 5.14662 8.21 5.2016 8.17 5.30058C8.13 5.38855 8.09 5.44354 8.13 5.55351C8.22 5.78445 8.37 6.23533 8.44 6.47726C8.36 6.65321 8.25 6.80717 8.11 6.92814C7.97 7.04911 7.8 7.14808 7.62 7.21407C7.38 7.24706 7.33 7.12609 7.34 7.00512C7.5 6.91714 7.65 6.80717 7.78 6.67521C8.07 6.40028 8.12 6.16934 7.93 5.70747C8.04 5.71846 8.02 5.63049 7.85 5.44354C7.73 5.31157 7.71 5.33357 7.65 5.45453C7.59 5.5755 7.55 5.65248 7.69 5.69647C7.71 5.75146 7.77 5.85043 7.83 5.9714C7.99 6.25732 7.75 6.36729 7.54 6.54324L7.55 6.56524ZM9.91 5.5865C10.02 5.65248 10.11 5.66348 9.95 5.69647C9.89 5.69647 9.84 5.71846 9.79 5.72946C9.78 5.67448 9.78 5.63049 9.77 5.5865C9.77 5.50952 9.81 5.50952 9.92 5.5865H9.91ZM7.81 5.05864C7.7 4.93767 7.63 4.79471 7.61 4.62975C7.59 4.4758 7.61 4.31084 7.68 4.16788C7.73 4.03591 7.74 4.0799 7.72 4.20087C7.68 4.38782 7.7 4.58577 7.76 4.77272C7.83 4.90468 7.94 4.97066 7.99 4.80571C8.08 4.56377 8.2 4.33283 8.34 4.11289C8.41 4.02492 8.45 3.99192 8.5 4.0689C8.55 4.14588 8.52 4.16788 8.5 4.31084C8.48 4.4758 8.48 4.64075 8.49 4.80571C8.49 4.95967 8.61 5.08063 8.86 4.95967C9.1 4.8277 9.12 4.60776 9 4.1019C8.98 4.00292 8.95 3.99192 8.98 3.93694C9.01 3.89295 9.06 3.76099 9.08 3.76099C9.1 3.76099 9.12 3.79398 9.15 3.87096C9.2 4.04691 9.23 4.23386 9.23 4.40981C9.23 4.57477 9.36 4.97066 9.55 4.92668C9.75 4.88269 9.63 4.43181 9.51 4.11289C9.47 4.03591 9.47 4.00292 9.51 3.96993C9.55 3.93694 9.55 3.91495 9.58 3.87096C9.61 3.81597 9.63 3.78298 9.7 3.84896C9.79 3.92594 9.86 4.01392 9.9 4.12389C9.95 4.26685 9.86 4.23386 9.8 4.18987C9.75 4.14588 9.72 4.14588 9.76 4.23386C9.82 4.38782 9.85 4.55278 9.85 4.71773C9.81 5.13562 9.51 5.33357 9.17 4.90468C9.06 5.12462 8.74 5.32257 8.53 5.2016C8.32 5.08063 8.33 4.76172 8.36 4.56377C8.36 4.4648 8.33 4.4428 8.29 4.55277C8.24 4.66275 8.19 4.80571 8.13 4.97066C8.07 5.13562 7.96 5.2016 7.82 5.05864H7.81ZM8.7 3.89295C8.7 3.89295 8.78 3.87096 8.82 3.99192C8.86 4.12389 8.86 4.26685 8.84 4.40981C8.8 4.54178 8.79 4.4648 8.8 4.39882C8.82 4.26685 8.79 4.13489 8.71 4.02492C8.66 3.95893 8.66 3.94794 8.71 3.90395L8.7 3.89295ZM10.09 7.25805C10.12 7.14808 10.14 7.10409 10.05 7.14808C9.94 7.18107 9.95 7.14808 9.99 7.12609C10.04 7.0931 10.1 7.06011 10.16 7.02712C10.22 6.99412 10.27 7.00512 10.22 7.12609C10.18 7.26905 10.2 7.31304 10.3 7.28005C10.4 7.24706 10.44 7.21407 10.52 7.19207C10.6 7.17008 10.66 7.15908 10.56 7.24706C10.48 7.31304 10.39 7.36802 10.29 7.41201C10.14 7.445 10.06 7.39002 10.09 7.28005V7.25805ZM8.92 5.55351C8.92 5.55351 8.92 5.47653 8.92 5.44354C8.93 5.33357 8.95 5.38855 8.96 5.46553C9 5.63049 9.08 5.60849 9.08 5.44354C9.08 5.35556 9.12 5.35556 9.14 5.42154C9.21 5.5975 9.27 5.5975 9.27 5.42154C9.27 5.31157 9.28 5.28958 9.32 5.38855C9.4 5.64148 9.22 5.68547 9.18 5.63049C9.14 5.5755 9.12 5.5865 9.1 5.65248C9.1 5.66348 9.08 5.67448 9.07 5.68547C9.06 5.68547 9.05 5.69647 9.03 5.69647C9.02 5.69647 9 5.69647 8.99 5.69647C8.98 5.69647 8.97 5.68547 8.96 5.67448C8.94 5.64148 8.92 5.60849 8.92 5.5755V5.55351ZM9.97 4.0909C9.97 4.02492 9.97 3.95893 9.97 3.89295C9.95 3.81597 10 3.76099 10.09 3.83797C10.19 3.92594 10.35 4.05791 10.46 4.16788C10.57 4.27785 10.5 4.32184 10.37 4.26685C10.45 4.38782 10.56 4.53078 10.64 4.64075C10.62 4.49779 10.6 4.35483 10.6 4.21187C10.53 4.12389 10.54 4.0909 10.6 3.95893C10.64 3.84896 10.72 3.87096 10.75 3.94794C10.83 4.1019 10.89 4.26685 10.95 4.43181C10.97 4.51978 10.93 4.56377 10.86 4.49779C10.86 4.65175 10.86 4.8167 10.88 4.99266C11.24 5.44354 11.52 5.9604 11.71 6.49926C11.75 6.74119 11.69 6.7082 11.63 6.54324C11.42 6.11436 11.18 5.71846 10.9 5.33357C10.92 5.53151 10.93 5.75146 10.95 5.91641C11.02 6.24632 11.01 6.59823 10.93 6.92814C10.83 7.22506 10.77 7.13709 10.83 6.93914C10.87 6.49926 10.84 6.05937 10.76 5.63049C10.74 5.43254 10.69 5.2016 10.67 4.99266C10.49 4.73973 10.29 4.48679 10.1 4.24486C10 4.21187 9.98 4.16788 9.99 4.1019L9.97 4.0909Z" fill="white"/>
</g>
</svg>
