<svg width="15" height="15" viewBox="0 0 15 15" fill="none" xmlns="http://www.w3.org/2000/svg">
<path d="M14.82 12.06C14.94 12.18 15 12.3375 15 12.5025C15 12.6675 14.9325 12.825 14.82 12.945C14.7075 13.065 14.5425 13.125 14.3775 13.125H13.125V14.3775C13.125 14.5425 13.0575 14.7 12.945 14.82C12.8325 14.94 12.6675 15 12.5025 15C12.3375 15 12.18 14.9325 12.06 14.82C11.94 14.7075 11.88 14.5425 11.88 14.3775V13.125H10.6275C10.4625 13.125 10.305 13.0575 10.185 12.945C10.065 12.8325 10.005 12.6675 10.005 12.5025C10.005 12.3375 10.0725 12.18 10.185 12.06C10.2975 11.94 10.4625 11.88 10.6275 11.88H11.88V10.6275C11.88 10.4625 11.9475 10.305 12.06 10.185C12.1725 10.065 12.3375 10.005 12.5025 10.005C12.6675 10.005 12.825 10.0725 12.945 10.185C13.065 10.2975 13.125 10.4625 13.125 10.6275V11.88H14.3775C14.5425 11.88 14.7 11.9475 14.82 12.06ZM15 5.625V8.7525C15 8.9175 14.9325 9.075 14.82 9.195C14.7075 9.315 14.5425 9.375 14.3775 9.375C14.2125 9.375 14.055 9.3075 13.935 9.195C13.815 9.0825 13.755 8.9175 13.755 8.7525V5.625C13.755 5.46 13.6875 5.3025 13.575 5.1825C13.455 5.0625 13.2975 5.0025 13.1325 5.0025H11.2575V6.255C11.2575 6.42 11.19 6.5775 11.0775 6.6975C10.965 6.8175 10.8 6.8775 10.635 6.8775C10.47 6.8775 10.3125 6.81 10.1925 6.6975C10.0725 6.585 10.0125 6.42 10.0125 6.255V5.0025H5.01V6.255C5.01 6.42 4.9425 6.5775 4.83 6.6975C4.71 6.8175 4.5525 6.8775 4.3875 6.8775C4.2225 6.8775 4.065 6.81 3.945 6.6975C3.825 6.5775 3.765 6.42 3.765 6.255V5.0025H1.89C1.725 5.0025 1.5675 5.07 1.4475 5.1825C1.3275 5.3025 1.2675 5.46 1.2675 5.625V11.8725C1.2675 12.3675 1.4625 12.8475 1.815 13.2C2.1675 13.5525 2.64 13.7475 3.1425 13.7475H8.7675C8.9325 13.7475 9.09 13.815 9.21 13.9275C9.33 14.04 9.39 14.205 9.39 14.37C9.39 14.535 9.3225 14.6925 9.21 14.8125C9.0975 14.9325 8.9325 14.9925 8.7675 14.9925H3.1425C2.3175 14.9925 1.5225 14.6625 0.9375 14.0775C0.33 13.5 0 12.705 0 11.8725V5.625C0 5.13 0.195 4.65 0.5475 4.2975C0.9 3.945 1.3725 3.75 1.875 3.75H3.75C3.75 2.7525 4.1475 1.8 4.845 1.095C5.55 0.39 6.5025 0 7.5 0C8.4975 0 9.45 0.3975 10.155 1.095C10.86 1.8 11.25 2.7525 11.25 3.75H13.125C13.62 3.75 14.1 3.945 14.4525 4.2975C14.805 4.65 15 5.1225 15 5.625ZM9.9975 3.75C9.9975 3.09 9.735 2.4525 9.2625 1.98C8.79 1.5075 8.16 1.245 7.4925 1.245C6.825 1.245 6.195 1.5075 5.7225 1.98C5.25 2.4525 4.9875 3.0825 4.9875 3.75H9.99H9.9975Z" fill="#F9F9F9"/>
</svg>
