<svg width="15" height="16" viewBox="0 0 15 16" fill="none" xmlns="http://www.w3.org/2000/svg">
<path d="M14.82 12.56C14.94 12.68 15 12.8375 15 13.0025C15 13.1675 14.9325 13.325 14.82 13.445C14.7075 13.565 14.5425 13.625 14.3775 13.625H13.125V14.8775C13.125 15.0425 13.0575 15.2 12.945 15.32C12.8325 15.44 12.6675 15.5 12.5025 15.5C12.3375 15.5 12.18 15.4325 12.06 15.32C11.94 15.2075 11.88 15.0425 11.88 14.8775V13.625H10.6275C10.4625 13.625 10.305 13.5575 10.185 13.445C10.065 13.3325 10.005 13.1675 10.005 13.0025C10.005 12.8375 10.0725 12.68 10.185 12.56C10.2975 12.44 10.4625 12.38 10.6275 12.38H11.88V11.1275C11.88 10.9625 11.9475 10.805 12.06 10.685C12.1725 10.565 12.3375 10.505 12.5025 10.505C12.6675 10.505 12.825 10.5725 12.945 10.685C13.065 10.7975 13.125 10.9625 13.125 11.1275V12.38H14.3775C14.5425 12.38 14.7 12.4475 14.82 12.56ZM15 6.125V9.2525C15 9.4175 14.9325 9.575 14.82 9.695C14.7075 9.815 14.5425 9.875 14.3775 9.875C14.2125 9.875 14.055 9.8075 13.935 9.695C13.815 9.5825 13.755 9.4175 13.755 9.2525V6.125C13.755 5.96 13.6875 5.8025 13.575 5.6825C13.455 5.5625 13.2975 5.5025 13.1325 5.5025H11.2575V6.755C11.2575 6.92 11.19 7.0775 11.0775 7.1975C10.965 7.3175 10.8 7.3775 10.635 7.3775C10.47 7.3775 10.3125 7.31 10.1925 7.1975C10.0725 7.085 10.0125 6.92 10.0125 6.755V5.5025H5.01V6.755C5.01 6.92 4.9425 7.0775 4.83 7.1975C4.71 7.3175 4.5525 7.3775 4.3875 7.3775C4.2225 7.3775 4.065 7.31 3.945 7.1975C3.825 7.0775 3.765 6.92 3.765 6.755V5.5025H1.89C1.725 5.5025 1.5675 5.57 1.4475 5.6825C1.3275 5.8025 1.2675 5.96 1.2675 6.125V12.3725C1.2675 12.8675 1.4625 13.3475 1.815 13.7C2.1675 14.0525 2.64 14.2475 3.1425 14.2475H8.7675C8.9325 14.2475 9.09 14.315 9.21 14.4275C9.33 14.54 9.39 14.705 9.39 14.87C9.39 15.035 9.3225 15.1925 9.21 15.3125C9.0975 15.4325 8.9325 15.4925 8.7675 15.4925H3.1425C2.3175 15.4925 1.5225 15.1625 0.9375 14.5775C0.33 14 0 13.205 0 12.3725V6.125C0 5.63 0.195 5.15 0.5475 4.7975C0.9 4.445 1.3725 4.25 1.875 4.25H3.75C3.75 3.2525 4.1475 2.3 4.845 1.595C5.55 0.89 6.5025 0.5 7.5 0.5C8.4975 0.5 9.45 0.8975 10.155 1.595C10.86 2.3 11.25 3.2525 11.25 4.25H13.125C13.62 4.25 14.1 4.445 14.4525 4.7975C14.805 5.15 15 5.6225 15 6.125ZM9.9975 4.25C9.9975 3.59 9.735 2.9525 9.2625 2.48C8.79 2.0075 8.16 1.745 7.4925 1.745C6.825 1.745 6.195 2.0075 5.7225 2.48C5.25 2.9525 4.9875 3.5825 4.9875 4.25H9.99H9.9975Z" fill="#374957"/>
</svg>
