<svg width="20" height="20" viewBox="0 0 20 20" fill="none" xmlns="http://www.w3.org/2000/svg">
<path d="M3 19.0591L5.39167 19.8085C5.79167 19.9334 6.20833 20 6.63333 20C7.01667 20 7.39167 19.95 7.76667 19.8418L12.5833 18.418C13.0083 18.3014 13.4667 18.3014 13.8917 18.418L15.8833 19.0841C16.375 19.2007 16.8833 19.209 17.375 19.1007C17.8667 18.9925 18.3333 18.776 18.725 18.4679C19.125 18.1599 19.4417 17.7602 19.6667 17.3022C19.8917 16.8526 20 16.353 20 15.8451V11.557C20 10.6994 19.7333 9.85845 19.2333 9.15071C18.7333 8.45129 18.0333 7.9184 17.2167 7.62698L16.6167 7.42714C16.725 6.49459 16.6333 5.55371 16.35 4.65445C16.0667 3.7552 15.6 2.93089 14.975 2.23147C14.35 1.53205 13.5833 0.965859 12.725 0.582845C11.8667 0.199831 10.9417 0 10 0C9.05 0 8.10833 0.208158 7.24167 0.599498C6.375 0.990839 5.6 1.56536 4.975 2.28976C4.35 3.00583 3.88333 3.84679 3.61667 4.7627C3.34167 5.67027 3.275 6.63614 3.4 7.57702C2.6 7.72689 1.86667 8.10158 1.275 8.65945C0.866667 9.04246 0.541667 9.50874 0.325 10.0333C0.108333 10.5412 0 11.0991 0 11.6569V15.0708C0 15.97 0.3 16.836 0.833333 17.5604C1.375 18.2848 2.13333 18.8093 3 19.0591ZM6.46667 3.13905C6.93333 2.67277 7.48333 2.30641 8.09167 2.05662C8.7 1.80683 9.35 1.6736 10.0083 1.6736C10.6667 1.6736 11.3167 1.80683 11.925 2.05662C12.5333 2.30641 13.0833 2.6811 13.55 3.13905C14.4833 4.07993 15.0083 5.35387 15.0167 6.67777C15.0167 8.00166 14.5 9.2756 13.5667 10.2165L10.6083 13.0974C10.45 13.2473 10.25 13.3306 10.0333 13.3306C9.81667 13.3306 9.60833 13.2473 9.45833 13.0974L6.5 10.2331C5.56667 9.29225 5.03333 8.01832 5.03333 6.68609C5.03333 5.35387 5.55833 4.07993 6.5 3.13905H6.46667ZM1.66667 11.6653C1.66667 11.3322 1.73333 10.9992 1.86667 10.6828C2 10.3664 2.19167 10.0916 2.43333 9.85845C2.81667 9.49209 3.3 9.25895 3.825 9.18401C4.15833 10.0167 4.65833 10.7744 5.3 11.4072L8.275 14.2798C8.74167 14.7377 9.36667 14.9875 10.0167 14.9875C10.6667 14.9875 11.2917 14.7294 11.7583 14.2798L14.725 11.3988C15.3917 10.7327 15.9083 9.93339 16.2333 9.05079L16.6833 9.20067C17.1667 9.37552 17.5917 9.69192 17.8833 10.1166C18.1833 10.5412 18.3417 11.0408 18.3417 11.557V15.8451C18.3417 16.0949 18.2833 16.3447 18.175 16.5695C18.0667 16.7943 17.9 16.9942 17.7083 17.1524C17.5167 17.3022 17.3 17.4105 17.0667 17.4688C16.8333 17.5271 16.5917 17.5271 16.35 17.4854L14.3917 16.8276C13.65 16.6195 12.8667 16.6112 12.125 16.811L7.30833 18.2348C6.84167 18.3597 6.35833 18.3514 5.9 18.2098L3.49167 17.4604C2.96667 17.3106 2.50833 16.9942 2.18333 16.5612C1.85833 16.1282 1.675 15.6037 1.675 15.0541V11.6653H1.66667ZM10 10C10.6583 10 11.3 9.80849 11.85 9.44213C12.4 9.07577 12.825 8.55953 13.075 7.94338C13.325 7.33555 13.3917 6.66112 13.2667 6.01998C13.1417 5.37052 12.8167 4.77935 12.3583 4.31307C11.9 3.84679 11.3 3.53039 10.65 3.4055C10 3.2806 9.33333 3.33888 8.725 3.597C8.11667 3.84679 7.59167 4.27976 7.225 4.82098C6.85833 5.37052 6.66667 6.01166 6.66667 6.66944C6.66667 7.55204 7.01667 8.40133 7.64167 9.02581C8.26667 9.65029 9.11667 10 10 10ZM8.81667 5.49542C9.13333 5.17902 9.55 5.00416 9.99167 5.00416C10.325 5.00416 10.6417 5.10408 10.9167 5.28726C11.1917 5.47044 11.4083 5.72856 11.5333 6.03664C11.6583 6.34471 11.6917 6.67777 11.625 7.0025C11.5583 7.32723 11.4 7.61865 11.1667 7.85179C10.9333 8.08493 10.6333 8.24313 10.3167 8.30974C9.99167 8.37635 9.65833 8.34305 9.35 8.21815C9.04167 8.09326 8.78333 7.87677 8.6 7.602C8.41667 7.32722 8.31667 7.00249 8.31667 6.67777C8.31667 6.23647 8.49167 5.81182 8.80833 5.50374L8.81667 5.49542Z" fill="#374957"/>
</svg>
