<svg width="12" height="12" viewBox="0 0 12 12" fill="none" xmlns="http://www.w3.org/2000/svg">
<path d="M8.29882 0.458561C7.20107 0.00266256 5.99533 -0.117306 4.83159 0.116642C3.66785 0.35059 2.60009 0.920458 1.76028 1.76027C0.920462 2.60008 0.350589 3.66785 0.116641 4.83159C-0.117307 5.99534 0.00266606 7.20107 0.458565 8.29882C0.914463 9.39658 1.68229 10.3324 2.66607 10.9922C3.65585 11.6521 4.8136 12 6.00133 12C7.59098 12 9.11464 11.3641 10.2424 10.2424C11.3701 9.12064 12 7.59098 12 6.00133C12 4.8136 11.6461 3.65586 10.9922 2.66608C10.3324 1.68229 9.39658 0.908461 8.29882 0.458561ZM5.40147 6.00133V2.40213C5.40147 2.24017 5.46745 2.0902 5.57543 1.97622C5.6834 1.86225 5.83937 1.80227 6.00133 1.80227C6.1633 1.80227 6.31326 1.86825 6.42724 1.97622C6.54121 2.0902 6.6012 2.24017 6.6012 2.40213V6.6012C6.6012 6.76316 6.53521 6.91313 6.42724 7.02711C6.31926 7.14108 6.1633 7.20107 6.00133 7.20107C5.83937 7.20107 5.6894 7.13508 5.57543 7.02711C5.46145 6.91313 5.40147 6.76316 5.40147 6.6012V6.00133ZM6.00133 10.2004C5.50344 10.2004 5.10153 9.79849 5.10153 9.3006C5.10153 8.80271 5.50344 8.4008 6.00133 8.4008C6.49922 8.4008 6.90113 8.80271 6.90113 9.3006C6.90113 9.79849 6.49922 10.2004 6.00133 10.2004Z" fill="#5D5D5D"/>
</svg>
