<svg width="20" height="10" viewBox="0 0 20 10" fill="none" xmlns="http://www.w3.org/2000/svg">
<path d="M1.25007 0.00669391C1.41415 0.00647102 1.57666 0.0391681 1.72821 0.102899C1.87976 0.16663 2.01735 0.260132 2.13305 0.378012L8.52465 6.85244C8.71804 7.04841 8.94764 7.20386 9.20033 7.30992C9.45303 7.41599 9.72387 7.47057 9.9974 7.47057C10.2709 7.47057 10.5418 7.41599 10.7945 7.30992C11.0472 7.20386 11.2768 7.04841 11.4701 6.85244L17.8518 0.386451C17.967 0.265548 18.1049 0.169113 18.2573 0.10277C18.4098 0.0364282 18.5737 0.00150836 18.7396 4.7795e-05C18.9056 -0.00141277 19.0701 0.0306153 19.2236 0.0942636C19.3772 0.157912 19.5167 0.251906 19.634 0.37076C19.7513 0.489615 19.8441 0.63095 19.907 0.786519C19.9698 0.942088 20.0014 1.10878 20 1.27686C19.9985 1.44493 19.964 1.61104 19.8986 1.76548C19.8331 1.91992 19.7379 2.0596 19.6185 2.17637L13.2369 8.64236C12.3772 9.51173 11.2121 10 9.9974 10C8.78268 10 7.61759 9.51173 6.75786 8.64236L0.366254 2.16793C0.191394 1.9909 0.0722995 1.76529 0.0240403 1.51966C-0.0242188 1.27404 0.000526446 1.01943 0.0951448 0.78805C0.189763 0.556674 0.350002 0.358932 0.555585 0.219846C0.761169 0.0807598 1.00286 0.00658039 1.25007 0.00669391Z" fill="#374957"/>
</svg>
