<svg width="4" height="9" viewBox="0 0 4 9" fill="none" xmlns="http://www.w3.org/2000/svg">
<path d="M0.00266024 7.54943C0.00257166 7.48337 0.015566 7.41794 0.0408936 7.35693C0.0662211 7.29591 0.103381 7.24051 0.150228 7.19393L2.72327 4.62055C2.80115 4.54269 2.86293 4.45025 2.90508 4.34851C2.94723 4.24677 2.96892 4.13773 2.96892 4.0276C2.96892 3.91747 2.94723 3.80843 2.90508 3.70669C2.86293 3.60495 2.80115 3.51251 2.72327 3.43465L0.153581 0.865293C0.105533 0.818886 0.0672077 0.763375 0.0408423 0.701998C0.0144768 0.640622 0.000599119 0.574609 1.86647e-05 0.507812C-0.00056179 0.441014 0.0121666 0.37477 0.0374615 0.312944C0.0627563 0.251118 0.100111 0.19495 0.147346 0.147715C0.19458 0.10048 0.250749 0.0631256 0.312575 0.0378303C0.3744 0.012536 0.440644 -0.000192661 0.507442 0.00038717C0.574239 0.000967954 0.640252 0.0148458 0.701629 0.0412111C0.763005 0.0675769 0.818516 0.105902 0.864923 0.15395L3.43461 2.7233C3.78011 3.06945 3.97415 3.53853 3.97416 4.0276C3.97416 4.51667 3.78011 4.98575 3.43461 5.3319L0.86157 7.90527C0.791213 7.97568 0.701554 8.02363 0.603938 8.04306C0.506322 8.06249 0.405136 8.05252 0.313183 8.01443C0.221231 7.97633 0.142645 7.91182 0.0873702 7.82905C0.0320952 7.74627 0.00261513 7.64897 0.00266024 7.54943Z" fill="#85878A"/>
</svg>
