<svg width="20" height="20" viewBox="0 0 20 20" fill="none" xmlns="http://www.w3.org/2000/svg">
<path d="M6.51108 0.246397L13.7063 7.05193C14.1164 7.43881 14.4418 7.89842 14.6637 8.40442C14.8857 8.91042 15 9.45288 15 10.0007C15 10.5485 14.8857 11.091 14.6637 11.597C14.4418 12.103 14.1164 12.5626 13.7063 12.9495L6.51109 19.755C6.34525 19.9119 6.12033 20 5.8858 20C5.65127 20 5.42634 19.9119 5.26051 19.755C5.09467 19.5982 5.0015 19.3854 5.0015 19.1636C5.0015 18.9418 5.09467 18.729 5.26051 18.5722L12.4557 11.7666C12.9505 11.2981 13.2284 10.6629 13.2284 10.0007C13.2284 9.33848 12.9505 8.70333 12.4557 8.23477L5.26051 1.42924C5.17796 1.35181 5.11244 1.25968 5.06773 1.15817C5.02302 1.05666 5 0.947785 5 0.83782C5 0.727856 5.02302 0.618979 5.06773 0.517472C5.11244 0.415965 5.17796 0.323836 5.26051 0.246397C5.34238 0.168322 5.43978 0.106352 5.5471 0.0640625C5.65442 0.0217728 5.76953 4.03476e-07 5.8858 3.98394e-07C6.00206 3.93313e-07 6.11717 0.0217728 6.22449 0.0640625C6.33181 0.106352 6.42921 0.168322 6.51108 0.246397Z" fill="#374957"/>
</svg>
