<svg width="20" height="20" viewBox="0 0 20 20" fill="none" xmlns="http://www.w3.org/2000/svg">
<path d="M0.731214 11.6598L3.95657 14.7651C4.03405 14.8395 4.12622 14.8986 4.22778 14.9389C4.32935 14.9792 4.43828 15 4.5483 15C4.65832 15 4.76726 14.9792 4.86882 14.9389C4.97038 14.8986 5.06255 14.8395 5.14003 14.7651C5.21815 14.6913 5.28015 14.6034 5.32246 14.5066C5.36477 14.4099 5.38656 14.3061 5.38656 14.2012C5.38656 14.0964 5.36477 13.9926 5.32246 13.8958C5.28015 13.799 5.21815 13.7112 5.14003 13.6373L2.17304 10.7942H19.1666C19.3876 10.7942 19.5996 10.7105 19.7559 10.5616C19.9122 10.4126 20 10.2106 20 10C20 9.78937 19.9122 9.58737 19.7559 9.43843C19.5996 9.28949 19.3876 9.20582 19.1666 9.20582H2.12303L5.14003 6.33089C5.28779 6.18319 5.37022 5.98696 5.37022 5.7829C5.37022 5.57884 5.28779 5.38262 5.14003 5.23492C5.06255 5.16048 4.97038 5.1014 4.86882 5.06108C4.76726 5.02076 4.65832 5 4.5483 5C4.43828 5 4.32935 5.02076 4.22778 5.06108C4.12622 5.1014 4.03405 5.16048 3.95657 5.23492L0.731214 8.29251C0.262994 8.73924 0 9.3448 0 9.97617C0 10.6075 0.262994 11.2131 0.731214 11.6598Z" fill="#374957"/>
</svg>
