<svg width="30" height="30" viewBox="0 0 30 30" fill="none" xmlns="http://www.w3.org/2000/svg">
<path d="M28.2724 17.0727L25.9141 8.52869C25.2228 6.02565 23.7205 3.82709 21.6459 2.2825C19.5713 0.737903 17.0435 -0.064088 14.4642 0.00400433C11.885 0.0720967 9.4024 1.00636 7.41103 2.6583C5.41965 4.31024 4.0338 6.58504 3.47374 9.12113L1.64788 17.3889C1.4462 18.3025 1.45086 19.25 1.66153 20.1615C1.87219 21.073 2.28348 21.9252 2.86502 22.6553C3.44656 23.3853 4.18351 23.9745 5.02146 24.3793C5.8594 24.7842 6.77695 24.9943 7.70636 24.9943H9.0891C9.37398 26.407 10.1351 27.6771 11.2436 28.5894C12.352 29.5016 13.7396 30 15.1712 30C16.6027 30 17.9903 29.5016 19.0988 28.5894C20.2072 27.6771 20.9683 26.407 21.2532 24.9943H22.2934C23.2501 24.9944 24.194 24.7717 25.0511 24.3437C25.9083 23.9157 26.6555 23.2939 27.2345 22.5269C27.8135 21.76 28.2086 20.8686 28.3889 19.9224C28.5691 18.9763 28.5297 18.001 28.2737 17.0727H28.2724ZM15.1712 27.494C14.4038 27.4908 13.6561 27.2489 13.0304 26.8015C12.4047 26.354 11.9316 25.7229 11.6758 24.9943H18.6665C18.4107 25.7229 17.9376 26.354 17.3119 26.8015C16.6863 27.2489 15.9386 27.4908 15.1712 27.494ZM25.2575 21.0135C24.9116 21.4755 24.4635 21.85 23.9487 22.1071C23.4339 22.3642 22.8667 22.4969 22.2921 22.4946H7.70636C7.14878 22.4945 6.59834 22.3683 6.09566 22.1254C5.59298 21.8824 5.15091 21.5289 4.80207 21.0909C4.45323 20.6529 4.20652 20.1416 4.08016 19.5947C3.95381 19.0479 3.95102 18.4794 4.07202 17.9314L5.89664 9.66231C6.33647 7.6703 7.42498 5.8835 8.98913 4.58596C10.5533 3.28841 12.5033 2.55459 14.5292 2.50115C16.555 2.44771 18.5405 3.07772 20.17 4.29102C21.7995 5.50432 22.9794 7.23128 23.5222 9.19737L25.8806 17.7414C26.0364 18.298 26.0612 18.8836 25.953 19.4516C25.8449 20.0196 25.6067 20.5544 25.2575 21.0135Z" fill="#6543f5"/>
</svg>
