<svg width="18" height="24" viewBox="0 0 18 24" fill="none" xmlns="http://www.w3.org/2000/svg">
<path d="M14.9993 2.28833C13.7787 1.19787 12.2839 0.460913 10.6756 0.156761C9.06739 -0.147391 7.40666 -0.00722033 5.87216 0.562189C4.33765 1.1316 2.98748 2.10869 1.96693 3.3883C0.946383 4.66792 0.294108 6.20161 0.0802996 7.82433C-0.111721 9.24718 0.0418512 10.6953 0.528018 12.0463C1.01419 13.3972 1.81864 14.6111 2.8733 15.5853C3.5255 16.1573 4.05178 16.8584 4.41878 17.6444C4.78579 18.4304 4.98551 19.2841 5.0053 20.1513V20.3123C5.00636 21.2907 5.39546 22.2286 6.08724 22.9204C6.77903 23.6122 7.71698 24.0013 8.6953 24.0023H9.3153C10.2936 24.0013 11.2316 23.6122 11.9234 22.9204C12.6151 22.2286 13.0042 21.2907 13.0053 20.3123V19.7633C13.0203 18.9968 13.2007 18.2425 13.5341 17.5522C13.8676 16.8618 14.3462 16.2516 14.9373 15.7633C15.8959 14.9238 16.6651 13.8901 17.1941 12.7308C17.723 11.5715 17.9996 10.3131 18.0054 9.0388C18.0113 7.76455 17.7463 6.5036 17.2281 5.33949C16.7098 4.17537 15.9501 3.13467 14.9993 2.28633V2.28833ZM9.3153 22.0023H8.6953C8.24725 22.0018 7.8177 21.8236 7.50087 21.5068C7.18405 21.1899 7.00583 20.7604 7.0053 20.3123C7.0053 20.3123 6.9983 20.0523 6.9973 20.0023H11.0053V20.3123C11.0048 20.7604 10.8265 21.1899 10.5097 21.5068C10.1929 21.8236 9.76335 22.0018 9.3153 22.0023ZM13.6153 14.2613C12.4767 15.2489 11.6545 16.5501 11.2513 18.0023H10.0053V10.8183C10.5882 10.6122 11.0932 10.2311 11.4512 9.72703C11.8092 9.22296 12.0027 8.62059 12.0053 8.00233C12.0053 7.73711 11.8999 7.48276 11.7124 7.29522C11.5249 7.10769 11.2705 7.00233 11.0053 7.00233C10.7401 7.00233 10.4857 7.10769 10.2982 7.29522C10.1107 7.48276 10.0053 7.73711 10.0053 8.00233C10.0053 8.26755 9.89994 8.5219 9.71241 8.70944C9.52487 8.89697 9.27052 9.00233 9.0053 9.00233C8.74008 9.00233 8.48573 8.89697 8.29819 8.70944C8.11066 8.5219 8.0053 8.26755 8.0053 8.00233C8.0053 7.73711 7.89994 7.48276 7.71241 7.29522C7.52487 7.10769 7.27052 7.00233 7.0053 7.00233C6.74008 7.00233 6.48573 7.10769 6.29819 7.29522C6.11066 7.48276 6.0053 7.73711 6.0053 8.00233C6.00786 8.62059 6.20138 9.22296 6.55939 9.72703C6.91739 10.2311 7.42239 10.6122 8.0053 10.8183V18.0023H6.6833C6.23229 16.5115 5.38642 15.1705 4.2353 14.1213C3.25825 13.2109 2.56202 12.04 2.22877 10.7468C1.89551 9.4536 1.93914 8.09205 2.35451 6.82282C2.76987 5.5536 3.53964 4.42968 4.57297 3.58369C5.60629 2.73771 6.86006 2.20496 8.1863 2.04833C8.46123 2.01764 8.73766 2.00228 9.0143 2.00233C10.7319 1.99722 12.39 2.63095 13.6663 3.78033C14.406 4.43993 14.997 5.24922 15.4002 6.15455C15.8035 7.05989 16.0096 8.04059 16.0051 9.03165C16.0005 10.0227 15.7854 11.0015 15.3739 11.9031C14.9624 12.8047 14.364 13.6085 13.6183 14.2613H13.6153Z" fill="#85878A"/>
</svg>
