<svg width="20" height="20" viewBox="0 0 20 20" fill="none" xmlns="http://www.w3.org/2000/svg">
<path d="M18.775 2.89167C17.9917 2.10833 16.9333 1.675 15.8333 1.66667H15V0.833333C15 0.608333 14.9083 0.4 14.7583 0.241667C14.6 0.0833333 14.3917 0 14.1667 0C13.9417 0 13.7333 0.0916667 13.575 0.241667C13.4167 0.4 13.3333 0.608333 13.3333 0.833333V1.66667H6.66667V0.833333C6.66667 0.608333 6.575 0.4 6.425 0.241667C6.26667 0.0833333 6.05833 0 5.83333 0C5.60833 0 5.4 0.0916667 5.24167 0.241667C5.08333 0.4 5 0.608333 5 0.833333V1.66667H4.16667C3.05833 1.66667 2 2.10833 1.225 2.89167C0.45 3.675 0 4.725 0 5.83333V15.8333C0 16.9417 0.441667 18 1.225 18.775C2.00833 19.5583 3.06667 19.9917 4.16667 20H15.8333C16.9417 20 18 19.5583 18.775 18.775C19.5583 17.9917 19.9917 16.9333 20 15.8333V5.83333C20 4.725 19.5583 3.66667 18.775 2.89167ZM18.3333 15.8333C18.3333 16.5 18.0667 17.1333 17.6 17.6C17.1333 18.0667 16.4917 18.3333 15.8333 18.3333H4.16667C3.5 18.3333 2.86667 18.0667 2.4 17.6C1.93333 17.1333 1.66667 16.4917 1.66667 15.8333V8.33333H18.3333V15.8333ZM18.3333 6.66667H1.66667V5.83333C1.66667 5.16667 1.93333 4.53333 2.4 4.06667C2.86667 3.6 3.50833 3.33333 4.16667 3.33333H15.8333C16.5 3.33333 17.1333 3.6 17.6 4.06667C18.0667 4.53333 18.3333 5.175 18.3333 5.83333V6.66667ZM8.75 12.5C8.75 11.8083 9.30833 11.25 10 11.25C10.6917 11.25 11.25 11.8083 11.25 12.5C11.25 13.1917 10.6917 13.75 10 13.75C9.30833 13.75 8.75 13.1917 8.75 12.5ZM4.58333 12.5C4.58333 11.8083 5.14167 11.25 5.83333 11.25C6.525 11.25 7.08333 11.8083 7.08333 12.5C7.08333 13.1917 6.525 13.75 5.83333 13.75C5.14167 13.75 4.58333 13.1917 4.58333 12.5ZM12.9167 12.5C12.9167 11.8083 13.475 11.25 14.1667 11.25C14.8583 11.25 15.4167 11.8083 15.4167 12.5C15.4167 13.1917 14.8583 13.75 14.1667 13.75C13.475 13.75 12.9167 13.1917 12.9167 12.5Z" fill="#85878A"/>
</svg>
