<svg width="24" height="22" viewBox="0 0 24 22" fill="none" xmlns="http://www.w3.org/2000/svg">
<path d="M21.0112 11.4243V9.99852C21.0112 7.6086 20.0618 5.31656 18.3719 3.62663C16.682 1.9367 14.3899 0.987305 12 0.987305C9.61007 0.987305 7.31804 1.9367 5.6281 3.62663C3.93817 5.31656 2.98878 7.6086 2.98878 9.99852V11.4243C1.93863 11.8867 1.0792 12.6958 0.55437 13.7162C0.0295374 14.7366 -0.128841 15.9063 0.105747 17.0295C0.340336 18.1527 0.953653 19.1613 1.84302 19.8863C2.73239 20.6113 3.84383 21.0088 4.99127 21.0122C5.52237 21.0122 6.03171 20.8013 6.40725 20.4257C6.78279 20.0502 6.99377 19.5408 6.99377 19.0097V13.0023C6.99377 12.4712 6.78279 11.9618 6.40725 11.5863C6.03171 11.2107 5.52237 10.9998 4.99127 10.9998V9.99852C4.99127 8.1397 5.72969 6.357 7.04408 5.04261C8.35847 3.72821 10.1412 2.9898 12 2.9898C13.8588 2.9898 15.6415 3.72821 16.9559 5.04261C18.2703 6.357 19.0087 8.1397 19.0087 9.99852V10.9998C18.4776 10.9998 17.9683 11.2107 17.5928 11.5863C17.2172 11.9618 17.0062 12.4712 17.0062 13.0023V19.0097H14.0025C13.7369 19.0097 13.4823 19.1152 13.2945 19.303C13.1067 19.4908 13.0012 19.7454 13.0012 20.011C13.0012 20.2765 13.1067 20.5312 13.2945 20.719C13.4823 20.9068 13.7369 21.0122 14.0025 21.0122H19.0087C20.1562 21.0088 21.2676 20.6113 22.157 19.8863C23.0463 19.1613 23.6597 18.1527 23.8943 17.0295C24.1288 15.9063 23.9705 14.7366 23.4456 13.7162C22.9208 12.6958 22.0614 11.8867 21.0112 11.4243ZM4.99127 19.0097C4.19463 19.0097 3.43062 18.6933 2.86731 18.13C2.304 17.5667 1.98753 16.8026 1.98753 16.006C1.98753 15.2094 2.304 14.4454 2.86731 13.882C3.43062 13.3187 4.19463 13.0023 4.99127 13.0023V19.0097ZM19.0087 19.0097V13.0023C19.8054 13.0023 20.5694 13.3187 21.1327 13.882C21.696 14.4454 22.0125 15.2094 22.0125 16.006C22.0125 16.8026 21.696 17.5667 21.1327 18.13C20.5694 18.6933 19.8054 19.0097 19.0087 19.0097Z" fill="#374957"/>
</svg>
