<svg width="15" height="15" viewBox="0 0 15 15" fill="none" xmlns="http://www.w3.org/2000/svg">
<path d="M14.817 0.182995C14.6998 0.0658233 14.5409 0 14.3751 0C14.2094 0 14.0504 0.0658233 13.9332 0.182995L7.5 6.61623L1.06676 0.182995C0.949554 0.0658233 0.790608 0 0.624878 0C0.459147 0 0.300202 0.0658233 0.182995 0.182995C0.0658233 0.300202 0 0.459147 0 0.624878C0 0.790608 0.0658233 0.949554 0.182995 1.06676L6.61623 7.5L0.182995 13.9332C0.0658233 14.0504 0 14.2094 0 14.3751C0 14.5409 0.0658233 14.6998 0.182995 14.817C0.300202 14.9342 0.459147 15 0.624878 15C0.790608 15 0.949554 14.9342 1.06676 14.817L7.5 8.38377L13.9332 14.817C14.0504 14.9342 14.2094 15 14.3751 15C14.5409 15 14.6998 14.9342 14.817 14.817C14.9342 14.6998 15 14.5409 15 14.3751C15 14.2094 14.9342 14.0504 14.817 13.9332L8.38377 7.5L14.817 1.06676C14.9342 0.949554 15 0.790608 15 0.624878C15 0.459147 14.9342 0.300202 14.817 0.182995Z" fill="#FE5000"/>
</svg>
