<svg width="30" height="30" viewBox="0 0 30 30" fill="none" xmlns="http://www.w3.org/2000/svg">
<path d="M8.75 0H5C3.67 0 2.4 0.53 1.46 1.46C0.52 2.39 0 3.67 0 5V8.75C0 10.08 0.53 11.35 1.46 12.29C2.4 13.23 3.67 13.75 5 13.75H8.75C10.08 13.75 11.35 13.22 12.29 12.29C13.23 11.35 13.75 10.08 13.75 8.75V5C13.75 3.67 13.22 2.4 12.29 1.46C11.35 0.52 10.08 0 8.75 0ZM11.25 8.75C11.25 9.41 10.99 10.05 10.52 10.52C10.05 10.99 9.42 11.25 8.75 11.25H5C4.34 11.25 3.7 10.99 3.23 10.52C2.76 10.05 2.5 9.42 2.5 8.75V5C2.5 4.34 2.76 3.7 3.23 3.23C3.7 2.76 4.33 2.5 5 2.5H8.75C9.41 2.5 10.05 2.76 10.52 3.23C10.99 3.7 11.25 4.33 11.25 5V8.75ZM28.54 1.46C27.6 0.52 26.33 0 25 0H21.25C19.92 0 18.65 0.53 17.71 1.46C16.77 2.4 16.25 3.67 16.25 5V8.75C16.25 10.08 16.78 11.35 17.71 12.29C18.65 13.23 19.92 13.75 21.25 13.75H25C26.33 13.75 27.6 13.22 28.54 12.29C29.48 11.35 30 10.08 30 8.75V5C30 3.67 29.47 2.4 28.54 1.46ZM27.5 8.75C27.5 9.41 27.24 10.05 26.77 10.52C26.3 10.99 25.67 11.25 25 11.25H21.25C20.59 11.25 19.95 10.99 19.48 10.52C19.01 10.05 18.75 9.42 18.75 8.75V5C18.75 4.34 19.01 3.7 19.48 3.23C19.95 2.76 20.58 2.5 21.25 2.5H25C25.66 2.5 26.3 2.76 26.77 3.23C27.24 3.7 27.5 4.33 27.5 5V8.75ZM8.75 16.25H5C3.67 16.25 2.4 16.78 1.46 17.71C0.52 18.65 0 19.92 0 21.25V25C0 26.33 0.53 27.6 1.46 28.54C2.4 29.48 3.67 30 5 30H8.75C10.08 30 11.35 29.47 12.29 28.54C13.23 27.6 13.75 26.33 13.75 25V21.25C13.75 19.92 13.22 18.65 12.29 17.71C11.35 16.77 10.08 16.25 8.75 16.25ZM11.25 25C11.25 25.66 10.99 26.3 10.52 26.77C10.05 27.24 9.42 27.5 8.75 27.5H5C4.34 27.5 3.7 27.24 3.23 26.77C2.76 26.3 2.5 25.67 2.5 25V21.25C2.5 20.59 2.76 19.95 3.23 19.48C3.7 19.01 4.33 18.75 5 18.75H8.75C9.41 18.75 10.05 19.01 10.52 19.48C10.99 19.95 11.25 20.58 11.25 21.25V25ZM25 16.25H21.25C19.92 16.25 18.65 16.78 17.71 17.71C16.77 18.65 16.25 19.92 16.25 21.25V25C16.25 26.33 16.78 27.6 17.71 28.54C18.64 29.48 19.92 30 21.25 30H25C26.33 30 27.6 29.47 28.54 28.54C29.48 27.6 30 26.33 30 25V21.25C30 19.92 29.47 18.65 28.54 17.71C27.61 16.77 26.33 16.25 25 16.25ZM27.5 25C27.5 25.66 27.24 26.3 26.77 26.77C26.3 27.24 25.67 27.5 25 27.5H21.25C20.59 27.5 19.95 27.24 19.48 26.77C19.01 26.3 18.75 25.67 18.75 25V21.25C18.75 20.59 19.01 19.95 19.48 19.48C19.95 19.01 20.58 18.75 21.25 18.75H25C25.66 18.75 26.3 19.01 26.77 19.48C27.24 19.95 27.5 20.58 27.5 21.25V25Z" fill="#374957"/>
</svg>
