<svg width="10" height="10" viewBox="0 0 10 10" fill="none" xmlns="http://www.w3.org/2000/svg">
<path d="M8.53691 1.46726C7.59904 0.529379 6.32769 0 5.00216 0C4.01427 0 3.04721 0.291784 2.22188 0.842004C1.40072 1.39223 0.758793 2.17587 0.379474 3.08874C0.000154935 4.00161 -0.0957168 5.00618 0.0960267 5.9774C0.28777 6.94862 0.767129 7.84064 1.46324 8.53676C2.15935 9.23287 3.05555 9.71223 4.0226 9.90397C4.98966 10.0957 5.99839 9.99984 6.91126 9.62053C7.82413 9.24121 8.60777 8.59928 9.158 7.77812C9.70822 6.95696 10 5.9899 10 4.99784C10 3.67231 9.47062 2.40096 8.53274 1.46309L8.53691 1.46726ZM6.6695 6.08161C6.74453 6.1608 6.78621 6.26501 6.78621 6.37339C6.78621 6.48177 6.74036 6.58598 6.66533 6.66517C6.58613 6.74437 6.48192 6.78606 6.37355 6.78606C6.26517 6.78606 6.16096 6.74437 6.08176 6.66934L5.00216 5.58974L3.92256 6.66934C3.84336 6.74437 3.73915 6.78606 3.63078 6.78606C3.5224 6.78606 3.41819 6.7402 3.33899 6.66517C3.2598 6.59014 3.21811 6.48177 3.21811 6.37339C3.21811 6.26501 3.2598 6.1608 3.33483 6.08161L4.41443 5.00201L3.33483 3.92241C3.2598 3.84321 3.21811 3.739 3.21811 3.63062C3.21811 3.52225 3.26396 3.41804 3.33899 3.33884C3.41402 3.25964 3.5224 3.21796 3.63078 3.21796C3.73915 3.21796 3.84336 3.25964 3.92256 3.33467L5.00216 4.41427L6.08176 3.33467C6.16096 3.25547 6.26517 3.21379 6.37771 3.21379C6.49026 3.21379 6.59447 3.25964 6.67367 3.33467C6.75286 3.4097 6.79455 3.51808 6.79455 3.63062C6.79455 3.74317 6.7487 3.84738 6.67367 3.92658L5.59407 5.00618L6.67367 6.08577L6.6695 6.08161Z" fill="#BDC2C5"/>
</svg>
