<svg width="20" height="20" viewBox="0 0 20 20" fill="none" xmlns="http://www.w3.org/2000/svg">
<path d="M11.1389 10L19.7403 1.39C20.0599 1.07 20.0599 0.55 19.7403 0.24C19.4206 -0.08 18.9011 -0.08 18.5914 0.24L9.99001 8.85L1.38861 0.24C1.06893 -0.08 0.549451 -0.08 0.23976 0.24C-0.0799201 0.56 -0.0799201 1.08 0.23976 1.39L8.84116 10L0.23976 18.61C-0.0799201 18.93 -0.0799201 19.45 0.23976 19.76C0.3996 19.92 0.609391 20 0.819181 20C1.02897 20 1.23876 19.92 1.3986 19.76L10 11.15L18.6014 19.76C18.7612 19.92 18.971 20 19.1808 20C19.3906 20 19.6004 19.92 19.7602 19.76C20.0799 19.44 20.0799 18.92 19.7602 18.61L11.1588 10H11.1389Z" fill="#374957"/>
</svg>
