<svg width="14" height="14" viewBox="0 0 14 14" fill="none" xmlns="http://www.w3.org/2000/svg">
<path d="M7 0C5.61553 0 4.26215 0.410543 3.11101 1.17971C1.95987 1.94888 1.06266 3.04213 0.532846 4.32122C0.003033 5.6003 -0.13559 7.00776 0.134506 8.36563C0.404603 9.7235 1.07129 10.9708 2.05026 11.9497C3.02922 12.9287 4.2765 13.5954 5.63437 13.8655C6.99224 14.1356 8.3997 13.997 9.67879 13.4672C10.9579 12.9373 12.0511 12.0401 12.8203 10.889C13.5895 9.73785 14 8.38447 14 7C13.998 5.1441 13.2599 3.36479 11.9475 2.05247C10.6352 0.74015 8.8559 0.0020073 7 0V0ZM7.58333 12.8036V11.6667C7.58333 11.512 7.52188 11.3636 7.41248 11.2542C7.30308 11.1448 7.15471 11.0833 7 11.0833C6.84529 11.0833 6.69692 11.1448 6.58752 11.2542C6.47813 11.3636 6.41667 11.512 6.41667 11.6667V12.8036C5.0786 12.6673 3.82852 12.0736 2.87748 11.1225C1.92643 10.1715 1.33266 8.9214 1.19642 7.58333H2.33334C2.48805 7.58333 2.63642 7.52187 2.74581 7.41248C2.85521 7.30308 2.91667 7.15471 2.91667 7C2.91667 6.84529 2.85521 6.69692 2.74581 6.58752C2.63642 6.47812 2.48805 6.41667 2.33334 6.41667H1.19642C1.33266 5.0786 1.92643 3.82852 2.87748 2.87747C3.82852 1.92642 5.0786 1.33266 6.41667 1.19642V2.33333C6.41667 2.48804 6.47813 2.63642 6.58752 2.74581C6.69692 2.85521 6.84529 2.91667 7 2.91667C7.15471 2.91667 7.30308 2.85521 7.41248 2.74581C7.52188 2.63642 7.58333 2.48804 7.58333 2.33333V1.19642C8.9214 1.33266 10.1715 1.92642 11.1225 2.87747C12.0736 3.82852 12.6673 5.0786 12.8036 6.41667H11.6667C11.512 6.41667 11.3636 6.47812 11.2542 6.58752C11.1448 6.69692 11.0833 6.84529 11.0833 7C11.0833 7.15471 11.1448 7.30308 11.2542 7.41248C11.3636 7.52187 11.512 7.58333 11.6667 7.58333H12.8036C12.6673 8.9214 12.0736 10.1715 11.1225 11.1225C10.1715 12.0736 8.9214 12.6673 7.58333 12.8036ZM9.33333 7C9.33333 7.15471 9.27188 7.30308 9.16248 7.41248C9.05308 7.52187 8.90471 7.58333 8.75 7.58333H7.58333V8.75C7.58333 8.90471 7.52188 9.05308 7.41248 9.16248C7.30308 9.27187 7.15471 9.33333 7 9.33333C6.84529 9.33333 6.69692 9.27187 6.58752 9.16248C6.47813 9.05308 6.41667 8.90471 6.41667 8.75V7.58333H5.25C5.09529 7.58333 4.94692 7.52187 4.83752 7.41248C4.72813 7.30308 4.66667 7.15471 4.66667 7C4.66667 6.84529 4.72813 6.69692 4.83752 6.58752C4.94692 6.47812 5.09529 6.41667 5.25 6.41667H6.41667V5.25C6.41667 5.09529 6.47813 4.94692 6.58752 4.83752C6.69692 4.72812 6.84529 4.66667 7 4.66667C7.15471 4.66667 7.30308 4.72812 7.41248 4.83752C7.52188 4.94692 7.58333 5.09529 7.58333 5.25V6.41667H8.75C8.90471 6.41667 9.05308 6.47812 9.16248 6.58752C9.27188 6.69692 9.33333 6.84529 9.33333 7Z" fill="#2568F2"/>
</svg>
