<svg width="20" height="20" viewBox="0 0 20 20" fill="none" xmlns="http://www.w3.org/2000/svg">
<path d="M17.5093 10.3604V9.15C17.5093 7.12109 16.7182 5.17529 15.3099 3.74063C13.9016 2.30598 11.9916 1.5 10 1.5C8.0084 1.5 6.09836 2.30598 4.69009 3.74063C3.28181 5.17529 2.49065 7.12109 2.49065 9.15V10.3604C1.61553 10.753 0.899335 11.4399 0.461975 12.3061C0.0246145 13.1724 -0.107368 14.1654 0.0881227 15.1189C0.283613 16.0724 0.794711 16.9286 1.53585 17.5441C2.27699 18.1596 3.20319 18.4971 4.15939 18.5C4.60197 18.5 5.02642 18.3209 5.33937 18.0021C5.65233 17.6833 5.82814 17.2509 5.82814 16.8V11.7C5.82814 11.2491 5.65233 10.8167 5.33937 10.4979C5.02642 10.1791 4.60197 10 4.15939 10V9.15C4.15939 7.57196 4.77474 6.05856 5.87007 4.94271C6.96539 3.82687 8.45098 3.2 10 3.2C11.549 3.2 13.0346 3.82687 14.1299 4.94271C15.2253 6.05856 15.8406 7.57196 15.8406 9.15V10C15.398 10 14.9736 10.1791 14.6606 10.4979C14.3477 10.8167 14.1719 11.2491 14.1719 11.7V16.8H11.6687C11.4475 16.8 11.2352 16.8896 11.0788 17.049C10.9223 17.2084 10.8344 17.4246 10.8344 17.65C10.8344 17.8754 10.9223 18.0916 11.0788 18.251C11.2352 18.4104 11.4475 18.5 11.6687 18.5H15.8406C16.7968 18.4971 17.723 18.1596 18.4641 17.5441C19.2053 16.9286 19.7164 16.0724 19.9119 15.1189C20.1074 14.1654 19.9754 13.1724 19.538 12.3061C19.1007 11.4399 18.3845 10.753 17.5093 10.3604ZM4.15939 16.8C3.49553 16.8 2.85885 16.5313 2.38942 16.0531C1.92 15.5749 1.65628 14.9263 1.65628 14.25C1.65628 13.5737 1.92 12.9251 2.38942 12.4469C2.85885 11.9687 3.49553 11.7 4.15939 11.7V16.8ZM15.8406 16.8V11.7C16.5045 11.7 17.1412 11.9687 17.6106 12.4469C18.08 12.9251 18.3437 13.5737 18.3437 14.25C18.3437 14.9263 18.08 15.5749 17.6106 16.0531C17.1412 16.5313 16.5045 16.8 15.8406 16.8Z" fill="#374957"/>
</svg>
