<svg width="20" height="21" viewBox="0 0 20 21" fill="none" xmlns="http://www.w3.org/2000/svg">
<path d="M17.0737 3.42805H17.0537C15.1737 1.55805 12.6337 0.498047 9.98371 0.498047C8.00371 0.498047 6.07371 1.08805 4.42371 2.18805C2.77371 3.28805 1.50371 4.84805 0.74371 6.66805C0.00371033 8.49805 -0.18629 10.508 0.18371 12.448C0.56371 14.388 1.52371 16.168 2.92371 17.568C4.32371 18.968 6.10371 19.918 8.04371 20.308C9.98371 20.698 11.9937 20.498 13.8237 19.738C15.6537 18.978 17.2137 17.698 18.3137 16.058C19.4137 14.418 20.0037 12.478 20.0037 10.498C20.0037 7.84805 18.9437 5.30805 17.0737 3.42805ZM15.8637 16.388C14.3037 17.948 12.1837 18.828 9.97371 18.828C8.32371 18.828 6.71371 18.338 5.34371 17.428C3.97371 16.508 2.90371 15.208 2.27371 13.688C1.64371 12.168 1.47371 10.488 1.80371 8.87805C2.13371 7.26805 2.92371 5.77805 4.08371 4.60805C5.24371 3.43805 6.73371 2.64805 8.35371 2.32805C9.97371 2.00805 11.6437 2.16805 13.1637 2.79805C14.6837 3.42805 15.9837 4.49805 16.9037 5.86805C17.8237 7.23805 18.3037 8.84805 18.3037 10.498C18.3037 12.708 17.4237 14.828 15.8637 16.388ZM16.1637 12.028C16.1637 11.888 16.1637 11.798 16.1437 11.748C16.1137 11.608 16.1037 11.578 16.0637 11.508C15.9537 11.268 15.7737 11.088 15.5437 10.998L15.4537 10.968H14.7237V9.97805H15.2037C15.6237 9.97805 15.7037 9.97805 15.7437 9.98805C15.8837 10.028 15.9737 10.088 16.0837 10.188L16.1537 10.258V10.088C16.1537 9.88805 16.1537 9.79805 16.1137 9.66805C16.0337 9.39805 15.8837 9.19805 15.6637 9.06805C15.5237 8.98805 15.5137 8.98805 15.0237 8.97805C14.7337 8.97805 14.5837 8.97805 14.5737 8.96805V8.94805C14.5737 8.94805 14.5537 8.86805 14.5337 8.78805C14.2837 7.83805 13.7937 7.07805 13.0937 6.52805C12.9937 6.44805 12.7637 6.28805 12.6637 6.23805C12.6337 6.21805 12.5837 6.19805 12.5737 6.17805C12.5337 6.15805 12.2637 6.00805 12.2037 5.98805C12.1637 5.96805 12.1137 5.94805 12.0937 5.92805C11.7037 5.74805 11.0637 5.58805 10.5537 5.53805C10.4737 5.53805 10.3637 5.51805 10.3137 5.51805C10.0937 5.49805 9.77371 5.48805 8.01371 5.48805C6.51371 5.48805 6.14371 5.48805 6.15371 5.49805C6.15371 5.49805 6.18371 5.52805 6.21371 5.56805C6.38371 5.77805 6.51371 6.10805 6.57371 6.54805C6.61371 6.82805 6.61371 6.91805 6.61371 7.98805V8.98805H6.15371C5.73371 8.98805 5.68371 8.98805 5.60371 8.96805C5.47371 8.93805 5.34371 8.85805 5.25371 8.76805C5.18371 8.68805 5.18371 8.67805 5.18371 8.92805C5.18371 9.12805 5.18371 9.14805 5.21371 9.25805C5.25371 9.42805 5.31371 9.55805 5.41371 9.66805C5.53371 9.82805 5.66371 9.90805 5.84371 9.96805C5.87371 9.97805 5.96371 9.97805 6.25371 9.98805H6.61371V10.988H5.60371L5.51371 10.958C5.41371 10.918 5.36371 10.878 5.26371 10.788L5.18371 10.718V10.938C5.18371 11.138 5.18371 11.158 5.21371 11.268C5.31371 11.638 5.54371 11.888 5.84371 11.978C5.92371 11.998 5.95371 11.998 6.26371 11.998H6.60371V14.178C6.60371 14.248 6.58371 14.378 6.57371 14.478C6.50371 14.908 6.37371 15.228 6.18371 15.438L6.15371 15.478H10.0837C10.2937 15.468 10.7737 15.418 10.8837 15.388C10.9137 15.388 10.9837 15.368 11.0237 15.368C11.1137 15.358 11.2537 15.328 11.4737 15.268C11.7737 15.188 12.0437 15.088 12.3137 14.968C12.4037 14.928 12.6337 14.798 12.7037 14.758C12.7337 14.738 12.7837 14.718 12.7937 14.698C12.8337 14.678 12.9037 14.618 13.0137 14.538C13.0737 14.498 13.1137 14.458 13.1237 14.448C13.1637 14.418 13.3337 14.278 13.4037 14.208C13.6837 13.938 13.9137 13.638 14.0837 13.328C14.1037 13.288 14.1437 13.228 14.1637 13.208C14.1937 13.138 14.3537 12.818 14.3637 12.778C14.3637 12.758 14.3737 12.738 14.3837 12.738C14.4137 12.698 14.5837 12.158 14.5937 12.038C14.5937 12.008 14.5937 11.998 14.6237 11.998H15.1937C15.5937 11.998 15.8337 12.018 15.9237 12.068C16.0037 12.098 16.0237 12.128 16.1037 12.198C16.2137 12.298 16.2037 12.308 16.1937 12.068V12.008L16.1637 12.028ZM8.01371 7.48805V5.98805H8.03371V5.96805H9.76371C10.1337 5.98805 10.3737 6.02805 10.6337 6.08805C11.4437 6.28805 12.0237 6.71805 12.4337 7.42805C12.4637 7.49805 12.6337 7.83805 12.6537 7.91805C12.7637 8.23805 12.8337 8.43805 12.8737 8.69805C12.8837 8.76805 12.9037 8.83805 12.9037 8.88805V8.96805H8.00371V7.49805L8.01371 7.48805ZM12.8637 12.358C12.7937 12.618 12.7237 12.878 12.6337 13.068C12.5937 13.168 12.4937 13.378 12.4537 13.418C12.4437 13.438 12.4137 13.498 12.3737 13.548C12.1737 13.868 11.8937 14.168 11.5737 14.378C11.4537 14.458 11.2137 14.588 11.1437 14.608C11.1337 14.608 11.1237 14.608 11.1137 14.618C11.1137 14.618 11.0037 14.658 10.8937 14.708C10.6837 14.788 10.2637 14.878 9.94371 14.908C9.73371 14.928 9.70371 14.928 8.87371 14.928H8.02371V11.948H10.4537C11.7837 11.948 12.8937 11.948 12.8937 11.938C12.8937 11.938 12.9137 11.938 12.9137 11.948C12.9137 11.948 12.8937 12.108 12.8337 12.338H12.8437L12.8637 12.358ZM13.0537 10.938V10.958H8.04371V9.96805H13.0537V9.99805C13.0537 9.99805 13.0637 10.888 13.0537 10.928V10.938Z" fill="#374957"/>
</svg>
