<svg width="20" height="21" viewBox="0 0 20 21" fill="none" xmlns="http://www.w3.org/2000/svg">
<path d="M12.3662 8.47L9.03452 13.47C8.87444 13.71 8.6043 13.84 8.34417 13.84C8.18409 13.84 8.02401 13.8 7.88394 13.7C7.50375 13.45 7.3937 12.93 7.65383 12.54L10.9855 7.54C11.2456 7.16 11.7559 7.05 12.1461 7.31C12.5263 7.57 12.6363 8.08 12.3762 8.47H12.3662ZM8.33417 8.01C8.33417 7.55 7.96398 7.18 7.50375 7.18C7.04352 7.18 6.67334 7.55 6.67334 8.01C6.67334 8.47 7.04352 8.84 7.50375 8.84C7.96398 8.84 8.33417 8.47 8.33417 8.01ZM18.3792 14.02C18.5293 15.3 18.039 16.63 17.0785 17.58C16.1181 18.54 14.7974 19.02 13.4467 18.9C12.6463 19.91 11.3657 20.5 10.005 20.5C8.64432 20.5 7.37369 19.91 6.49325 18.87C5.21261 19.02 3.88194 18.53 2.93147 17.57C1.97099 16.61 1.49075 15.29 1.6008 13.94C0.590295 13.14 0 11.86 0 10.5C0 9.14 0.590295 7.87 1.63082 6.99C1.48074 5.71 1.97099 4.38 2.93147 3.43C3.89195 2.47 5.21261 1.99 6.56328 2.1C7.36368 1.09 8.64432 0.5 10.005 0.5C11.3657 0.5 12.6363 1.09 13.5168 2.13C14.7974 1.98 16.1281 2.47 17.0785 3.43C18.039 4.39 18.5193 5.71 18.3992 7.07C19.4097 7.87 20 9.15 20 10.51C20 11.87 19.4097 13.14 18.3692 14.02H18.3792ZM18.3392 10.51C18.3392 9.65 17.959 8.83 17.2986 8.28C16.8984 7.94 16.6983 7.45 16.7384 6.93C16.8084 6.07 16.5083 5.23 15.8979 4.62C15.2876 4.01 14.4372 3.71 13.5868 3.78C13.0665 3.83 12.5763 3.62 12.2361 3.22C11.6758 2.56 10.8654 2.18 10.005 2.18C9.14457 2.18 8.32416 2.56 7.77389 3.22C7.43372 3.62 6.94347 3.82 6.42321 3.78C5.55278 3.7 4.72236 4.01 4.11206 4.62C3.50175 5.23 3.1916 6.07 3.27164 6.93C3.31166 7.45 3.11156 7.94 2.71136 8.28C2.05103 8.84 1.67084 9.65 1.67084 10.51C1.67084 11.37 2.05103 12.19 2.71136 12.74C3.11156 13.08 3.31166 13.57 3.27164 14.09C3.2016 14.95 3.50175 15.79 4.11206 16.4C4.72236 17.01 5.57279 17.32 6.42321 17.24C6.47324 17.24 6.51326 17.24 6.56328 17.24C7.03352 17.24 7.46373 17.44 7.77389 17.8C8.33417 18.46 9.14457 18.84 10.005 18.84C10.8654 18.84 11.6858 18.46 12.2361 17.8C12.5763 17.4 13.0565 17.2 13.5868 17.24C14.4472 17.31 15.2876 17.01 15.8979 16.4C16.5083 15.79 16.8184 14.95 16.7384 14.09C16.6883 13.57 16.8984 13.08 17.2986 12.74C17.959 12.18 18.3392 11.37 18.3392 10.51ZM12.5063 12.18C12.046 12.18 11.6758 12.55 11.6758 13.01C11.6758 13.47 12.046 13.84 12.5063 13.84C12.9665 13.84 13.3367 13.47 13.3367 13.01C13.3367 12.55 12.9665 12.18 12.5063 12.18Z" fill="#374957"/>
</svg>
