<svg width="20" height="20" viewBox="0 0 20 20" fill="none" xmlns="http://www.w3.org/2000/svg">
<path d="M17.0737 2.93H17.0537C15.1737 1.06 12.6337 0 9.98371 0C8.00371 0 6.07371 0.59 4.42371 1.69C2.77371 2.79 1.50371 4.35 0.74371 6.17C0.00371033 8 -0.18629 10.01 0.18371 11.95C0.56371 13.89 1.52371 15.67 2.92371 17.07C4.32371 18.47 6.10371 19.42 8.04371 19.81C9.98371 20.2 11.9937 20 13.8237 19.24C15.6537 18.48 17.2137 17.2 18.3137 15.56C19.4137 13.92 20.0037 11.98 20.0037 10C20.0037 7.35 18.9437 4.81 17.0737 2.93ZM15.8637 15.89C14.3037 17.45 12.1837 18.33 9.97371 18.33C8.32371 18.33 6.71371 17.84 5.34371 16.93C3.97371 16.01 2.90371 14.71 2.27371 13.19C1.64371 11.67 1.47371 9.99 1.80371 8.38C2.13371 6.77 2.92371 5.28 4.08371 4.11C5.24371 2.94 6.73371 2.15 8.35371 1.83C9.97371 1.51 11.6437 1.67 13.1637 2.3C14.6837 2.93 15.9837 4 16.9037 5.37C17.8237 6.74 18.3037 8.35 18.3037 10C18.3037 12.21 17.4237 14.33 15.8637 15.89ZM12.6537 9.77C12.2537 9.54 11.7737 9.36 11.2337 9.24L10.4337 9.06V6.36C10.6337 6.39 10.8237 6.43 10.9837 6.5C11.2437 6.61 11.4537 6.76 11.6037 6.95C11.7637 7.14 11.8637 7.36 11.9037 7.61H13.7837C13.7437 7.09 13.5837 6.62 13.2837 6.2C12.9837 5.77 12.5637 5.42 12.0237 5.17C11.5737 4.96 11.0337 4.85 10.4337 4.81V3.65H9.52371V4.82C9.01371 4.87 8.52371 4.96 8.11371 5.15C7.55371 5.4 7.10371 5.75 6.78371 6.2C6.46371 6.65 6.30371 7.19 6.30371 7.8C6.30371 8.31 6.40371 8.75 6.61371 9.12C6.82371 9.49 7.11371 9.79 7.49371 10.03C7.88371 10.27 8.33371 10.45 8.84371 10.57L9.51371 10.73V13.58C9.42371 13.56 9.32371 13.57 9.24371 13.55C9.00371 13.48 8.79371 13.39 8.62371 13.27C8.44371 13.15 8.30371 13 8.19371 12.83C8.08371 12.66 8.01371 12.48 7.97371 12.29H6.06371C6.09371 12.69 6.18371 13.06 6.35371 13.41C6.52371 13.76 6.77371 14.08 7.08371 14.35C7.40371 14.62 7.79371 14.83 8.27371 14.99C8.63371 15.11 9.06371 15.16 9.51371 15.19V16.34H10.4237V15.17C11.0537 15.13 11.6237 15.02 12.0937 14.81C12.6837 14.54 13.1337 14.17 13.4437 13.7C13.7537 13.23 13.9137 12.68 13.9137 12.06C13.9137 11.5 13.8037 11.03 13.5737 10.65C13.3537 10.27 13.0437 9.97 12.6337 9.74L12.6537 9.77ZM9.53371 8.84C9.16371 8.74 8.86371 8.61 8.65371 8.44C8.41371 8.24 8.29371 7.99 8.29371 7.68C8.29371 7.29 8.45371 6.97 8.76371 6.71C8.96371 6.55 9.23371 6.45 9.53371 6.4V8.84ZM11.7637 13C11.6137 13.21 11.4037 13.37 11.1237 13.49C10.9337 13.57 10.6937 13.61 10.4437 13.63V10.95C10.7837 11.03 11.0737 11.12 11.2937 11.24C11.5237 11.35 11.7037 11.5 11.8137 11.66C11.9237 11.82 11.9837 12.02 11.9837 12.25C11.9837 12.53 11.9137 12.77 11.7637 12.98V13Z" fill="#374957"/>
</svg>
