<svg width="15" height="15" viewBox="0 0 15 15" fill="none" xmlns="http://www.w3.org/2000/svg">
<path d="M4.16876 9.3211C4.05001 9.2024 3.9875 9.04622 3.9875 8.87754C3.9875 8.70886 4.05626 8.55268 4.16876 8.43398C4.28751 8.31528 4.44375 8.2528 4.6125 8.2528C4.78125 8.2528 4.93751 8.32153 5.05626 8.43398L6.875 10.252V0.624739C6.875 0.45606 6.94375 0.299871 7.0625 0.18117C7.18125 0.0624697 7.33751 0 7.50626 0C7.67501 0 7.83125 0.0687171 7.95 0.18117C8.06875 0.299871 8.13126 0.45606 8.13126 0.624739V10.2645L9.95625 8.43398C10.075 8.32778 10.2313 8.2653 10.3938 8.27154C10.5563 8.27154 10.7063 8.34027 10.8188 8.45272C10.9313 8.56518 11 8.72136 11 8.87754C11 9.03997 10.9438 9.19617 10.8375 9.31487L8.83125 11.3203C8.65625 11.4952 8.45 11.6326 8.225 11.7264C8 11.8201 7.75626 11.87 7.50626 11.87C7.25626 11.87 7.01875 11.8201 6.7875 11.7264C6.5625 11.6326 6.35625 11.4952 6.18125 11.3203L4.175 9.31487L4.16876 9.3211ZM14.8188 10.1832C14.7 10.0645 14.5437 10.0021 14.375 10.0021C14.2063 10.0021 14.05 10.0708 13.9313 10.1832C13.8125 10.2957 13.75 10.4581 13.75 10.6268V13.1258C13.75 13.2945 13.6813 13.4506 13.5688 13.5693C13.4563 13.688 13.2937 13.7505 13.125 13.7505H1.875C1.70625 13.7505 1.55001 13.6818 1.43126 13.5693C1.31251 13.4506 1.25 13.2945 1.25 13.1258V10.6268C1.25 10.4581 1.18125 10.3019 1.06875 10.1832C0.950004 10.0645 0.79375 10.0021 0.625 10.0021C0.45625 10.0021 0.300005 10.0708 0.181255 10.1832C0.0625053 10.2957 0 10.4581 0 10.6268V13.1258C0 13.6256 0.200003 14.1004 0.550003 14.4502C0.900003 14.8001 1.38125 15 1.875 15H13.125C13.625 15 14.1 14.8001 14.45 14.4502C14.8 14.1004 15 13.6193 15 13.1258V10.6268C15 10.4581 14.9313 10.3019 14.8188 10.1832Z" fill="#2568F2"/>
</svg>
