<svg width="8" height="4" viewBox="0 0 8 4" fill="none" xmlns="http://www.w3.org/2000/svg">
<path d="M0.500027 0.00267756C0.565661 0.00258841 0.630664 0.0156673 0.691283 0.0411595C0.751903 0.0666518 0.80694 0.104053 0.853218 0.151205L3.40986 2.74098C3.48722 2.81936 3.57905 2.88155 3.68013 2.92397C3.78121 2.96639 3.88955 2.98823 3.99896 2.98823C4.10837 2.98823 4.21671 2.96639 4.31778 2.92397C4.41886 2.88155 4.5107 2.81936 4.58806 2.74098L7.1407 0.15458C7.1868 0.106219 7.24195 0.0676451 7.30293 0.0411082C7.36391 0.0145713 7.42949 0.000603344 7.49586 1.9118e-05C7.56222 -0.000565108 7.62803 0.0122461 7.68946 0.0377054C7.75088 0.0631648 7.80668 0.100762 7.85361 0.148304C7.90054 0.195846 7.93765 0.25238 7.96278 0.314608C7.98791 0.376835 8.00056 0.44351 7.99998 0.510742C7.9994 0.577974 7.98562 0.644416 7.95942 0.706192C7.93323 0.767968 7.89515 0.82384 7.84742 0.870548L5.29477 3.45695C4.95088 3.80469 4.48484 4 3.99896 4C3.51307 4 3.04704 3.80469 2.70314 3.45695L0.146502 0.867173C0.0765576 0.796359 0.0289198 0.706117 0.00961614 0.607866C-0.0096875 0.509614 0.000210578 0.40777 0.0380579 0.31522C0.0759052 0.22267 0.140001 0.143573 0.222234 0.0879384C0.304467 0.0323039 0.401143 0.00263216 0.500027 0.00267756Z" fill="#374957"/>
</svg>
