<svg width="10" height="10" viewBox="0 0 10 10" fill="none" xmlns="http://www.w3.org/2000/svg">
<path d="M2.24083 6.14291C2.13618 6.39573 2.08265 6.66678 2.08333 6.94041V7.49999C2.08333 7.6105 2.12723 7.71648 2.20537 7.79462C2.28351 7.87276 2.38949 7.91666 2.5 7.91666H3.05958C3.33322 7.91739 3.6043 7.86385 3.85712 7.75914C4.10994 7.65444 4.33949 7.50065 4.5325 7.30666L9.61249 2.22666C9.85609 1.98262 9.99291 1.6519 9.99291 1.30708C9.99291 0.962268 9.85609 0.631541 9.61249 0.3875C9.36486 0.150789 9.03548 0.0186874 8.69291 0.0186874C8.35034 0.0186874 8.02096 0.150789 7.77333 0.3875L2.69333 5.46749C2.49921 5.6604 2.34539 5.89 2.24083 6.14291ZM2.91666 6.94041C2.91762 6.60918 3.04906 6.29166 3.2825 6.05666L8.36249 0.976666C8.45149 0.891647 8.56983 0.844205 8.69291 0.844205C8.81599 0.844205 8.93433 0.891647 9.02332 0.976666C9.1108 1.06438 9.15992 1.1832 9.15992 1.30708C9.15992 1.43096 9.1108 1.54978 9.02332 1.6375L3.94333 6.71749C3.70846 6.95112 3.39086 7.08259 3.05958 7.08333H2.91666V6.94041ZM9.87791 3.86333C9.81964 3.80508 9.7454 3.76541 9.66459 3.74934C9.58377 3.73327 9.50001 3.74152 9.42389 3.77305C9.34776 3.80458 9.28269 3.85797 9.23691 3.92647C9.19112 3.99498 9.16668 4.07552 9.16666 4.15791V6.24999H7.49999C7.16847 6.24999 6.85053 6.38169 6.61611 6.61611C6.38169 6.85053 6.24999 7.16847 6.24999 7.49999V9.16666H2.08333C1.75181 9.16666 1.43387 9.03496 1.19945 8.80054C0.965029 8.56612 0.833333 8.24818 0.833333 7.91666V2.08333C0.833333 1.75181 0.965029 1.43387 1.19945 1.19945C1.43387 0.965029 1.75181 0.833333 2.08333 0.833333H5.85083C5.96133 0.833333 6.06732 0.789434 6.14546 0.711294C6.2236 0.633154 6.26749 0.527173 6.26749 0.416666C6.26749 0.30616 6.2236 0.200179 6.14546 0.122039C6.06732 0.0438987 5.96133 0 5.85083 0L2.08333 0C1.53097 0.000551538 1.00138 0.220222 0.610803 0.610803C0.220222 1.00138 0.000551538 1.53097 0 2.08333L0 7.91666C0.000551538 8.46902 0.220222 8.99861 0.610803 9.38919C1.00138 9.77977 1.53097 9.99944 2.08333 9.99999H6.80958C7.08329 10.0008 7.35444 9.94726 7.60734 9.84256C7.86024 9.73785 8.08986 9.58403 8.28291 9.38999L9.38958 8.28249C9.58373 8.08959 9.73766 7.86007 9.84245 7.60723C9.94723 7.35439 10.0008 7.08327 9.99999 6.80958V4.15791C9.99997 4.04742 9.95605 3.94145 9.87791 3.86333ZM8.80208 7.69333L7.69374 8.80083C7.52631 8.96799 7.31447 9.08366 7.08333 9.13416V7.49999C7.08333 7.38949 7.12723 7.28351 7.20537 7.20537C7.28351 7.12723 7.38949 7.08333 7.49999 7.08333H9.13541C9.08378 7.31393 8.96826 7.52533 8.80208 7.69333Z" fill="#BDC2C5"/>
</svg>
