<svg width="15" height="15" viewBox="0 0 15 15" fill="none" xmlns="http://www.w3.org/2000/svg">
<path d="M3.36125 9.21437C3.20427 9.5936 3.12397 10.0002 3.125 10.4106V11.25C3.125 11.4158 3.19085 11.5747 3.30806 11.6919C3.42527 11.8091 3.58424 11.875 3.75 11.875H4.58937C4.99984 11.8761 5.40645 11.7958 5.78568 11.6387C6.16491 11.4817 6.50924 11.251 6.79874 10.96L14.4187 3.34C14.7841 2.97393 14.9894 2.47785 14.9894 1.96062C14.9894 1.4434 14.7841 0.947312 14.4187 0.58125C14.0473 0.226183 13.5532 0.028031 13.0394 0.028031C12.5255 0.028031 12.0314 0.226183 11.66 0.58125L4.04 8.20124C3.74881 8.49061 3.51808 8.835 3.36125 9.21437ZM4.375 10.4106C4.37643 9.91376 4.57359 9.43749 4.92375 9.08499L12.5437 1.465C12.6772 1.33747 12.8547 1.26631 13.0394 1.26631C13.224 1.26631 13.4015 1.33747 13.535 1.465C13.6662 1.59657 13.7399 1.77481 13.7399 1.96062C13.7399 2.14644 13.6662 2.32468 13.535 2.45625L5.91499 10.0762C5.56269 10.4267 5.08629 10.6239 4.58937 10.625H4.375V10.4106ZM14.8169 5.795C14.7295 5.70761 14.6181 5.64811 14.4969 5.62401C14.3757 5.5999 14.25 5.61228 14.1358 5.65957C14.0216 5.70686 13.924 5.78695 13.8554 5.88971C13.7867 5.99246 13.75 6.11328 13.75 6.23687V9.37499H11.25C10.7527 9.37499 10.2758 9.57254 9.92417 9.92417C9.57254 10.2758 9.37499 10.7527 9.37499 11.25V13.75H3.125C2.62772 13.75 2.1508 13.5524 1.79917 13.2008C1.44754 12.8492 1.25 12.3723 1.25 11.875V3.125C1.25 2.62772 1.44754 2.1508 1.79917 1.79917C2.1508 1.44754 2.62772 1.25 3.125 1.25H8.77624C8.942 1.25 9.10097 1.18415 9.21818 1.06694C9.33539 0.949731 9.40124 0.79076 9.40124 0.624999C9.40124 0.459239 9.33539 0.300268 9.21818 0.183058C9.10097 0.065848 8.942 0 8.77624 0L3.125 0C2.29645 0.000827307 1.50208 0.330333 0.916204 0.916204C0.330333 1.50208 0.000827307 2.29645 0 3.125L0 11.875C0.000827307 12.7035 0.330333 13.4979 0.916204 14.0838C1.50208 14.6697 2.29645 14.9992 3.125 15H10.2144C10.6249 15.0012 11.0317 14.9209 11.411 14.7638C11.7904 14.6068 12.1348 14.376 12.4244 14.085L14.0844 12.4237C14.3756 12.1344 14.6065 11.7901 14.7637 11.4108C14.9208 11.0316 15.0012 10.6249 15 10.2144V6.23687C15 6.07112 14.9341 5.91218 14.8169 5.795ZM13.2031 11.54L11.5406 13.2012C11.2895 13.452 10.9717 13.6255 10.625 13.7012V11.25C10.625 11.0842 10.6908 10.9253 10.808 10.808C10.9253 10.6908 11.0842 10.625 11.25 10.625H13.7031C13.6257 10.9709 13.4524 11.288 13.2031 11.54Z" fill="#2568F2"/>
</svg>
