<svg width="12" height="12" viewBox="0 0 12 12" fill="none" xmlns="http://www.w3.org/2000/svg">
<path d="M8.29882 0.455772C7.20107 -1.4298e-07 5.99534 -0.113943 4.83159 0.113943C3.66785 0.347826 2.60009 0.91754 1.76028 1.75712C0.920463 2.5967 0.350589 3.66417 0.116641 4.82759C-0.117307 5.99101 0.00266595 7.1964 0.458565 8.29385C0.914463 9.3913 1.68229 10.3268 2.66607 10.9865C3.64986 11.6462 4.8136 12 6.00133 12C7.59098 12 9.11464 11.3643 10.2424 10.2429C11.3701 9.12144 12 7.5922 12 6.003C12 4.81559 11.6461 3.65817 10.9922 2.66867C10.3324 1.68516 9.39658 0.911545 8.29882 0.46177V0.455772ZM8.4068 7.54423C8.51478 7.65817 8.57476 7.80809 8.57476 7.96402C8.57476 8.11994 8.50877 8.26987 8.4008 8.38381C8.28682 8.49775 8.13686 8.55772 7.98089 8.55772C7.82493 8.55772 7.67496 8.49775 7.56099 8.38981L6.00733 6.83658L4.45368 8.38981C4.3397 8.49775 4.18974 8.55772 4.03377 8.55772C3.8778 8.55772 3.72784 8.49176 3.61387 8.38381C3.50589 8.26987 3.4399 8.11994 3.4399 7.96402C3.4399 7.80809 3.49989 7.65817 3.60787 7.54423L5.16152 5.99101L3.60787 4.43778C3.49989 4.32384 3.4399 4.17391 3.4399 4.01799C3.4399 3.86207 3.50589 3.71214 3.61387 3.5982C3.72784 3.48426 3.8778 3.42429 4.03377 3.42429C4.18974 3.42429 4.3397 3.48426 4.45368 3.59221L6.00733 5.14543L7.56099 3.59221C7.67496 3.47826 7.82493 3.41829 7.98689 3.41829C8.14886 3.41829 8.29882 3.48426 8.4128 3.59221C8.52677 3.70615 8.58676 3.85607 8.58676 4.01799C8.58676 4.17991 8.52077 4.32984 8.4128 4.44378L6.85914 5.997L8.4128 7.55023L8.4068 7.54423Z" fill="#FE5000"/>
</svg>
