<svg width="34" height="34" viewBox="0 0 34 34" fill="none" xmlns="http://www.w3.org/2000/svg">
<g filter="url(#filter0_d_4987_957)">
<foreignObject x="-9" y="-9" width="50" height="50"><div xmlns="http://www.w3.org/1999/xhtml" style="backdrop-filter:blur(5px);clip-path:url(#bgblur_0_4987_957_clip_path);height:100%;width:100%"></div></foreignObject><circle data-figma-bg-blur-radius="10" cx="16" cy="16" r="15" fill="white" fill-opacity="0.9"/>
<path d="M16.0039 10.499C19.6146 10.499 21.6717 12.9938 22.5762 14.4805C22.8557 14.9368 23.0038 15.4625 23.0039 15.999C23.0039 16.5356 22.8558 17.0621 22.5762 17.5186C21.6717 19.0053 19.6145 21.499 16.0039 21.499C12.3933 21.499 10.3361 19.0053 9.43164 17.5186C9.15205 17.0621 9.00391 16.5356 9.00391 15.999C9.00397 15.4626 9.15215 14.9368 9.43164 14.4805C10.3361 12.9938 12.3933 10.4991 16.0039 10.499ZM16.0039 11.6768C12.9606 11.6768 11.2025 13.8219 10.4258 15.0967C10.2598 15.3678 10.1719 15.6803 10.1719 15.999C10.1719 16.3179 10.2597 16.631 10.4258 16.9023C11.2025 18.1772 12.9607 20.3222 16.0039 20.3223C19.0471 20.3223 20.8053 18.1772 21.582 16.9023C21.7481 16.631 21.8359 16.3179 21.8359 15.999C21.8359 15.6802 21.7481 15.3679 21.582 15.0967C20.8053 13.8195 19.0472 11.6768 16.0039 11.6768ZM16.0039 13.0566C16.7768 13.0577 17.518 13.3683 18.0645 13.9199C18.6109 14.4716 18.918 15.2199 18.9189 16C18.9189 16.5819 18.7481 17.1509 18.4277 17.6348C18.1074 18.1186 17.6519 18.496 17.1191 18.7188C16.5864 18.9414 16.0001 18.9993 15.4346 18.8857C14.8691 18.7722 14.3491 18.4926 13.9414 18.0811C13.5337 17.6696 13.2561 17.1449 13.1436 16.5742C13.0311 16.0034 13.0889 15.4108 13.3096 14.873C13.5303 14.3355 13.9044 13.876 14.3838 13.5527C14.8632 13.2294 15.4273 13.0566 16.0039 13.0566ZM16.6729 14.3682C16.3532 14.2346 16.0014 14.1995 15.6621 14.2676C15.3228 14.3357 15.0112 14.5041 14.7666 14.751C14.5219 14.9979 14.3556 15.3128 14.2881 15.6553C14.2206 15.9978 14.2553 16.3531 14.3877 16.6758C14.5201 16.9981 14.7438 17.2739 15.0312 17.4678C15.3189 17.6618 15.6579 17.7656 16.0039 17.7656C16.4677 17.7655 16.9123 17.579 17.2402 17.248C17.5682 16.917 17.7528 16.4682 17.7529 16C17.7529 15.6508 17.6502 15.3089 17.458 15.0186C17.2658 14.7283 16.9925 14.5018 16.6729 14.3682Z" fill="#85878A"/>
</g>
<defs>
<filter id="filter0_d_4987_957" x="0" y="0" width="34" height="34" filterUnits="userSpaceOnUse" color-interpolation-filters="sRGB">
<feFlood flood-opacity="0" result="BackgroundImageFix"/>
<feColorMatrix in="SourceAlpha" type="matrix" values="0 0 0 0 0 0 0 0 0 0 0 0 0 0 0 0 0 0 127 0" result="hardAlpha"/>
<feOffset dx="1" dy="1"/>
<feGaussianBlur stdDeviation="1"/>
<feComposite in2="hardAlpha" operator="out"/>
<feColorMatrix type="matrix" values="0 0 0 0 0 0 0 0 0 0 0 0 0 0 0 0 0 0 0.2 0"/>
<feBlend mode="normal" in2="BackgroundImageFix" result="effect1_dropShadow_4987_957"/>
<feBlend mode="normal" in="SourceGraphic" in2="effect1_dropShadow_4987_957" result="shape"/>
</filter>
<clipPath id="bgblur_0_4987_957_clip_path" transform="translate(9 9)"><circle cx="16" cy="16" r="15"/>
</clipPath></defs>
</svg>
