<svg width="20" height="18" viewBox="0 0 20 18" fill="none" xmlns="http://www.w3.org/2000/svg">
<path d="M15 3.832C15 1.9943 13.535 0.5 11.7333 0.5H3.26667C1.465 0.5 0 1.9943 0 3.832C0 4.62675 0.279167 5.39685 0.786667 6.00035L5 11.0145V14.1C5 14.3678 5.12333 14.6193 5.33333 14.78L8.66667 17.33C8.81417 17.4422 8.99 17.5 9.16667 17.5C9.29333 17.5 9.42167 17.4703 9.53917 17.4108C9.82167 17.2671 10 16.9722 10 16.65V11.0145L14.2133 6.00035C14.7208 5.39685 15 4.62675 15 3.832ZM12.9483 4.8945L8.53417 10.1475C8.405 10.3014 8.33333 10.4977 8.33333 10.7009V14.9508L6.66667 13.6758V10.7009C6.66667 10.4977 6.59583 10.3014 6.46583 10.1475L2.05167 4.89365C1.80333 4.59785 1.66667 4.22045 1.66667 3.83115C1.66667 2.931 2.38417 2.19915 3.26667 2.19915H11.7333C12.6158 2.19915 13.3333 2.931 13.3333 3.83115C13.3333 4.22045 13.1967 4.5987 12.9483 4.8945ZM20 15.8008C20 16.2701 19.6267 16.6509 19.1667 16.6509H12.5C12.04 16.6509 11.6667 16.2701 11.6667 15.8008C11.6667 15.3316 12.04 14.9508 12.5 14.9508H19.1667C19.6267 14.9508 20 15.3316 20 15.8008ZM20 12.4009C20 12.87 19.6267 13.2508 19.1667 13.2508H12.5C12.04 13.2508 11.6667 12.87 11.6667 12.4009C11.6667 11.9317 12.04 11.5509 12.5 11.5509H19.1667C19.6267 11.5509 20 11.9317 20 12.4009ZM15 8.15085H19.1667C19.6267 8.15085 20 8.53165 20 9.00085C20 9.47005 19.6267 9.85085 19.1667 9.85085H15C14.54 9.85085 14.1667 9.47005 14.1667 9.00085C14.1667 8.53165 14.54 8.15085 15 8.15085Z" fill="#374957"/>
</svg>
