<svg width="24" height="36" viewBox="0 0 24 36" fill="none" xmlns="http://www.w3.org/2000/svg">
<path d="M23.5675 14.406H23.5374C23.1463 13.6872 22.5746 13.0882 21.8826 12.6689C21.1907 12.2496 20.3784 12.01 19.566 12.01H15.715L18.2423 5.27121C18.4529 4.67221 18.5431 4.04326 18.4529 3.41431C18.3927 2.78536 18.152 2.18636 17.791 1.6772C17.4299 1.16805 16.9486 0.718802 16.407 0.449251C15.8655 0.14975 15.2337 0 14.6019 0H9.06606C8.10332 0 7.17065 0.299501 6.38842 0.898502C5.60619 1.46755 5.03456 2.30616 4.76378 3.20466L0.190731 18.2097C-0.0198699 18.8985 -0.0499558 19.5874 0.0703877 20.2762C0.190731 20.9651 0.461504 21.624 0.882706 22.193C1.30391 22.7621 1.84545 23.2113 2.47726 23.5408C3.10906 23.8702 3.80104 24.02 4.49301 24.02H10.0288L7.68211 31.777C7.47151 32.5557 7.5016 33.3644 7.83254 34.0832C8.16349 34.802 8.73512 35.401 9.48727 35.7005C9.93855 35.9101 10.4199 36 10.9013 36C11.4428 36 11.9844 35.8503 12.4658 35.5807C12.9471 35.3111 13.3383 34.9517 13.6391 34.4725L23.2365 19.0483C23.6878 18.3594 23.9586 17.5807 23.9887 16.772C24.0488 15.9634 23.8683 15.1248 23.4772 14.406H23.5675Z" fill="#6543F5"/>
</svg>
