<svg width="12" height="13" viewBox="0 0 12 13" fill="none" xmlns="http://www.w3.org/2000/svg">
<path d="M9.8181 5.302C9.68835 5.0619 9.49872 4.86182 9.26917 4.71676C9.03463 4.5767 8.77015 4.50167 8.49568 4.50167H7.21818L8.05654 2.25573C8.1314 2.06065 8.15635 1.84556 8.12641 1.64048C8.10146 1.43039 8.0266 1.23531 7.90684 1.06023C7.78707 0.890163 7.62738 0.745102 7.44274 0.650063C7.2581 0.555023 7.05351 0.5 6.84392 0.5H5.00252C4.67815 0.5 4.36876 0.600042 4.10927 0.795123C3.84978 0.985202 3.66015 1.26032 3.57032 1.56544L2.06327 6.56753C1.99341 6.79262 1.98343 7.02772 2.02335 7.25782C2.06327 7.48791 2.15809 7.708 2.29781 7.89308C2.43754 8.08316 2.61719 8.23322 2.82678 8.33827C3.03637 8.44331 3.26592 8.49833 3.50046 8.49833H5.33687L4.55839 11.0844C4.48353 11.3395 4.49851 11.6096 4.60829 11.8547C4.71808 12.0948 4.9127 12.2899 5.15722 12.395C5.30692 12.465 5.46661 12.5 5.63129 12.5C5.81593 12.5 5.99558 12.45 6.15526 12.3649C6.31495 12.2749 6.44969 12.1499 6.54949 11.9948L9.74324 6.84264C9.89794 6.61755 9.98277 6.35244 9.99774 6.08233C10.0127 5.81221 9.95283 5.5371 9.82808 5.297L9.8181 5.302ZM8.8949 6.30742L5.70115 11.4596C5.70115 11.4596 5.68618 11.4796 5.6762 11.4896C5.66622 11.4996 5.65624 11.5046 5.64127 11.5096C5.6263 11.5096 5.61632 11.5096 5.60135 11.5096C5.58638 11.5096 5.5764 11.5046 5.56642 11.4946C5.55644 11.4946 5.54147 11.4846 5.53148 11.4796C5.5215 11.4696 5.51152 11.4596 5.50653 11.4496C5.50154 11.4396 5.49655 11.4246 5.49655 11.4145C5.49655 11.3995 5.49655 11.3895 5.50154 11.3795L6.47464 8.15819C6.49959 8.08316 6.49959 8.00313 6.48961 7.92809C6.47464 7.85306 6.4447 7.77803 6.39979 7.71801C6.35487 7.65298 6.29499 7.60296 6.22513 7.56795C6.15526 7.53293 6.08041 7.51292 6.00057 7.51292H3.49547C3.41562 7.51292 3.34077 7.49291 3.27091 7.4579C3.20105 7.42288 3.14116 7.37286 3.09625 7.30784C3.05134 7.24281 3.01641 7.17278 3.00643 7.09775C2.99145 7.02272 2.99645 6.94268 3.0214 6.86765L4.52845 1.86557C4.55839 1.76053 4.62326 1.67049 4.7081 1.61046C4.79293 1.54544 4.89773 1.51042 5.00751 1.51042H6.84891C6.89881 1.51042 6.94372 1.52043 6.98863 1.54544C7.03354 1.56544 7.06848 1.60046 7.09343 1.64048C7.12337 1.68049 7.13834 1.72551 7.14333 1.77553C7.14832 1.82555 7.14333 1.87057 7.12836 1.91559L6.0355 4.83681C6.00556 4.91184 5.99558 4.99187 6.00556 5.0719C6.01554 5.15194 6.04548 5.22697 6.09039 5.297C6.1353 5.36703 6.19519 5.41705 6.27004 5.45707C6.34489 5.49708 6.41975 5.51209 6.49959 5.51209H8.49568C8.58551 5.51209 8.67533 5.5371 8.75518 5.58212C8.83502 5.62714 8.8949 5.69717 8.93482 5.7772C8.97974 5.86223 8.9997 5.95227 8.98972 6.04731C8.97974 6.14235 8.9498 6.23239 8.8949 6.30742Z" fill="#FE5000"/>
<path d="M8.7501 5.57707C8.67026 5.53205 8.58542 5.50704 8.49061 5.50704H6.49452C6.41467 5.50704 6.33483 5.48703 6.26497 5.45202C6.1951 5.417 6.13023 5.36198 6.08532 5.29195C6.04041 5.22192 6.01046 5.14689 6.00048 5.06686C5.9905 4.98682 6.00048 4.90679 6.03042 4.83176L7.12329 1.91054C7.13826 1.86552 7.14325 1.8155 7.13826 1.77048C7.13327 1.72046 7.11331 1.67544 7.08835 1.63543C7.0634 1.59541 7.02348 1.5654 6.98356 1.54039C6.93865 1.52038 6.89374 1.50537 6.84383 1.50537H5.00244C4.89764 1.50537 4.79285 1.54039 4.70302 1.60541C4.61819 1.67044 4.55332 1.76048 4.52337 1.86052L3.01632 6.8626C2.99137 6.93764 2.99137 7.01767 3.00135 7.0927C3.01632 7.16773 3.04626 7.24276 3.09118 7.30279C3.13609 7.36781 3.19597 7.41783 3.26583 7.45285C3.3357 7.48786 3.41055 7.50787 3.4904 7.50787H5.99549C6.07534 7.50787 6.15019 7.52788 6.22005 7.5629C6.28992 7.59791 6.3498 7.64793 6.39471 7.71296C6.43962 7.77798 6.47456 7.84801 6.48454 7.92305C6.49951 7.99808 6.49452 8.07811 6.46957 8.15314L5.49647 11.3745C5.49647 11.3745 5.49148 11.3995 5.49148 11.4095C5.49148 11.4245 5.49148 11.4345 5.50146 11.4445C5.50645 11.4545 5.51643 11.4645 5.52641 11.4745C5.53639 11.4845 5.54637 11.4895 5.56134 11.4895C5.57132 11.4945 5.58629 11.4995 5.59628 11.5045C5.61125 11.5045 5.62123 11.5045 5.6362 11.5045C5.65117 11.5045 5.66115 11.4945 5.67113 11.4845C5.68111 11.4745 5.69109 11.4645 5.69608 11.4545L8.88983 6.30237C8.94472 6.22734 8.97965 6.1373 8.98464 6.04226C8.98963 5.94722 8.96967 5.85218 8.92975 5.77215C8.88983 5.69212 8.82496 5.62209 8.7501 5.57707Z" fill="#FFC72C"/>
</svg>
