<svg width="20" height="20" viewBox="0 0 20 20" fill="none" xmlns="http://www.w3.org/2000/svg">
<path d="M0 10C0 19.0533 3.74667 20 10 20C16.2533 20 20 19.0533 20 10C20 0.946667 16.2533 0 10 0C3.74667 0 0 0.946667 0 10Z" fill="#254497"/>
<path d="M6.8125 8.02649C6.82235 7.17048 7.16403 6.35352 7.76241 5.75526C8.36079 5.15701 9.16687 4.82644 10.0034 4.83626C10.84 4.82644 11.6461 5.15707 12.2445 5.75543C12.8429 6.35379 13.1846 7.17087 13.1943 8.02696C13.186 8.83891 12.8783 9.6177 12.3329 10.2075C11.7875 10.7972 11.0445 11.1544 10.2527 11.2076V12.6663C10.858 12.6409 11.4525 12.4935 12.002 12.2324C12.5515 11.9714 13.0453 11.6019 13.455 11.1452C13.8646 10.6885 14.1821 10.1535 14.3893 9.57092C14.5965 8.98835 14.6893 8.36965 14.6623 7.75032C14.5792 6.49972 14.0152 5.33376 13.0939 4.50768C12.1726 3.68159 10.969 3.26269 9.74659 3.34267C9.14151 3.36822 8.5473 3.5157 7.99803 3.77667C7.44875 4.03763 6.95519 4.40695 6.54565 4.86345C6.1361 5.31996 5.81861 5.85468 5.61138 6.43697C5.40415 7.01927 5.31124 7.63768 5.33799 8.25678C5.41308 9.41816 5.90449 10.5103 6.71797 11.3238C7.53145 12.1373 8.60976 12.6148 9.74612 12.6649V11.2105C8.957 11.1502 8.21843 10.7901 7.67559 10.201C7.13274 9.61179 6.82488 8.83614 6.8125 8.02649Z" fill="#F9F9F9"/>
<path d="M7.3335 14L10.0002 16.6667L12.6668 14H7.3335Z" fill="#87C340"/>
</svg>
