<svg width="29" height="29" viewBox="0 0 29 29" fill="none" xmlns="http://www.w3.org/2000/svg">
<mask id="path-1-outside-1_11521_36309" maskUnits="userSpaceOnUse" x="0" y="0" width="29" height="29" fill="black">
<rect fill="white" width="29" height="29"/>
<path d="M15.25 2H13.8125C5.9375 2 2 3.1875 2 14.5C2 25.8125 6.6875 27 14.5 27C22.3125 27 27 26.5 27 14.5C27 2.5 23 2 15.1875 2"/>
</mask>
<path d="M15.25 2H13.8125C5.9375 2 2 3.1875 2 14.5C2 25.8125 6.6875 27 14.5 27C22.3125 27 27 26.5 27 14.5C27 2.5 23 2 15.1875 2" fill="#254497"/>
<path d="M15.25 2V0H13.8125V2V4H15.25V2ZM13.8125 2V0C9.96409 0 6.24879 0.232108 3.64121 2.49821C0.964903 4.82406 0 8.76017 0 14.5H2H4C4 8.92733 5.00385 6.61344 6.26504 5.51741C7.59496 4.36164 9.78591 4 13.8125 4V2ZM2 14.5H0C0 20.328 1.189 24.2589 4.07439 26.5567C6.83749 28.7571 10.6584 29 14.5 29V27V25C10.5291 25 8.10001 24.6491 6.56623 23.4277C5.15475 22.3036 4 19.9845 4 14.5H2ZM14.5 27V29C16.4455 29 18.3439 28.9716 20.0503 28.7116C21.773 28.449 23.4507 27.9309 24.8862 26.8451C27.8333 24.616 29 20.6201 29 14.5H27H25C25 20.3799 23.8229 22.634 22.4732 23.6549C21.7603 24.1941 20.8012 24.551 19.4477 24.7572C18.078 24.9659 16.4607 25 14.5 25V27ZM27 14.5H29C29 8.46014 28.0369 4.46046 25.2936 2.20508C23.932 1.08569 22.316 0.556499 20.6432 0.29045C18.9929 0.0279672 17.1292 0 15.1875 0V2V4C17.152 4 18.7181 4.03453 20.015 4.2408C21.2894 4.4435 22.1383 4.78931 22.7533 5.29492C23.9631 6.28954 25 8.53986 25 14.5H27Z" fill="#87C340" mask="url(#path-1-outside-1_11521_36309)"/>
<path d="M10.8488 12.8668C10.8611 11.7968 11.2882 10.7756 12.0361 10.0278C12.7841 9.28 13.7917 8.86679 14.8374 8.87906C15.8831 8.86679 16.8908 9.28008 17.6388 10.028C18.3868 10.776 18.8138 11.7973 18.826 12.8674C18.8156 13.8824 18.431 14.8559 17.7493 15.5931C17.0675 16.3303 16.1388 16.7768 15.149 16.8433V18.6667C15.9057 18.6349 16.6488 18.4506 17.3357 18.1243C18.0225 17.798 18.6397 17.3362 19.1518 16.7653C19.6639 16.1943 20.0608 15.5256 20.3198 14.7974C20.5788 14.0692 20.6947 13.2958 20.6609 12.5216C20.5571 10.9584 19.8522 9.50094 18.7006 8.46834C17.5489 7.43573 16.0444 6.9121 14.5164 7.01208C13.76 7.04401 13.0173 7.22837 12.3307 7.55457C11.6441 7.88078 11.0271 8.34243 10.5152 8.91306C10.0033 9.48369 9.6064 10.1521 9.34736 10.88C9.08831 11.6078 8.97218 12.3808 9.00561 13.1547C9.09948 14.6064 9.71374 15.9716 10.7306 16.9885C11.7474 18.0053 13.0953 18.6023 14.5158 18.6649V16.8469C13.5294 16.7716 12.6062 16.3214 11.9276 15.5849C11.2491 14.8485 10.8642 13.8789 10.8488 12.8668Z" fill="#F9F9F9"/>
<path d="M11.5 20.333L14.8333 23.6663L18.1667 20.333H11.5Z" fill="#87C340"/>
</svg>
