<svg width="20" height="20" viewBox="0 0 20 20" fill="none" xmlns="http://www.w3.org/2000/svg">
<path d="M0 10C0 19.0533 3.74667 20 10 20C16.2533 20 20 19.0533 20 10C20 0.946667 16.2533 0 10 0C3.74667 0 0 0.946667 0 10Z" fill="#254497"/>
<path d="M6.8125 8.02746C6.82235 7.17146 7.16403 6.3545 7.76241 5.75624C8.36079 5.15799 9.16687 4.82742 10.0034 4.83723C10.84 4.82742 11.6461 5.15805 12.2445 5.75641C12.8429 6.35477 13.1846 7.17185 13.1943 8.02794C13.186 8.83989 12.8783 9.61868 12.3329 10.2084C11.7875 10.7982 11.0445 11.1554 10.2527 11.2086V12.6673C10.858 12.6419 11.4525 12.4944 12.002 12.2334C12.5515 11.9724 13.0453 11.6029 13.455 11.1462C13.8646 10.6895 14.1821 10.1545 14.3893 9.5719C14.5965 8.98933 14.6893 8.37063 14.6623 7.7513C14.5792 6.5007 14.0152 5.33474 13.0939 4.50865C12.1726 3.68257 10.969 3.26367 9.74659 3.34365C9.14151 3.3692 8.5473 3.51668 7.99803 3.77764C7.44875 4.03861 6.95519 4.40792 6.54565 4.86443C6.1361 5.32094 5.81861 5.85566 5.61138 6.43795C5.40415 7.02024 5.31124 7.63866 5.33799 8.25776C5.41308 9.41914 5.90449 10.5113 6.71797 11.3248C7.53145 12.1382 8.60976 12.6158 9.74612 12.6659V11.2115C8.957 11.1512 8.21843 10.7911 7.67559 10.2019C7.13274 9.61276 6.82488 8.83712 6.8125 8.02746Z" fill="#F9F9F9"/>
<path d="M7.3335 14L10.0002 16.6667L12.6668 14H7.3335Z" fill="#87C340"/>
</svg>
