<svg width="12" height="11" viewBox="0 0 12 11" fill="none" xmlns="http://www.w3.org/2000/svg">
<path d="M12 5.49593C11.9958 5.05719 11.8141 4.63772 11.4943 4.32842L7.81714 0.742502C7.65655 0.587181 7.4393 0.5 7.21286 0.5C6.98641 0.5 6.76917 0.587181 6.60857 0.742502C6.52823 0.820027 6.46447 0.912261 6.42095 1.01388C6.37743 1.11551 6.35503 1.22451 6.35503 1.3346C6.35503 1.44468 6.37743 1.55368 6.42095 1.65531C6.46447 1.75693 6.52823 1.84916 6.60857 1.92669L9.42857 4.66199H0.857143C0.629814 4.66199 0.411797 4.74985 0.251051 4.90625C0.090306 5.06264 0 5.27475 0 5.49593C0 5.7171 0.090306 5.92921 0.251051 6.08561C0.411797 6.242 0.629814 6.32986 0.857143 6.32986H9.42857L6.60857 9.0735C6.44717 9.22943 6.35604 9.44135 6.35524 9.66265C6.35443 9.88394 6.44402 10.0965 6.60429 10.2535C6.76455 10.4106 6.98237 10.4992 7.20983 10.5C7.43728 10.5008 7.65574 10.4136 7.81714 10.2577L11.4943 6.67177C11.8162 6.36042 11.9981 5.93756 12 5.49593Z" fill="#85878A"/>
</svg>
