<svg width="20" height="20" viewBox="0 0 20 20" fill="none" xmlns="http://www.w3.org/2000/svg">
<mask id="mask0_11649_52373" style="mask-type:alpha" maskUnits="userSpaceOnUse" x="0" y="0" width="20" height="20">
<path d="M0 10C0 19.0533 3.74667 20 10 20C16.2533 20 20 19.0533 20 10C20 0.946667 16.2533 0 10 0C3.74667 0 0 0.946667 0 10Z" fill="#ED3012"/>
</mask>
<g mask="url(#mask0_11649_52373)">
<rect width="20" height="20" fill="#6543F5"/>
<path d="M6.46558 20H5.28329L5.28329 -8.9407e-07H6.46558L6.46558 20Z" fill="#57C0AD"/>
<path d="M0 6L0 5L20 5V6L0 6Z" fill="#57C0AD"/>
<path d="M7.0445 5.95775L6.02101 6.53677L7.34997 8.79345L7.56574 8.0023L8.37265 8.21605L7.0445 5.95775ZM4.69044 5.95775L5.71393 6.53677L4.38457 8.79386L4.1688 8.00271L3.36108 8.21484L4.69044 5.95775Z" fill="#57C0AD"/>
<path d="M4.69766 5.96152L4.70413 6.06576L4.6116 6.09122L3.7461 7.55958L5.38093 7.10622L5.71388 6.5373L4.69686 5.96232L4.69766 5.96152ZM7.04122 5.96152L6.02016 6.53488L6.35391 7.10622L7.98874 7.55958L7.12688 6.09162L7.03273 6.06536L7.04001 5.96273L7.04122 5.96152Z" fill="#76D671"/>
<path d="M9.99422 5.51547C10.0205 5.91195 9.98849 6.31014 9.89927 6.69735L7.0268 6.69937C7.01145 6.60864 7.00684 6.51641 7.01306 6.42461L7.05629 5.78336L7.03771 5.51749L9.99543 5.51749L9.99422 5.51547ZM1.74976 5.51708C1.72268 5.91357 1.75469 6.31188 1.84472 6.69896L4.7184 6.69896C4.73397 6.60826 4.73858 6.51601 4.73214 6.4242L4.68728 5.78296L4.70547 5.5191L1.74976 5.51708Z" fill="#76D671"/>
<path d="M9.01651 7.23119C9.27587 6.7929 9.41291 6.29305 9.41333 5.78377C9.41376 5.27449 9.27756 4.77442 9.01893 4.33569L6.40749 5.05855L6.45799 5.78223L6.4083 6.50671L9.01651 7.23119ZM2.71801 7.23119C2.45858 6.79256 2.32166 6.29234 2.32151 5.78274C2.32137 5.27314 2.45802 4.77284 2.7172 4.33407L5.32703 5.05855L5.27652 5.78223L5.32622 6.50671L2.71801 7.23119Z" fill="#57C0AD"/>
<path d="M5.00632 4.96804C4.79122 5.18421 4.6704 5.47671 4.67025 5.78166C4.6701 6.08661 4.79063 6.37922 5.00551 6.5956L5.32755 6.5055L5.27704 5.78182L5.32674 5.05815L5.00632 4.96804ZM6.73005 4.96885L6.40761 5.05855L6.45488 5.78223L6.40518 6.50671L6.72681 6.5956C6.94189 6.37968 7.06295 6.08753 7.06363 5.78277C7.06431 5.47801 6.94415 5.18573 6.73005 4.96885Z" fill="#006EF4"/>
<path d="M6.75077 5.78129C6.7485 6.01397 6.65395 6.23626 6.48786 6.39924C6.32177 6.56222 6.09775 6.65259 5.86506 6.65046C5.63029 6.65144 5.40456 6.56011 5.2365 6.39617C5.15425 6.31628 5.08884 6.22067 5.04419 6.11506C4.99954 6.00945 4.97656 5.89595 4.97656 5.78129C4.97656 5.66662 4.99954 5.55312 5.04419 5.44751C5.08884 5.3419 5.15425 5.24633 5.2365 5.16644C5.40456 5.0025 5.63029 4.91117 5.86506 4.91215C6.09775 4.91001 6.32177 5.00039 6.48786 5.16337C6.65395 5.32635 6.7485 5.5486 6.75077 5.78129Z" fill="#FF0000"/>
<path d="M5.87979 4.28148C5.67248 4.28162 5.46736 4.32396 5.27693 4.40593L5.27693 7.18587C5.463 7.26706 5.66352 7.30991 5.86652 7.31186C6.06952 7.3138 6.27082 7.2748 6.45841 7.19718L6.45881 4.39421C6.27473 4.31913 6.07779 4.28056 5.87898 4.28067L5.87979 4.28148ZM5.87979 5.46376C5.92546 5.46076 5.97125 5.46716 6.01434 5.48258C6.05743 5.498 6.09689 5.5221 6.13028 5.55339C6.16368 5.58468 6.19029 5.62249 6.20848 5.66449C6.22666 5.70648 6.23603 5.75177 6.236 5.79753C6.23598 5.84329 6.22655 5.88856 6.20832 5.93053C6.19008 5.97251 6.16342 6.01029 6.12999 6.04154C6.09656 6.07279 6.05706 6.09684 6.01396 6.11221C5.97085 6.12757 5.92505 6.13392 5.87939 6.13087C5.83401 6.13354 5.78856 6.12691 5.74583 6.11139C5.7031 6.09587 5.66399 6.07179 5.63091 6.04061C5.59782 6.00943 5.57145 5.97183 5.55342 5.9301C5.53539 5.88837 5.52607 5.84339 5.52605 5.79793C5.52602 5.75247 5.53528 5.70748 5.55326 5.66573C5.57124 5.62398 5.59756 5.58634 5.63061 5.55512C5.66366 5.52391 5.70274 5.49978 5.74545 5.4842C5.78816 5.46863 5.8336 5.46195 5.87898 5.46457L5.87979 5.46376Z" fill="#76D671"/>
<path d="M7.06474 4.87838L6.40734 5.0598L6.45865 5.78267L6.40734 6.50715L7.07969 6.69463C7.28982 6.44109 7.40814 6.124 7.41547 5.79479C7.40713 5.45813 7.2833 5.13458 7.06474 4.87838ZM4.6921 4.88969C4.47636 5.14529 4.35434 5.46688 4.34622 5.80125C4.35441 6.12663 4.47054 6.44005 4.67634 6.69221L5.32688 6.512L5.27637 5.78671L5.32647 5.06344L4.6929 4.88888L4.6921 4.88969Z" fill="#76D671"/>
<path d="M6.82007 5.79318C6.81156 6.03756 6.70847 6.2691 6.53258 6.43897C6.35668 6.60884 6.12173 6.70376 5.8772 6.70376C5.63267 6.70376 5.39767 6.60884 5.22178 6.43897C5.04589 6.2691 4.94284 6.03756 4.93433 5.79318C4.93452 5.67128 4.9591 5.55064 5.00659 5.43838C5.05409 5.32611 5.12355 5.2245 5.2109 5.13948C5.38948 4.96558 5.62909 4.86854 5.87835 4.86918C6.12579 4.8669 6.36402 4.96291 6.5407 5.13617C6.71738 5.30942 6.8175 5.54574 6.82007 5.79318Z" fill="#57C0AD"/>
<path d="M2.60879 17.4751L2 17.4363L2.46842 17.0733L2.31838 16.5247L2.83574 16.8243L3.35256 16.522L3.2052 17.0711L3.67362 17.4342L3.06484 17.474L2.83681 18L2.60879 17.4751ZM7.38442 17.4751L6.77564 17.4363L7.24298 17.0722L7.09294 16.522L7.6103 16.8232L8.12712 16.522L7.98084 17.0711L8.44926 17.4342L7.84048 17.474L7.61245 17.9989L7.38442 17.4751ZM12.1584 17.4751L11.5497 17.4363L12.017 17.0722L11.8664 16.522L12.3849 16.8226L12.9011 16.522L12.7559 17.0711L13.2244 17.4326L12.6156 17.4724L12.3875 17.9989L12.1584 17.4751ZM16.9341 17.4751L16.3248 17.4363L16.7905 17.0738L16.6415 16.522L17.16 16.8226L17.6768 16.522L17.5294 17.0701L17.9978 17.4331L17.3896 17.4718L17.1626 17.9984L16.9341 17.4751ZM14.6834 15.9293L14.2768 15.9035L14.5893 15.6609L14.4952 15.2935L14.8372 15.4974L15.1787 15.2935L15.0803 15.6603L15.3928 15.9029L14.9873 15.9287L14.8345 16.2789L14.6834 15.9293ZM9.91315 15.9293L9.50657 15.9045L9.82172 15.6641L9.72169 15.2951L10.0675 15.4947L10.4095 15.2914L10.3106 15.6582L10.6241 15.9035L10.2186 15.9293L10.067 16.2756L9.91315 15.9293ZM5.13751 15.9293L4.73201 15.9029H4.73524H4.73093L5.04286 15.6625L4.94713 15.2957L5.29347 15.4963L5.63497 15.2925V15.2957L5.53602 15.6614L5.84794 15.9024L5.44136 15.9287L5.28863 16.2789L5.13751 15.9293ZM2.60986 14.5266L2 14.4857L2.46842 14.1226L2.32268 13.5713L2.8395 13.872L3.35632 13.5708L3.20897 14.1189L3.67739 14.4819L3.0686 14.5217L2.84058 15.0477L2.60986 14.5266ZM16.9309 14.5233L16.3221 14.4862L16.7916 14.1232L16.6426 13.5719L17.1594 13.8731L17.6762 13.5719L17.5273 14.121L17.9968 14.4862L17.3885 14.5244L17.16 15.0504L16.9309 14.5233ZM7.38066 14.5233L6.77187 14.4851L7.23922 14.1221L7.09348 13.5729L7.61084 13.8741L8.12497 13.5713L7.97654 14.121L8.44604 14.4841L7.83725 14.5228L7.60922 15.0477L7.38066 14.5233ZM12.1563 14.5233L11.5475 14.4846L12.017 14.1216L11.8686 13.5692L12.3859 13.8688L12.9011 13.5665L12.7559 14.1173L13.2244 14.4798L12.6156 14.5196L12.3875 15.0445L12.1563 14.5233ZM9.91099 13.4708L9.50442 13.446L9.81634 13.2024L9.72061 12.835L10.0664 13.0329L10.4079 12.8291L10.3095 13.1959L10.6214 13.4444L10.2159 13.4702L10.0637 13.822L9.91099 13.4708ZM5.13966 13.4708L4.73308 13.4449L5.04501 13.2008L4.94659 12.8377L5.29239 13.0372L5.63443 12.8334L5.53548 13.2008L5.85116 13.4444L5.44351 13.4708L5.29186 13.8209L5.13966 13.4708ZM14.6807 13.4708L14.2758 13.4449L14.5877 13.2029L14.4946 12.8356L14.8367 13.0389L15.1782 12.835L15.0792 13.2018L15.3928 13.4455L14.9862 13.4702L14.834 13.8204L14.6807 13.4708ZM2.60986 12.0621L2 12.025L2.46842 11.662L2.32268 11.1112L2.84004 11.4119L3.35686 11.1112L3.20951 11.6587L3.67793 12.0218L3.06914 12.0616L2.84111 12.5881L2.60986 12.0621ZM7.3855 12.0621L6.77295 12.025L7.24029 11.6609L7.09563 11.1112L7.61245 11.4119L8.1282 11.1107L7.98192 11.6598L8.45034 12.0229L7.84155 12.0616L7.61353 12.586L7.3855 12.0621ZM16.9325 12.0578L16.3237 12.0207L16.7937 11.6577L16.6431 11.108L17.1616 11.4076L17.6773 11.1064L17.5316 11.6577L17.9984 12.0186L17.3874 12.0567L17.161 12.5844L16.9325 12.0578ZM12.1601 12.0578L11.5513 12.0191L12.0197 11.656L11.8691 11.1069L12.3875 11.4081L12.9049 11.1053L12.7559 11.656L13.2254 12.0191L12.6167 12.0578L12.3881 12.5828L12.1601 12.0578ZM14.6834 10.5088L14.2768 10.483L14.5925 10.2377L14.4957 9.8736L14.8378 10.0769L15.1793 9.87307L15.0803 10.2404L15.3938 10.483L14.9873 10.5077L14.8345 10.8584L14.6834 10.5088ZM5.13912 10.5088L4.73416 10.483L5.04608 10.2404L4.94874 9.87791L5.29508 10.0775L5.63658 9.8736L5.53763 10.2404L5.85009 10.483L5.44459 10.5088L5.29401 10.8595L5.13912 10.5088ZM9.91368 10.5088L9.50711 10.4825L9.82064 10.2399L9.7233 9.87576L10.0691 10.0753L10.4111 9.87199L10.3122 10.2377L10.6247 10.4803L10.2181 10.5077L10.067 10.86L9.91368 10.5088ZM2.61255 9.10986L2.00323 9.07167L2.47165 8.70862L2.32268 8.15678L2.8395 8.45744L3.35686 8.15678L3.20951 8.70485L3.67793 9.0679L3.06914 9.1077L2.84219 9.63372L2.61255 9.10986ZM7.38711 9.10986L6.77833 9.07113L7.24567 8.70808L7.09724 8.15894L7.61406 8.45959L8.12927 8.1584L7.98299 8.70808L8.45356 9.06737L7.84532 9.10609L7.61729 9.63103L7.38711 9.10986ZM16.9325 9.10986L16.3237 9.07274L16.7921 8.70969L16.6437 8.1584L17.161 8.45906L17.6779 8.1584L17.5316 8.70647L18 9.06952L17.3918 9.10932L17.1616 9.63587L16.9325 9.10986ZM12.1628 9.10986L11.5545 9.07113L12.017 8.70808L11.8707 8.1584L12.3881 8.46067L12.9033 8.15786L12.7559 8.70163L13.2254 9.06468L12.6167 9.1034L12.3886 9.62834L12.1628 9.10986ZM5.13643 7.63507L4.72986 7.60925L5.04232 7.36722L4.94874 7.00202L5.29024 7.20586L5.63282 7.00202L5.5344 7.36883L5.84686 7.61086L5.44029 7.63668L5.28863 7.98736L5.13643 7.63507ZM14.6839 7.63184L14.2774 7.6071L14.5952 7.36291L14.4963 6.99718L14.8383 7.20102L15.1803 6.99718L15.0814 7.36291L15.3949 7.60549L14.9883 7.63184L14.8361 7.98198L14.6839 7.63184ZM9.91368 7.63184L9.50711 7.60602L9.82118 7.36507L9.72223 6.99825L10.067 7.20264L10.4085 6.99879L10.31 7.3656L10.6268 7.60495L10.2202 7.6313L10.067 7.98091L9.91368 7.63184ZM7.38604 6.22966L6.77833 6.19094L7.24675 5.82789L7.0967 5.27713L7.61406 5.5794L8.13089 5.27713L7.98461 5.82681L8.45356 6.18932L7.84532 6.22912L7.61729 6.75353L7.38604 6.22966ZM16.9303 6.22966L16.3215 6.1904L16.79 5.82627L16.6437 5.2739L17.161 5.57456L17.68 5.27229L17.5284 5.81874L17.9968 6.18179L17.388 6.22159L17.161 6.74815L16.9303 6.22966ZM2.60932 6.22966L2 6.18663L2.46842 5.82358L2.32268 5.28089L2.8395 5.58155L3.35686 5.28035L3.20628 5.82627L3.6747 6.18879L3.06645 6.22859L2.83843 6.75192L2.60932 6.22966ZM12.1563 6.22966L11.5486 6.18448L12.0159 5.82197L11.8697 5.27605L12.387 5.57671L12.9001 5.27229L12.7559 5.82197L13.2233 6.18448L12.6167 6.22428L12.3881 6.74869L12.1563 6.22966ZM5.13589 4.36278L4.7304 4.33696L5.04232 4.09493L4.94928 3.7265L5.29078 3.93035L5.63282 3.7265L5.53386 4.09332L5.8474 4.33589L5.4419 4.36224L5.29024 4.71292L5.13589 4.36278ZM14.6877 4.35848L14.2822 4.33266L14.5947 4.09063L14.4957 3.72328L14.8388 3.92712L15.1803 3.72328L15.0814 4.09009L15.3998 4.33212L14.9932 4.35794L14.8415 4.70969L14.6877 4.35848ZM9.91368 4.35848L9.50818 4.33266L9.82011 4.08901L9.72169 3.72596L10.067 3.92605L10.4111 3.72112L10.3111 4.08794L10.6247 4.33051L10.2181 4.35633L10.067 4.70754L9.91368 4.35848ZM2.61255 2.95684L2.00323 2.91973L2.47165 2.55668L2.32268 2.00592L2.8395 2.30658L3.35686 2.00538L3.20951 2.55399L3.67685 2.91704L3.06806 2.95684L2.84111 3.48286L2.61255 2.95684ZM12.1601 2.95684L11.5513 2.91435L12.0208 2.5513L11.8697 2.00323L12.387 2.30389L12.9038 2.00323L12.7559 2.5513L13.2244 2.91435L12.6156 2.95307L12.3875 3.47748L12.1601 2.95684ZM16.9341 2.95684L16.3258 2.91435L16.7926 2.5513L16.6426 2L17.1616 2.29958L17.6768 2L17.5294 2.54968L17.9978 2.91273L17.3896 2.95092L17.1616 3.47694L16.9341 2.95684ZM7.3812 2.95684L6.77241 2.91166L7.24191 2.54861L7.09563 2.00484L7.61245 2.3055L8.13089 2.0043L7.97869 2.54753L8.44711 2.91058L7.83832 2.94877L7.61137 3.47479L7.3812 2.95684Z" fill="#FDA816"/>
</g>
</svg>
