<svg width="20" height="20" viewBox="0 0 20 20" fill="none" xmlns="http://www.w3.org/2000/svg">
<g clip-path="url(#clip0_6364_26108)">
<path d="M17.07 2.93C15.19 1.06 12.65 0 10 0C8.02 0 6.09 0.59 4.44 1.69C2.79 2.79 1.52 4.35 0.76 6.17C0 8 -0.19 10.01 0.19 11.95C0.57 13.89 1.53 15.67 2.93 17.07C4.33 18.47 6.11 19.42 8.05 19.81C9.99 20.2 12 20 13.83 19.24C15.66 18.48 17.22 17.2 18.32 15.56C19.42 13.92 20.01 11.98 20.01 10C20.01 7.35 18.95 4.81 17.08 2.93H17.07ZM9.17 18.29C7.25 18.09 5.46 17.24 4.1 15.88C2.74 14.52 1.89 12.72 1.71 10.8L4.34 13.43C4.57 13.66 4.85 13.85 5.15 13.97C5.45 14.1 5.78 14.16 6.11 14.16H8.34C8.56 14.16 8.77 14.25 8.93 14.4C9.09 14.56 9.17 14.77 9.17 14.99V18.28V18.29ZM10.83 18.29V15C10.83 14.34 10.57 13.7 10.1 13.23C9.63 12.76 9 12.5 8.33 12.5H6.1C5.99 12.5 5.88 12.48 5.78 12.44C5.68 12.4 5.59 12.34 5.51 12.26L1.8 8.55C2.04 7.19 2.61 5.92 3.46 4.84C4.31 3.76 5.42 2.91 6.68 2.36C7.94 1.81 9.32 1.59 10.69 1.71C12.06 1.83 13.38 2.28 14.53 3.04L14.34 3.23C14.26 3.31 14.16 3.35 14.05 3.35H12.9C12.35 3.35 11.82 3.57 11.43 3.96C11.04 4.35 10.82 4.88 10.82 5.43V6.26C10.82 6.37 10.78 6.48 10.7 6.55C10.62 6.63 10.52 6.67 10.41 6.67C9.86 6.67 9.33 6.89 8.94 7.28C8.55 7.67 8.33 8.2 8.33 8.75V9.17C8.33 9.83 8.59 10.47 9.06 10.94C9.53 11.41 10.16 11.67 10.83 11.67H13.33C13.55 11.67 13.76 11.76 13.92 11.91C14.08 12.07 14.16 12.28 14.16 12.5V13.3C14.16 13.85 14.38 14.38 14.77 14.77L15.88 15.88C14.52 17.24 12.74 18.09 10.82 18.28L10.83 18.29ZM16.95 14.59L15.96 13.6C15.88 13.52 15.84 13.42 15.84 13.31V12.51C15.84 11.85 15.58 11.21 15.11 10.74C14.64 10.27 14.01 10.01 13.34 10.01H10.84C10.62 10.01 10.41 9.92 10.25 9.77C10.09 9.61 10.01 9.4 10.01 9.18V8.76C10.01 8.65 10.05 8.54 10.13 8.47C10.21 8.39 10.31 8.35 10.42 8.35C10.97 8.35 11.5 8.13 11.89 7.74C12.28 7.35 12.5 6.82 12.5 6.27V5.44C12.5 5.33 12.54 5.22 12.62 5.15C12.7 5.07 12.8 5.03 12.91 5.03H14.06C14.61 5.03 15.14 4.81 15.53 4.42L15.84 4.11C16.63 4.88 17.25 5.81 17.68 6.82C18.11 7.84 18.33 8.93 18.32 10.03C18.32 11.66 17.84 13.26 16.94 14.62L16.95 14.59Z" fill="#374957"/>
</g>
<defs>
<clipPath id="clip0_6364_26108">
<rect width="20" height="20" fill="white"/>
</clipPath>
</defs>
</svg>
