<svg width="15" height="15" viewBox="0 0 15 15" fill="none" xmlns="http://www.w3.org/2000/svg">
<path d="M14.8001 6.25316C15.1789 5.96634 14.9825 5.33385 14.5195 5.33385H9.86147C9.65102 5.33385 9.46863 5.19411 9.39848 4.98083L7.96038 0.3475C7.81307 -0.115833 7.18872 -0.115833 7.04141 0.3475L5.60331 4.98819C5.54018 5.19411 5.35077 5.3412 5.14032 5.3412H0.482296C0.0122855 5.3412 -0.177122 5.96634 0.201693 6.26052L3.9688 9.12877C4.13716 9.26115 4.20731 9.48914 4.14417 9.69507L2.70608 14.3358C2.55876 14.7991 3.07086 15.1889 3.44968 14.9021L7.21678 12.0338C7.38514 11.9014 7.61664 11.9014 7.78501 12.0338L11.5521 14.9021C11.9309 15.1889 12.443 14.7991 12.2957 14.3358L10.8576 9.69507C10.7945 9.48914 10.8576 9.26115 11.033 9.12877L14.8001 6.26052V6.25316Z" fill="#FFC72C"/>
<mask id="mask0_9074_13090" style="mask-type:alpha" maskUnits="userSpaceOnUse" x="0" y="0" width="15" height="15">
<path d="M14.8001 6.25316C15.1789 5.96634 14.9825 5.33385 14.5195 5.33385H9.86147C9.65102 5.33385 9.46863 5.19411 9.39848 4.98083L7.96038 0.3475C7.81307 -0.115833 7.18872 -0.115833 7.04141 0.3475L5.60331 4.98819C5.54018 5.19411 5.35077 5.3412 5.14032 5.3412H0.482296C0.0122855 5.3412 -0.177122 5.96634 0.201693 6.26052L3.9688 9.12877C4.13716 9.26115 4.20731 9.48914 4.14417 9.69507L2.70608 14.3358C2.55876 14.7991 3.07086 15.1889 3.44968 14.9021L7.21678 12.0338C7.38514 11.9014 7.61664 11.9014 7.78501 12.0338L11.5521 14.9021C11.9309 15.1889 12.443 14.7991 12.2957 14.3358L10.8576 9.69507C10.7945 9.48914 10.8576 9.26115 11.033 9.12877L14.8001 6.26052V6.25316Z" fill="#FFC72C"/>
</mask>
<g mask="url(#mask0_9074_13090)">
<rect x="7.5" width="7.5" height="15" fill="#D9D9D9"/>
</g>
</svg>
