<svg width="20" height="20" viewBox="0 0 20 20" fill="none" xmlns="http://www.w3.org/2000/svg">
<path d="M14.4033 1C12.0842 1 10.8671 1.91477 9.81301 2.86765L6.37271 6.19322C5.47191 7.06988 5.33774 8.45156 6.0373 9.41398C6.46854 10.0048 7.13935 10.3764 7.87724 10.4336C8.61514 10.4812 9.32428 10.2335 9.84176 9.72843L11.3942 8.2324L15.3903 11.6533C15.7066 11.9201 15.8024 12.3679 15.6107 12.6633C15.4862 12.8634 15.2945 12.9873 15.0549 13.0254C14.8249 13.054 14.5949 12.9873 14.4224 12.8444L11.2984 10.1286C10.9534 9.83325 10.4359 9.86183 10.1388 10.1953C9.98551 10.3573 9.90884 10.567 9.92801 10.7861C9.93759 11.0053 10.0334 11.2054 10.2059 11.3579L13.1767 13.9878C13.4929 14.2642 13.5887 14.693 13.3971 14.9979C13.2725 15.198 13.0712 15.3219 12.8412 15.36C12.6208 15.3981 12.3908 15.3314 12.2375 15.198L9.13262 12.3298C8.79721 12.0154 8.27973 12.0344 7.96349 12.3584C7.81016 12.5204 7.72392 12.73 7.7335 12.9492C7.7335 13.1683 7.82933 13.3684 7.99224 13.5209L10.6659 16.0079C10.9821 16.2843 11.078 16.7131 10.8863 17.018C10.7617 17.2181 10.5605 17.342 10.3305 17.3801C10.1005 17.4087 9.87051 17.3515 9.69802 17.2086L7.12018 14.9407C3.48822 11.739 1.65786 9.03282 1.65786 6.88883C1.65786 4.74484 3.54572 2.63896 5.62523 2.63896C6.30563 2.63896 6.98602 2.85813 7.60892 3.2774C7.98266 3.53467 8.50014 3.43939 8.75888 3.06776C8.88346 2.88671 8.93138 2.66755 8.89304 2.45791C8.85471 2.23875 8.73013 2.04817 8.54805 1.9243C7.64725 1.32398 6.64103 1 5.62523 1C2.62575 1 0 3.75384 0 6.88883C0 9.55691 1.96452 12.5871 5.98939 16.1413L8.58639 18.4092C9.02721 18.7904 9.60219 19 10.1963 19C10.3113 19 10.4359 19 10.5509 18.9714C11.2601 18.8666 11.8829 18.4664 12.2663 17.8661C12.4388 17.5897 12.5538 17.2943 12.6017 16.9799C12.755 16.9799 12.9083 16.9799 13.0617 16.9608C13.7708 16.856 14.3937 16.4558 14.777 15.8555C15.007 15.4934 15.1316 15.0836 15.1316 14.6548C15.1795 14.6548 15.2274 14.6548 15.2753 14.6358C15.9845 14.531 16.6074 14.1308 16.9907 13.5304C17.6136 12.549 17.3932 11.2054 16.4636 10.4145L12.5729 7.07941L13.3779 6.29804C13.5408 6.14558 13.6271 5.93595 13.6271 5.71678C13.6271 5.49762 13.5408 5.28798 13.3875 5.13552C13.0712 4.82107 12.5442 4.81154 12.2184 5.13552L8.66305 8.56591C8.49056 8.73743 8.2414 8.81366 7.99224 8.80413C7.74308 8.78507 7.52267 8.6612 7.36934 8.45156C7.13935 8.13711 7.20643 7.6702 7.52267 7.35574L10.9342 4.04923C11.7967 3.2774 12.6592 2.62943 14.3841 2.62943C16.454 2.62943 18.3419 4.65908 18.3419 6.8793C18.3419 7.8036 17.9969 8.84224 17.3165 9.97618C17.2015 10.1668 17.1728 10.3859 17.2303 10.5956C17.2878 10.8052 17.4219 10.9862 17.6136 11.1006C17.9969 11.3197 18.524 11.1863 18.7444 10.8147C19.5781 9.4235 19.9998 8.10852 19.9998 6.88883C20.0285 3.75384 17.4028 1 14.4033 1Z" fill="#374957"/>
</svg>
