<svg width="20" height="20" viewBox="0 0 20 20" fill="none" xmlns="http://www.w3.org/2000/svg">
<path fill-rule="evenodd" clip-rule="evenodd" d="M15.6533 4.67028V3.2416C15.6519 3.11492 15.6985 2.99279 15.7831 2.90188C15.8677 2.81097 15.9834 2.75867 16.1048 2.75642H17.2341C17.3556 2.75867 17.4712 2.81097 17.5558 2.90188C17.6404 2.99279 17.6871 3.11492 17.6856 3.2416V6.41955L19.8993 8.31169C19.9546 8.36238 19.9898 8.4327 19.9981 8.50896C20.0064 8.58522 19.9872 8.66197 19.9443 8.7243C19.9214 8.75922 19.8912 8.78827 19.856 8.80925C19.8208 8.83024 19.7814 8.84262 19.741 8.84545H17.9119V18.5445C17.9162 18.9245 17.7761 19.2909 17.5222 19.5637C17.2683 19.8364 16.9213 19.9932 16.5569 20H3.45609C3.09169 19.9932 2.74466 19.8364 2.49077 19.5637C2.23689 19.2909 2.09677 18.9245 2.10103 18.5445V8.84259H0.271444C0.235243 8.84408 0.199149 8.83757 0.165531 8.82348C0.131913 8.8094 0.10153 8.78806 0.0763758 8.76087C0.0508423 8.73314 0.0309357 8.70033 0.0178486 8.66439C0.0047615 8.62845 -0.00123701 8.59013 0.000211692 8.55171C-0.0001982 8.50834 0.00994028 8.46557 0.0296799 8.42739C0.0494195 8.38922 0.0781156 8.35688 0.113088 8.33341L9.73498 0.109361C9.81354 0.0388061 9.91377 0 10.0174 0C10.1211 0 10.2213 0.0388061 10.2999 0.109361L15.6533 4.67028Z" fill="#FA9013"/>
<path fill-rule="evenodd" clip-rule="evenodd" d="M10.2762 2.12295L16.4652 7.29019C16.5172 7.34117 16.5494 7.41034 16.5556 7.4845V18.0367C16.5571 18.1634 16.5104 18.2855 16.4258 18.3764C16.3412 18.4673 16.2256 18.5196 16.1041 18.5219H3.90689C3.78544 18.5196 3.66978 18.4673 3.58519 18.3764C3.50059 18.2855 3.45392 18.1634 3.45539 18.0367V7.57879C3.45343 7.54106 3.46071 7.50344 3.47652 7.46945C3.49234 7.43547 3.51618 7.40623 3.5458 7.38449L9.73482 2.12009C9.80933 2.05045 9.90599 2.01217 10.006 2.0127C10.1061 2.01323 10.2024 2.05252 10.2762 2.12295Z" fill="#FFAE28"/>
<path fill-rule="evenodd" clip-rule="evenodd" d="M10.2774 4.38016L14.8851 8.01872C14.9147 8.04046 14.9385 8.0697 14.9543 8.10368C14.9702 8.13767 14.9774 8.1753 14.9755 8.21302V16.3399C14.9769 16.4666 14.9303 16.5887 14.8457 16.6796C14.7611 16.7705 14.6454 16.8228 14.524 16.8251H5.48893C5.36748 16.8228 5.25182 16.7705 5.16722 16.6796C5.08262 16.5887 5.03595 16.4666 5.03742 16.3399V8.45361C5.03547 8.41588 5.04274 8.37826 5.05855 8.34427C5.07437 8.31029 5.09821 8.28105 5.12783 8.25931L9.73549 4.37787C9.8147 4.31908 9.90959 4.28768 10.0068 4.28809C10.104 4.2885 10.1987 4.3207 10.2774 4.38016Z" fill="#FFC148"/>
<path fill-rule="evenodd" clip-rule="evenodd" d="M10.2781 6.51359L13.3044 8.96349C13.334 8.98523 13.3578 9.01447 13.3736 9.04845C13.3895 9.08244 13.3967 9.12006 13.3948 9.15779V14.6405C13.3962 14.7672 13.3496 14.8893 13.265 14.9802C13.1804 15.0711 13.0647 15.1234 12.9433 15.1257H7.07096C6.94951 15.1234 6.83385 15.0711 6.74925 14.9802C6.66465 14.8893 6.61799 14.7672 6.61945 14.6405V9.3258C6.6175 9.28808 6.62477 9.25045 6.64058 9.21647C6.6564 9.18248 6.68024 9.15324 6.70986 9.1315L9.7367 6.53588C9.81095 6.46828 9.90514 6.42921 10.0036 6.42516C10.1021 6.4211 10.1989 6.45231 10.2781 6.51359Z" fill="#FFD361"/>
<path fill-rule="evenodd" clip-rule="evenodd" d="M10.1662 8.62428L11.7475 10.201C11.7892 10.2478 11.8133 10.3086 11.8155 10.3724V13.1863C11.8174 13.2186 11.8129 13.2508 11.8022 13.2811C11.7916 13.3114 11.775 13.3391 11.7536 13.3624C11.7324 13.3853 11.7068 13.4031 11.6784 13.4147C11.65 13.4262 11.6196 13.4312 11.5892 13.4292H8.42699C8.39657 13.4312 8.36612 13.4262 8.33773 13.4147C8.30934 13.4031 8.28371 13.3853 8.2626 13.3624C8.24115 13.3388 8.22465 13.3108 8.21418 13.2802C8.20371 13.2496 8.19948 13.217 8.20178 13.1846V10.3707C8.20067 10.3387 8.20617 10.3069 8.21789 10.2773C8.22961 10.2477 8.24729 10.2211 8.26973 10.1993L9.85109 8.62257C9.89688 8.58769 9.95219 8.56903 10.0089 8.56934C10.0656 8.56965 10.1207 8.5889 10.1662 8.62428Z" fill="#FFE780"/>
</svg>
