<svg width="20" height="20" viewBox="0 0 20 20" fill="none" xmlns="http://www.w3.org/2000/svg">
<path d="M17.0615 2.92935C15.1824 1.05976 12.6437 0 9.995 0C8.01599 0 6.08696 0.589869 4.43778 1.68962C2.78861 2.78938 1.51924 4.34903 0.75962 6.16863C0 7.99822 -0.189905 10.0078 0.189905 11.9473C0.569715 13.8869 1.52924 15.6665 2.92854 17.0662C4.32784 18.4659 6.10695 19.4157 8.04598 19.8056C9.98501 20.1955 11.994 19.9956 13.8231 19.2357C15.6522 18.4759 17.2114 17.1962 18.3108 15.5565C19.4103 13.9169 20 11.9773 20 9.99778C20 7.34837 18.9405 4.80893 17.0715 2.92935H17.0615ZM15.8821 15.8865C14.3228 17.4461 12.2039 18.3259 9.995 18.3259C8.34583 18.3259 6.73663 17.836 5.36732 16.9262C3.998 16.0064 2.92854 14.7067 2.29885 13.1871C1.66917 11.6674 1.49925 9.98778 1.82909 8.37814C2.15892 6.7685 2.94853 5.27883 4.10795 4.10909C5.26737 2.93935 6.75662 2.14952 8.37581 1.82959C9.995 1.50966 11.6642 1.66963 13.1834 2.29949C14.7026 2.92935 16.002 3.99911 16.9215 5.36881C17.8411 6.7385 18.3208 8.34815 18.3208 9.99778C18.3208 12.2073 17.4413 14.3268 15.8821 15.8865ZM11.1744 8.81804C11.4843 9.12797 11.6642 9.55788 11.6642 9.99778V14.9967C11.6642 15.2166 11.5742 15.4266 11.4243 15.5865C11.2744 15.7465 11.0545 15.8265 10.8346 15.8265C10.6147 15.8265 10.4048 15.7365 10.2449 15.5865C10.085 15.4366 10.005 15.2166 10.005 14.9967V9.99778H9.17541C8.95552 9.99778 8.74563 9.9078 8.58571 9.75783C8.42579 9.59787 8.34583 9.38791 8.34583 9.16796C8.34583 8.94801 8.43578 8.73806 8.58571 8.57809C8.73563 8.41813 8.95552 8.33815 9.17541 8.33815H10.005C10.4448 8.33815 10.8746 8.51811 11.1844 8.82804L11.1744 8.81804ZM8.74563 5.4188C8.74563 4.72895 9.30535 4.16907 9.995 4.16907C10.6847 4.16907 11.2444 4.72895 11.2444 5.4188C11.2444 6.10864 10.6847 6.66852 9.995 6.66852C9.30535 6.66852 8.74563 6.10864 8.74563 5.4188Z" fill="#374957"/>
</svg>
