<svg width="30" height="30" viewBox="0 0 30 30" fill="none" xmlns="http://www.w3.org/2000/svg">
<path d="M22.5 0L7.5 0C3.3625 0 0 3.3625 0 7.5L0 22.5C0 26.6375 3.3625 30 7.5 30L22.5 30C26.6375 30 30 26.6375 30 22.5L30 7.5C30 3.3625 26.6375 0 22.5 0ZM15.9375 20C15.9375 20.5125 15.5125 20.9375 15 20.9375C14.4875 20.9375 14.0625 20.5125 14.0625 20V13.75C14.0625 13.2375 14.4875 12.8125 15 12.8125C15.5125 12.8125 15.9375 13.2375 15.9375 13.75V20ZM15 11.25C14.3125 11.25 13.75 10.6875 13.75 10C13.75 9.3125 14.3125 8.75 15 8.75C15.6875 8.75 16.25 9.3125 16.25 10C16.25 10.6875 15.6875 11.25 15 11.25Z" fill="#2568F2"/>
</svg>
