<svg width="10" height="10" viewBox="0 0 10 10" fill="none" xmlns="http://www.w3.org/2000/svg">
<path d="M5 0C2.23652 0 0 2.23633 0 5C0 7.76367 2.23633 10 5 10C7.76367 10 10 7.76367 10 5C10 2.23633 7.76367 0 5 0ZM5 9.30234C2.62773 9.30234 0.697656 7.37227 0.697656 5C0.697656 2.62773 2.62773 0.697656 5 0.697656C7.37227 0.697656 9.30234 2.62773 9.30234 5C9.30234 7.37227 7.37227 9.30234 5 9.30234ZM5.51348 4.47715V6.98477C5.51348 7.14277 5.2832 7.30059 5.0002 7.30059C4.71719 7.30059 4.49336 7.14258 4.49336 6.98477V4.47715C4.49336 4.29297 4.70391 4.16777 5.0002 4.16777C5.29648 4.16777 5.51348 4.29277 5.51348 4.47715ZM5.5332 3.08848C5.5332 3.33867 5.29629 3.5623 5 3.5623C4.70371 3.5623 4.46035 3.33848 4.46035 3.08848C4.46035 2.83848 4.69727 2.62129 5 2.62129C5.30273 2.62129 5.5332 2.83848 5.5332 3.08848Z" fill="#FFA500"/>
</svg>
