<svg width="20" height="15" viewBox="0 0 20 15" fill="none" xmlns="http://www.w3.org/2000/svg">
<path d="M0 0.90921H20V14.5445H0V0.90921Z" fill="#006C35"/>
<path d="M13.507 11.0433H13.199C13.1638 11.0863 13.1087 11.1337 13.0791 11.1337C13.0495 11.1337 12.943 11.0405 12.943 11.0089C12.943 10.9773 12.991 10.9372 13.035 10.9027V10.8249H7.37031C6.62391 10.8249 6.25031 10.8187 6.00391 10.5926H13.035V10.5152C12.9934 10.485 12.943 10.4338 12.943 10.4087C12.943 10.3761 12.9574 10.3451 12.983 10.3221C13.0087 10.2991 13.0436 10.286 13.0799 10.286C13.1162 10.286 13.1509 10.2991 13.1766 10.3221C13.2022 10.3451 13.2166 10.3761 13.2166 10.4087C13.2166 10.4345 13.167 10.485 13.1246 10.5152V10.5926H14.0799C14.3359 10.5926 14.4406 10.6118 14.4406 10.8249C14.4406 11.0517 14.3726 11.0941 14.2662 11.0941C14.2397 11.0959 14.2131 11.0926 14.1883 11.0839C14.1635 11.0752 14.1412 11.0615 14.123 11.044H13.7525C13.7375 11.0592 13.7191 11.0713 13.6984 11.0797C13.6777 11.0881 13.6553 11.0927 13.6326 11.0927C13.6099 11.0927 13.5875 11.0881 13.5668 11.0797C13.5461 11.0713 13.5277 11.0592 13.5127 11.044L13.507 11.0433ZM13.7471 10.9714H14.0742C14.0587 10.9246 14.0587 10.8749 14.0742 10.8281H13.1189V10.9055C13.1474 10.9264 13.1727 10.9506 13.1941 10.9774H13.5062C13.5216 10.9626 13.5401 10.9507 13.5607 10.9427C13.5814 10.9346 13.6037 10.9304 13.6262 10.9304C13.6487 10.9304 13.671 10.9346 13.6916 10.9427C13.7122 10.9507 13.7309 10.9626 13.7463 10.9774L13.7471 10.9714Z" fill="white"/>
<path d="M13.6969 7.42645C13.7193 7.45013 13.7321 7.47239 13.6969 7.51187C13.6625 7.53914 13.6384 7.55491 13.6016 7.58361C13.5872 7.60729 13.576 7.64531 13.624 7.65536C13.7208 7.67904 13.8969 7.57639 13.8969 7.57424C13.908 7.56655 13.916 7.55584 13.9197 7.54367C13.9235 7.53149 13.9228 7.51853 13.9176 7.50678C13.8968 7.48741 13.8511 7.49961 13.8215 7.49531C13.8055 7.49531 13.7967 7.47018 13.8215 7.43215C13.8386 7.41245 13.8526 7.39074 13.8631 7.36758C13.8751 7.34031 13.8632 7.32021 13.8104 7.30442C13.7658 7.29877 13.7206 7.29877 13.676 7.30442C13.6432 7.31088 13.632 7.3245 13.6264 7.35751C13.6216 7.40918 13.6601 7.40349 13.6969 7.42645ZM13.2848 6.2064C13.2544 6.24443 13.2336 6.27387 13.292 6.30329C13.3504 6.33271 13.4423 6.40813 13.4039 6.49496C13.3839 6.56242 13.4039 6.61548 13.4711 6.51932C13.497 6.47082 13.506 6.41644 13.4969 6.3633C13.4877 6.31016 13.4609 6.26071 13.4199 6.22147C13.3607 6.15401 13.3217 6.16772 13.2809 6.20719L13.2848 6.2064ZM15.1119 4.82997C15.1919 4.89528 15.2399 4.87523 15.1871 4.76471C15.1343 4.65419 15.0681 4.53789 15.0137 4.43383C14.9593 4.32977 14.94 4.34913 14.8736 4.42735C14.8072 4.50557 14.7936 4.56374 14.8184 4.60895C14.9616 5.64093 15.028 6.1792 15.044 6.49137C15.0767 6.6944 15.0355 6.90145 14.9262 7.08164C14.8169 7.26183 14.6453 7.40544 14.4375 7.49102C14.2711 7.5879 14.0864 7.69843 14.4816 7.61375C14.852 7.53265 15.2504 7.31948 15.2504 6.50495C15.2512 5.89136 15.0943 5.23401 15.1119 4.82997ZM14.5039 4.62113C14.4583 4.68572 14.4671 4.70006 14.5191 4.77111C14.5799 4.87338 14.6136 4.98686 14.6176 5.10268C14.6176 5.2132 14.6624 5.19961 14.684 5.09699C14.7101 4.95188 14.6921 4.80307 14.632 4.66633C14.5608 4.52424 14.5407 4.5752 14.5039 4.62113ZM14.9408 6.76908C14.9158 6.63769 14.8538 6.5142 14.7607 6.41025C14.6263 6.24089 14.504 6.08517 14.3856 5.93518C14.3472 5.54621 14.2936 5.12998 14.2936 4.9111C14.3544 4.96277 14.4 4.91107 14.3688 4.82638C14.3376 4.7417 14.2768 4.51423 14.2352 4.41806C14.1936 4.3219 14.1552 4.34628 14.0912 4.43024C14.0272 4.51421 14.0032 4.55438 14.04 4.61754C14.0571 4.97717 14.1047 5.33517 14.1824 5.68831C14.0616 5.54478 13.9479 5.41056 13.8447 5.28569C13.8383 5.14216 13.8233 4.99865 13.8137 4.85512C13.8809 4.90033 13.9112 4.88883 13.8744 4.80343C13.8376 4.71803 13.7608 4.52356 13.724 4.44031C13.6872 4.35707 13.6648 4.35558 13.6104 4.42017C13.5693 4.45847 13.5436 4.50789 13.5369 4.56068C13.5303 4.61347 13.5432 4.66677 13.5736 4.71232C13.5808 4.80346 13.596 4.89956 13.6024 4.98424C13.5367 4.90746 13.4776 4.82857 13.4232 4.75753C13.4896 4.7891 13.5448 4.73816 13.468 4.6786C13.3729 4.60864 13.2834 4.53283 13.2 4.45179C13.1328 4.38003 13.0721 4.37999 13.0721 4.44601C13.0721 4.51203 13.0777 4.56876 13.0721 4.62761C13.0665 4.68646 13.0575 4.73237 13.1455 4.82279C13.3191 5.00436 13.484 5.19169 13.6432 5.36751C13.6956 5.80706 13.7224 6.24878 13.7232 6.69085C13.7152 6.84658 13.6568 6.93772 13.5584 6.96356C13.46 6.98939 13.3641 6.93776 13.2721 6.82006C13.1073 6.61266 13.0487 6.65279 12.9207 6.83364C12.8206 6.97204 12.7301 7.11583 12.6496 7.26421C12.5912 7.38047 12.4847 7.48459 12.3863 7.32886C12.3119 7.18741 12.2785 7.03138 12.2889 6.87525C12.2889 6.7511 12.2689 6.65421 12.2145 6.84941C12.0817 7.3288 12.1633 7.4336 12.3137 7.53622C12.5001 7.67975 12.5608 7.69266 12.6576 7.56995C12.8544 7.33528 12.9055 7.12863 13.0191 7.01165C13.1071 6.92051 13.1071 6.99228 13.1535 7.03749C13.1964 7.0901 13.2513 7.13393 13.3145 7.16609C13.3776 7.19826 13.4476 7.21804 13.5199 7.22409C13.6799 7.24921 13.9616 7.13364 13.9416 6.67937C13.9256 6.40738 13.9048 6.03346 13.8744 5.64162C14.0248 5.8239 14.1592 5.9854 14.2656 6.11529C14.3171 6.33923 14.3394 6.56776 14.332 6.79632C14.3168 7.01161 14.3687 7.01159 14.4215 6.78984C14.4387 6.62122 14.437 6.45151 14.416 6.28323C14.6176 6.5179 14.736 6.67359 14.816 6.78555C14.9104 6.93266 14.9608 7.05038 14.94 6.76978L14.9408 6.76908ZM12.8824 6.25809C12.8824 6.21216 12.9071 6.19856 12.9959 6.13325C13.0759 6.0823 13.2816 5.95163 13.3504 5.89278C13.4192 5.83393 13.468 5.78298 13.484 5.85546C13.5 5.92794 13.5064 5.95239 13.4232 5.99186C13.2958 6.04773 13.1733 6.1123 13.0568 6.18494C12.9808 6.23876 12.8809 6.30399 12.8809 6.25519L12.8824 6.25809ZM12.9072 5.45932C12.8928 5.51816 12.8008 5.51821 12.8088 5.45362C12.812 5.419 12.812 5.38418 12.8088 5.34955C12.807 5.3381 12.8095 5.32642 12.8158 5.31635C12.8222 5.30628 12.8319 5.29843 12.8438 5.29392C12.8556 5.28942 12.869 5.28854 12.8815 5.29147C12.8939 5.2944 12.9048 5.30098 12.9127 5.31013C12.9712 5.38485 13.0197 5.46552 13.0568 5.55051C13.0864 5.60218 13.1016 5.59065 13.1016 5.51889C13.0889 5.44579 13.0838 5.37181 13.0863 5.29786C13.0966 5.25615 13.1229 5.21904 13.1607 5.19309C13.2151 5.16151 13.2408 5.15289 13.2672 5.21245C13.2936 5.27202 13.3255 5.26988 13.3039 5.31652C13.2735 5.37968 13.2079 5.25194 13.1615 5.34237C13.1516 5.44594 13.1498 5.55008 13.1561 5.65388C13.1561 5.71201 13.1248 5.79739 13.076 5.69979C13.0337 5.61264 12.9768 5.53182 12.9072 5.46011V5.45932ZM12.3879 4.93265C12.4943 4.97786 12.608 5.00441 12.5248 4.89533C12.4375 4.76791 12.3716 4.62956 12.3295 4.48482C12.2759 4.35636 12.2631 4.36282 12.1791 4.47334C12.0519 4.64055 12.1656 4.80486 12.1936 4.99791C12.3 5.69259 12.4032 6.40087 12.4336 6.58817C12.4809 6.77702 12.4828 6.97277 12.4393 7.16233C12.4177 7.23409 12.448 7.25351 12.5 7.16811C12.6281 6.90368 12.6442 6.6064 12.5455 6.33202C12.5071 6.03205 12.3856 5.24047 12.3649 4.92327M11.8703 4.90321C11.9287 4.94914 11.9984 4.94911 11.96 4.85223C11.9216 4.75534 11.8929 4.63695 11.8553 4.52643C11.8177 4.41591 11.7952 4.39076 11.7496 4.44172C11.704 4.49267 11.6608 4.52067 11.6248 4.56086C11.6033 4.58445 11.5916 4.61395 11.5916 4.64443C11.5916 4.67491 11.6033 4.7045 11.6248 4.72809C11.7287 5.31713 11.7933 5.9112 11.8184 6.50714C11.8408 6.87027 11.8985 7.03821 11.6393 7.28436C11.4898 7.45514 11.2852 7.58044 11.0535 7.64318C10.9111 7.67906 10.8521 7.7307 11.0065 7.7307C11.1538 7.74906 11.3039 7.72869 11.4385 7.672C11.5731 7.61531 11.6865 7.52477 11.7649 7.41138C11.932 7.25135 12.0128 7.04825 11.9992 6.56671C11.984 5.71774 11.8471 5.35529 11.8711 4.90102L11.8703 4.90321ZM9.98712 7.38335C10.0416 7.3489 10.0992 7.31845 10.1592 7.29224C10.2184 7.26426 10.2656 7.27283 10.2184 7.38335C10.1736 7.51181 10.1968 7.55063 10.2984 7.51905C10.4 7.48747 10.4393 7.46017 10.5145 7.43434C10.5897 7.4085 10.6584 7.40919 10.5512 7.48024C10.4718 7.5433 10.3812 7.59398 10.2832 7.63022C10.1336 7.66179 10.0567 7.61014 10.0879 7.50608C10.1191 7.40202 10.1408 7.36977 10.0496 7.4035C9.94322 7.43795 9.9519 7.4035 9.9879 7.38125L9.98712 7.38335ZM11.1959 5.17592C11.2255 5.25486 11.2624 5.29215 11.2848 5.19598C11.2992 5.1113 11.3303 5.08478 11.3463 5.17592C11.3623 5.26706 11.4264 5.25482 11.444 5.17014C11.4616 5.08546 11.4951 5.04028 11.5111 5.13142C11.5267 5.18488 11.5231 5.24137 11.5008 5.29287C11.4967 5.3022 11.49 5.31043 11.4815 5.31687C11.4729 5.32332 11.4625 5.32776 11.4516 5.32975C11.4406 5.33175 11.4293 5.33129 11.4186 5.32835C11.4079 5.32542 11.3983 5.32009 11.3904 5.31293C11.336 5.27346 11.3216 5.27351 11.2848 5.30724C11.2048 5.37254 11.1712 5.32663 11.1568 5.23549C11.1424 5.14435 11.1824 5.12278 11.2008 5.17373L11.1959 5.17592ZM11.6977 6.81209C11.5002 6.31969 11.2185 5.8578 10.8631 5.44285C10.8511 5.28138 10.8416 5.13137 10.8416 4.99502C10.9104 5.05961 10.9552 5.02092 10.9336 4.93624C10.8806 4.78576 10.8154 4.63892 10.7385 4.49699C10.7073 4.42523 10.6255 4.40585 10.5879 4.50847C10.5335 4.63262 10.5263 4.65848 10.5951 4.74316C10.6019 4.87347 10.617 5.00332 10.64 5.13212C10.56 5.02734 10.4528 4.89886 10.3688 4.78906C10.4968 4.83428 10.5727 4.80058 10.4607 4.69796C10.3487 4.59533 10.1888 4.47764 10.0912 4.3987C9.99362 4.31976 9.95121 4.37286 9.96641 4.44391C9.97615 4.50426 9.97859 4.56539 9.97364 4.62621C9.96644 4.68506 9.98795 4.72446 10.0856 4.75604C10.2808 4.97707 10.476 5.20388 10.6568 5.43856C10.6776 5.63232 10.7239 5.84687 10.7463 6.02269C10.8328 6.41354 10.8576 6.81338 10.8199 7.21042C10.7607 7.38553 10.8199 7.4623 10.9191 7.19605C11.0018 6.89601 11.0093 6.58325 10.9408 6.28034C10.9176 6.12676 10.9113 5.93155 10.8897 5.74999C11.1666 6.09816 11.4094 6.46721 11.6152 6.853C11.6808 6.99868 11.7432 7.03032 11.6984 6.80929L11.6977 6.81209ZM11.1375 4.44391C11.1071 4.49773 11.0864 4.53505 11.144 4.57452C11.1895 4.60295 11.2247 4.6429 11.2449 4.68928C11.2652 4.73567 11.2696 4.78634 11.2576 4.83497C11.2352 4.92539 11.2576 4.99649 11.324 4.86659C11.3499 4.80037 11.3587 4.72975 11.3498 4.66002C11.3409 4.5903 11.3147 4.52326 11.2729 4.46397C11.2097 4.36852 11.172 4.38938 11.1352 4.43961L11.1375 4.44391ZM8.91837 5.86054C8.91011 5.89376 8.90975 5.92818 8.91719 5.96155C8.92463 5.99492 8.93966 6.02651 8.96153 6.05432C8.9698 6.06415 8.98079 6.0719 8.99337 6.07683C9.00594 6.08177 9.01974 6.08367 9.0334 6.08244C9.04707 6.08121 9.06006 6.0769 9.0713 6.06983C9.08254 6.06275 9.09173 6.05316 9.09766 6.04206C9.12006 5.98249 9.13435 5.97677 9.17755 6.02269C9.22075 6.06862 9.40078 6.02845 9.31758 5.80167C9.28078 5.71125 9.26641 5.72996 9.26641 5.8333C9.26641 5.99764 9.20568 5.99761 9.13848 5.84188C9.11688 5.78232 9.08648 5.7823 9.08008 5.86124C9.08008 6.00908 9 6.02919 8.95841 5.8792C8.94481 5.81102 8.93042 5.75793 8.91602 5.85625L8.91837 5.86054ZM9.9543 6.09374C10.1143 6.06216 10.0209 6.04853 9.91446 5.98897C9.80806 5.9294 9.75845 5.93225 9.76485 5.99755C9.77525 6.03487 9.77526 6.0744 9.78966 6.12607C9.84086 6.11171 9.89036 6.1031 9.95196 6.08875L9.9543 6.09374ZM9.6463 5.77653C9.7639 5.62582 9.95995 5.67182 10.1856 5.80745C10.4112 5.94309 10.3201 6.15904 10.1057 6.26956C10.0399 6.30037 9.9713 6.32631 9.90079 6.34709C9.92479 6.3923 9.89435 6.40664 9.82716 6.36645C9.61169 6.42917 9.40143 6.5052 9.19766 6.59396C9.41446 6.60759 10.3175 6.59399 10.4943 6.5739C10.6711 6.5538 10.6448 6.58752 10.5928 6.72387C10.5408 6.86023 10.4799 6.84009 10.3295 6.86018C10.0403 6.91177 9.75667 6.98572 9.48165 7.08121C9.22725 7.17235 9.31671 7.3346 9.57911 7.41857C9.78231 7.4645 9.75989 7.48385 9.72149 7.5879C9.68309 7.69196 9.69193 7.71061 9.44473 7.67831C9.24236 7.66765 9.04772 7.60509 8.8838 7.49811C8.71987 7.39113 8.59353 7.24425 8.51993 7.07481C8.14633 7.53411 7.77682 7.78886 7.43282 7.71064C7.35195 7.69029 7.28118 7.64576 7.23243 7.5844C7.18368 7.52304 7.1599 7.44858 7.16485 7.37336C6.8793 7.48314 6.5851 7.57398 6.28477 7.64529C6.20477 7.67112 6.13445 7.6396 6.24805 7.59439C6.56667 7.45752 6.87446 7.30143 7.16954 7.1272C7.2086 6.99027 7.26389 6.85747 7.33438 6.73106C7.37118 6.65929 7.39512 6.68579 7.39512 6.74463C7.39512 6.78985 7.37992 6.90612 7.38712 6.9908C7.44072 6.95133 7.51516 6.91404 7.55196 6.88103C7.76156 6.71884 7.99528 6.61473 7.83848 6.35638C7.77048 6.23796 7.71672 6.15473 7.69512 6.10163C7.56072 6.05641 7.5968 5.9911 7.65841 5.8813C7.72001 5.7715 7.73837 5.74496 7.85997 5.86983C8.03277 6.04493 8.05445 6.1225 7.94005 6.1103C8.12485 6.52438 8.08005 6.73965 7.78965 6.98581C7.66007 7.10513 7.51038 7.20564 7.3463 7.28366C7.3319 7.39418 7.38309 7.50397 7.62149 7.47095C7.80174 7.41639 7.96757 7.329 8.10841 7.21428C8.24924 7.09955 8.36219 6.95991 8.44005 6.8042C8.37285 6.57528 8.2224 6.16765 8.1336 5.95953C8.088 5.85547 8.1335 5.80961 8.1711 5.72493C8.2087 5.64025 8.23842 5.58926 8.29122 5.70767C8.41786 5.93653 8.51603 6.1772 8.58399 6.42532C8.66399 6.75687 8.64953 7.04103 8.84473 7.19676C8.93858 7.26772 9.05035 7.31705 9.17032 7.34034C9.07832 7.12002 9.26646 6.94995 9.51446 6.87245C9.36406 6.74829 9.12959 6.76831 8.86719 6.75611C8.67439 6.74822 8.69682 6.72891 8.74962 6.58108C8.80242 6.43324 8.86149 6.41164 9.00469 6.35997C9.20069 6.29538 9.39444 6.22941 9.59844 6.17845C9.46324 6.01196 9.54555 5.89641 9.64395 5.77154L9.6463 5.77653ZM8.69844 4.44461C8.64644 4.49054 8.64638 4.49845 8.69278 4.55586C8.76837 4.65439 8.80036 4.77462 8.78243 4.89314C8.77523 4.95772 8.79036 5.02306 8.82716 4.9068C8.85608 4.78196 8.85083 4.65266 8.81192 4.53002C8.77272 4.42811 8.72711 4.40301 8.69591 4.43961L8.69844 4.44461ZM7.68008 4.69936C7.60986 4.83123 7.585 4.97887 7.6088 5.12345C7.63259 5.26803 7.70396 5.40297 7.81368 5.511C7.95608 5.64664 8.06149 5.58278 8.12149 5.43207C8.18149 5.28137 8.23525 5.14504 8.28165 5.0496C8.32805 4.95415 8.36166 4.97275 8.35606 5.06317C8.33366 5.24474 8.3183 5.5376 8.5295 5.6474C8.7407 5.7572 9.06234 5.57061 9.16954 5.37469C9.50954 5.76366 9.8095 5.58205 9.8463 5.20457C9.84268 5.05459 9.81258 4.90615 9.75684 4.76471C9.71844 4.68577 9.74076 4.68573 9.79356 4.7252C9.84636 4.76467 9.93762 4.79694 9.89122 4.66633C9.8547 4.56699 9.78679 4.47931 9.69591 4.41377C9.6223 4.35492 9.60638 4.38792 9.57598 4.43313C9.54558 4.47834 9.55358 4.49053 9.50958 4.52354C9.46558 4.55655 9.47038 4.58095 9.50958 4.65415C9.63438 4.94121 9.75752 5.35458 9.55352 5.39405C9.36712 5.42563 9.24648 5.07468 9.23848 4.92038C9.24051 4.75331 9.21345 4.58697 9.1584 4.42735C9.12561 4.35558 9.10727 4.32336 9.08887 4.32336C9.07047 4.32336 9.0151 4.43598 8.9879 4.47904C8.9607 4.52209 8.988 4.53649 9.0088 4.62691C9.1224 5.08262 9.10801 5.28925 8.86641 5.40623C8.62481 5.52321 8.50001 5.41415 8.50001 5.27062C8.48988 5.12102 8.49475 4.97092 8.51446 4.82209C8.53046 4.6922 8.56726 4.67494 8.51446 4.60676C8.46166 4.53858 8.41842 4.56155 8.34962 4.64408C8.20327 4.84003 8.08505 5.05176 7.99766 5.27421C7.94326 5.4242 7.83767 5.37252 7.76407 5.24837C7.69646 5.08236 7.68084 4.90286 7.71915 4.72949C7.74395 4.62185 7.72887 4.57595 7.68087 4.69436L7.68008 4.69936ZM7.3711 4.58959C7.3871 4.55012 7.35113 4.51067 7.31993 4.57023C7.29833 4.61544 7.28878 4.64702 7.33438 4.675C7.35008 4.64611 7.36138 4.6154 7.36798 4.58381L7.3711 4.58959ZM7.19044 4.53002C7.28244 4.32908 7.58243 4.35486 7.49923 4.61465C7.48767 4.66479 7.468 4.7132 7.44083 4.75823C7.48483 4.81133 7.4623 4.87664 7.3711 4.863C7.21876 5.05021 7.00777 5.19236 6.76485 5.27132C6.61445 5.33017 6.59285 5.28498 6.70645 5.22542C6.91578 5.11258 7.10053 4.96672 7.25196 4.79485C7.20927 4.76256 7.1797 4.71845 7.16798 4.66949C7.15625 4.62052 7.16298 4.5694 7.18712 4.52424L7.19044 4.53002ZM7.13926 5.24767C7.05046 5.34599 6.9792 5.48806 7.1088 5.57346C7.1784 5.62442 7.3199 5.56773 7.3711 5.46869C7.4223 5.36966 7.40246 5.35247 7.31446 5.43715C7.18646 5.55987 7.05844 5.44932 7.19044 5.2814C7.28084 5.16227 7.22794 5.13426 7.13594 5.24478L7.13926 5.24767ZM6.93751 6.67578C6.9507 6.74092 6.9459 6.80795 6.92325 6.87096C6.89285 6.92837 6.92316 6.95562 6.96876 6.88314C7.01786 6.80468 7.03588 6.71363 7.01993 6.62479C7.01113 6.5602 7.01113 6.54016 6.94473 6.51433C6.87833 6.48849 6.84641 6.52578 6.82481 6.57889C6.79121 6.64132 6.82878 6.71236 6.93438 6.67289L6.93751 6.67578ZM5.78087 6.24521C5.64647 6.27607 5.62088 6.23082 5.63048 6.1605C5.64008 6.09017 5.64648 6.06939 5.73848 6.10311C5.79141 6.13124 5.8354 6.17101 5.86641 6.21866C5.83281 6.22512 5.80235 6.23875 5.77755 6.24521H5.78087ZM5.89434 5.95235C5.75914 5.83681 5.64636 5.82825 5.53516 5.9725C5.4957 6.01148 5.46701 6.05811 5.45118 6.10881C5.43535 6.15951 5.4328 6.21287 5.44395 6.26457C5.45115 6.38729 5.42396 6.43178 5.53516 6.46623C5.56975 6.4792 5.60685 6.48585 5.64434 6.48585C5.68183 6.48585 5.71893 6.4792 5.75352 6.46623C5.80632 6.45188 5.87924 6.43248 5.95684 6.40736C5.96499 6.43952 5.96579 6.47286 5.95919 6.5053C5.95259 6.53774 5.93865 6.56865 5.91837 6.59615C5.64157 6.88321 5.21281 7.08985 5.02481 6.90039C4.9686 6.83637 4.92881 6.76207 4.90821 6.6827C4.88761 6.60332 4.88676 6.5208 4.90567 6.44109C4.93607 6.27675 4.8751 6.34995 4.8543 6.40736C4.77373 6.60007 4.77373 6.81245 4.8543 7.00517C4.88486 7.05469 4.92645 7.0981 4.97637 7.13272C5.0263 7.16733 5.08361 7.19243 5.14473 7.20648C5.20586 7.22052 5.26951 7.22319 5.33184 7.21436C5.39417 7.20554 5.4539 7.18539 5.50723 7.15514C5.82723 7.03099 6.1423 6.80994 6.1295 6.50924C6.1295 6.4504 6.12149 6.39946 6.12149 6.35927C6.15109 6.34563 6.20166 6.31405 6.23926 6.2997C6.24966 6.40447 6.23366 6.53443 6.23926 6.63706C6.25699 6.73794 6.24087 6.84121 6.19317 6.93395C6.14547 7.02668 6.06817 7.10467 5.9711 7.15804C5.77484 7.28358 5.54952 7.36774 5.31192 7.4042C4.79272 7.46735 4.67191 7.18384 4.67911 6.80061C4.67911 6.74177 4.70958 6.70159 4.70958 6.61691C4.70398 6.45544 4.67913 6.48132 4.61993 6.64494C4.52516 6.91375 4.54409 7.2044 4.67286 7.46158C4.85366 7.76084 5.46 7.67693 5.9336 7.48173C6.1191 7.39684 6.26822 7.2593 6.35762 7.09058C6.44703 6.92187 6.47166 6.7314 6.42794 6.54875C6.42794 6.45259 6.41928 6.34784 6.41368 6.23732C6.42555 6.23078 6.43555 6.22195 6.44317 6.21148C6.50957 6.40094 6.82485 6.34784 6.92325 6.23732C6.97445 6.18565 6.97433 6.17991 7.01993 6.23732C7.08713 6.32201 7.32007 6.3478 7.38087 6.23154C7.42243 6.12516 7.43252 6.01092 7.41036 5.89996C7.39596 5.80954 7.37111 5.81743 7.30391 5.86264C7.23671 5.90786 7.28884 5.92009 7.29844 5.98468C7.32884 6.23155 7.0808 6.21216 7.0504 5.95883C7.036 5.8031 7.00481 5.86193 6.98321 5.93369C6.87681 6.23725 6.56961 6.29681 6.60001 5.94517C6.60801 5.84254 6.53114 5.87344 6.49434 5.91363C6.46217 5.94154 6.42774 5.96725 6.39122 5.99046C6.36642 5.7034 6.34403 5.38109 6.30723 4.99213C6.39843 5.08829 6.47995 4.97851 6.41915 4.86799C6.37675 4.78331 6.30719 4.59529 6.25919 4.49051C6.21119 4.38574 6.19763 4.41878 6.09923 4.50418C6.00083 4.58958 6.02556 4.6147 6.06876 4.70584C6.06428 4.85593 6.07747 5.00605 6.10801 5.15367C6.12961 5.31514 6.18797 5.65243 6.21837 6.08086C6.17437 6.10024 6.10791 6.13972 6.06231 6.15909C6.02036 6.08109 5.96237 6.01089 5.89122 5.95235H5.89434ZM4.28243 6.77696C4.28751 6.82227 4.28994 6.86774 4.28965 6.91327C4.28019 6.96368 4.26532 7.01321 4.24551 7.06115C4.15351 7.34103 4.28949 7.47735 4.36309 7.37258C4.43669 7.2678 4.46871 7.2822 4.46231 7.36688C4.45511 7.64748 4.14725 7.66468 4.12325 7.43145C4.09528 7.24352 4.12663 7.0523 4.21368 6.87954C4.23208 6.79701 4.26471 6.73247 4.27911 6.77696H4.28243ZM4.12247 6.36715C4.29465 6.19144 4.51523 6.05954 4.76231 5.98468C4.85431 5.95956 4.89844 5.92795 4.89844 6.00474C4.89844 6.08152 4.89837 6.08372 4.81837 6.10382C4.58826 6.16806 4.36879 6.25955 4.16563 6.37582C4.10803 6.41458 4.03113 6.45973 4.11993 6.36715H4.12247ZM5.34727 4.41447C5.33734 4.44063 5.33473 4.46864 5.34005 4.49586C5.34536 4.52308 5.35829 4.54866 5.37755 4.57023C5.38611 4.58027 5.39689 4.5886 5.40919 4.59476C5.42149 4.60092 5.43501 4.60478 5.44903 4.60606C5.46305 4.60734 5.4772 4.60602 5.49063 4.60221C5.50406 4.59839 5.51652 4.59209 5.52715 4.58381C5.56395 4.54434 5.56403 4.53864 5.60723 4.58959C5.62803 4.62906 5.70241 4.6154 5.72481 4.57592C5.73663 4.5602 5.7443 4.54225 5.74708 4.52345C5.74985 4.50465 5.74768 4.4855 5.74083 4.46756C5.71683 4.42163 5.71677 4.43386 5.70157 4.48482C5.68797 4.5695 5.59604 4.55012 5.59044 4.4475C5.58484 4.34487 5.56633 4.40225 5.53673 4.46756C5.48393 4.56444 5.40958 4.54437 5.40958 4.45897C5.40398 4.38936 5.38153 4.32979 5.34473 4.41447H5.34727ZM5.02715 5.77802C5.05035 6.01269 5.12481 6.44688 5.12481 6.59615C5.12481 6.74542 5.15589 6.70739 5.20469 6.62199C5.24236 6.5258 5.25287 6.42266 5.23516 6.32195C5.21996 6.19349 5.21288 5.97819 5.18008 5.68682C5.23573 5.64708 5.28254 5.59845 5.31837 5.54333C5.37677 5.44501 5.39206 5.45216 5.41446 5.52966C5.45846 5.68539 5.63751 5.78949 5.87911 5.64022C6.10551 5.50458 6.00716 5.21819 5.91036 4.90601C5.99036 4.92037 6.02239 4.86158 5.96719 4.78407C5.94007 4.73839 5.90562 4.69657 5.86485 4.65994C5.82725 4.62047 5.78478 4.58812 5.75118 4.62831C5.71758 4.6685 5.68471 4.7001 5.66231 4.7245C5.63991 4.7489 5.63754 4.77614 5.66954 4.84145C5.74746 4.99689 5.80289 5.16071 5.83438 5.32879C5.85678 5.43285 5.81192 5.45862 5.72872 5.45862C5.67134 5.462 5.61466 5.44578 5.57012 5.41315C5.52558 5.38052 5.49665 5.33391 5.48887 5.2828C5.44662 5.17649 5.42682 5.06412 5.43048 4.95131C5.4416 4.9036 5.44189 4.85432 5.43145 4.8065C5.42101 4.75867 5.3999 4.71323 5.36954 4.67281C5.27834 4.56876 5.27122 4.58885 5.24962 4.63909C5.22123 4.71692 5.21621 4.80015 5.23516 4.88026C5.27196 5.02379 5.29364 5.14643 5.31524 5.23111C5.3121 5.27958 5.29692 5.32686 5.2709 5.36944C5.24489 5.41201 5.2087 5.44882 5.16485 5.47728C5.14005 5.28208 5.10317 5.02161 5.08477 4.81421C5.21277 4.77545 5.14726 4.62765 5.03926 4.46546C4.96566 4.34059 4.93511 4.39365 4.87911 4.47115C4.82311 4.54866 4.86479 4.58167 4.90079 4.64697C4.87039 4.69792 4.92311 4.77473 4.94551 4.91898C4.95271 5.01012 4.97764 5.2685 4.99844 5.49742C4.95311 5.49665 4.90906 5.48301 4.87286 5.45853C4.83666 5.43404 4.81019 5.39991 4.79688 5.36103C4.73066 5.23198 4.72205 5.08507 4.77286 4.95052C4.81286 4.85363 4.85287 4.70443 4.78087 4.66353C4.70887 4.62262 4.63755 4.6685 4.58555 4.74027C4.47884 4.876 4.41685 5.03593 4.40645 5.20176C4.39872 5.29058 4.37536 5.37775 4.33751 5.46011C4.30791 5.51321 4.25757 5.51888 4.20157 5.44066C4.11497 5.25218 4.07751 5.04849 4.092 4.84504C4.092 4.7661 4.06713 4.7539 4.03673 4.84504C4.01197 4.92593 3.99968 5.00952 4.00001 5.0934C3.9996 5.28101 4.04574 5.46633 4.13516 5.63593C4.21516 5.77946 4.3223 5.7464 4.3959 5.63014C4.5095 5.45432 4.4647 5.29861 4.5711 5.03882C4.6319 4.87735 4.65124 5.00153 4.63204 5.09769C4.57764 5.36322 4.59431 5.78306 5.02071 5.77732L5.02715 5.77802ZM4.38087 4.75963C4.46087 4.57663 4.46476 4.41442 4.37676 4.47255C4.28876 4.53068 4.25444 4.47263 4.31524 4.41307C4.38884 4.32839 4.48636 4.30255 4.51036 4.4468C4.49807 4.56001 4.45134 4.66796 4.3752 4.75893L4.38087 4.75963Z" fill="white"/>
</svg>
