<svg width="20" height="20" viewBox="0 0 20 20" fill="none" xmlns="http://www.w3.org/2000/svg">
<path d="M18.0208 4.00094C16.8508 2.44094 15.2408 1.25094 13.4108 0.590942C11.5808 -0.0690581 9.58077 -0.179058 7.68077 0.270942C5.78077 0.720942 4.06077 1.72094 2.72077 3.15094C1.38077 4.58094 0.490766 6.36094 0.150766 8.28094C-0.189234 10.2009 0.0507663 12.1809 0.820766 13.9709C1.60077 15.7609 2.88077 17.2909 4.51077 18.3609C6.14077 19.4309 8.05077 20.0009 10.0108 20.0009H15.8308C16.9308 20.0009 17.9908 19.5609 18.7708 18.7809C19.5508 18.0009 19.9908 16.9409 19.9908 15.8409V9.39094C19.8708 7.44094 19.1808 5.57094 18.0108 4.01094L18.0208 4.00094ZM18.3308 15.8409C18.3308 16.5009 18.0708 17.1409 17.6008 17.6109C17.1308 18.0809 16.5008 18.3409 15.8308 18.3409H10.0108C8.83077 18.3409 7.67077 18.0909 6.60077 17.6109C5.53077 17.1309 4.57077 16.4309 3.78077 15.5609C2.99077 14.6909 2.40077 13.6509 2.04077 12.5309C1.68077 11.4109 1.57077 10.2209 1.71077 9.05094C1.93077 7.21094 2.76077 5.49094 4.07077 4.17094C5.38077 2.85094 7.08077 2.00094 8.93077 1.76094C9.29077 1.72094 9.65077 1.69094 10.0108 1.69094C11.9508 1.69094 13.8308 2.36094 15.3308 3.60094C16.2008 4.32094 16.9208 5.22094 17.4308 6.22094C17.9508 7.23094 18.2508 8.33094 18.3308 9.46094V15.8409ZM6.08077 7.27094C5.92077 7.11094 5.84077 6.90094 5.84077 6.68094C5.84077 6.46094 5.93077 6.25094 6.08077 6.09094C6.24077 5.93094 6.45077 5.85094 6.67077 5.85094H10.0008C10.2208 5.85094 10.4308 5.94094 10.5908 6.09094C10.7508 6.24094 10.8308 6.46094 10.8308 6.68094C10.8308 6.90094 10.7408 7.11094 10.5908 7.27094C10.4308 7.43094 10.2208 7.51094 10.0008 7.51094H6.67077C6.45077 7.51094 6.24077 7.42094 6.08077 7.27094ZM13.9208 9.42094C14.0808 9.58094 14.1608 9.79094 14.1608 10.0109C14.1608 10.2309 14.0708 10.4409 13.9208 10.6009C13.7608 10.7609 13.5508 10.8409 13.3308 10.8409H6.66077C6.44077 10.8409 6.23077 10.7509 6.07077 10.6009C5.91077 10.4409 5.83077 10.2309 5.83077 10.0109C5.83077 9.79094 5.92077 9.58094 6.07077 9.42094C6.23077 9.26094 6.44077 9.18094 6.66077 9.18094H13.3308C13.5508 9.18094 13.7608 9.27094 13.9208 9.42094ZM13.9208 12.7509C14.0808 12.9109 14.1608 13.1209 14.1608 13.3409C14.1608 13.5609 14.0708 13.7709 13.9208 13.9309C13.7608 14.0909 13.5508 14.1709 13.3308 14.1709H6.66077C6.44077 14.1709 6.23077 14.0809 6.07077 13.9309C5.91077 13.7709 5.83077 13.5609 5.83077 13.3409C5.83077 13.1209 5.92077 12.9109 6.07077 12.7509C6.23077 12.5909 6.44077 12.5109 6.66077 12.5109H13.3308C13.5508 12.5109 13.7608 12.6009 13.9208 12.7509Z" fill="#374957"/>
</svg>
