<svg width="15" height="16" viewBox="0 0 15 16" fill="none" xmlns="http://www.w3.org/2000/svg">
<path d="M7.50004 10.4546C7.78579 10.4551 8.0677 10.3892 8.32353 10.2619L9.55082 9.64828C10.1764 9.33768 10.5709 8.69846 10.5682 8.00006V6.1794C10.5704 5.48161 10.1759 4.84322 9.55082 4.53303L8.32353 3.9194C7.805 3.66167 7.19569 3.66167 6.67716 3.9194L5.44987 4.53303C4.8246 4.84305 4.42981 5.4815 4.43185 6.1794V8.00006C4.42961 8.69802 4.82411 9.33665 5.44927 9.64707L6.67655 10.2607C6.93227 10.3884 7.21421 10.4548 7.50004 10.4546ZM5.65913 8.00006V6.1794C5.66011 6.11681 5.67067 6.05471 5.69043 5.99531L7.02817 6.66417C7.32524 6.81265 7.67487 6.81265 7.97195 6.66417L9.30969 5.99531C9.32945 6.05471 9.34 6.11681 9.34098 6.1794V8.00006C9.34196 8.23288 9.21031 8.44596 9.00165 8.54926L7.77437 9.16288C7.60132 9.24851 7.39822 9.24851 7.22517 9.16288L5.99789 8.54926C5.78943 8.44579 5.65804 8.23276 5.65913 8.00006ZM11.7955 14.1364H10.1331L12.2729 12.1593C14.909 9.52327 14.909 5.24943 12.273 2.61333C9.63702 -0.0227646 5.36321 -0.0227934 2.72711 2.61319C0.0910156 5.24917 0.0909579 9.52307 2.72697 12.1591C2.73275 12.1649 4.86694 14.1364 4.86694 14.1364H3.2046C2.8657 14.1364 2.59097 14.4111 2.59097 14.75C2.59097 15.0889 2.8657 15.3637 3.2046 15.3637H11.7955C12.1344 15.3637 12.4091 15.0889 12.4091 14.75C12.4091 14.4112 12.1344 14.1364 11.7955 14.1364ZM3.59487 3.48123C5.74689 1.31955 9.24384 1.31172 11.4055 3.46374C13.5672 5.61577 13.575 9.11272 11.423 11.2744L8.97769 13.5332C8.14307 14.3199 6.83861 14.3153 6.00954 13.5228L3.59487 11.2916C1.44144 9.13343 1.44147 5.63941 3.59487 3.48123Z" fill="#6543F5"/>
</svg>
