<svg width="42" height="48" viewBox="0 0 42 48" fill="none" xmlns="http://www.w3.org/2000/svg">
<g filter="url(#filter0_d_107_1824)">
<path d="M20.6667 3C16.2482 3.00476 12.012 4.7243 8.88751 7.78141C5.76301 10.8385 4.0053 14.9835 4 19.3072C4 23.5065 7.32298 30.0784 13.8771 38.8398C14.6573 39.8858 15.6789 40.7367 16.8588 41.3233C18.0386 41.9099 19.3433 42.2157 20.6667 42.2157C21.9901 42.2157 23.2947 41.9099 24.4746 41.3233C25.6544 40.7367 26.676 39.8858 27.4562 38.8398C34.0103 30.0784 37.3333 23.5065 37.3333 19.3072C37.328 14.9835 35.5703 10.8385 32.4458 7.78141C29.3213 4.7243 25.0852 3.00476 20.6667 3ZM20.6667 25.8072C19.3456 25.8072 18.0542 25.4238 16.9558 24.7056C15.8574 23.9875 15.0013 22.9667 14.4957 21.7724C13.9902 20.5781 13.8579 19.264 14.1156 17.9961C14.3734 16.7283 15.0095 15.5637 15.9436 14.6496C16.8778 13.7355 18.0679 13.1131 19.3636 12.8609C20.6593 12.6087 22.0023 12.7381 23.2227 13.2328C24.4432 13.7275 25.4864 14.5652 26.2203 15.64C26.9543 16.7149 27.346 17.9785 27.346 19.2712C27.346 21.0047 26.6423 22.6671 25.3897 23.8928C24.1371 25.1185 22.4381 25.8072 20.6667 25.8072Z" fill="#6543F5"/>
<path d="M20.666 3.5C24.9554 3.50462 29.0657 5.17413 32.0957 8.13867C35.1254 11.103 36.8278 15.12 36.833 19.3076L36.8242 19.6865C36.7314 21.6188 35.9412 24.1012 34.4062 27.1367C32.774 30.3646 30.3229 34.1725 27.0557 38.54V38.541C26.3228 39.5235 25.3622 40.3239 24.252 40.876C23.1418 41.428 21.9133 41.7158 20.667 41.7158C19.4205 41.7158 18.1914 41.4281 17.0811 40.876C15.9709 40.324 15.0111 39.5233 14.2783 38.541L14.2773 38.54C11.0102 34.1726 8.55896 30.3646 6.92676 27.1367C5.28963 23.899 4.50012 21.2904 4.5 19.3076L4.50586 18.916C4.61317 14.8703 6.3022 11.0105 9.2373 8.13867C12.2671 5.1743 16.377 3.50492 20.666 3.5ZM23.4102 12.7695C22.0997 12.2385 20.658 12.0995 19.2676 12.3701C17.8772 12.6408 16.5984 13.309 15.5938 14.292C14.5889 15.2752 13.9039 16.5296 13.626 17.8965C13.3481 19.2635 13.4904 20.6808 14.0352 21.9678C14.5799 23.2545 15.5023 24.3523 16.6826 25.124C17.8629 25.8957 19.2495 26.3076 20.667 26.3076C22.5675 26.3075 24.3922 25.5682 25.7393 24.25C27.0867 22.9315 27.8456 21.141 27.8457 19.2715C27.8457 17.8775 27.4231 16.5157 26.6328 15.3584C25.8426 14.2012 24.7208 13.3007 23.4102 12.7695Z" stroke="#F3F3F3"/>
</g>
<defs>
<filter id="filter0_d_107_1824" x="0" y="0" width="41.3333" height="47.2157" filterUnits="userSpaceOnUse" color-interpolation-filters="sRGB">
<feFlood flood-opacity="0" result="BackgroundImageFix"/>
<feColorMatrix in="SourceAlpha" type="matrix" values="0 0 0 0 0 0 0 0 0 0 0 0 0 0 0 0 0 0 127 0" result="hardAlpha"/>
<feOffset dy="1"/>
<feGaussianBlur stdDeviation="2"/>
<feComposite in2="hardAlpha" operator="out"/>
<feColorMatrix type="matrix" values="0 0 0 0 0 0 0 0 0 0 0 0 0 0 0 0 0 0 0.2 0"/>
<feBlend mode="normal" in2="BackgroundImageFix" result="effect1_dropShadow_107_1824"/>
<feBlend mode="normal" in="SourceGraphic" in2="effect1_dropShadow_107_1824" result="shape"/>
</filter>
</defs>
</svg>
