<svg width="24" height="24" viewBox="0 0 24 24" fill="none" xmlns="http://www.w3.org/2000/svg">
<path d="M12 0C9.3489 0.00291109 6.80721 1.05527 4.93251 2.92622C3.0578 4.79717 2.00318 7.33393 2 9.97998C2 12.55 3.99379 16.572 7.92626 21.934C8.39441 22.5741 9.00737 23.0949 9.71526 23.4539C10.4231 23.8129 11.206 24 12 24C12.794 24 13.5768 23.8129 14.2847 23.4539C14.9926 23.0949 15.6056 22.5741 16.0737 21.934C20.0062 16.572 22 12.55 22 9.97998C21.9968 7.33393 20.9422 4.79717 19.0675 2.92622C17.1928 1.05527 14.6511 0.00291109 12 0ZM12 13.958C11.2074 13.958 10.4325 13.7234 9.77349 13.2839C9.11444 12.8443 8.60077 12.2196 8.29745 11.4887C7.99412 10.7578 7.91476 9.95355 8.06939 9.17762C8.22402 8.4017 8.60571 7.68897 9.16619 7.12956C9.72666 6.57015 10.4408 6.18919 11.2182 6.03485C11.9956 5.88051 12.8014 5.95972 13.5336 6.26247C14.2659 6.56522 14.8918 7.07791 15.3322 7.73571C15.7726 8.3935 16.0076 9.16686 16.0076 9.95798C16.0076 11.0188 15.5854 12.0363 14.8338 12.7864C14.0822 13.5366 13.0629 13.958 12 13.958Z" fill="#2568F2"/>
</svg>
