<svg width="15" height="15" viewBox="0 0 15 15" fill="none" xmlns="http://www.w3.org/2000/svg">
<path d="M14.0814 0.918582C13.4937 0.331193 12.6999 0.00629987 11.8749 0H3.1251C2.2938 0 1.5 0.331193 0.9189 0.918582C0.3375 1.50627 0 2.29375 0 3.12504V11.875C0 12.7062 0.3312 13.5 0.9189 14.0811C1.5063 14.6685 2.3001 14.9937 3.1251 15H11.8752C12.7065 15 13.5003 14.6688 14.0814 14.0811C14.6688 13.4937 14.994 12.6999 15 11.875V3.12504C15 2.29375 14.6688 1.49997 14.0814 0.918882V0.918582ZM6.8751 12.2497C6.8751 12.9567 6.8751 13.3104 6.6555 13.53C6.4359 13.7496 6.0822 13.7496 5.3751 13.7496H3.1251C2.625 13.7496 2.1501 13.5495 1.8 13.1997C1.4499 12.8499 1.2501 12.3685 1.2501 11.8747C1.2501 11.4133 1.2501 11.1826 1.3482 11.0104C1.4148 10.8931 1.512 10.7959 1.6293 10.729C1.8018 10.6309 2.0325 10.6309 2.4939 10.6309H5.3751C6.0822 10.6309 6.4359 10.6309 6.6555 10.8505C6.8751 11.0701 6.8751 11.4238 6.8751 12.1309V12.2497ZM6.8751 7.88114C6.8751 8.58823 6.8751 8.94162 6.6555 9.16152C6.4359 9.38111 6.0822 9.38111 5.3751 9.38111H2.7501C2.043 9.38111 1.6896 9.38111 1.4697 9.16152C1.2498 8.94192 1.2501 8.58823 1.2501 7.88114V7.75604C1.2501 7.04896 1.2501 6.69527 1.4697 6.47567C1.6893 6.25607 2.043 6.25607 2.7501 6.25607H5.3751C6.0822 6.25607 6.4359 6.25607 6.6555 6.47567C6.8751 6.69527 6.8751 7.04896 6.8751 7.75604V7.88114ZM6.8751 3.50603C6.8751 4.21312 6.8751 4.56651 6.6555 4.7864C6.4359 5.006 6.0822 5.006 5.3751 5.006H2.7501C2.043 5.006 1.6896 5.006 1.4697 4.7864C1.2498 4.56681 1.2501 4.21312 1.2501 3.50603V3.12474C1.2501 2.62465 1.4502 2.14976 1.8 1.79966C2.1498 1.44957 2.6313 1.24977 3.1251 1.24977H5.3751C6.0822 1.24977 6.4359 1.24977 6.6555 1.46937C6.8751 1.68897 6.8751 2.04266 6.8751 2.74975V3.50603ZM13.7499 11.8747C13.7499 12.3748 13.5498 12.8496 13.2 13.1997C12.8499 13.5498 12.3687 13.7496 11.8749 13.7496H9.6249C8.9178 13.7496 8.5644 13.7496 8.3445 13.53C8.1249 13.3104 8.1249 12.9567 8.1249 12.2497V7.75604C8.1249 7.04896 8.1249 6.69527 8.3445 6.47567C8.5641 6.25607 8.9178 6.25607 9.6249 6.25607H12.2499C12.957 6.25607 13.3104 6.25607 13.5303 6.47567C13.7502 6.69527 13.7499 7.04896 13.7499 7.75604V11.8747ZM13.7499 3.50603C13.7499 4.21312 13.7499 4.56651 13.5303 4.7864C13.3107 5.0063 12.957 5.006 12.2499 5.006H9.6249C8.9178 5.006 8.5644 5.006 8.3445 4.7864C8.1246 4.56681 8.1249 4.21312 8.1249 3.50603V2.74975C8.1249 2.04266 8.1249 1.68927 8.3445 1.46937C8.5641 1.24948 8.9178 1.24977 9.6249 1.24977H11.8749C12.375 1.24977 12.8499 1.44987 13.2 1.79966C13.5501 2.14976 13.7499 2.63095 13.7499 3.12474V3.50603ZM9.375 7.43985C9.375 7.09606 9.6564 6.81496 9.9999 6.81496H11.8749C12.2187 6.81496 12.5001 7.09636 12.5001 7.43985C12.5001 7.78334 12.2187 8.06474 11.8749 8.06474H9.9999C9.6561 8.06474 9.375 7.78334 9.375 7.43985ZM13.125 9.9397V11.8147C13.125 12.5022 12.5625 13.0647 11.8749 13.0647H9.9999C9.3126 13.0647 8.7501 12.5022 8.7501 11.8147V9.9397C8.7501 9.25241 9.3126 8.68993 9.9999 8.68993H11.8749C12.5625 8.68993 13.125 9.25241 13.125 9.9397Z" fill="#374957"/>
</svg>
