<svg width="20" height="20" viewBox="0 0 20 20" fill="none" xmlns="http://www.w3.org/2000/svg">
<path d="M19.025 7.64168C19.65 8.26668 20 9.11667 20 10C20 10.8833 19.65 11.7333 19.025 12.3583L15.7917 15.5917C15.7167 15.675 15.625 15.7333 15.525 15.775C15.425 15.8167 15.3167 15.8417 15.2 15.8417C15.0917 15.8417 14.9833 15.825 14.875 15.7833C14.775 15.7417 14.6833 15.6833 14.6 15.6C14.525 15.525 14.4583 15.425 14.4167 15.325C14.375 15.225 14.35 15.1167 14.3583 15C14.3583 14.8917 14.3833 14.7833 14.425 14.675C14.4667 14.575 14.5333 14.4833 14.6083 14.4L17.8417 11.1667C17.95 11.05 18.05 10.925 18.1167 10.7833C18.0917 10.7833 18.075 10.8 18.05 10.8L4.98333 10.825C4.75833 10.825 4.55 10.7417 4.39167 10.5833C4.23333 10.425 4.15 10.2167 4.15 9.99166C4.15 9.76666 4.24167 9.55833 4.39167 9.4C4.55 9.24167 4.75833 9.15833 4.98333 9.15833L18.05 9.13333C18.05 9.13333 18.075 9.13333 18.0833 9.13333C18.0167 9.01666 17.9333 8.90834 17.8333 8.80834L14.6 5.575C14.45 5.41667 14.3667 5.20832 14.3667 4.99166C14.3667 4.77499 14.4583 4.56667 14.6083 4.40834C14.7667 4.25834 14.975 4.16667 15.1917 4.16667C15.4083 4.16667 15.6167 4.25 15.775 4.4L19.0083 7.63334L19.025 7.64168ZM5.83333 18.3333H4.16667C3.5 18.3333 2.86667 18.0667 2.4 17.6C1.93333 17.1333 1.66667 16.4917 1.66667 15.8333V4.16667C1.66667 3.5 1.93333 2.86667 2.4 2.4C2.86667 1.93334 3.50833 1.66667 4.16667 1.66667H5.83333C6.05833 1.66667 6.26667 1.57501 6.425 1.42501C6.58333 1.26667 6.66667 1.05833 6.66667 0.833333C6.66667 0.608333 6.575 0.399994 6.425 0.241661C6.26667 0.0833277 6.05833 0 5.83333 0H4.16667C3.05833 0 2 0.441668 1.225 1.225C0.441667 2 0 3.05833 0 4.16667V15.8333C0 16.9417 0.441667 18 1.225 18.775C2.00833 19.5583 3.06667 19.9917 4.16667 20H5.83333C6.05833 20 6.26667 19.9083 6.425 19.7583C6.58333 19.6 6.66667 19.3917 6.66667 19.1667C6.66667 18.9417 6.575 18.7333 6.425 18.575C6.26667 18.4167 6.05833 18.3333 5.83333 18.3333Z" fill="#FE5000"/>
</svg>
