<svg width="30" height="11" viewBox="0 0 30 11" fill="none" xmlns="http://www.w3.org/2000/svg">
<path d="M12.69 5.77734H0V10.0053H12.69V5.77734Z" fill="#84B740"/>
<path d="M12.69 0.00878906H0V4.23979H12.69V0.00878906Z" fill="#259BD6"/>
<path d="M25.3823 9.1458L25.3254 9.1568C25.1908 9.18979 25.0529 9.20757 24.9144 9.20979C24.5824 9.20979 24.1913 9.03979 24.1913 8.24179C24.1913 7.83079 24.2593 7.28479 24.8773 7.28479C25.031 7.29492 25.1829 7.32415 25.3293 7.3718L25.3784 7.3868V9.14679L25.3823 9.1458ZM25.4824 5.1628L25.3823 5.18179V6.6588L25.2924 6.6328L25.2664 6.62479C25.0848 6.56587 24.896 6.53223 24.7053 6.5248C23.4693 6.5248 23.2053 7.4588 23.2053 8.2428C23.1794 8.46799 23.204 8.69613 23.2774 8.9106C23.3508 9.12507 23.4711 9.32046 23.6295 9.48256C23.788 9.64465 23.9806 9.76936 24.1934 9.8476C24.4061 9.92583 24.6337 9.95563 24.8594 9.9348C25.2321 9.94498 25.6038 9.89292 25.9594 9.78079C26.0841 9.76239 26.1969 9.6964 26.2741 9.59666C26.3513 9.49693 26.3868 9.37118 26.3734 9.24579V5.00879C26.0794 5.06179 25.7733 5.1138 25.4733 5.1628" fill="#27292D"/>
<path d="M29.0537 9.17279L29.0007 9.18779L28.8127 9.23679C28.664 9.27863 28.511 9.3028 28.3567 9.30879C28.0667 9.30879 27.8937 9.16579 27.8937 8.92079C27.8937 8.76279 27.9657 8.49478 28.4397 8.49478H29.0537V9.17279ZM28.6247 6.50879C28.1966 6.51676 27.7723 6.59062 27.3667 6.72778L27.0497 6.82179L27.1547 7.5378L27.4637 7.43779C27.7966 7.33091 28.1432 7.27264 28.4927 7.26479C28.6287 7.26479 29.0427 7.26478 29.0427 7.71278V7.9128H28.4667C27.4157 7.9128 26.9297 8.24779 26.9297 8.96779C26.9297 9.58179 27.3777 9.95079 28.1297 9.95079C28.4116 9.94358 28.692 9.90568 28.9657 9.83778H28.9807H28.9957L29.0897 9.85278C29.3837 9.90578 29.6897 9.95779 29.9897 10.0148V7.66379C29.9897 6.90279 29.5297 6.51479 28.6257 6.51479" fill="#27292D"/>
<path d="M21.7325 9.17279L21.6794 9.18779L21.4915 9.23679C21.3429 9.2789 21.1898 9.30308 21.0355 9.30879C20.7455 9.30879 20.5715 9.16579 20.5715 8.92079C20.5715 8.76279 20.6434 8.49478 21.1144 8.49478H21.7285V9.17279H21.7325ZM21.3035 6.50879C20.8753 6.51647 20.451 6.59034 20.0455 6.72778L19.7285 6.82179L19.8345 7.5378L20.1435 7.43779C20.4764 7.33091 20.8229 7.27264 21.1725 7.26479C21.3085 7.26479 21.7225 7.26478 21.7225 7.71278V7.9128H21.1465C20.0955 7.9128 19.6055 8.24779 19.6055 8.96779C19.6055 9.58179 20.0535 9.95079 20.8115 9.95079C21.0934 9.94358 21.3737 9.90568 21.6475 9.83778H21.6625H21.6775L21.7675 9.85278C22.0675 9.90578 22.3675 9.95778 22.6675 10.0188V7.66779C22.6675 6.89879 22.2115 6.51479 21.3075 6.51479" fill="#27292D"/>
<path d="M17.7655 6.51189C17.4132 6.51565 17.0655 6.59261 16.7445 6.73789L16.7065 6.75689L16.6725 6.73089C16.3977 6.56335 16.0775 6.48574 15.7565 6.50889C15.3902 6.50974 15.026 6.56433 14.6755 6.67089C14.3555 6.77089 14.2305 6.92289 14.2305 7.21389V9.90089H15.2305V7.41788L15.2794 7.40288C15.4206 7.35073 15.5699 7.32399 15.7205 7.32389C15.7811 7.31761 15.8423 7.32526 15.8995 7.34624C15.9567 7.36723 16.0084 7.40101 16.0505 7.445C16.0927 7.48899 16.1242 7.54202 16.1428 7.60006C16.1613 7.6581 16.1663 7.7196 16.1575 7.77988V9.90488H17.1445V7.73789C17.1456 7.66379 17.1355 7.58994 17.1145 7.51888L17.0805 7.45489L17.1485 7.42489C17.3029 7.35716 17.4699 7.32307 17.6385 7.32488C17.6991 7.3186 17.7603 7.32625 17.8175 7.34724C17.8747 7.36822 17.9263 7.402 17.9685 7.44599C18.0107 7.48998 18.0422 7.54303 18.0608 7.60107C18.0793 7.65911 18.0843 7.72061 18.0755 7.78089V9.90589H19.0585V7.68288C19.0585 6.89588 18.6365 6.51488 17.7585 6.51488" fill="#27292D"/>
<path d="M28.3126 2.76718C28.1168 2.76627 27.9214 2.74854 27.7286 2.71418L27.6716 2.70318V1.25218C27.6732 1.18228 27.6645 1.11252 27.6456 1.04518L27.6156 0.985183L27.6846 0.959183C27.6996 0.951183 27.7146 0.948183 27.7336 0.940183L27.7446 0.932183L27.8076 0.909183C27.8159 0.905344 27.8246 0.902653 27.8336 0.901183C28.0029 0.862086 28.1759 0.841962 28.3496 0.841183C28.9636 0.841183 29.0356 1.38718 29.0356 1.79818C29.0356 2.59818 28.6356 2.76618 28.3086 2.76618M28.3086 0.00818292H28.2846C28.0348 -0.0158871 27.7827 0.0132899 27.545 0.0937887C27.3073 0.174287 27.0894 0.304278 26.9056 0.475183C26.7868 0.638004 26.7234 0.834635 26.7246 1.03618V2.53618C26.7284 2.60028 26.7182 2.66444 26.6946 2.72418L26.6606 2.78818H24.8406V1.74618C24.8623 1.52533 24.8363 1.30239 24.7644 1.09245C24.6925 0.882511 24.5763 0.690461 24.4238 0.529288C24.2712 0.368115 24.0859 0.241577 23.8802 0.158231C23.6745 0.0748849 23.4533 0.0366743 23.2316 0.0461829H22.3156C22.2776 0.314183 22.2476 0.502183 22.2106 0.769183H23.1226C23.6016 0.769183 23.8536 1.17618 23.8536 1.80118V2.85018L23.7896 2.81618C23.72 2.79493 23.6474 2.78481 23.5746 2.78618H21.9996C21.9696 2.98618 21.9316 3.24618 21.8906 3.50618H26.7326C26.8986 3.47218 27.0906 3.44218 27.2566 3.41618C27.5798 3.54175 27.9239 3.60454 28.2706 3.60118C28.5064 3.61345 28.7419 3.57508 28.9616 3.48866C29.1813 3.40225 29.3799 3.26979 29.5441 3.1002C29.7083 2.93061 29.8342 2.72782 29.9135 2.50548C29.9928 2.28313 30.0235 2.04639 30.0036 1.81118C30.0233 1.57864 29.9939 1.34455 29.9171 1.12416C29.8404 0.90376 29.7181 0.701999 29.5582 0.532007C29.3983 0.362015 29.2044 0.227603 28.9891 0.137523C28.7738 0.0474433 28.5419 0.0037142 28.3086 0.00918292" fill="#27292D"/>
<path d="M19.8222 3.95006H19.8673C20.9183 3.95006 21.4082 3.60306 21.4082 2.75006C21.4089 2.59679 21.3775 2.44508 21.3161 2.30466C21.2546 2.16424 21.1645 2.0382 21.0516 1.93463C20.9386 1.83107 20.8052 1.75225 20.66 1.70325C20.5148 1.65424 20.3609 1.63612 20.2083 1.65006H19.2402C19.1793 1.65699 19.1176 1.6504 19.0595 1.63075C19.0014 1.6111 18.9484 1.57888 18.9042 1.53638C18.8599 1.49388 18.8257 1.44216 18.8037 1.38489C18.7818 1.32762 18.7728 1.26622 18.7773 1.20506C18.7773 1.01706 18.8493 0.783059 19.3233 0.783059H21.4413C21.4863 0.508059 21.5092 0.335059 21.5502 0.0600586H19.3503C18.3253 0.0600586 17.8092 0.490059 17.8092 1.20506C17.8092 1.92006 18.2573 2.28306 19.0093 2.28306H19.9772C20.039 2.28222 20.1002 2.29389 20.1573 2.31736C20.2144 2.34084 20.2661 2.37563 20.3094 2.41965C20.3526 2.46366 20.3865 2.51599 20.409 2.57346C20.4315 2.63093 20.4422 2.69237 20.4403 2.75406C20.4429 2.82361 20.4303 2.8929 20.4031 2.95698C20.3759 3.02106 20.3349 3.07835 20.2831 3.12477C20.2312 3.17119 20.1697 3.20559 20.103 3.22552C20.0364 3.24545 19.9661 3.25041 19.8973 3.24006H19.7303L16.6303 3.23206H16.0653C15.5863 3.23206 15.2513 2.96106 15.2513 2.33206V1.88906C15.2513 1.23306 15.5113 0.826059 16.0653 0.826059H16.9843C17.0253 0.547059 17.0522 0.370059 17.0892 0.106059H15.8342C15.6115 0.100444 15.3902 0.142242 15.1848 0.22868C14.9794 0.315117 14.7948 0.44422 14.6431 0.60743C14.4914 0.770639 14.3762 0.964226 14.305 1.17535C14.2339 1.38648 14.2084 1.61033 14.2303 1.83206V2.32206C14.21 2.53891 14.2376 2.75757 14.3111 2.96259C14.3846 3.1676 14.5023 3.35397 14.6557 3.5085C14.8092 3.66303 14.9948 3.78196 15.1993 3.85688C15.4038 3.9318 15.6223 3.96088 15.8392 3.94206H16.7553H18.4353H19.8222V3.95006Z" fill="#27292D"/>
</svg>
