<svg width="85" height="85" viewBox="0 0 85 85" fill="none" xmlns="http://www.w3.org/2000/svg">
<path d="M85 38.25V46.75C84.9988 47.8768 84.5506 48.9571 83.7538 49.7538C82.9571 50.5506 81.8768 50.9988 80.75 51H74.6925C73.9323 53.89 72.7822 56.663 71.2739 59.2427L75.562 63.5432C76.3532 64.3407 76.797 65.4187 76.7967 66.5421C76.7964 67.6655 76.3521 68.7433 75.5606 69.5405L69.5398 75.5606C68.7323 76.3331 67.6579 76.7642 66.5404 76.7642C65.4229 76.7642 64.3486 76.3331 63.5411 75.5606L59.2427 71.2739C56.663 72.7822 53.89 73.9323 51 74.6925V80.75C50.9988 81.8768 50.5506 82.9571 49.7538 83.7538C48.9571 84.5506 47.8768 84.9988 46.75 85H38.25C37.1232 84.9988 36.0429 84.5506 35.2462 83.7538C34.4494 82.9571 34.0012 81.8768 34 80.75V74.6925C32.2446 74.2277 30.5301 73.6204 28.8736 72.8767C28.6658 72.7813 28.4841 72.6373 28.3436 72.4569C28.2032 72.2765 28.1082 72.065 28.0666 71.8402C28.025 71.6154 28.0381 71.3839 28.1048 71.1652C28.1714 70.9465 28.2897 70.747 28.4495 70.5836L34.4704 64.5483C34.6514 64.3672 34.878 64.2385 35.1261 64.1758C35.3743 64.1131 35.6349 64.1187 35.8801 64.192C38.0276 64.8371 40.2577 65.1654 42.5 65.1667C46.983 65.1667 51.3654 63.8373 55.0929 61.3466C58.8204 58.856 61.7257 55.3159 63.4413 51.1742C65.1569 47.0324 65.6057 42.4749 64.7311 38.078C63.8565 33.681 61.6977 29.6422 58.5278 26.4722C55.3578 23.3023 51.3189 21.1435 46.922 20.2689C42.5251 19.3943 37.9676 19.8431 33.8258 21.5587C29.684 23.2743 26.144 26.1796 23.6534 29.9071C21.1627 33.6346 19.8333 38.017 19.8333 42.5C19.8354 44.7379 20.1637 46.9636 20.808 49.1067C20.8814 49.3516 20.8871 49.6118 20.8245 49.8596C20.7619 50.1075 20.6333 50.3338 20.4524 50.5144L14.4171 56.5491C14.2539 56.7095 14.0544 56.8282 13.8356 56.8953C13.6168 56.9623 13.385 56.9756 13.16 56.9342C12.9349 56.8927 12.7231 56.7977 12.5426 56.6571C12.362 56.5165 12.218 56.3345 12.1226 56.1264C11.3796 54.4696 10.7726 52.7552 10.3075 51H4.25C3.12321 50.9988 2.04292 50.5506 1.24615 49.7538C0.449392 48.9571 0.00122994 47.8768 0 46.75V38.25C0.00122994 37.1232 0.449392 36.0429 1.24615 35.2462C2.04292 34.4494 3.12321 34.0012 4.25 34H10.3075C11.0678 31.1099 12.2179 28.3366 13.7261 25.7566L9.43799 21.4568C8.64684 20.6593 8.20304 19.5813 8.2033 18.4579C8.20357 17.3345 8.64788 16.2567 9.43941 15.4595L15.4602 9.43938C16.2677 8.6669 17.3421 8.23576 18.4596 8.23576C19.5771 8.23576 20.6514 8.6669 21.4589 9.43938L25.7573 13.7261C28.337 12.2178 31.11 11.0677 34 10.3075V4.25C34.0012 3.12321 34.4494 2.04292 35.2462 1.24615C36.0429 0.449392 37.1232 0.00122994 38.25 0H46.75C47.8768 0.00122994 48.9571 0.449392 49.7538 1.24615C50.5506 2.04292 50.9988 3.12321 51 4.25V10.3075C53.89 11.0677 56.663 12.2178 59.2427 13.7261L63.5432 9.43799C64.3509 8.66634 65.425 8.23585 66.5421 8.23612C67.6592 8.23638 68.7331 8.66737 69.5405 9.43941L75.5606 15.4602C76.3524 16.2577 76.7968 17.3358 76.7968 18.4596C76.7968 19.5833 76.3524 20.6615 75.5606 21.4589L71.2739 25.7566C72.7821 28.3366 73.9322 31.1099 74.6925 34H80.75C81.8768 34.0012 82.9571 34.4494 83.7538 35.2462C84.5506 36.0429 84.9988 37.1232 85 38.25ZM58.6374 35.2693C58.5585 35.0424 58.4236 34.839 58.2451 34.6781C58.0666 34.5172 57.8504 34.404 57.6165 34.349C57.3826 34.294 57.1386 34.299 56.9071 34.3635C56.6756 34.428 56.4642 34.55 56.2924 34.718L49.8462 41.165L45.3382 39.6619L43.8357 35.1539L50.282 28.7076C50.4501 28.5359 50.572 28.3245 50.6366 28.093C50.7011 27.8615 50.7061 27.6175 50.6511 27.3835C50.5961 27.1496 50.4829 26.9334 50.322 26.7549C50.1611 26.5764 49.9577 26.4415 49.7307 26.3627C47.3045 25.5436 44.7016 25.3985 42.1994 25.9428C39.6973 26.487 37.3898 27.7002 35.5231 29.453C33.6563 31.2057 32.3004 33.4323 31.5998 35.8953C30.8992 38.3582 30.8803 40.9651 31.545 43.438L2.19902 72.7841C0.870688 74.1124 0.124439 75.914 0.124439 77.7926C0.124439 79.6711 0.870688 81.4727 2.19902 82.801C3.52735 84.1294 5.32896 84.8756 7.2075 84.8756C9.08605 84.8756 10.8877 84.1294 12.216 82.801L41.562 53.455C44.0349 54.1197 46.6418 54.1008 49.1047 53.4002C51.5677 52.6997 53.7943 51.3437 55.5471 49.477C57.2999 47.6102 58.5131 45.3027 59.0573 42.8006C59.6016 40.2984 59.4564 37.6955 58.6374 35.2693Z" fill="#D9D9D9"/>
</svg>
