<svg width="28" height="17" viewBox="0 0 28 17" fill="none" xmlns="http://www.w3.org/2000/svg">
<path d="M17.7858 15.1814H10.2148V1.81641H17.7858V15.1814Z" fill="#FF5F00"/>
<path d="M10.695 8.50033C10.6968 7.20758 10.9958 5.93255 11.5688 4.77376C12.1419 3.61496 12.9737 2.60344 14 1.81733C12.4685 0.634763 10.5869 -0.00449236 8.652 0.000331371C6.37756 -0.0196487 4.18831 0.864618 2.56578 2.45864C0.943259 4.05266 0.0203319 6.22589 0 8.50033C0.0203319 10.7748 0.943259 12.948 2.56578 14.542C4.18831 16.136 6.37756 17.0203 8.652 17.0003C10.5871 17.0049 12.4686 16.3653 14 15.1823C12.9746 14.3957 12.1438 13.384 11.5716 12.2252C10.9994 11.0664 10.7012 9.79166 10.7 8.49933" fill="#EB001B"/>
<path d="M28 8.50033C27.9797 10.7748 27.0567 12.948 25.4342 14.542C23.8117 16.136 21.6225 17.0203 19.348 17.0003C17.4131 17.0049 15.5316 16.3657 14 15.1833C15.0277 14.3986 15.8605 13.3874 16.4337 12.2284C17.007 11.0694 17.3052 9.79384 17.3052 8.50083C17.3052 7.20782 17.007 5.93223 16.4337 4.77323C15.8605 3.61423 15.0277 2.60306 14 1.81833C15.5315 0.635609 17.413 -0.00397786 19.348 0.000331371C21.6225 -0.0196487 23.8117 0.864618 25.4342 2.45864C27.0567 4.05266 27.9797 6.22589 28 8.50033Z" fill="#F79E1B"/>
<path d="M27.729 13.7665V13.4365H27.641L27.541 13.6636L27.441 13.4365H27.353V13.7665H27.415V13.5165L27.509 13.7305H27.573L27.673 13.5156V13.7645H27.735L27.729 13.7665ZM27.1741 13.7665V13.4935H27.286V13.4376H27V13.4935H27.1121V13.7665H27.1741Z" fill="#F79410"/>
</svg>
