<svg width="20" height="20" viewBox="0 0 20 20" fill="none" xmlns="http://www.w3.org/2000/svg">
<path d="M1.66667 11.6004C2.58333 11.6004 3.33333 10.8804 3.33333 10.0004C3.33333 9.12039 2.58333 8.40039 1.66667 8.40039C0.75 8.40039 0 9.11239 0 10.0004C0 10.8884 0.75 11.6004 1.66667 11.6004ZM10 11.6004C10.9167 11.6004 11.6667 10.8804 11.6667 10.0004C11.6667 9.12039 10.9167 8.40039 10 8.40039C9.08333 8.40039 8.33333 9.12039 8.33333 10.0004C8.33333 10.8804 9.08333 11.6004 10 11.6004ZM18.3333 11.6004C19.25 11.6004 20 10.8804 20 10.0004C20 9.12039 19.25 8.40039 18.3333 8.40039C17.4167 8.40039 16.6667 9.12039 16.6667 10.0004C16.6667 10.8804 17.4167 11.6004 18.3333 11.6004Z" fill="#374957"/>
</svg>
