<svg width="20" height="20" viewBox="0 0 20 20" fill="none" xmlns="http://www.w3.org/2000/svg">
<path d="M19.1667 9.1665H0.833333C0.373096 9.1665 0 9.5396 0 9.99984C0 10.4601 0.373096 10.8332 0.833333 10.8332H19.1667C19.6269 10.8332 20 10.4601 20 9.99984C20 9.5396 19.6269 9.1665 19.1667 9.1665Z" fill="#374957"/>
<path d="M19.1679 9.1665L0.834554 9.1665C0.374317 9.1665 0.0012207 9.5396 0.0012207 9.99984C0.0012207 10.4601 0.374317 10.8332 0.834554 10.8332L19.1679 10.8332C19.6281 10.8332 20.0012 10.4601 20.0012 9.99984C20.0012 9.5396 19.6281 9.1665 19.1679 9.1665Z" fill="#374957"/>
</svg>
