<svg width="20" height="20" viewBox="0 0 20 20" fill="none" xmlns="http://www.w3.org/2000/svg">
<path d="M0.355427 2.05868C0.134486 1.8278 0.00960615 1.52958 0.00960615 1.21212C0.00960615 0.894661 0.134486 0.586821 0.355427 0.35594C0.576369 0.12506 0.883766 0 1.20077 0H18.8088C19.1258 0 19.4332 0.13468 19.6542 0.35594C19.8751 0.586821 20 0.885041 20 1.2025C20 1.51996 19.8751 1.8278 19.6542 2.04906C19.4332 2.27994 19.1258 2.405 18.8088 2.405H1.19116C0.874159 2.405 0.566763 2.27032 0.345821 2.04906L0.355427 2.05868ZM18.8088 5.86821H7.59846C7.28146 5.86821 6.97406 6.00289 6.75312 6.22415C6.53218 6.45503 6.4073 6.75325 6.4073 7.07071C6.4073 7.38817 6.53218 7.69601 6.75312 7.91727C6.97406 8.14815 7.28146 8.27321 7.59846 8.27321H18.8088C19.1258 8.27321 19.4332 8.13853 19.6542 7.91727C19.8751 7.68639 20 7.38817 20 7.07071C20 6.75325 19.8751 6.44541 19.6542 6.22415C19.4332 5.99327 19.1258 5.86821 18.8088 5.86821ZM18.8088 17.595H7.59846C7.28146 17.595 6.97406 17.7297 6.75312 17.9509C6.53218 18.1818 6.4073 18.48 6.4073 18.7975C6.4073 19.115 6.53218 19.4228 6.75312 19.6441C6.97406 19.8749 7.28146 20 7.59846 20H18.8088C19.1258 20 19.4332 19.8653 19.6542 19.6441C19.8751 19.4132 20 19.115 20 18.7975C20 18.48 19.8751 18.1722 19.6542 17.9509C19.4332 17.7201 19.1258 17.595 18.8088 17.595ZM18.8088 11.7268H1.19116C0.874159 11.7268 0.566763 11.8615 0.345821 12.0827C0.12488 12.3136 0 12.6118 0 12.9293C0 13.2468 0.12488 13.5546 0.345821 13.7759C0.566763 14.0067 0.874159 14.1318 1.19116 14.1318H18.7992C19.1162 14.1318 19.4236 13.9971 19.6446 13.7759C19.8655 13.545 19.9904 13.2468 19.9904 12.9293C19.9904 12.6118 19.8655 12.304 19.6446 12.0827C19.4236 11.8519 19.1162 11.7268 18.7992 11.7268H18.8088Z" fill="#374957"/>
</svg>
