<svg width="20" height="18" viewBox="0 0 20 18" fill="none" xmlns="http://www.w3.org/2000/svg">
<path d="M18.5039 2.25806C17.487 1.19355 16.0785 0.556452 14.5866 0.5C13.6448 0.516129 12.728 0.766129 11.9279 1.23387C11.1278 1.70161 10.461 2.3629 10.0026 3.16129C9.54422 2.3629 8.8858 1.70161 8.07735 1.23387C7.2689 0.766129 6.36043 0.516129 5.41863 0.5C3.27665 0.58871 1.31804 1.84677 0.426243 3.87097C0.10953 4.58871 0.00118137 5.3871 0.00118137 6.16935V6.18548C0.00118137 7.41129 0.451246 8.66936 1.16802 9.91129H0.8263C0.376235 9.93548 0.026185 10.2742 0.00118137 10.7097C-0.0238222 11.1694 0.351232 11.5645 0.8263 11.5887H10.2693C10.511 11.6048 10.7444 11.5161 10.9111 11.3468C11.2361 11.0161 11.2361 10.4919 10.9111 10.1613L7.46892 6.66935C7.3189 6.51613 7.10221 6.42742 6.88551 6.42742C6.66881 6.42742 6.45211 6.51613 6.30209 6.66935C6.14373 6.83065 6.06039 7.04032 6.06039 7.25806C6.06039 7.47581 6.14373 7.69355 6.30209 7.84677L8.33572 9.90323H3.13497C2.1765 8.50806 1.66809 7.24194 1.66809 6.17742C1.60975 5.15323 1.97647 4.15323 2.67657 3.39516C3.37667 2.62903 4.36848 2.16935 5.41863 2.10484C6.46878 2.16935 7.46059 2.62903 8.16069 3.39516C8.86079 4.16129 9.22751 5.16129 9.16917 6.17742C9.16917 6.39516 9.26085 6.59677 9.41087 6.75C9.56923 6.90323 9.77759 6.98387 10.0026 6.98387C10.2277 6.98387 10.436 6.89516 10.5944 6.75C10.7527 6.59677 10.8361 6.39516 10.8361 6.17742C10.7777 5.15323 11.1445 4.15323 11.8446 3.39516C12.5447 2.62903 13.5365 2.16935 14.5866 2.10484C15.6368 2.16935 16.6286 2.62903 17.3287 3.39516C18.0288 4.16129 18.3955 5.16129 18.3372 6.17742C18.3372 8.51613 15.8785 11.8548 11.5945 15.3306C11.1445 15.7016 10.586 15.8952 10.0026 15.8952C9.41921 15.8952 8.85246 15.6935 8.40239 15.3306C7.27723 14.4194 6.71882 13.9435 5.86036 13.0645C5.702 12.9032 5.49364 12.8145 5.26027 12.8145C4.52683 12.8145 4.14345 13.6694 4.64352 14.1774C5.66033 15.2097 6.30209 15.7258 7.32724 16.5565C8.07735 17.1613 9.01915 17.5 9.99429 17.5C10.9694 17.5 11.9112 17.1694 12.6613 16.5565C16.0035 13.8387 19.9957 9.83871 19.9957 6.16935C20.0541 4.71774 19.5123 3.31452 18.4955 2.24194L18.5039 2.25806Z" fill="#D9D9D9"/>
</svg>
