<svg width="20" height="20" viewBox="0 0 20 20" fill="none" xmlns="http://www.w3.org/2000/svg">
<path d="M18.7755 1.21616C18.0008 0.441482 16.9513 0 15.8601 0H4.13161C3.03207 0 1.98251 0.441482 1.20783 1.21616C0.433153 1.99917 0 3.06539 0 4.16493V15.8351C0 16.9429 0.433153 17.9925 1.21616 18.7755C1.99084 19.5585 3.0404 20 4.13994 20H15.8517C16.9513 20 18.0092 19.5585 18.7755 18.7755C19.5585 17.9925 20 16.9346 20 15.8351V4.1566C20 3.04873 19.5502 1.99917 18.7838 1.21616H18.7755ZM18.3424 15.8267C18.3424 16.4931 18.0841 17.1262 17.6177 17.601C17.1512 18.0591 16.5264 18.334 15.8601 18.334H4.13161C3.46522 18.334 2.84048 18.0758 2.37401 17.601C1.91587 17.1345 1.64931 16.4931 1.64931 15.8267V8.59642H18.3424V15.8267ZM18.3424 6.23906H1.64931V4.14827C1.64931 3.48188 1.90754 2.84048 2.37401 2.37401C2.84048 1.91587 3.47355 1.64098 4.13161 1.64098H15.8601C16.5264 1.64098 17.1595 1.89921 17.6177 2.37401C18.0758 2.84048 18.3424 3.48188 18.3424 4.14827V6.23906ZM6.18909 13.7859C6.50562 14.1025 6.68055 14.5356 6.68055 14.9771C6.68055 15.3103 6.58892 15.6268 6.39733 15.91C6.21408 16.1849 5.95585 16.4015 5.64765 16.5348C5.34777 16.6681 5.00625 16.7014 4.68138 16.6347C4.34819 16.5681 4.05664 16.4098 3.82341 16.1766C3.59017 15.935 3.4319 15.6268 3.36526 15.302C3.29863 14.9854 3.33194 14.6439 3.45689 14.3357C3.58184 14.0358 3.79842 13.7693 4.0733 13.5777C4.34819 13.3944 4.66472 13.2945 4.99792 13.2945C5.4394 13.2945 5.86422 13.4694 6.18076 13.7942L6.18909 13.7859Z" fill="#374957"/>
</svg>
