<svg width="20" height="20" viewBox="0 0 20 20" fill="none" xmlns="http://www.w3.org/2000/svg">
<path d="M5.83333 7.49688C5.83333 7.03873 6.20833 6.66389 6.66667 6.66389H13.3333C13.7917 6.66389 14.1667 7.03873 14.1667 7.49688C14.1667 7.95502 13.7917 8.32986 13.3333 8.32986H6.66667C6.20833 8.32986 5.83333 7.95502 5.83333 7.49688ZM6.66667 11.6618H11.6667C12.125 11.6618 12.5 11.287 12.5 10.8288C12.5 10.3707 12.125 9.99583 11.6667 9.99583H6.66667C6.20833 9.99583 5.83333 10.3707 5.83333 10.8288C5.83333 11.287 6.20833 11.6618 6.66667 11.6618ZM2.61667 19.5918C2.54167 19.4586 2.5 19.317 2.5 19.1587V4.16493C2.5 3.05706 2.94167 1.99917 3.725 1.22449C4.50833 0.449813 5.55833 0 6.66667 0H13.3333C14.4417 0 15.5 0.441483 16.275 1.22449C17.0583 2.0075 17.4917 3.06539 17.5 4.16493V19.1587C17.5 19.3086 17.4583 19.4586 17.3833 19.5918C17.3083 19.7251 17.1917 19.8251 17.0583 19.9C16.925 19.9667 16.775 20 16.625 19.9917C16.475 19.9833 16.325 19.9334 16.2 19.8501L14.45 18.6506L12.7 19.8501C12.5583 19.9417 12.4 19.9917 12.2333 20C12.0667 20 11.9 19.95 11.7667 19.8501L10.0167 18.6506L8.26667 19.8501C8.125 19.9417 7.96667 19.9917 7.79167 19.9917C7.61667 19.9917 7.45833 19.9417 7.31667 19.8501L5.55833 18.6506L3.8 19.8501C3.675 19.9334 3.525 19.9833 3.375 19.9917C3.225 20 3.075 19.9667 2.94167 19.9C2.80833 19.8334 2.69167 19.7251 2.61667 19.5918ZM4.16667 17.576L5.09167 16.9513C5.23333 16.8596 5.39167 16.8097 5.55833 16.8097C5.725 16.8097 5.89167 16.8596 6.025 16.9513L7.775 18.1508L9.525 16.9513C9.66667 16.8596 9.825 16.8013 10 16.8013C10.175 16.8013 10.3333 16.8513 10.475 16.9513L12.225 18.1508L13.975 16.9513C14.1167 16.8596 14.275 16.8013 14.45 16.8013C14.625 16.8013 14.7833 16.8513 14.925 16.9513L15.8417 17.576V4.16493C15.8417 3.49854 15.575 2.86547 15.1083 2.399C14.6417 1.93253 14 1.66597 13.3417 1.66597H6.675C6.00833 1.66597 5.375 1.93253 4.90833 2.399C4.44167 2.86547 4.175 3.50687 4.175 4.16493V17.576H4.16667Z" fill="#374957"/>
</svg>
