<svg width="14" height="15" viewBox="0 0 14 15" fill="none" xmlns="http://www.w3.org/2000/svg">
<path d="M4.85066 5.87031C4.75223 5.77187 4.64286 5.75 4.56356 5.75C4.48426 5.75 4.50341 5.75273 4.48426 5.7582C4.42138 5.76914 4.26278 5.81836 4.18622 6.00156L3.69678 7.16367L7.34164 10.8086L8.501 10.3191C8.6842 10.2426 8.73068 10.084 8.74435 10.0211C8.75529 9.95547 8.7717 9.79141 8.63225 9.65195L4.8534 5.87305L4.85066 5.87031Z" fill="#FFC72C"/>
<path d="M1.18105 13.1328C1.15644 13.193 1.16464 13.2449 1.21112 13.2887C1.25761 13.3324 1.30956 13.3434 1.36698 13.3187L6.1794 11.2926L3.20719 8.32031L1.18105 13.1301V13.1328Z" fill="#FFC72C"/>
<path d="M5.54247 2.83203C6.02644 2.83203 6.41745 2.44102 6.41745 1.95703C6.41745 1.47305 6.02644 1.08203 5.54247 1.08203C5.05849 1.08203 4.66748 1.47305 4.66748 1.95703C4.66748 2.44102 5.05849 2.83203 5.54247 2.83203Z" fill="#CE0058"/>
<path d="M11.9599 5.16797C12.4439 5.16797 12.8349 4.77695 12.8349 4.29297C12.8349 3.80898 12.4439 3.41797 11.9599 3.41797C11.476 3.41797 11.085 3.80898 11.085 4.29297C11.085 4.77695 11.476 5.16797 11.9599 5.16797Z" fill="#AF9768"/>
<path d="M1.45751 3.41797C1.94148 3.41797 2.33249 3.02695 2.33249 2.54297C2.33249 2.05898 1.94148 1.66797 1.45751 1.66797C0.973529 1.66797 0.58252 2.05898 0.58252 2.54297C0.58252 3.02695 0.973529 3.41797 1.45751 3.41797Z" fill="#C5E86C"/>
<path d="M8.09363 1.53944C8.1237 1.56405 8.81276 2.13827 8.7526 3.08983C8.72799 3.47265 8.57213 3.85819 8.28776 4.2328C8.09363 4.48983 8.14285 4.85624 8.39987 5.05038C8.50651 5.12968 8.62956 5.16796 8.7526 5.16796C8.9276 5.16796 9.1026 5.08866 9.21744 4.93827C9.64399 4.37772 9.87915 3.78163 9.91743 3.16366C10.0186 1.58866 8.87018 0.664443 8.82096 0.626161C8.5694 0.429286 8.20847 0.470302 8.00613 0.721864C7.80652 0.973427 7.8448 1.3371 8.09363 1.54218V1.53944Z" fill="#F04E98"/>
<path d="M13.125 2.25C13.609 2.25 14 1.85898 14 1.375C14 0.891016 13.609 0.5 13.125 0.5C12.641 0.5 12.25 0.891016 12.25 1.375C12.25 1.85898 12.641 2.25 13.125 2.25Z" fill="#8BB8E8"/>
<path d="M9.88725 10.2427C9.98842 9.72592 9.82709 9.19545 9.45522 8.82357L5.67638 5.04467C5.30451 4.67279 4.77405 4.51146 4.25999 4.61264C3.7432 4.71381 3.31391 5.06381 3.11157 5.54779L0.103809 12.6818C-0.104 13.174 0.00537314 13.7372 0.385445 14.1146C0.765517 14.4919 0.970592 14.5001 1.30965 14.5001C1.64871 14.5001 1.65417 14.4646 1.82097 14.3962L8.9521 11.3939C9.43608 11.1888 9.78608 10.7595 9.88725 10.2454V10.2427ZM1.36707 13.3189C1.30965 13.3435 1.25496 13.3353 1.21121 13.2888C1.16473 13.2451 1.15653 13.1904 1.18114 13.1329L3.20727 8.32318L6.17949 11.2954L1.36707 13.3216V13.3189ZM8.74156 10.0185C8.72789 10.0841 8.68141 10.24 8.49821 10.3165L7.33885 10.806L3.69399 7.16107L4.18343 5.99896C4.25999 5.8185 4.41858 5.76928 4.48147 5.7556C4.50061 5.75287 4.52796 5.7474 4.56077 5.7474C4.64006 5.7474 4.75217 5.76928 4.84787 5.86771L8.62672 9.64662C8.76617 9.78607 8.7525 9.95014 8.73883 10.0158L8.74156 10.0185Z" fill="#6543F5"/>
<path d="M12.2499 6.91797C11.796 6.91797 11.3722 7.05742 11.0195 7.32266C10.7624 7.5168 10.7105 7.8832 10.9046 8.14023C11.0988 8.39727 11.4652 8.44922 11.7222 8.25508C11.8726 8.14297 12.0476 8.08555 12.2499 8.08555C12.6765 8.08555 12.9253 8.40547 12.9444 8.42734C13.0593 8.5832 13.237 8.66797 13.4175 8.66797C13.5979 8.66797 13.6499 8.63242 13.7538 8.56133C14.0163 8.37539 14.0792 8.01172 13.8932 7.74922C13.6745 7.44023 13.0866 6.91797 12.2499 6.91797Z" fill="#642BBF"/>
<path d="M12.5425 10.418C12.0585 10.418 11.6675 10.809 11.6675 11.293C11.6675 11.777 12.0585 12.168 12.5425 12.168C13.0264 12.168 13.4175 11.777 13.4175 11.293C13.4175 10.809 13.0264 10.418 12.5425 10.418Z" fill="#2568F2"/>
<path d="M9.62499 12.75C9.14101 12.75 8.75 13.141 8.75 13.625C8.75 14.109 9.14101 14.5 9.62499 14.5C10.109 14.5 10.5 14.109 10.5 13.625C10.5 13.141 10.109 12.75 9.62499 12.75Z" fill="#00C7B1"/>
</svg>
