<svg width="20" height="20" viewBox="0 0 20 20" fill="none" xmlns="http://www.w3.org/2000/svg">
<path d="M19.1667 9.16699H0.833333C0.373096 9.16699 0 9.54009 0 10.0003C0 10.4606 0.373096 10.8337 0.833333 10.8337H19.1667C19.6269 10.8337 20 10.4606 20 10.0003C20 9.54009 19.6269 9.16699 19.1667 9.16699Z" fill="#374957"/>
<path d="M10.8342 19.1667L10.8342 0.833333C10.8342 0.373096 10.4611 -1.63086e-08 10.0009 -3.64264e-08C9.54065 -5.65441e-08 9.16755 0.373096 9.16755 0.833333L9.16755 19.1667C9.16755 19.6269 9.54065 20 10.0009 20C10.4611 20 10.8342 19.6269 10.8342 19.1667Z" fill="#374957"/>
</svg>
