<svg width="15" height="15" viewBox="0 0 15 15" fill="none" xmlns="http://www.w3.org/2000/svg">
<path d="M1.24909 8.04691C1.36998 9.47181 1.97592 10.8127 2.96639 11.8471C3.95685 12.8814 5.27229 13.5472 6.69448 13.7338C8.11667 13.9204 9.56012 13.6167 10.7853 12.873C12.0106 12.1293 12.9439 10.9904 13.4306 9.64527C13.9172 8.30009 13.9279 6.82948 13.4608 5.47742C12.9937 4.12536 12.077 2.97313 10.8627 2.21189C9.64836 1.45065 8.20947 1.12616 6.78472 1.29224C5.35998 1.45833 4.03501 2.10502 3.02965 3.12501H4.98701C5.15329 3.12501 5.31276 3.19086 5.43033 3.30807C5.54791 3.42528 5.61397 3.58426 5.61397 3.75002C5.61397 3.91578 5.54791 4.07475 5.43033 4.19196C5.31276 4.30917 5.15329 4.37502 4.98701 4.37502H2.38953C2.0808 4.37486 1.78476 4.25252 1.56645 4.0349C1.34815 3.81727 1.22543 3.52216 1.22527 3.21439V0.625003C1.22527 0.459242 1.29132 0.30027 1.4089 0.183059C1.52647 0.0658483 1.68594 0 1.85222 0V0C2.0185 0 2.17797 0.0658483 2.29555 0.183059C2.41313 0.30027 2.47918 0.459242 2.47918 0.625003V1.92376C3.74019 0.800459 5.34445 0.134053 7.03247 0.0323197C8.72051 -0.0694136 10.3936 0.399475 11.7812 1.36315C13.1688 2.32683 14.1897 3.72894 14.6788 5.34272C15.168 6.9565 15.0967 8.68759 14.4766 10.256C13.8565 11.8244 12.7238 13.1385 11.2617 13.9856C9.79963 14.8327 8.09362 15.1634 6.41962 14.9242C4.74563 14.685 3.20152 13.8898 2.03705 12.6673C0.872571 11.4448 0.155813 9.86646 0.0026989 8.18754C-0.00539875 8.1005 0.00477886 8.01274 0.0325823 7.92984C0.0603867 7.84694 0.105207 7.77072 0.164189 7.70605C0.223171 7.64137 0.29502 7.58965 0.37516 7.55418C0.4553 7.51871 0.541973 7.50027 0.629656 7.50004C0.782603 7.4982 0.930761 7.55318 1.04527 7.65428C1.15978 7.75537 1.23244 7.89534 1.24909 8.04691Z" fill="#FFC72C"/>
</svg>
