<svg width="25" height="25" viewBox="0 0 25 25" fill="none" xmlns="http://www.w3.org/2000/svg">
<path d="M13.25 0H11.8125C3.9375 0 0 1.1875 0 12.5C0 23.8125 4.6875 25 12.5 25C20.3125 25 25 24.5 25 12.5C25 0.5 21 0 13.1875 0" fill="#ED3012"/>
<path d="M20.375 10.4375C20.3125 10.0625 20.125 9.75 19.875 9.5C19.625 9.25 19.25 9.125 18.875 9.125C16.75 9 14.4375 8.9375 12.0625 8.9375C9.9375 8.9375 7.9375 8.9375 6 9.125C5.625 9.125 5.25 9.3125 5 9.5625C4.75 9.8125 4.5625 10.1875 4.5 10.5625C4.4375 11.1875 4.375 11.8125 4.375 12.4375C4.375 13.125 4.375 13.75 4.5 14.4375C4.5 14.8125 4.6875 15.125 5 15.375C5.25 15.625 5.625 15.8125 6 15.8125C7.9375 15.9375 9.875 16 11.8125 16C12 16 12.1875 16 12.4375 16C14.5625 16 16.75 15.9375 18.9375 15.8125C19.3125 15.8125 19.625 15.625 19.875 15.4375C20.125 15.1875 20.3125 14.875 20.375 14.5625C20.5 13.875 20.5625 13.125 20.5625 12.4375C20.5625 11.8125 20.5 11.125 20.375 10.5V10.4375ZM19.6875 14.375C19.6875 14.5625 19.5625 14.75 19.375 14.875C19.25 15 19.0625 15.0625 18.8125 15.125C16.5 15.25 14.125 15.375 11.75 15.3125C9.8125 15.3125 7.875 15.25 6 15.125C5.8125 15.125 5.5625 15 5.4375 14.875C5.3125 14.75 5.1875 14.5625 5.1875 14.3125C5.125 13.6875 5.0625 13.0625 5.0625 12.4375C5.0625 11.8125 5.0625 11.25 5.1875 10.625C5.1875 10.4375 5.3125 10.1875 5.5 10.0625C5.625 9.9375 5.875 9.8125 6.0625 9.8125C8 9.6875 10 9.6875 12.125 9.625C14.4375 9.625 16.75 9.625 18.875 9.8125C19.0625 9.8125 19.25 9.875 19.4375 10.0625C19.5625 10.1875 19.6875 10.375 19.75 10.5625C19.875 11.125 19.9375 11.75 19.9375 12.375C19.9375 13.0625 19.9375 13.6875 19.75 14.375H19.6875ZM17.875 11.75C18.0625 11.9375 18.1875 12.1875 18.1875 12.4375C18.1875 12.6875 18.1875 12.8125 18 13C17.875 13.1875 17.75 13.3125 17.5625 13.375C17.4375 13.375 17.3125 13.4375 17.1875 13.4375C17.0625 13.4375 17.0625 13.4375 17 13.4375C16.8125 13.4375 16.625 13.3125 16.5 13.1875C16.375 13.0625 16.25 12.875 16.25 12.6875C16.25 12.5 16.25 12.3125 16.25 12.125C16.3125 11.9375 16.4375 11.8125 16.625 11.6875C17 11.4375 17.5625 11.5 17.875 11.8125V11.75Z" fill="white"/>
</svg>
