<svg width="29" height="29" viewBox="0 0 29 29" fill="none" xmlns="http://www.w3.org/2000/svg">
<mask id="path-1-outside-1_11115_21038" maskUnits="userSpaceOnUse" x="0" y="0" width="29" height="29" fill="black">
<rect fill="white" width="29" height="29"/>
<path d="M15.25 2H13.8125C5.9375 2 2 3.1875 2 14.5C2 25.8125 6.6875 27 14.5 27C22.3125 27 27 26.5 27 14.5C27 2.5 23 2 15.1875 2"/>
</mask>
<path d="M15.25 2H13.8125C5.9375 2 2 3.1875 2 14.5C2 25.8125 6.6875 27 14.5 27C22.3125 27 27 26.5 27 14.5C27 2.5 23 2 15.1875 2" fill="#ED3012"/>
<path d="M15.25 2V0H13.8125V2V4H15.25V2ZM13.8125 2V0C9.96409 0 6.24879 0.232108 3.64121 2.49821C0.964903 4.82406 0 8.76017 0 14.5H2H4C4 8.92733 5.00385 6.61344 6.26504 5.51741C7.59496 4.36164 9.78591 4 13.8125 4V2ZM2 14.5H0C0 20.328 1.189 24.2589 4.07439 26.5567C6.83749 28.7571 10.6584 29 14.5 29V27V25C10.5291 25 8.10001 24.6491 6.56623 23.4277C5.15475 22.3036 4 19.9845 4 14.5H2ZM14.5 27V29C16.4455 29 18.3439 28.9716 20.0503 28.7116C21.773 28.449 23.4507 27.9309 24.8862 26.8451C27.8333 24.616 29 20.6201 29 14.5H27H25C25 20.3799 23.8229 22.634 22.4732 23.6549C21.7603 24.1941 20.8012 24.551 19.4477 24.7572C18.078 24.9659 16.4607 25 14.5 25V27ZM27 14.5H29C29 8.46014 28.0369 4.46046 25.2936 2.20508C23.932 1.08569 22.316 0.556499 20.6432 0.29045C18.9929 0.0279672 17.1292 0 15.1875 0V2V4C17.152 4 18.7181 4.03453 20.015 4.2408C21.2894 4.4435 22.1383 4.78931 22.7533 5.29492C23.9631 6.28954 25 8.53986 25 14.5H27Z" fill="#2568F2" mask="url(#path-1-outside-1_11115_21038)"/>
<path d="M22.375 12.4375C22.3125 12.0625 22.125 11.75 21.875 11.5C21.625 11.25 21.25 11.125 20.875 11.125C18.75 11 16.4375 10.9375 14.0625 10.9375C11.9375 10.9375 9.9375 10.9375 8 11.125C7.625 11.125 7.25 11.3125 7 11.5625C6.75 11.8125 6.5625 12.1875 6.5 12.5625C6.4375 13.1875 6.375 13.8125 6.375 14.4375C6.375 15.125 6.375 15.75 6.5 16.4375C6.5 16.8125 6.6875 17.125 7 17.375C7.25 17.625 7.625 17.8125 8 17.8125C9.9375 17.9375 11.875 18 13.8125 18C14 18 14.1875 18 14.4375 18C16.5625 18 18.75 17.9375 20.9375 17.8125C21.3125 17.8125 21.625 17.625 21.875 17.4375C22.125 17.1875 22.3125 16.875 22.375 16.5625C22.5 15.875 22.5625 15.125 22.5625 14.4375C22.5625 13.8125 22.5 13.125 22.375 12.5V12.4375ZM21.6875 16.375C21.6875 16.5625 21.5625 16.75 21.375 16.875C21.25 17 21.0625 17.0625 20.8125 17.125C18.5 17.25 16.125 17.375 13.75 17.3125C11.8125 17.3125 9.875 17.25 8 17.125C7.8125 17.125 7.5625 17 7.4375 16.875C7.3125 16.75 7.1875 16.5625 7.1875 16.3125C7.125 15.6875 7.0625 15.0625 7.0625 14.4375C7.0625 13.8125 7.0625 13.25 7.1875 12.625C7.1875 12.4375 7.3125 12.1875 7.5 12.0625C7.625 11.9375 7.875 11.8125 8.0625 11.8125C10 11.6875 12 11.6875 14.125 11.625C16.4375 11.625 18.75 11.625 20.875 11.8125C21.0625 11.8125 21.25 11.875 21.4375 12.0625C21.5625 12.1875 21.6875 12.375 21.75 12.5625C21.875 13.125 21.9375 13.75 21.9375 14.375C21.9375 15.0625 21.9375 15.6875 21.75 16.375H21.6875ZM19.875 13.75C20.0625 13.9375 20.1875 14.1875 20.1875 14.4375C20.1875 14.6875 20.1875 14.8125 20 15C19.875 15.1875 19.75 15.3125 19.5625 15.375C19.4375 15.375 19.3125 15.4375 19.1875 15.4375C19.0625 15.4375 19.0625 15.4375 19 15.4375C18.8125 15.4375 18.625 15.3125 18.5 15.1875C18.375 15.0625 18.25 14.875 18.25 14.6875C18.25 14.5 18.25 14.3125 18.25 14.125C18.3125 13.9375 18.4375 13.8125 18.625 13.6875C19 13.4375 19.5625 13.5 19.875 13.8125V13.75Z" fill="white"/>
</svg>
