<svg width="20" height="20" viewBox="0 0 20 20" fill="none" xmlns="http://www.w3.org/2000/svg">
<path d="M0 10C0 19.0533 3.74667 20 10 20C16.2533 20 20 19.0533 20 10C20 0.946667 16.2533 0 10 0C3.74667 0 0 0.946667 0 10Z" fill="#ED3012"/>
<path d="M17.1681 8.07019C17.1113 7.73271 16.9467 7.42484 16.7025 7.19985C16.4584 6.97487 16.1461 6.83869 15.8224 6.82093C13.8692 6.72028 11.7967 6.66699 9.65613 6.66699C7.74832 6.67291 5.89161 6.7262 4.13711 6.81501C3.79643 6.83277 3.47278 6.97487 3.22863 7.21761C2.97879 7.46036 2.81981 7.786 2.78006 8.13532C2.70625 8.72738 2.6665 9.32537 2.6665 9.91744C2.6665 10.545 2.70057 11.1785 2.77439 11.8002C2.81413 12.1495 2.97312 12.4752 3.21727 12.7179C3.46142 12.9607 3.77939 13.1087 4.11439 13.1324C5.8689 13.2567 7.64043 13.3218 9.39494 13.3337C9.58231 13.3337 9.77536 13.3337 9.96274 13.3337C11.916 13.3337 13.8862 13.2626 15.8395 13.1264C16.1574 13.1028 16.464 12.9725 16.7025 12.7475C16.941 12.5284 17.1057 12.2265 17.1624 11.8949C17.2817 11.2377 17.3385 10.5628 17.3328 9.88783C17.3328 9.28393 17.2703 8.66818 17.1681 8.07611V8.07019ZM16.5549 11.7765C16.5208 11.966 16.43 12.1377 16.2937 12.262C16.1574 12.3864 15.9871 12.4633 15.8054 12.4752C13.6762 12.6232 11.5242 12.6883 9.40061 12.6765C7.66315 12.6646 5.89729 12.5995 4.15982 12.4811C3.96677 12.4692 3.78507 12.3864 3.6488 12.2443C3.50685 12.1081 3.42168 11.9186 3.39329 11.7173C3.31947 11.1253 3.28541 10.5154 3.28541 9.91744C3.28541 9.35497 3.31947 8.78659 3.38761 8.22413C3.41032 8.02282 3.50117 7.83336 3.64312 7.69719C3.78507 7.56101 3.96677 7.47812 4.15982 7.4722C5.90864 7.37747 7.75399 7.33011 9.65045 7.32419C11.774 7.32419 13.8408 7.37747 15.7827 7.47812C15.9701 7.48996 16.1461 7.56693 16.2824 7.69127C16.4243 7.82152 16.5152 7.99914 16.5492 8.1886C16.6457 8.75107 16.6968 9.32537 16.7025 9.89375C16.7025 10.5273 16.6514 11.1549 16.5435 11.7765H16.5549ZM14.8912 9.26616C15.0559 9.44378 15.1524 9.67469 15.1524 9.92336C15.1524 10.1069 15.1013 10.2845 15.0048 10.4385C14.9083 10.5924 14.772 10.7108 14.6073 10.7819C14.4995 10.8292 14.3859 10.8529 14.2723 10.8529C14.2156 10.8529 14.1531 10.847 14.0963 10.8351C13.926 10.7996 13.767 10.7108 13.6421 10.5806C13.5172 10.4503 13.4377 10.2845 13.4036 10.1069C13.3695 9.92928 13.3866 9.73982 13.4547 9.57404C13.5228 9.40234 13.6364 9.26024 13.7784 9.15959C14.119 8.92276 14.6073 8.97013 14.8969 9.27208L14.8912 9.26616Z" fill="white"/>
</svg>
