<svg width="20" height="20" viewBox="0 0 20 20" fill="none" xmlns="http://www.w3.org/2000/svg">
<path d="M20 10C20 15.51 15.51 20 10 20C6.62 20 3.5 18.28 1.67 15.53V16.67C1.67 17.13 1.29 17.5 0.83 17.5C0.37 17.5 0 17.13 0 16.67V14.18C0 13.26 0.75 12.51 1.67 12.51H4.16C4.62 12.51 4.99 12.88 4.99 13.34C4.99 13.8 4.62 14.17 4.16 14.17H2.8C4.28 16.72 7.01 18.34 10 18.34C14.59 18.34 18.33 14.6 18.33 10.01C18.33 9.55 18.7 9.18 19.16 9.18C19.62 9.18 19.99 9.55 19.99 10.01L20 10ZM9.58 10H10.41C10.87 10 11.24 9.63 11.24 9.17C11.24 8.71 10.87 8.34 10.41 8.34H9.58C9.12 8.34 8.75 8.71 8.75 9.17C8.75 9.63 9.12 10 9.58 10ZM19.17 2.5C18.71 2.5 18.34 2.87 18.34 3.33V4.46C16.51 1.7 13.42 0 10 0C4.49 0 0 4.49 0 10C0 10.46 0.37 10.83 0.83 10.83C1.29 10.83 1.66 10.46 1.66 10C1.67 5.41 5.41 1.67 10 1.67C13.03 1.67 15.75 3.27 17.22 5.84H15.83C15.37 5.84 15 6.21 15 6.67C15 7.13 15.37 7.5 15.83 7.5H18.33C19.25 7.5 20 6.75 20 5.83V3.33C20 2.87 19.63 2.5 19.17 2.5ZM8.33 14.17C6.95 14.17 5.83 13.05 5.83 11.67V8.34C5.83 6.96 6.95 5.84 8.33 5.84H11.66C13.04 5.84 14.16 6.96 14.16 8.34V11.67C14.16 13.05 13.04 14.17 11.66 14.17H8.33ZM8.33 12.5H11.66C12.12 12.5 12.49 12.13 12.49 11.67V8.34C12.49 7.88 12.12 7.51 11.66 7.51H8.33C7.87 7.51 7.5 7.88 7.5 8.34V11.67C7.5 12.13 7.87 12.5 8.33 12.5Z" fill="#374957"/>
</svg>
