<svg width="15" height="15" viewBox="0 0 15 15" fill="none" xmlns="http://www.w3.org/2000/svg">
<path d="M15 7.5C15 11.6325 11.6325 15 7.5 15C4.965 15 2.625 13.71 1.2525 11.6475V12.5025C1.2525 12.8475 0.9675 13.125 0.6225 13.125C0.2775 13.125 0 12.8475 0 12.5025V10.635C0 9.945 0.5625 9.3825 1.2525 9.3825H3.12C3.465 9.3825 3.7425 9.66 3.7425 10.005C3.7425 10.35 3.465 10.6275 3.12 10.6275H2.1C3.21 12.54 5.2575 13.755 7.5 13.755C10.9425 13.755 13.7475 10.95 13.7475 7.5075C13.7475 7.1625 14.025 6.885 14.37 6.885C14.715 6.885 14.9925 7.1625 14.9925 7.5075L15 7.5ZM7.185 7.5H7.8075C8.1525 7.5 8.43 7.2225 8.43 6.8775C8.43 6.5325 8.1525 6.255 7.8075 6.255H7.185C6.84 6.255 6.5625 6.5325 6.5625 6.8775C6.5625 7.2225 6.84 7.5 7.185 7.5ZM14.3775 1.875C14.0325 1.875 13.755 2.1525 13.755 2.4975V3.345C12.3825 1.275 10.065 0 7.5 0C3.3675 0 0 3.3675 0 7.5C0 7.845 0.2775 8.1225 0.6225 8.1225C0.9675 8.1225 1.245 7.845 1.245 7.5C1.2525 4.0575 4.0575 1.2525 7.5 1.2525C9.7725 1.2525 11.8125 2.4525 12.915 4.38H11.8725C11.5275 4.38 11.25 4.6575 11.25 5.0025C11.25 5.3475 11.5275 5.625 11.8725 5.625H13.7475C14.4375 5.625 15 5.0625 15 4.3725V2.4975C15 2.1525 14.7225 1.875 14.3775 1.875ZM6.2475 10.6275C5.2125 10.6275 4.3725 9.7875 4.3725 8.7525V6.255C4.3725 5.22 5.2125 4.38 6.2475 4.38H8.745C9.78 4.38 10.62 5.22 10.62 6.255V8.7525C10.62 9.7875 9.78 10.6275 8.745 10.6275H6.2475ZM6.2475 9.375H8.745C9.09 9.375 9.3675 9.0975 9.3675 8.7525V6.255C9.3675 5.91 9.09 5.6325 8.745 5.6325H6.2475C5.9025 5.6325 5.625 5.91 5.625 6.255V8.7525C5.625 9.0975 5.9025 9.375 6.2475 9.375Z" fill="#CE0058"/>
</svg>
