<svg width="20" height="21" viewBox="0 0 20 21" fill="none" xmlns="http://www.w3.org/2000/svg">
<path d="M12.0553 9.76794L14.9933 9.09809C14.9434 9.59798 14.8235 10.0479 14.6436 10.4678L12.0453 11.0577V12.3574L14.9833 11.6875C14.9334 12.1874 14.8135 12.6373 14.6336 13.0572H14.6536L10.8761 13.917V11.3376L9.70687 11.6075V13.0372C9.70687 13.1572 9.6669 13.2772 9.59694 13.3871L8.98735 14.3569C8.83745 14.6169 8.6176 14.7668 8.33778 14.8268L5.00001 15.5866C5.03998 15.1267 5.14991 14.6769 5.33979 14.217L8.52766 13.4871V11.8675L5.54964 12.5373C5.59961 12.0374 5.71953 11.5875 5.89941 11.1676L8.52766 10.5678V5.55888C8.84744 5.12897 9.23718 4.77905 9.70687 4.49911V10.2978L10.8761 10.0379V6.18874C11.2259 5.73884 11.6256 5.38891 12.0553 5.12897V9.76794ZM10.976 16.4964L14.6436 15.6466C14.8334 15.2267 14.9434 14.7768 14.9833 14.3069L11.3058 15.1567C11.1259 15.5866 11.016 16.0266 10.976 16.4964ZM19.99 10.4978C19.99 12.4773 19.4004 14.4169 18.3011 16.0565C17.2019 17.6962 15.6429 18.9759 13.8141 19.7357C11.9853 20.4956 9.97669 20.6955 8.03798 20.3056C6.09928 19.9157 4.32047 18.9659 2.9214 17.5662C1.52233 16.1665 0.562972 14.3869 0.183226 12.4473C-0.186527 10.5078 0.003346 8.49822 0.752846 6.66863C1.51234 4.84903 2.78149 3.28938 4.43039 2.18962C6.07929 1.08987 8.008 0.5 9.98668 0.5C12.6349 0.5 15.1732 1.55976 17.052 3.42935H17.072C18.9407 5.30893 20 7.84837 20 10.4978H19.99ZM18.3011 10.4978C18.3011 8.84815 17.8215 7.2385 16.9021 5.86881C15.9827 4.49911 14.6835 3.42935 13.1646 2.79949C11.6456 2.16963 9.97669 2.00966 8.35777 2.32959C6.73885 2.64952 5.24985 3.43935 4.09062 4.60909C2.93139 5.77883 2.14192 7.2685 1.81214 8.87814C1.48236 10.4878 1.65225 12.1674 2.28183 13.6871C2.91141 15.2067 3.98069 16.5064 5.34978 17.4262C6.71886 18.336 8.32779 18.8259 9.97669 18.8259C12.1852 18.8259 14.3038 17.9461 15.8628 16.3865C17.4217 14.8268 18.3011 12.7073 18.3011 10.4978Z" fill="#374957"/>
</svg>
