<svg width="12" height="13" viewBox="0 0 12 13" fill="none" xmlns="http://www.w3.org/2000/svg">
<path d="M10.9546 1.50439H10.8945L10.7942 1.54443C8.38933 2.41527 6.30506 3.166 4.51138 4.95773C4.10054 5.37814 3.72978 5.83858 3.38909 6.32906C3.18868 6.61934 3.08847 6.96967 3.11853 7.32001C3.14859 7.67035 3.2989 8.00067 3.54941 8.25091L4.29093 8.99163C4.54145 9.24187 4.8621 9.39201 5.21282 9.42204C5.56354 9.45207 5.91426 9.36199 6.20485 9.15178C6.69586 8.82146 7.14678 8.4411 7.56764 8.0307C9.36132 6.23897 10.1129 4.15696 10.9746 1.73462L11.0147 1.63452C11.0147 1.63452 11.0147 1.60449 11.0147 1.58447C11.0147 1.56445 11.0047 1.55444 10.9846 1.53442C10.9646 1.5144 10.9546 1.5144 10.9345 1.50439H10.9546ZM8.83023 5.14791C8.70998 5.32809 8.53963 5.45821 8.33922 5.5483C8.14883 5.63839 7.91836 5.65841 7.70793 5.60836C7.50752 5.57833 7.30711 5.46822 7.1568 5.31808C7.00649 5.16793 6.90629 4.96774 6.86621 4.76755C6.82612 4.54733 6.84616 4.33713 6.92633 4.13694C7.01651 3.94675 7.1568 3.76658 7.32715 3.64646C7.50752 3.52635 7.71795 3.46629 7.92838 3.46629H7.91836C8.20896 3.45628 8.47951 3.56639 8.68994 3.76658C8.88033 3.97678 9.00058 4.24704 9.00058 4.53732C9.00058 4.75754 8.94045 4.96774 8.82021 5.14791H8.83023Z" fill="#FFC72C"/>
<path d="M7.94839 3.46631C7.72794 3.47632 7.52753 3.54639 7.34716 3.65649C7.17681 3.77661 7.03652 3.94677 6.94634 4.14697C6.85615 4.33715 6.83611 4.55736 6.88622 4.77758C6.9263 4.98778 7.0265 5.17796 7.17681 5.32811C7.32712 5.47825 7.51751 5.58836 7.72794 5.61839C7.92835 5.65843 8.15882 5.63841 8.35923 5.55833C8.54962 5.46824 8.72999 5.33812 8.85024 5.15794C8.97048 4.98778 9.03061 4.76757 9.03061 4.54735C9.03061 4.25707 8.91036 3.98681 8.71997 3.77661C8.51956 3.56641 8.24901 3.46631 7.94839 3.46631Z" fill="#FE5000"/>
<path d="M11.9964 1.36423C11.9563 1.16404 11.8461 0.973853 11.7058 0.823708C11.5555 0.673563 11.3752 0.573467 11.1647 0.523418C10.9643 0.48338 10.7439 0.493389 10.5535 0.563457L10.4432 0.603496C8.369 1.35422 6.40498 2.06491 4.65139 3.48628H4.5612C3.81969 3.47627 3.07817 3.6064 2.38675 3.88667C1.69534 4.16694 1.07406 4.58734 0.552996 5.12787C0.25238 5.43817 0.0820312 5.85857 0.0820312 6.299C0.0820312 6.73942 0.262401 7.16984 0.573037 7.49015C0.883673 7.81046 1.31456 7.98062 1.75546 7.98062H2.24646C2.36671 8.35098 2.56712 8.6813 2.83767 8.96157L2.85772 8.98159L3.55915 9.68227L3.57919 9.70228C3.84975 9.97255 4.19044 10.1727 4.55118 10.2929V10.8634C4.55118 11.2838 4.72153 11.6942 5.02215 11.9945C5.32276 12.2948 5.72358 12.465 6.14445 12.465C6.56531 12.465 6.93607 12.3148 7.23668 12.0345C7.79783 11.524 8.24875 10.8934 8.55939 10.1928C8.87003 9.49208 9.03036 8.74136 9.03036 7.97061V7.88052C10.4432 6.12883 11.1647 4.14692 11.9062 2.07492L11.9363 1.97482C12.0064 1.78464 12.0165 1.56442 11.9764 1.36423H11.9964ZM11.0244 1.6445L10.9844 1.7446C10.1126 4.16694 9.36103 6.24895 7.57738 8.04068C7.15652 8.45108 6.69557 8.83144 6.21459 9.16176C5.92399 9.36196 5.57328 9.46205 5.22256 9.43202C4.87184 9.402 4.55118 9.25185 4.30067 9.00161L3.55915 8.26089C3.30864 8.01065 3.15833 7.68033 3.12827 7.32999C3.09821 6.97965 3.18839 6.62932 3.39882 6.33904C3.7295 5.84856 4.10026 5.38812 4.52112 4.96771C6.31479 3.17598 8.39906 2.41525 10.804 1.55441L10.9042 1.51438C10.9042 1.51438 10.9443 1.51438 10.9643 1.51438C10.9844 1.51438 10.9944 1.52439 11.0144 1.5444C11.0345 1.56442 11.0345 1.57443 11.0445 1.59445C11.0445 1.61447 11.0445 1.63449 11.0445 1.65451L11.0244 1.6445Z" fill="#FE5000"/>
<path d="M2.65699 9.85229C2.54676 9.74219 2.4165 9.6521 2.26619 9.59204C2.11588 9.53198 1.96557 9.50195 1.80524 9.50195C1.64492 9.50195 1.49461 9.53198 1.3443 9.59204C1.19399 9.6521 1.06373 9.74219 0.953499 9.85229C0.512597 10.4929 0.19194 11.2136 0.0115707 11.9643C-0.00847034 12.0344 0.00155018 12.1145 0.0115707 12.1845C0.0316117 12.2546 0.0716938 12.3247 0.121796 12.3747C0.171899 12.4248 0.242043 12.4648 0.312186 12.4848C0.38233 12.5049 0.462494 12.5049 0.532638 12.4848C1.28418 12.3047 1.99563 11.9844 2.63695 11.5439C2.74717 11.4338 2.83736 11.3037 2.89748 11.1535C2.9576 11.0034 2.98767 10.8533 2.98767 10.6931C2.98767 10.5329 2.9576 10.3728 2.89748 10.2327C2.83736 10.0825 2.74717 9.95239 2.63695 9.84228L2.65699 9.85229Z" fill="#FE5000"/>
</svg>
