<svg width="20" height="20" viewBox="0 0 20 20" fill="none" xmlns="http://www.w3.org/2000/svg">
<path d="M14.5375 5.47306C14.8546 5.8231 15.0548 6.27317 15.0548 6.75656C15.0548 7.12328 14.9547 7.48999 14.7544 7.77337C14.5542 8.07341 14.2538 8.2901 13.9367 8.44012C13.603 8.57347 13.2192 8.60681 12.8854 8.54014C12.535 8.49013 12.2179 8.30677 11.9676 8.05674C11.7173 7.8067 11.5504 7.49 11.4837 7.13995C11.4002 6.77323 11.4336 6.40652 11.5838 6.08981C11.734 5.75643 11.9676 5.47306 12.2513 5.27303C12.5517 5.08967 12.8854 4.97299 13.2525 4.95632C13.7532 4.95632 14.2037 5.12301 14.5375 5.47306ZM19.9109 2.45599L19.8608 2.62268C18.6259 6.07314 17.4244 9.37358 15.0548 12.3073V12.4573C15.0548 13.7408 14.7878 14.991 14.2705 16.1578C13.7532 17.3246 13.0022 18.3748 12.0677 19.2249C11.5671 19.6916 10.9497 19.9417 10.2488 19.9417C9.54789 19.9417 8.88039 19.6583 8.37976 19.1582C7.87913 18.6582 7.59544 17.9747 7.59544 17.2746V16.3245C6.99469 16.1245 6.42731 15.7911 5.97674 15.341L5.94337 15.3077L4.77524 14.1409L4.74186 14.1075C4.2913 13.6408 3.95754 13.0907 3.75729 12.474H2.9396C2.20535 12.474 1.48778 12.1906 0.970463 11.6572C0.453147 11.1238 0.15277 10.4071 0.15277 9.67362C0.15277 8.94019 0.436459 8.2401 0.937088 7.72336C1.80484 6.82324 2.83947 6.12315 3.99092 5.65642C5.14236 5.18969 6.37725 4.97299 7.61213 4.98966H7.76232C10.666 2.60601 13.9534 1.42252 17.4078 0.172349L17.5913 0.105673C17.9084 -0.0110088 18.2755 -0.0276777 18.6093 0.0389979C18.9597 0.122342 19.2601 0.289031 19.5104 0.539065C19.744 0.789098 19.9276 1.10581 19.9943 1.43919H19.961C20.0277 1.77256 20.011 2.13928 19.8942 2.45599H19.9109ZM18.409 1.82257C18.409 1.82257 18.3923 1.77256 18.3589 1.73923C18.3256 1.70589 18.3089 1.68922 18.2755 1.68922H18.1754L18.0085 1.75589C14.0035 3.18942 10.5158 4.45626 7.52869 7.43999C6.82781 8.14008 6.21037 8.90685 5.65968 9.72363C5.30924 10.207 5.15905 10.7904 5.20912 11.3738C5.25918 11.9573 5.50949 12.5073 5.92668 12.9241L7.16157 14.1576C7.57876 14.5743 8.11276 14.8243 8.69682 14.8743C9.28089 14.9243 9.86496 14.7576 10.3489 14.4243C11.1499 13.8742 11.9175 13.2408 12.6184 12.5573C15.5888 9.57361 16.8571 6.10648 18.3089 2.05593L18.3756 1.88925H18.409V1.8059V1.82257ZM4.39142 15.5744H4.4248C4.24123 15.4077 4.02429 15.2577 3.77398 15.1577C3.52367 15.0577 3.27335 15.0077 3.00635 15.0077C2.73935 15.0077 2.48903 15.0577 2.23872 15.1577C1.98841 15.2577 1.77147 15.4077 1.5879 15.5911C0.853649 16.6579 0.319646 17.858 0.0192692 19.1082C-0.014106 19.2249 0.00258158 19.3582 0.0192692 19.4749C0.0526444 19.5916 0.119395 19.7083 0.202833 19.7916C0.286271 19.875 0.403084 19.9417 0.519897 19.975C0.636711 20.0083 0.770212 20.0083 0.887025 19.975C2.1386 19.675 3.32342 19.1416 4.39142 18.4081C4.57499 18.2248 4.72517 18.0081 4.8253 17.758C4.92543 17.508 4.97549 17.258 4.97549 16.9913C4.97549 16.7246 4.92543 16.4579 4.8253 16.2245C4.72517 15.9745 4.57499 15.7578 4.39142 15.5744Z" fill="#374957"/>
</svg>
