<svg width="15" height="16" viewBox="0 0 15 16" fill="none" xmlns="http://www.w3.org/2000/svg">
<path d="M14.8247 14.4417L11.0971 10.7141C12.1129 9.47176 12.6124 7.88649 12.4921 6.28623C12.3719 4.68596 11.6412 3.19312 10.4512 2.1165C9.26112 1.03988 7.7028 0.461844 6.09852 0.501956C4.49424 0.542068 2.96676 1.19726 1.83201 2.33201C0.697259 3.46676 0.0420682 4.99424 0.00195626 6.59852C-0.0381557 8.2028 0.539881 9.76112 1.6165 10.9512C2.69312 12.1412 4.18596 12.8719 5.78623 12.9921C7.38649 13.1124 8.97176 12.6129 10.2141 11.5971L13.9417 15.3247C14.0595 15.4385 14.2172 15.5014 14.3809 15.5C14.5447 15.4986 14.7013 15.4329 14.8171 15.3171C14.9329 15.2013 14.9986 15.0447 15 14.8809C15.0014 14.7172 14.9385 14.5595 14.8247 14.4417ZM6.26486 11.7608C5.27676 11.7608 4.31086 11.4677 3.48929 10.9188C2.66772 10.3698 2.02738 9.58958 1.64925 8.6767C1.27112 7.76382 1.17219 6.75932 1.36496 5.79021C1.55772 4.8211 2.03354 3.93091 2.73223 3.23223C3.43091 2.53354 4.3211 2.05772 5.29021 1.86496C6.25932 1.67219 7.26382 1.77112 8.1767 2.14925C9.08958 2.52738 9.86984 3.16772 10.4188 3.98929C10.9677 4.81086 11.2608 5.77676 11.2608 6.76486C11.2593 8.08939 10.7324 9.35926 9.79585 10.2958C8.85926 11.2324 7.58939 11.7593 6.26486 11.7608Z" fill="#374957"/>
</svg>
