<svg width="20" height="20" viewBox="0 0 20 20" fill="none" xmlns="http://www.w3.org/2000/svg">
<path d="M14.1674 15.8344C14.1674 18.1338 12.3006 20 10.0005 20H4.16688C1.86676 20 0 18.1338 0 15.8344V10.0026C0 7.70326 1.86676 5.83708 4.16688 5.83708H5.00026C5.45862 5.83708 5.83364 6.21199 5.83364 6.6702C5.83364 7.12841 5.45862 7.50331 5.00026 7.50331H4.16688C2.79181 7.50331 1.66675 8.62801 1.66675 10.0026V15.8344C1.66675 17.2091 2.79181 18.3338 4.16688 18.3338H10.0005C11.3756 18.3338 12.5006 17.2091 12.5006 15.8344C12.5006 15.3762 12.8757 15.0013 13.334 15.0013C13.7924 15.0013 14.1674 15.3762 14.1674 15.8344ZM19.276 4.91233L14.7674 0.25523C14.4507 -0.0780153 13.9174 -0.0863465 13.5924 0.238567C13.2674 0.563481 13.2507 1.08834 13.5757 1.41326L17.8593 5.82875H10.8339C8.53378 5.82875 6.66701 7.69493 6.66701 9.99432V14.1599C6.66701 14.6181 7.04203 14.993 7.50039 14.993C7.95875 14.993 8.33377 14.6181 8.33377 14.1599V9.99432C8.33377 8.61968 9.45882 7.49498 10.8339 7.49498H17.8509L13.5674 11.9105C13.2507 12.2437 13.2507 12.7686 13.584 13.0852C13.7424 13.2435 13.9591 13.3184 14.1674 13.3184C14.3757 13.3184 14.6008 13.2351 14.7674 13.0685L19.2677 8.42807C20.2427 7.45332 20.2427 5.87041 19.276 4.904V4.91233Z" fill="#374957"/>
</svg>
