<svg width="20" height="21" viewBox="0 0 20 21" fill="none" xmlns="http://www.w3.org/2000/svg">
<path d="M10 0.5C10.8833 0.5 11.7333 0.85 12.3583 1.475L15.5917 4.70833C15.675 4.78333 15.7333 4.875 15.775 4.975C15.8167 5.075 15.8417 5.18333 15.8417 5.3C15.8417 5.40833 15.825 5.51667 15.7833 5.625C15.7417 5.725 15.6833 5.81667 15.6 5.9C15.5167 5.98333 15.425 6.04167 15.325 6.08333C15.225 6.125 15.1167 6.15 15 6.14167C14.8917 6.14167 14.7833 6.11667 14.675 6.075C14.575 6.03333 14.4833 5.96667 14.4083 5.89167L11.175 2.65833C11.0583 2.55 10.9333 2.45 10.7917 2.38333C10.7917 2.40833 10.8083 2.425 10.8083 2.45L10.8333 15.5167C10.8333 15.7417 10.7417 15.95 10.5917 16.1083C10.4333 16.2667 10.225 16.35 10 16.35C9.775 16.35 9.56667 16.2583 9.40833 16.1083C9.25 15.95 9.16667 15.7417 9.16667 15.5167L9.14167 2.45C9.14167 2.45 9.14167 2.425 9.14167 2.41667C9.025 2.48333 8.91667 2.56667 8.81667 2.66667L5.58333 5.9C5.425 6.05 5.21667 6.13333 5 6.13333C4.78333 6.13333 4.575 6.04167 4.41667 5.89167C4.25833 5.73333 4.175 5.525 4.175 5.30833C4.175 5.09167 4.25833 4.88333 4.40833 4.725L7.64167 1.49167C8.26667 0.866666 9.11667 0.516668 10 0.516668L10 0.5ZM18.3333 14.6667L18.3333 16.3333C18.3333 17 18.0667 17.6333 17.6 18.1C17.1333 18.5667 16.4917 18.8333 15.8333 18.8333L4.16667 18.8333C3.5 18.8333 2.86667 18.5667 2.4 18.1C1.93333 17.6333 1.66667 16.9917 1.66667 16.3333L1.66667 14.6667C1.66667 14.4417 1.575 14.2333 1.425 14.075C1.275 13.9167 1.05833 13.8333 0.833333 13.8333C0.608333 13.8333 0.4 13.925 0.241666 14.075C0.0833331 14.225 -2.64818e-07 14.4417 -2.54983e-07 14.6667L-1.82131e-07 16.3333C-1.33684e-07 17.4417 0.441667 18.5 1.225 19.275C2 20.0583 3.05833 20.5 4.16667 20.5L15.8333 20.5C16.9417 20.5 18 20.0583 18.775 19.275C19.5583 18.4917 19.9917 17.4333 20 16.3333L20 14.6667C20 14.4417 19.9083 14.2333 19.7583 14.075C19.6 13.9167 19.3917 13.8333 19.1667 13.8333C18.9417 13.8333 18.7333 13.925 18.575 14.075C18.4167 14.2333 18.3333 14.4417 18.3333 14.6667Z" fill="#374957"/>
</svg>
