<svg width="20" height="20" viewBox="0 0 20 20" fill="none" xmlns="http://www.w3.org/2000/svg">
<path d="M17.701 3.30174C17.1825 2.59348 16.443 2.0602 15.593 1.78523L10.272 0.0437454C10.0935 -0.0145818 9.9065 -0.0145818 9.7365 0.0437454L4.407 1.78523C3.557 2.0602 2.826 2.59348 2.299 3.30174C1.7805 4.01 1.5 4.85991 1.5 5.73482V10.001C1.5 16.3004 9.32 19.7834 9.6515 19.925C9.762 19.975 9.881 20 10 20C10.119 20 10.238 19.975 10.3485 19.925C10.68 19.7834 18.5 16.3004 18.5 10.001V5.73482C18.5 4.85991 18.2195 4.01 17.701 3.30174ZM16.8 10.001C16.8 14.5506 11.428 17.5253 10 18.2418C8.572 17.5336 3.2 14.5589 3.2 10.001V5.73482C3.2 5.20987 3.37 4.70159 3.6845 4.27664C3.999 3.85168 4.441 3.53505 4.951 3.3684L10.0085 1.71857L15.066 3.3684C15.576 3.53505 16.018 3.85168 16.3325 4.27664C16.647 4.70159 16.817 5.20987 16.817 5.73482V10.001H16.8ZM14.199 7.193C14.2415 7.29299 14.267 7.40131 14.267 7.50963C14.267 7.61796 14.2415 7.72628 14.199 7.82627C14.1565 7.92626 14.097 8.01791 14.012 8.10124L10.3825 11.6592C10.238 11.8092 10.0595 11.9258 9.864 12.0008C9.6685 12.0758 9.4645 12.1175 9.252 12.1175H9.2265C9.014 12.1175 8.8015 12.0675 8.606 11.9842C8.4105 11.9008 8.232 11.7759 8.0875 11.6175L6.124 9.61775C6.0475 9.54276 5.9795 9.44277 5.937 9.34278C5.8945 9.24279 5.869 9.12613 5.869 9.01781C5.869 8.90949 5.8945 8.79283 5.937 8.69284C5.9795 8.59285 6.0475 8.5012 6.1325 8.41787C6.2175 8.34288 6.311 8.28455 6.413 8.24289C6.515 8.20123 6.634 8.18456 6.7445 8.18456C6.855 8.18456 6.9655 8.21789 7.076 8.25956C7.1865 8.30122 7.2715 8.37621 7.348 8.4512L9.252 10.401L12.8135 6.90136C12.89 6.82637 12.9835 6.75971 13.094 6.71805C13.196 6.67639 13.3065 6.65139 13.417 6.65139C13.5275 6.65139 13.638 6.67639 13.74 6.71805C13.842 6.75971 13.9355 6.81804 14.0205 6.90136C14.097 6.97636 14.165 7.06801 14.2075 7.17633L14.199 7.193Z" fill="#374957"/>
</svg>
