<svg width="12" height="12" viewBox="0 0 12 12" fill="none" xmlns="http://www.w3.org/2000/svg">
<path d="M3.5 0H2C1.47 0 0.96 0.21 0.585 0.585C0.21 0.96 0 1.47 0 2V3.5C0 4.03 0.21 4.54 0.585 4.915C0.96 5.29 1.47 5.5 2 5.5H3.5C4.03 5.5 4.54 5.29 4.915 4.915C5.29 4.54 5.5 4.03 5.5 3.5V2C5.5 1.47 5.29 0.96 4.915 0.585C4.54 0.21 4.03 0 3.5 0ZM4.5 3.5C4.5 3.765 4.395 4.02 4.205 4.205C4.015 4.395 3.765 4.5 3.5 4.5H2C1.735 4.5 1.48 4.395 1.295 4.205C1.11 4.015 1 3.765 1 3.5V2C1 1.735 1.105 1.48 1.295 1.295C1.485 1.11 1.735 1 2 1H3.5C3.765 1 4.02 1.105 4.205 1.295C4.395 1.485 4.5 1.735 4.5 2V3.5ZM3.5 6.5H2C1.47 6.5 0.96 6.71 0.585 7.085C0.21 7.46 0 7.97 0 8.5V10C0 10.53 0.21 11.04 0.585 11.415C0.96 11.79 1.47 12 2 12H3.5C4.03 12 4.54 11.79 4.915 11.415C5.29 11.04 5.5 10.53 5.5 10V8.5C5.5 7.97 5.29 7.46 4.915 7.085C4.54 6.71 4.03 6.5 3.5 6.5ZM4.5 10C4.5 10.265 4.395 10.52 4.205 10.705C4.015 10.895 3.765 11 3.5 11H2C1.735 11 1.48 10.895 1.295 10.705C1.105 10.515 1 10.265 1 10V8.5C1 8.235 1.105 7.98 1.295 7.795C1.485 7.61 1.735 7.5 2 7.5H3.5C3.765 7.5 4.02 7.605 4.205 7.795C4.395 7.985 4.5 8.235 4.5 8.5V10ZM11.96 9.685C11.985 9.745 12 9.81 12 9.875C12 9.94 11.985 10.005 11.96 10.065C11.935 10.125 11.9 10.18 11.85 10.225L10.555 11.515C10.275 11.795 9.89 11.955 9.495 11.955C9.1 11.955 8.715 11.795 8.435 11.515L7.14 10.225C7.095 10.18 7.055 10.125 7.03 10.065C7.005 10.005 6.99 9.94 6.99 9.875C6.99 9.81 7.005 9.745 7.03 9.685C7.055 9.625 7.09 9.57 7.14 9.525C7.185 9.48 7.24 9.44 7.3 9.415C7.36 9.39 7.425 9.375 7.49 9.375C7.555 9.375 7.62 9.39 7.68 9.415C7.74 9.44 7.795 9.475 7.84 9.525L8.985 10.67V1.315L7.84 2.46C7.795 2.505 7.74 2.545 7.68 2.57C7.62 2.595 7.555 2.61 7.49 2.61C7.425 2.61 7.36 2.595 7.3 2.57C7.24 2.545 7.185 2.51 7.14 2.46C7.095 2.415 7.055 2.36 7.03 2.3C7.005 2.24 6.99 2.175 6.99 2.11C6.99 2.045 7.005 1.98 7.03 1.92C7.055 1.86 7.09 1.805 7.14 1.76L8.435 0.47C8.715 0.19 9.1 0.03 9.495 0.03C9.89 0.03 10.275 0.19 10.555 0.47L11.85 1.76C11.895 1.805 11.935 1.86 11.96 1.92C11.985 1.98 12 2.045 12 2.11C12 2.175 11.985 2.24 11.96 2.3C11.935 2.36 11.9 2.415 11.85 2.46C11.805 2.505 11.75 2.545 11.69 2.57C11.63 2.595 11.565 2.61 11.5 2.61C11.435 2.61 11.37 2.595 11.31 2.57C11.25 2.545 11.195 2.51 11.15 2.46L10.005 1.315V10.67L11.15 9.525C11.195 9.48 11.25 9.44 11.31 9.415C11.37 9.39 11.435 9.375 11.5 9.375C11.565 9.375 11.63 9.39 11.69 9.415C11.75 9.44 11.805 9.475 11.85 9.525C11.895 9.57 11.935 9.625 11.96 9.685Z" fill="#374957"/>
</svg>
