<svg width="20" height="20" viewBox="0 0 20 20" fill="none" xmlns="http://www.w3.org/2000/svg">
<path opacity="0.2" d="M20 10C20 15.5228 15.5228 20 10 20C4.47715 20 0 15.5228 0 10C0 4.47715 4.47715 0 10 0C15.5228 0 20 4.47715 20 10ZM2.5 10C2.5 14.1421 5.85786 17.5 10 17.5C14.1421 17.5 17.5 14.1421 17.5 10C17.5 5.85786 14.1421 2.5 10 2.5C5.85786 2.5 2.5 5.85786 2.5 10Z" fill="#374957"/>
<path d="M1.25 10C0.559644 10 -0.00805893 9.43816 0.0780092 8.75319C0.320399 6.82414 1.12155 4.99763 2.39594 3.50552C3.9423 1.69497 6.08394 0.495592 8.43566 0.123116C10.7874 -0.249359 13.1948 0.229513 15.225 1.4736C16.8981 2.49888 18.2245 3.98842 19.0511 5.74815C19.3446 6.373 18.9783 7.08277 18.3217 7.2961C17.6652 7.50943 16.9689 7.14319 16.6496 6.53112C16.0247 5.3333 15.0838 4.31916 13.9187 3.6052C12.3961 2.67213 10.5905 2.31298 8.82674 2.59234C7.06295 2.87169 5.45672 3.77123 4.29696 5.12914C3.40952 6.16819 2.82806 7.42345 2.60392 8.75573C2.48938 9.43652 1.94036 10 1.25 10Z" fill="#374957"/>
</svg>
