<svg width="50" height="50" viewBox="0 0 50 50" fill="none" xmlns="http://www.w3.org/2000/svg">
<path d="M49.3337 20.8439C50.5964 19.8878 49.9416 17.7795 48.3983 17.7795H32.8716C32.1701 17.7795 31.5621 17.3137 31.3283 16.6028L26.5346 1.15833C26.0436 -0.386111 23.9624 -0.386111 23.4714 1.15833L18.6777 16.6273C18.4673 17.3137 17.8359 17.804 17.1344 17.804H1.60766C0.0409516 17.804 -0.590407 19.8878 0.67231 20.8684L13.2293 30.4292C13.7905 30.8705 14.0244 31.6305 13.8139 32.3169L9.02027 47.7859C8.52921 49.3303 10.2362 50.6296 11.4989 49.6735L24.0559 40.1127C24.6172 39.6714 25.3888 39.6714 25.95 40.1127L38.507 49.6735C39.7697 50.6296 41.4768 49.3303 40.9857 47.7859L36.192 32.3169C35.9816 31.6305 36.192 30.8705 36.7766 30.4292L49.3337 20.8684V20.8439Z" fill="#FFC72C"/>
</svg>
