<svg width="18" height="18" viewBox="0 0 18 18" fill="none" xmlns="http://www.w3.org/2000/svg">
<path d="M12.7672 7.3149C12.6013 7.14915 12.394 7.02484 12.159 6.96959L10.9012 6.62428L10.1963 5.47786C10.0719 5.27067 9.89223 5.10493 9.6849 4.99443C9.47758 4.88393 9.24261 4.81487 9.00764 4.81487C8.77266 4.81487 8.53769 4.88393 8.33037 4.99443C8.12304 5.10493 7.94336 5.28449 7.81896 5.47786L7.11405 6.62428L5.85626 6.96959C5.62129 7.03865 5.41396 7.14915 5.2481 7.3149C5.08224 7.48065 4.95784 7.68783 4.88873 7.90883C4.81962 8.12982 4.8058 8.37845 4.84727 8.59944C4.88873 8.83425 4.98549 9.05525 5.13753 9.23481L5.96684 10.2984L5.89773 11.6658C5.89773 11.9006 5.92537 12.1354 6.02212 12.3564C6.11888 12.5774 6.27092 12.757 6.46442 12.8951C6.65793 13.047 6.87908 13.1299 7.11405 13.1713C7.34902 13.1989 7.59781 13.1713 7.81896 13.0884L9.02146 12.605L10.224 13.0884C10.4451 13.1851 10.6939 13.2128 10.9289 13.1713C11.1638 13.1437 11.3988 13.047 11.5785 12.8951C11.7582 12.757 11.9102 12.5636 12.007 12.3564C12.1037 12.1492 12.1452 11.9144 12.1452 11.6796V10.1188L12.8916 9.23481C13.0298 9.04144 13.1404 8.82044 13.1818 8.58563C13.2233 8.35082 13.2095 8.11601 13.1404 7.89501C13.0712 7.67402 12.9469 7.46683 12.7672 7.30108V7.3149ZM11.1915 8.94475L10.7492 9.44199C10.7492 9.44199 10.6663 9.52487 10.6386 9.58012C10.6248 9.63537 10.6248 9.70443 10.6248 9.75968V10.9337C10.6386 11.2652 10.6386 11.431 10.528 11.5C10.4175 11.5691 10.2654 11.5 9.96134 11.3895L9.1735 11.0718C9.1735 11.0718 9.0491 11.0166 8.99381 11.0166C8.93853 11.0166 8.86942 11.0304 8.81413 11.0718L8.06775 11.3757C7.74985 11.5 7.58399 11.5691 7.47341 11.4862C7.36284 11.4033 7.37666 11.2376 7.39048 10.8923L7.44577 9.99449C7.44577 9.99449 7.44577 9.87018 7.44577 9.81493C7.41813 9.75968 7.39048 9.70443 7.34902 9.66299L6.7685 8.93094C6.56117 8.6685 6.46442 8.54419 6.50589 8.41988C6.54735 8.29557 6.71321 8.25414 7.03112 8.17126L7.88807 7.93645C7.88807 7.93645 8.01246 7.90883 8.06775 7.86739C8.10922 7.82595 8.15068 7.7707 8.17833 7.71545L8.6068 7.02484C8.78649 6.72097 8.88324 6.56903 9.02146 6.56903C9.15967 6.56903 9.25643 6.72097 9.43611 7.02484L9.86459 7.71545C9.86459 7.71545 9.9337 7.82595 9.97516 7.86739C10.0304 7.89501 10.0857 7.92264 10.1548 7.93645L10.9703 8.15745C11.3021 8.25414 11.4679 8.29557 11.5094 8.41988C11.5508 8.54419 11.4403 8.68232 11.2053 8.94475H11.1915ZM17.8674 3.90325C17.7983 2.92258 17.3975 1.99715 16.734 1.27891C16.0153 0.615922 15.0892 0.215365 14.1079 0.146303C12.8225 0.0219924 11.5232 -0.0194446 10.2378 0.00818008H7.79132C6.50589 -0.0194446 5.20664 0.0358047 3.92121 0.160116C2.93986 0.229177 2.0138 0.629735 1.29506 1.29273C0.631615 2.01097 0.230782 2.93639 0.161673 3.91707C0.0372766 5.20161 -0.0180107 6.48616 0.00963295 7.78452V10.2293C-0.0180107 11.5138 0.00963296 12.8122 0.147851 14.0967C0.21696 15.0774 0.617793 16.0028 1.28124 16.7211C1.99997 17.3841 2.92604 17.7846 3.90738 17.8537C5.19281 17.978 6.49206 18.0194 7.77749 17.9918H10.224C11.5094 18.0194 12.8086 17.978 14.0941 17.8537C15.0754 17.7846 16.0015 17.3841 16.7202 16.7211C17.3837 16.0028 17.7845 15.0774 17.8536 14.0967C17.978 12.8122 18.0195 11.5138 17.9918 10.2293V7.7707C18.0195 6.48616 17.978 5.1878 17.8536 3.90325H17.8674ZM16.2641 10.1464C16.2917 11.3757 16.2641 12.6188 16.1397 13.8481C16.112 14.4421 15.8909 15.0222 15.4901 15.4642C15.0339 15.8647 14.4673 16.0857 13.8729 16.1133C12.6428 16.2238 11.4126 16.2653 10.1687 16.2377H7.8466C6.61646 16.2653 5.3725 16.2377 4.14236 16.1133C3.54802 16.0857 2.9675 15.8647 2.5252 15.4642C2.12437 15.0084 1.90322 14.4421 1.87558 13.8481C1.765 12.6188 1.72354 11.3895 1.75118 10.1464V7.82595C1.72354 6.59666 1.75118 5.35355 1.87558 4.12425C1.90322 3.53032 2.12437 2.9502 2.5252 2.50821C2.98132 2.10765 3.54802 1.88666 4.14236 1.85903C5.3725 1.74853 6.60264 1.7071 7.83278 1.73472H10.1548C11.385 1.7071 12.629 1.73472 13.8591 1.85903C14.4534 1.88666 15.0339 2.10765 15.4762 2.50821C15.8771 2.96402 16.0982 3.53032 16.1259 4.12425C16.2364 5.35355 16.2779 6.58284 16.2503 7.82595V10.1464H16.2641Z" fill="#374957"/>
</svg>
