<svg width="12" height="12" viewBox="0 0 12 12" fill="none" xmlns="http://www.w3.org/2000/svg">
<path d="M8.29882 0.455772C7.20106 -1.4298e-07 5.99533 -0.113943 4.83159 0.113943C3.66785 0.347826 2.60009 0.917542 1.76028 1.75712C0.920464 2.5967 0.350587 3.66417 0.11664 4.82759C-0.117308 5.99101 0.00266931 7.1964 0.458568 8.29385C0.914466 9.3913 1.68229 10.3268 2.66607 10.9865C3.64985 11.6462 4.8136 12 6.00134 12C7.59098 12 9.11464 11.3643 10.2424 10.2429C11.3701 9.12144 12 7.5922 12 6.003C12 4.81559 11.6461 3.65817 10.9862 2.66867C10.3264 1.68516 9.39058 0.911545 8.29282 0.46177L8.29882 0.455772ZM10.0324 4.31184L5.95934 8.33583C5.85137 8.44378 5.7194 8.53373 5.56943 8.5937C5.42546 8.65367 5.26949 8.68366 5.11353 8.68366C4.95756 8.68366 4.8016 8.65367 4.65164 8.5937C4.50767 8.53373 4.37569 8.44378 4.26172 8.33583L1.99422 6.11694C1.88025 6.003 1.81426 5.85307 1.81426 5.69715C1.81426 5.53523 1.87425 5.38531 1.98823 5.27137C2.1022 5.15742 2.25217 5.09145 2.40813 5.09145C2.5701 5.09145 2.72006 5.15142 2.83403 5.26537L5.10753 7.49025L9.19262 3.47227C9.3066 3.37032 9.45656 3.31634 9.61253 3.32234C9.76849 3.32234 9.91246 3.3943 10.0204 3.50225C10.1284 3.6102 10.1884 3.76012 10.1944 3.91005C10.1944 4.06597 10.1404 4.2099 10.0384 4.32384L10.0324 4.31184Z" fill="#76D671"/>
</svg>
