<svg width="31" height="9" viewBox="0 0 31 9" fill="none" xmlns="http://www.w3.org/2000/svg">
<path d="M15.6951 2C15.445 1.97 15.1849 1.98 14.9448 2.05C14.7047 2.12 14.4747 2.23 14.2846 2.39C14.0945 2.55 13.9345 2.74 13.8244 2.96C13.7144 3.18 13.6544 3.42 13.6444 3.66V0.68L12.1039 0.88V7H13.6444V5.44C13.6444 5.68 13.7144 5.92 13.8244 6.14C13.9345 6.36 14.0945 6.55 14.2846 6.71C14.4747 6.87 14.7047 6.98 14.9448 7.05C15.1849 7.12 15.445 7.14 15.6951 7.1C17.1455 7.1 18.0158 6.15 18.0158 4.55C18.0158 2.95 17.1455 2 15.6951 2ZM16.3853 5.13C16.3253 5.32 16.2252 5.49 16.0852 5.63C15.9451 5.77 15.7751 5.89 15.595 5.96C15.405 6.03 15.2049 6.07 14.9948 6.06C14.7948 6.06 14.5947 6.03 14.4046 5.95C14.2146 5.87 14.0545 5.76 13.9145 5.62C13.7744 5.48 13.6744 5.31 13.6144 5.12C13.5544 4.94 13.5343 4.74 13.5544 4.55C13.5343 4.15 13.6744 3.76 13.9345 3.45C14.0645 3.31 14.2346 3.2 14.4146 3.13C14.5947 3.06 14.7948 3.02 14.9948 3.03C15.1949 3.03 15.405 3.06 15.595 3.13C15.7851 3.2 15.9552 3.32 16.0952 3.46C16.2352 3.6 16.3353 3.78 16.3953 3.96C16.4553 4.15 16.4753 4.34 16.4453 4.54C16.4753 4.73 16.4553 4.93 16.3953 5.11L16.3853 5.13ZM22.2172 2C21.9672 1.97 21.7071 1.98 21.467 2.05C21.2269 2.12 20.9968 2.23 20.7968 2.39C20.6067 2.55 20.4466 2.74 20.3366 2.96C20.2266 3.18 20.1666 3.42 20.1566 3.66V0.68L18.616 0.88V7H20.1566V5.44C20.1566 5.68 20.2266 5.92 20.3366 6.14C20.4466 6.36 20.6067 6.55 20.7968 6.71C20.9868 6.87 21.2169 6.98 21.467 7.05C21.7071 7.12 21.9672 7.13 22.2172 7.1C23.6677 7.1 24.538 6.15 24.538 4.55C24.538 2.95 23.6677 2 22.2172 2ZM22.9075 5.13C22.8474 5.32 22.7474 5.49 22.6074 5.63C22.4673 5.77 22.2973 5.89 22.1172 5.96C21.9271 6.03 21.7271 6.07 21.517 6.06C21.3169 6.06 21.1169 6.03 20.9268 5.95C20.7367 5.87 20.5767 5.76 20.4366 5.62C20.2966 5.48 20.1966 5.31 20.1365 5.12C20.0765 4.93 20.0565 4.74 20.0765 4.55C20.0565 4.15 20.1966 3.76 20.4567 3.45C20.5867 3.31 20.7568 3.2 20.9368 3.13C21.1169 3.06 21.3169 3.02 21.517 3.03C21.7171 3.03 21.9271 3.06 22.1172 3.13C22.3073 3.2 22.4773 3.32 22.6174 3.46C22.7574 3.6 22.8575 3.78 22.9175 3.96C22.9775 4.15 22.9975 4.34 22.9675 4.54C22.9975 4.73 22.9775 4.93 22.9175 5.11L22.9075 5.13ZM28.9595 2.1H30.5L28.5193 8.5H26.9788L27.439 7H26.0285L24.518 2.1H26.1586L27.469 6.88L28.9395 2.1H28.9595ZM9.66305 3.65C9.66305 3.41 9.59303 3.17 9.48299 2.96C9.37296 2.74 9.2129 2.55 9.02284 2.4C8.83278 2.25 8.6027 2.13 8.36262 2.06C8.12254 1.99 7.86245 1.98 7.61237 2.01C7.29226 2 6.97216 2.05 6.68206 2.17C6.39196 2.29 6.12187 2.46 5.9118 2.69C5.48166 3.23 5.26159 3.89 5.3016 4.57C5.26159 5.24 5.48166 5.91 5.9118 6.44C6.12187 6.67 6.39196 6.84 6.68206 6.96C6.97216 7.08 7.29226 7.13 7.61237 7.12C7.86245 7.15 8.12254 7.13 8.36262 7.07C8.6027 7 8.83278 6.89 9.02284 6.73C9.2129 6.57 9.37296 6.38 9.48299 6.16C9.59303 5.94 9.65305 5.7 9.66305 5.46V7.02H11.2036V2.11L9.66305 2.31V3.65ZM9.68306 5.12C9.62304 5.3 9.52301 5.47 9.38296 5.62C9.24291 5.76 9.08286 5.88 8.8928 5.95C8.70273 6.02 8.50267 6.06 8.3026 6.06C8.10253 6.06 7.89246 6.03 7.7024 5.96C7.51234 5.89 7.34228 5.77 7.21224 5.63C7.07219 5.49 6.97216 5.32 6.91214 5.13C6.85212 4.94 6.83211 4.75 6.86212 4.56C6.83211 4.37 6.85212 4.17 6.91214 3.98C6.97216 3.79 7.07219 3.62 7.21224 3.48C7.35228 3.34 7.52234 3.22 7.7024 3.14C7.89246 3.06 8.09253 3.03 8.3026 3.04C8.50267 3.04 8.70273 3.07 8.88279 3.14C9.06285 3.21 9.23291 3.32 9.36295 3.46C9.62304 3.77 9.76309 4.16 9.74308 4.56C9.76309 4.75 9.74308 4.95 9.68306 5.13V5.12ZM1.93048 2.24L4.81144 1.86V2.79L2.92081 3.04V3.48L4.81144 3.23V4.12L2.92081 4.37V5.44C2.95082 5.82 3.27092 5.9 3.82111 5.9C4.08119 5.9 4.33128 5.85 4.57136 5.75H4.59136V6.9C4.20123 7.04 3.78109 7.12 3.36095 7.12C2.18056 7.12 1.45032 6.57 1.4003 5.64V4.58L0.5 4.7V3.81L1.4003 3.7V3.26L0.5 3.38V2.45L1.4103 2.34L1.48033 2.32V0.5H3.02084V0.88C2.99083 1.24 2.83078 1.58 2.56069 1.83C2.2906 2.09 1.94048 2.24 1.56035 2.27L1.93048 2.23V2.24Z" fill="#374957"/>
</svg>
