<svg width="20" height="10" viewBox="0 0 20 10" fill="none" xmlns="http://www.w3.org/2000/svg">
<path d="M0.994779 1.6086C0.56255 2.05929 0.224803 2.59034 0 3.17244L6.8972 8.88916C7.23712 8.68065 7.54772 8.43087 7.82465 8.14416L7.95931 8.00407C10.5722 5.27711 8.85635 2.3221 7.81487 1.32841C6.91023 0.462867 5.69826 -0.00846076 4.44609 0.0186893C3.19393 0.0458394 2.00367 0.568207 1.13704 1.47176L0.995864 1.6086H0.994779Z" fill="#374957"/>
<path d="M15.2245 9.54705C17.8624 9.54705 19.9996 7.40979 19.9996 4.77407C19.9996 2.13834 17.8613 0 15.2245 0C12.5877 0 10.4482 2.13725 10.4482 4.77407C10.4482 7.41088 12.5866 9.54705 15.2245 9.54705Z" fill="#374957"/>
</svg>
