<svg width="33" height="10" viewBox="0 0 33 10" fill="none" xmlns="http://www.w3.org/2000/svg">
<path d="M1.39443 1.19538V8.10108C1.39443 8.14316 1.36068 8.17794 1.31983 8.17794H0.0746062C0.0337502 8.17794 0 8.14316 0 8.10108V1.19538C0 1.15329 0.0337502 1.11851 0.0746062 1.11851H1.31983C1.36157 1.11851 1.39443 1.15329 1.39443 1.19538ZM5.39031 3.45122H4.14508C4.10423 3.45122 4.07048 3.48599 4.07048 3.52809V7.68195C4.07048 8.16148 3.66725 8.56413 3.2063 8.56413H2.20977C2.15737 8.56413 2.12184 8.61813 2.1396 8.66753L2.60678 9.94785C2.61744 9.97805 2.64497 9.99726 2.67606 9.99726L3.21784 10C4.45862 10 5.46402 8.96405 5.46402 7.68562V3.52809C5.46491 3.48508 5.43116 3.45122 5.39031 3.45122ZM31.3205 2.23682C31.936 2.24872 32.4378 1.73166 32.4262 1.09746C32.4156 0.49987 31.9422 0.011183 31.3622 0.000201273C30.7467 -0.0116956 30.2449 0.505362 30.2565 1.13956C30.2662 1.73806 30.7405 2.22584 31.3205 2.23682ZM29.2723 2.19289C29.283 2.20204 29.2972 2.2057 29.3105 2.20021C29.7404 2.04556 30.0459 1.62001 30.0353 1.12126C30.022 0.521835 29.5406 0.0368071 28.9588 0.0340617C28.4286 0.0322314 27.9863 0.422999 27.8921 0.940971C27.8895 0.954698 27.8948 0.969342 27.9055 0.978494L29.2723 2.19289ZM33 3.44298V4.81843C33 4.86055 32.9663 4.89533 32.9254 4.89533H27.131C27.2384 5.17261 27.2979 5.47552 27.2979 5.79217C27.2979 7.07338 26.3289 8.12395 25.1068 8.21088L25.121 8.2228H10.8783C7.84876 8.2228 6.74032 7.14473 6.74032 4.34897V1.19538C6.74032 1.15329 6.77407 1.11851 6.81492 1.11851H8.14453C8.18538 1.11851 8.21913 1.15329 8.21913 1.19538V4.5741C8.21913 5.98069 8.71295 6.56913 10.2282 6.69267H22.7594C22.6502 6.41355 22.5898 6.10971 22.5898 5.79124C22.5898 4.49542 23.5818 3.43292 24.8253 3.36885L24.8235 3.36611H32.9254C32.9671 3.36611 33 3.39997 33 3.44298ZM25.9062 5.78666C25.9062 5.24581 25.4514 4.80107 24.9301 4.80107C24.4087 4.80107 23.9824 5.24581 23.9824 5.78666C23.9824 6.32754 24.4087 6.78234 24.9301 6.78234C25.4514 6.78234 25.9062 6.32754 25.9062 5.78666Z" fill="#374957"/>
</svg>
