<svg width="35" height="8" viewBox="0 0 35 8" fill="none" xmlns="http://www.w3.org/2000/svg">
<path d="M23.65 2.64981C23.175 2.23034 23.5417 2.08177 22.1583 2.08177C20.775 2.08177 19.7917 3.17416 19.7917 4.76467C19.7917 6.35518 20.7417 7.44757 22.1583 7.44757C22.7417 7.44757 23.2167 7.299 23.65 6.87953V7.44757H25.0333V2.23908H23.65V2.65855V2.64981ZM22.45 6.20662C21.65 6.20662 21.2167 5.60362 21.2167 4.80836C21.2167 4.01311 21.65 3.41011 22.45 3.41011C23.25 3.41011 23.6833 4.01311 23.6833 4.80836C23.6833 5.60362 23.25 6.20662 22.45 6.20662ZM33.6167 2.20412V2.65855C33.1417 2.23908 33.5083 2.09051 32.125 2.09051C30.7417 2.09051 29.7583 3.1829 29.7583 4.77341C29.7583 6.36392 30.7083 7.4563 32.125 7.4563C32.7083 7.4563 33.1833 7.30774 33.6167 6.88826V7.4563H35V2.20412H33.6167ZM32.4167 6.20662C31.6167 6.20662 31.1833 5.60362 31.1833 4.80836C31.1833 4.01311 31.6167 3.41011 32.4167 3.41011C33.2167 3.41011 33.65 4.01311 33.65 4.80836C33.65 5.60362 33.2167 6.20662 32.4167 6.20662ZM17.3583 2.23908H18.775V7.4563H17.3167V3.67228H15.7167V7.44757H14.2583V3.67228H12.6583V7.44757H11.2417V2.23908H17.35H17.3583ZM8.475 2.64981C8 2.23034 8.36667 2.08177 6.98333 2.08177C5.6 2.08177 4.61667 3.17416 4.61667 4.76467C4.61667 6.35518 5.56667 7.44757 6.98333 7.44757C7.56667 7.44757 8.04167 7.299 8.475 6.87953V7.44757H9.85833V2.23908H8.475V2.65855V2.64981ZM7.275 6.20662C6.475 6.20662 6.04167 5.60362 6.04167 4.80836C6.04167 4.01311 6.475 3.41011 7.275 3.41011C8.075 3.41011 8.50833 4.01311 8.50833 4.80836C8.50833 5.60362 8.075 6.20662 7.275 6.20662ZM29.3583 2.12547H29.4333V3.60237L27.7583 4.24906V7.5H26.3V2.23908H27.7583V2.77216C27.7583 2.77216 29.3583 2.09051 29.3583 2.12547ZM2.50833 5.94444H4V7.4563H1.05833V3.67228H0V2.64981L2.44167 0.5H2.51667V2.23908H3.9V3.67228H2.51667V5.9357L2.50833 5.94444Z" fill="#374957"/>
</svg>
