<svg width="20" height="21" viewBox="0 0 20 21" fill="none" xmlns="http://www.w3.org/2000/svg">
<path d="M19.8171 11.5307C19.6506 12.1005 19.3592 12.6208 18.9678 13.0667C18.5765 13.5127 18.0935 13.8678 17.5523 14.1155C17.0111 14.3633 16.4199 14.4871 15.8287 14.4871H12.5064L12.7895 16.1801C12.8895 16.7747 12.7646 17.3776 12.4481 17.8979C12.1317 18.4099 11.6405 18.7898 11.0659 18.9797C10.4914 19.1614 9.86693 19.1366 9.30905 18.9054C8.75117 18.6741 8.29322 18.2447 8.02677 17.7079L6.66954 14.9827V2.09961H15.2459C16.245 2.09961 17.2109 2.46298 17.9686 3.11539C18.7263 3.7678 19.2176 4.66796 19.3675 5.6507L19.9587 9.77988C20.0419 10.3662 20.0003 10.9608 19.8254 11.5307H19.8171ZM1.224 3.31359C0.441306 4.08162 0 5.13043 0 6.22879V10.358C0 11.4563 0.441306 12.5051 1.224 13.2732C2.00669 14.0495 3.06416 14.4789 4.16326 14.4871H4.99591V2.09961H4.16326C3.05583 2.09961 1.99837 2.5373 1.224 3.31359Z" fill="#374957"/>
</svg>
