<svg width="20" height="20" viewBox="0 0 20 20" fill="none" xmlns="http://www.w3.org/2000/svg">
<path d="M19.8171 9.06895C19.6506 8.49913 19.3592 7.97885 18.9678 7.5329C18.5765 7.08695 18.0935 6.73184 17.5523 6.48409C17.0111 6.23633 16.4199 6.11246 15.8287 6.11246H12.5064L12.7895 4.4195C12.8895 3.82489 12.7646 3.22203 12.4481 2.70176C12.1317 2.18974 11.6405 1.80985 11.0659 1.61991C10.4914 1.43823 9.86693 1.463 9.30905 1.69424C8.75117 1.92547 8.29322 2.35491 8.02677 2.8917L6.66954 5.61696V18.5H15.2459C16.245 18.5 17.2109 18.1366 17.9686 17.4842C18.7263 16.8318 19.2176 15.9316 19.3675 14.9489L19.9587 10.8197C20.0419 10.2334 20.0003 9.63878 19.8254 9.06895H19.8171ZM1.224 17.286C0.441306 16.518 0 15.4692 0 14.3708V10.2416C0 9.14328 0.441306 8.09447 1.224 7.32644C2.00669 6.55015 3.06416 6.12072 4.16326 6.11246H4.99591V18.5H4.16326C3.05583 18.5 1.99837 18.0623 1.224 17.286Z" fill="#374957"/>
</svg>
