<svg width="20" height="20" viewBox="0 0 20 20" fill="none" xmlns="http://www.w3.org/2000/svg">
<path d="M19.959 10.8154L19.3715 14.9469C19.2271 15.9303 18.7317 16.8296 17.9754 17.4816C17.2191 18.1336 16.252 18.4949 15.2498 18.5H4.16662C3.06197 18.4987 2.00294 18.063 1.22184 17.2885C0.440731 16.5139 0.0013232 15.4638 0 14.3685L0 10.237C0.0013232 9.14165 0.440731 8.09155 1.22184 7.31703C2.00294 6.5425 3.06197 6.1068 4.16662 6.10549H6.4266L8.02159 2.90109C8.28972 2.36103 8.74471 1.93453 9.30355 1.69938C9.8624 1.46424 10.4879 1.43612 11.0659 1.62016C11.6439 1.80419 12.1359 2.18811 12.4523 2.7019C12.7686 3.21569 12.8881 3.82511 12.789 4.41901L12.509 6.10549H15.8332C16.4296 6.10546 17.0192 6.23242 17.5619 6.47778C18.1046 6.72314 18.5879 7.08118 18.979 7.52771C19.3702 7.97423 19.6601 8.49882 19.8291 9.06601C19.9982 9.63321 20.0425 10.2298 19.959 10.8154ZM4.16662 16.8474H5.83327V7.75809H4.16662C3.50359 7.75809 2.86771 8.01926 2.39888 8.48414C1.93004 8.94903 1.66665 9.57955 1.66665 10.237V14.3685C1.66665 15.0259 1.93004 15.6565 2.39888 16.1213C2.86771 16.5862 3.50359 16.8474 4.16662 16.8474ZM17.7198 8.61083C17.4852 8.34313 17.1953 8.12848 16.8699 7.98137C16.5444 7.83426 16.1909 7.75812 15.8332 7.75809H11.5274C11.4065 7.75811 11.2871 7.73207 11.1774 7.68175C11.0677 7.63144 10.9703 7.55807 10.8921 7.46672C10.8138 7.37537 10.7566 7.26824 10.7242 7.15276C10.6919 7.03727 10.6853 6.91619 10.7049 6.79793L11.1449 4.15376C11.166 4.03103 11.1596 3.90519 11.126 3.78521C11.0924 3.66523 11.0326 3.55407 10.9507 3.45967C10.8547 3.35706 10.7355 3.2785 10.6029 3.23048C10.4704 3.18246 10.3282 3.16633 10.1881 3.18344C10.048 3.20054 9.91395 3.25038 9.79707 3.32886C9.68019 3.40734 9.58377 3.51221 9.51574 3.63485L7.69159 7.29701C7.64347 7.38861 7.57846 7.47045 7.49992 7.53829V16.8474H15.2498C15.8517 16.8452 16.4328 16.6287 16.8871 16.2372C17.3414 15.8457 17.6387 15.3054 17.7248 14.7147L18.3131 10.5832C18.3625 10.2315 18.3351 9.87337 18.2327 9.53307C18.1303 9.19278 17.9554 8.87827 17.7198 8.61083Z" fill="#374957"/>
</svg>
