<svg width="20" height="21" viewBox="0 0 20 21" fill="none" xmlns="http://www.w3.org/2000/svg">
<path d="M19.959 9.78421L19.3715 5.6527C19.2271 4.66935 18.7317 3.76998 17.9754 3.118C17.2191 2.46601 16.252 2.10467 15.2498 2.09961H4.16662C3.06197 2.10092 2.00294 2.53662 1.22184 3.31115C0.440731 4.08567 0.0013232 5.13577 0 6.23111L0 10.3626C0.0013232 11.458 0.440731 12.5081 1.22184 13.2826C2.00294 14.0571 3.06197 14.4928 4.16662 14.4941H6.4266L8.02159 17.6985C8.28972 18.2386 8.74471 18.6651 9.30355 18.9002C9.8624 19.1354 10.4879 19.1635 11.0659 18.9795C11.6439 18.7954 12.1359 18.4115 12.4523 17.8977C12.7686 17.3839 12.8881 16.7745 12.789 16.1806L12.509 14.4941H15.8332C16.4296 14.4942 17.0192 14.3672 17.5619 14.1218C18.1046 13.8765 18.5879 13.5184 18.979 13.0719C19.3702 12.6254 19.6601 12.1008 19.8291 11.5336C19.9982 10.9664 20.0425 10.3698 19.959 9.78421ZM4.16662 3.75221H5.83327V12.8415H4.16662C3.50359 12.8415 2.86771 12.5804 2.39888 12.1155C1.93004 11.6506 1.66665 11.0201 1.66665 10.3626V6.23111C1.66665 5.57367 1.93004 4.94315 2.39888 4.47827C2.86771 4.01338 3.50359 3.75221 4.16662 3.75221ZM17.7198 11.9888C17.4852 12.2565 17.1953 12.4711 16.8699 12.6182C16.5444 12.7653 16.1909 12.8415 15.8332 12.8415H11.5274C11.4065 12.8415 11.2871 12.8675 11.1774 12.9179C11.0677 12.9682 10.9703 13.0415 10.8921 13.1329C10.8138 13.2242 10.7566 13.3314 10.7242 13.4469C10.6919 13.5623 10.6853 13.6834 10.7049 13.8017L11.1449 16.4458C11.166 16.5686 11.1596 16.6944 11.126 16.8144C11.0924 16.9344 11.0326 17.0455 10.9507 17.1399C10.8547 17.2426 10.7355 17.3211 10.6029 17.3691C10.4704 17.4172 10.3282 17.4333 10.1881 17.4162C10.048 17.3991 9.91395 17.3492 9.79707 17.2708C9.68019 17.1923 9.58377 17.0874 9.51574 16.9648L7.69159 13.3026C7.64347 13.211 7.57846 13.1292 7.49992 13.0613V3.75221H15.2498C15.8517 3.75439 16.4328 3.97096 16.8871 4.36243C17.3414 4.75391 17.6387 5.29422 17.7248 5.88489L18.3131 10.0164C18.3625 10.3681 18.3351 10.7262 18.2327 11.0665C18.1303 11.4068 17.9554 11.7213 17.7198 11.9888Z" fill="#374957"/>
</svg>
