<svg width="20" height="20" viewBox="0 0 20 20" fill="none" xmlns="http://www.w3.org/2000/svg">
<path d="M16.275 1.225C15.5 0.441667 14.4417 0 13.3333 0H13.225C12.85 0 12.4917 0.133333 12.2 0.358333C11.9083 0.583333 11.7 0.908333 11.6083 1.275C11.5083 1.625 11.3 1.94167 11.0083 2.15833C10.7167 2.375 10.3667 2.5 10 2.5C9.63333 2.5 9.28333 2.38333 8.99167 2.15833C8.7 1.93333 8.49167 1.625 8.39167 1.275C8.3 0.916667 8.09167 0.591667 7.8 0.358333C7.50833 0.125 7.15 0 6.775 0H6.66667C5.55833 0 4.5 0.441667 3.725 1.225C2.94167 2 2.5 3.05833 2.5 4.16667V17.5C2.5 18.1667 2.76667 18.8 3.23333 19.2667C3.7 19.7333 4.34167 20 5 20H6.775C7.15 20 7.50833 19.8667 7.8 19.6417C8.09167 19.4083 8.3 19.0917 8.39167 18.725C8.49167 18.375 8.7 18.0583 8.99167 17.8417C9.28333 17.6167 9.63333 17.5 10 17.5C10.3667 17.5 10.7167 17.6167 11.0083 17.8417C11.3 18.0667 11.5083 18.375 11.6083 18.725C11.7 19.0833 11.9083 19.4083 12.2 19.6417C12.4917 19.875 12.85 20 13.225 20H15C15.6667 20 16.3 19.7333 16.7667 19.2667C17.2333 18.8 17.5 18.1583 17.5 17.5V4.16667C17.5 3.05833 17.0583 2 16.275 1.225ZM15.8333 12.5H14.1667C13.9417 12.5 13.7333 12.5917 13.575 12.7417C13.4167 12.8917 13.3333 13.1083 13.3333 13.3333C13.3333 13.5583 13.425 13.7667 13.575 13.925C13.725 14.0833 13.9417 14.1667 14.1667 14.1667H15.8333V17.5C15.8333 17.725 15.7417 17.9333 15.5917 18.0917C15.4417 18.25 15.225 18.3333 15 18.3333L13.2167 18.2833C13.025 17.575 12.6 16.95 12.0083 16.5083C11.425 16.0667 10.7083 15.8333 9.975 15.8333C9.24167 15.8333 8.53333 16.0833 7.95 16.5417C7.375 16.9917 6.95833 17.625 6.775 18.3333H5C4.775 18.3333 4.56667 18.2417 4.40833 18.0917C4.25 17.9333 4.16667 17.725 4.16667 17.5V14.1667H5.83333C6.05833 14.1667 6.26667 14.075 6.425 13.925C6.58333 13.7667 6.66667 13.5583 6.66667 13.3333C6.66667 13.1083 6.575 12.9 6.425 12.7417C6.26667 12.5833 6.05833 12.5 5.83333 12.5H4.16667V4.16667C4.16667 3.5 4.43333 2.86667 4.9 2.4C5.36667 1.93333 6.00833 1.66667 6.66667 1.66667L6.78333 1.71667C6.975 2.41667 7.4 3.04167 7.975 3.48333C8.55833 3.925 9.26667 4.16667 9.99167 4.16667C10.7333 4.16667 11.45 3.91667 12.0333 3.45833C12.6167 3.00833 13.0417 2.375 13.2333 1.66667H13.325C13.9917 1.66667 14.625 1.93333 15.0917 2.4C15.5583 2.86667 15.825 3.50833 15.825 4.16667V12.5H15.8333ZM11.425 12.7417C11.5833 12.9 11.6667 13.1083 11.6667 13.3333C11.6667 13.5583 11.575 13.7667 11.425 13.925C11.2667 14.0833 11.0583 14.1667 10.8333 14.1667H9.16667C8.94167 14.1667 8.73333 14.075 8.575 13.925C8.41667 13.7667 8.33333 13.5583 8.33333 13.3333C8.33333 13.1083 8.425 12.9 8.575 12.7417C8.73333 12.5833 8.94167 12.5 9.16667 12.5H10.8333C11.0583 12.5 11.2667 12.5917 11.425 12.7417Z" fill="#374957"/>
</svg>
