<svg width="20" height="20" viewBox="0 0 20 20" fill="none" xmlns="http://www.w3.org/2000/svg">
<path d="M18.2535 3.575C18.092 3.41666 17.8795 3.33334 17.65 3.33334H15.015C14.8195 2.39167 14.2925 1.54999 13.536 0.941659C12.7795 0.333325 11.8275 0 10.85 0H9.15C8.1725 0 7.2205 0.333325 6.464 0.941659C5.7075 1.54999 5.18049 2.39167 4.98499 3.33334H2.35C2.1205 3.33334 1.90799 3.425 1.74649 3.575C1.58499 3.725 1.5 3.94167 1.5 4.16667C1.5 4.39167 1.59349 4.6 1.74649 4.75833C1.89949 4.91666 2.1205 5 2.35 5H3.2V15.8333C3.2 16.9417 3.6505 18 4.4495 18.775C5.2485 19.5583 6.328 19.9917 7.45 20H12.55C13.6805 20 14.76 19.5583 15.5505 18.775C16.3495 17.9917 16.7915 16.9333 16.8 15.8333V5H17.65C17.8795 5 18.092 4.90833 18.2535 4.75833C18.415 4.6 18.5 4.39167 18.5 4.16667C18.5 3.94167 18.4065 3.73333 18.2535 3.575ZM7.67949 2.125C8.11299 1.825 8.623 1.66667 9.15 1.66667H10.85C11.377 1.66667 11.8955 1.825 12.3205 2.125C12.754 2.425 13.077 2.84167 13.2555 3.33334H6.7445C6.923 2.85 7.24599 2.425 7.67949 2.125ZM15.1 15.8333C15.1 16.5 14.828 17.1334 14.352 17.6C13.876 18.0667 13.2215 18.3333 12.55 18.3333H7.45C6.77 18.3333 6.12399 18.0667 5.64799 17.6C5.17199 17.1334 4.9 16.4917 4.9 15.8333V5H15.1V15.8333ZM7.69649 14.75C7.53499 14.5917 7.45 14.3833 7.45 14.1583V9.15833C7.45 8.93333 7.54349 8.725 7.69649 8.56667C7.84949 8.40834 8.0705 8.325 8.3 8.325C8.5295 8.325 8.74199 8.41667 8.90349 8.56667C9.06499 8.71667 9.15 8.93333 9.15 9.15833V14.1583C9.15 14.3833 9.05649 14.5917 8.90349 14.75C8.74199 14.9083 8.5295 14.9917 8.3 14.9917C8.0705 14.9917 7.85799 14.9 7.69649 14.75ZM11.0965 14.75C10.935 14.5917 10.85 14.3833 10.85 14.1583V9.15833C10.85 8.93333 10.9435 8.725 11.0965 8.56667C11.258 8.40834 11.4705 8.325 11.7 8.325C11.9295 8.325 12.142 8.41667 12.3035 8.56667C12.465 8.725 12.55 8.93333 12.55 9.15833V14.1583C12.55 14.3833 12.4565 14.5917 12.3035 14.75C12.142 14.9083 11.9295 14.9917 11.7 14.9917C11.4705 14.9917 11.258 14.9 11.0965 14.75Z" fill="#FE5000"/>
</svg>
