<svg width="20" height="18" viewBox="0 0 20 18" fill="none" xmlns="http://www.w3.org/2000/svg">
<path d="M15.8333 3.26906H14.0833C13.8899 2.3467 13.3782 1.51794 12.6344 0.922462C11.8906 0.32698 10.9602 0.00118873 10 0H4.16667C3.062 0.0012977 2.00296 0.432237 1.22185 1.19829C0.440735 1.96434 0.00132321 3.00296 0 4.08632L0 11.4417C0.00209484 12.1737 0.254615 12.8838 0.717113 13.4583C1.17961 14.0328 1.82533 14.4384 2.55083 14.6102C2.4723 15.0192 2.48572 15.4401 2.59016 15.8435C2.69459 16.2469 2.88753 16.6231 3.1555 16.9458C3.42347 17.2685 3.76001 17.53 4.14166 17.712C4.5233 17.894 4.94084 17.9921 5.36514 17.9995C5.78944 18.007 6.21029 17.9235 6.5983 17.7549C6.98631 17.5864 7.33215 17.3368 7.61168 17.0237C7.8912 16.7106 8.09768 16.3414 8.21671 15.9419C8.33574 15.5424 8.36445 15.1223 8.30083 14.7108H11.7025C11.6811 14.846 11.6696 14.9826 11.6683 15.1194C11.6683 15.878 11.9756 16.6056 12.5226 17.142C13.0696 17.6785 13.8115 17.9798 14.585 17.9798C15.3585 17.9798 16.1004 17.6785 16.6474 17.142C17.1944 16.6056 17.5017 15.878 17.5017 15.1194C17.5007 14.9485 17.4837 14.7781 17.4508 14.6102C18.176 14.4381 18.8214 14.0323 19.2835 13.4579C19.7457 12.8834 19.998 12.1735 20 11.4417V7.35538C19.9987 6.27202 19.5593 5.2334 18.7782 4.46735C17.997 3.7013 16.938 3.27036 15.8333 3.26906ZM18.3333 7.35538V8.17265H14.1667V4.90359H15.8333C16.4964 4.90359 17.1323 5.1619 17.6011 5.6217C18.0699 6.0815 18.3333 6.70513 18.3333 7.35538ZM1.66667 11.4417V4.08632C1.66667 3.43607 1.93006 2.81244 2.3989 2.35264C2.86774 1.89284 3.50363 1.63453 4.16667 1.63453H10C10.663 1.63453 11.2989 1.89284 11.7678 2.35264C12.2366 2.81244 12.5 3.43607 12.5 4.08632V13.0762H3.33333C2.89131 13.0762 2.46738 12.904 2.15482 12.5975C1.84226 12.291 1.66667 11.8752 1.66667 11.4417ZM6.66667 15.1194C6.66667 15.4445 6.53497 15.7563 6.30055 15.9862C6.06613 16.2161 5.74819 16.3453 5.41667 16.3453C5.08515 16.3453 4.7672 16.2161 4.53278 15.9862C4.29836 15.7563 4.16667 15.4445 4.16667 15.1194C4.16718 14.9797 4.19343 14.8413 4.24417 14.7108H6.58917C6.6399 14.8413 6.66615 14.9797 6.66667 15.1194ZM14.5833 16.3453C14.2518 16.3453 13.9339 16.2161 13.6995 15.9862C13.465 15.7563 13.3333 15.4445 13.3333 15.1194C13.3337 14.9797 13.36 14.8412 13.4108 14.7108H15.7558C15.8067 14.8412 15.833 14.9797 15.8333 15.1194C15.8333 15.4445 15.7016 15.7563 15.4672 15.9862C15.2328 16.2161 14.9149 16.3453 14.5833 16.3453ZM16.6667 13.0762H14.1667V9.80718H18.3333V11.4417C18.3333 11.8752 18.1577 12.291 17.8452 12.5975C17.5326 12.904 17.1087 13.0762 16.6667 13.0762Z" fill="#374957"/>
</svg>
