<svg width="20" height="20" viewBox="0 0 20 20" fill="none" xmlns="http://www.w3.org/2000/svg">
<path d="M5.23039 5.17337C5.37884 5.3286 5.57965 5.41572 5.78896 5.41572C5.99827 5.41572 6.19908 5.3286 6.34753 5.17337L9.19186 2.14804V19.1666C9.19186 19.3876 9.27533 19.5996 9.42392 19.7559C9.5725 19.9122 9.77402 20 9.98415 20C10.1943 20 10.3958 19.9122 10.5444 19.7559C10.693 19.5996 10.7764 19.3876 10.7764 19.1666V2.15637L13.6446 5.17337C13.7182 5.25148 13.8058 5.31349 13.9024 5.3558C13.9989 5.39811 14.1025 5.41989 14.2071 5.41989C14.3117 5.41989 14.4152 5.39811 14.5118 5.3558C14.6083 5.31349 14.696 5.25148 14.7696 5.17337C14.9172 5.01722 15 4.80598 15 4.5858C15 4.36563 14.9172 4.15439 14.7696 3.99824L11.6717 0.731214C11.2261 0.262994 10.622 0 9.99208 0C9.3622 0 8.75808 0.262994 8.31241 0.731214L5.23039 3.99824C5.08283 4.15439 5 4.36563 5 4.5858C5 4.80598 5.08283 5.01722 5.23039 5.17337Z" fill="#F9F9F9"/>
</svg>
