<svg width="20" height="21" viewBox="0 0 20 21" fill="none" xmlns="http://www.w3.org/2000/svg">
<path d="M18.5495 10.5428L15.4045 8.67208V4.94484C15.4045 3.88094 14.8536 2.90271 13.954 2.37433L11.4505 0.896287C10.5579 0.367904 9.45607 0.367904 8.56346 0.896287L6.053 2.38147C5.16039 2.90985 4.60948 3.88808 4.60251 4.94484V8.67922L1.44351 10.5428C0.550907 11.0641 0.0069735 12.0494 0 13.0991V16.0552C0 17.1191 0.550907 18.0901 1.45049 18.6185L3.95397 20.1037C4.84658 20.6321 5.9484 20.6321 6.841 20.1037L9.99303 18.2401L13.145 20.1037C14.0377 20.6321 15.1395 20.6321 16.0321 20.1037L18.5495 18.6257C19.4421 18.0973 19.993 17.1191 20 16.0623V13.1062C20 12.0423 19.4491 11.0641 18.5495 10.5357V10.5428ZM6.19247 4.95198C6.19247 4.47358 6.44351 4.02374 6.84798 3.78811L9.35844 2.30293C9.7629 2.06016 10.272 2.06016 10.6764 2.30293L13.1869 3.78811C13.5914 4.03088 13.8424 4.47358 13.8424 4.95198V7.75098L11.6806 6.47287C10.6555 5.86594 9.39331 5.86594 8.36123 6.47287L6.20642 7.75098V4.95198H6.19247ZM6.05997 18.7042C5.65551 18.947 5.14644 18.947 4.74198 18.7042L2.23849 17.219C1.83403 16.9834 1.57601 16.5336 1.57601 16.0552V13.0991C1.57601 12.6207 1.82706 12.1708 2.23152 11.9352L4.60948 10.5286V13.0991C4.60948 14.3129 5.2371 15.434 6.2622 16.048L8.41004 17.319L6.05997 18.7042ZM10.007 16.3836L7.06416 14.6485C6.5272 14.3272 6.19247 13.7417 6.19247 13.0991V9.60746L9.13529 7.87237C9.67225 7.55105 10.3417 7.55105 10.8787 7.87237L13.8215 9.60746V13.0919C13.8215 13.7274 13.4868 14.3201 12.9498 14.6414L10.007 16.3908V16.3836ZM18.4379 16.0552C18.4379 16.5336 18.1869 16.9834 17.7755 17.219L15.265 18.7042C14.8605 18.947 14.3515 18.947 13.947 18.7042L11.59 17.3119L13.7448 16.0552C14.7699 15.4482 15.4045 14.3272 15.4045 13.1134V10.5357L17.7824 11.9423C18.1869 12.178 18.4449 12.6278 18.4449 13.1062V16.0623L18.4379 16.0552Z" fill="#374957"/>
</svg>
