<svg width="10" height="10" viewBox="0 0 10 10" fill="none" xmlns="http://www.w3.org/2000/svg">
<path d="M9.74551 4.22078C9.58583 3.99101 9.35629 3.81618 9.09182 3.72627C9.02196 3.7013 8.96208 3.66134 8.90719 3.61139C8.85229 3.56144 8.81238 3.5015 8.78743 3.43157C8.75749 3.36663 8.74751 3.29171 8.74751 3.22178C8.74751 3.14685 8.76747 3.07692 8.79741 3.01199C8.91717 2.75724 8.95709 2.47253 8.90719 2.1978C8.85729 1.92308 8.72754 1.66833 8.52794 1.46853C8.32834 1.26873 8.07385 1.13886 7.7994 1.08891C7.52495 1.03896 7.24052 1.07892 6.98603 1.1988C6.92116 1.22877 6.8513 1.24875 6.77645 1.24875C6.7016 1.24875 6.63174 1.23876 6.56687 1.20879C6.502 1.17882 6.43713 1.13886 6.38723 1.08891C6.33733 1.03397 6.2974 0.974026 6.27245 0.904096C6.17764 0.639361 6.00299 0.414585 5.77844 0.24975C5.55389 0.0849151 5.27445 0 4.99501 0C4.71557 0 4.44112 0.0849151 4.21158 0.24975C3.98204 0.414585 3.80739 0.639361 3.71756 0.904096C3.69261 0.974026 3.65269 1.03397 3.60279 1.08891C3.55289 1.14386 3.49301 1.18382 3.42315 1.20879C3.35828 1.23876 3.28343 1.24875 3.21357 1.24875C3.13872 1.24875 3.06886 1.22877 3.00399 1.1988C2.7495 1.07892 2.46507 1.03896 2.19062 1.08392C1.91617 1.12887 1.65669 1.26374 1.46208 1.46354C1.26248 1.66334 1.13273 1.91808 1.08283 2.19281C1.03293 2.46753 1.07285 2.75225 1.1976 3.00699C1.22754 3.07193 1.2475 3.14186 1.2475 3.21678C1.2475 3.29171 1.23752 3.36164 1.20758 3.42657C1.17764 3.49151 1.13772 3.55644 1.08782 3.60639C1.03293 3.65634 0.973054 3.6963 0.903194 3.72128C0.638723 3.81618 0.414172 3.99101 0.249501 4.21578C0.0898204 4.44555 0 4.71528 0 5C0 5.28472 0.0848303 5.55445 0.249501 5.77922C0.409182 6.00899 0.638723 6.18382 0.903194 6.27373C0.973054 6.2987 1.03293 6.33866 1.08782 6.38861C1.14271 6.43856 1.18263 6.4985 1.20758 6.56843C1.23253 6.63836 1.2475 6.70829 1.2475 6.77822C1.2475 6.85315 1.22754 6.92308 1.1976 6.98801C1.07784 7.24276 1.03792 7.52747 1.08782 7.8022C1.13772 8.07692 1.26746 8.33167 1.46707 8.53147C1.66667 8.73127 1.92116 8.86114 2.19561 8.91109C2.47006 8.96104 2.75449 8.92108 3.00898 8.8012C3.07385 8.77123 3.14371 8.75125 3.21856 8.75125C3.29341 8.75125 3.36327 8.76124 3.42814 8.79121C3.49301 8.82118 3.55788 8.86114 3.60778 8.91109C3.65768 8.96603 3.6976 9.02597 3.72255 9.0959C3.81737 9.36064 3.99202 9.58541 4.21657 9.75025C4.44611 9.91009 4.72056 10 5 10C5.27944 10 5.55389 9.91508 5.78343 9.75025C6.01297 9.59041 6.18762 9.36064 6.27744 9.0959C6.30239 9.02597 6.34231 8.96603 6.39222 8.91109C6.44212 8.85614 6.502 8.81618 6.57186 8.79121C6.63673 8.76124 6.71158 8.75125 6.78144 8.75125C6.85629 8.75125 6.92615 8.77123 6.99102 8.8012C7.24551 8.92108 7.52994 8.96104 7.80439 8.91109C8.07884 8.86114 8.33333 8.73127 8.53293 8.53147C8.73253 8.33167 8.86228 8.07692 8.91218 7.8022C8.96208 7.52747 8.92216 7.24276 8.8024 6.98801C8.77246 6.92308 8.75249 6.85315 8.75249 6.77822C8.75249 6.7033 8.76248 6.63337 8.79242 6.56843C8.82236 6.5035 8.86228 6.43856 8.91218 6.38861C8.96707 6.33866 9.02695 6.2987 9.09681 6.27373C9.36128 6.17882 9.58583 6.004 9.7505 5.77922C9.91018 5.54945 10 5.27472 10 4.995C10 4.71528 9.91517 4.44056 9.7505 4.21079L9.74551 4.22078ZM7.12575 4.0959L4.81537 6.42358C4.7505 6.48851 4.68064 6.53846 4.59581 6.56843C4.51098 6.6034 4.42615 6.61838 4.33633 6.61838C4.24651 6.61838 4.16168 6.6034 4.08184 6.56843C3.99701 6.53347 3.92715 6.48352 3.86228 6.42358L2.88423 5.43956C2.80439 5.35964 2.75948 5.25475 2.75948 5.13986C2.75948 5.02497 2.80439 4.92008 2.88423 4.84016C3.03892 4.68032 3.32335 4.68032 3.48303 4.84016L4.34132 5.7043L6.53194 3.5015C6.69162 3.34166 6.97106 3.34166 7.13074 3.5015C7.21058 3.58142 7.25549 3.69131 7.25549 3.8012C7.25549 3.91109 7.21058 4.02098 7.13074 4.1009L7.12575 4.0959Z" fill="#2568F2"/>
</svg>
