<svg width="30" height="10" viewBox="0 0 30 10" fill="none" xmlns="http://www.w3.org/2000/svg">
<path d="M19.54 0.000194794C17.41 0.000194794 15.506 1.13619 15.506 3.23419C15.506 5.64119 18.882 5.80719 18.882 7.01619C18.882 7.52519 18.315 7.98119 17.346 7.98119C16.5052 7.97405 15.6797 7.75496 14.946 7.34419L14.506 9.46219C15.381 9.81758 16.3166 10.0003 17.261 10.0002C19.59 10.0002 21.422 8.8082 21.422 6.67419C21.422 4.1312 18.032 3.97419 18.032 2.84719C18.032 2.44719 18.498 2.01119 19.463 2.01119C20.1483 2.02116 20.8234 2.1791 21.442 2.47419L21.872 0.429195C21.1289 0.139507 20.3375 -0.0060846 19.54 0.000194794ZM0.052 0.154195L0 0.463195C0.580764 0.579804 1.14976 0.74883 1.7 0.968195C2.739 1.35419 2.813 1.57919 2.988 2.27619L4.9 9.84119H7.455L11.394 0.154195H8.843L6.313 6.74019L5.28 1.15819C5.24839 0.875583 5.11101 0.6154 4.89546 0.429905C4.67992 0.244409 4.40217 0.14734 4.118 0.158195L0.052 0.154195ZM12.42 0.154195L10.42 9.84019H12.852L14.845 0.154195H12.42ZM25.986 0.154195C25.7258 0.153548 25.473 0.240939 25.2688 0.40216C25.0645 0.56338 24.9208 0.78895 24.861 1.04219L21.297 9.84219H23.848L24.342 8.37619H27.45L27.75 9.84219H30L28.036 0.154195H25.986ZM26.318 2.77119L27.074 6.4062H25.048L26.318 2.77119Z" fill="#1434CB"/>
</svg>
