<svg width="20" height="20" viewBox="0 0 20 20" fill="none" xmlns="http://www.w3.org/2000/svg">
<path d="M14.8047 12.0586C15.1172 11.7188 15.0938 11.1914 14.7539 10.8828C14.4141 10.5703 13.8867 10.5938 13.5781 10.9336L10.832 13.6797V5C10.8359 4.53906 10.4648 4.16797 10.0039 4.16797C9.54297 4.16797 9.17188 4.54297 9.17188 5V13.6758C9.16797 13.6758 6.42188 10.9336 6.42188 10.9336C6.09766 10.6094 5.57031 10.6094 5.24219 10.9336C4.91797 11.2578 4.91797 11.7852 5.24219 12.1133L8.23047 15.1016C9.20703 16.0781 10.7891 16.0781 11.7656 15.1016L14.7539 12.1133L14.7734 12.0938C14.7852 12.082 14.793 12.0742 14.8047 12.0625V12.0586ZM20 10C20 4.47656 15.5234 0 10 0C4.48047 0.0078125 0.0078125 4.48047 0 10C0 15.5234 4.47656 20 10 20C15.5234 20 20 15.5234 20 10ZM18.332 10C18.332 14.6016 14.6016 18.332 10 18.332C5.39844 18.3281 1.67188 14.5977 1.66797 10C1.66797 5.39844 5.39844 1.66797 10 1.66797C14.6016 1.66797 18.332 5.39844 18.332 10Z" fill="#FE5000"/>
</svg>
