<svg width="20" height="20" viewBox="0 0 20 20" fill="none" xmlns="http://www.w3.org/2000/svg">
<path d="M14.8047 7.94141C15.1172 8.28125 15.0938 8.80859 14.7539 9.11719C14.4141 9.42969 13.8867 9.40625 13.5781 9.06641L10.832 6.32031V15C10.8359 15.4609 10.4648 15.832 10.0039 15.832C9.54297 15.832 9.17188 15.457 9.17188 15V6.32422C9.16797 6.32422 6.42188 9.06641 6.42188 9.06641C6.09766 9.39062 5.57031 9.39062 5.24219 9.06641C4.91797 8.74219 4.91797 8.21484 5.24219 7.88672L8.23047 4.89844C9.20703 3.92188 10.7891 3.92188 11.7656 4.89844L14.7539 7.88672L14.7734 7.90625C14.7852 7.91797 14.793 7.92578 14.8047 7.9375V7.94141ZM20 10C20 15.5234 15.5234 20 10 20C4.48047 19.9922 0.0078125 15.5195 0 10C0 4.47656 4.47656 0 10 0C15.5234 0 20 4.47656 20 10ZM18.332 10C18.332 5.39844 14.6016 1.66797 10 1.66797C5.39844 1.67188 1.67188 5.40234 1.66797 10C1.66797 14.6016 5.39844 18.332 10 18.332C14.6016 18.332 18.332 14.6016 18.332 10Z" fill="#76D671"/>
</svg>
