<svg width="20" height="20" viewBox="0 0 20 20" fill="none" xmlns="http://www.w3.org/2000/svg">
<path d="M19.26 6.12C18.76 4.92 18.04 3.84 17.12 2.92C15.73 1.53 13.96 0.58 12.02 0.19C10.08 -0.19 8.08 0 6.26 0.76C4.44 1.51 2.88 2.79 1.79 4.42C0.7 6.05 0.11 7.98 0.11 9.95C0.13 11.67 0.58 13.36 1.42 14.87L0 20L5.29 18.65C6.74 19.44 8.38 19.85 10.03 19.84C12.67 19.84 15.2 18.79 17.07 16.92C18.94 15.06 19.99 12.53 20 9.89C20 8.59 19.75 7.31 19.26 6.11V6.12ZM18.09 11.83C17.84 12.88 17.39 13.87 16.75 14.75C16.11 15.62 15.31 16.36 14.38 16.92C13.09 17.74 11.6 18.17 10.08 18.16C8.6 18.16 7.15 17.78 5.88 17.02L5.55 16.86L2.39 17.67L3.21 14.59L2.99 14.27C2.41 13.36 2.03 12.34 1.85 11.27C1.67 10.2 1.71 9.11 1.96 8.06C2.21 7.01 2.66 6.02 3.3 5.14C3.94 4.27 4.74 3.53 5.66 2.97C7.52 1.81 9.77 1.44 11.9 1.94C14.04 2.44 15.89 3.76 17.05 5.62C17.63 6.53 18.02 7.55 18.19 8.62C18.37 9.69 18.33 10.78 18.08 11.83H18.09ZM14.88 12.16C14.94 12.19 14.99 12.22 15.04 12.26V12.64C15 12.9 14.93 13.15 14.82 13.4C14.75 13.52 14.65 13.63 14.55 13.72C14.44 13.83 14.33 13.88 14.22 13.99L14.11 14.1C14 14.21 13.89 14.21 13.73 14.32C13.48 14.45 13.2 14.52 12.91 14.54H12.37C12.21 14.49 11.99 14.49 11.83 14.43C10.38 14.05 9.04 13.35 7.91 12.38C7.78 12.22 7.63 12.08 7.47 11.95L7.25 11.73C6.41 10.95 5.72 10.01 5.23 8.97L5.18 8.81C5.01 8.42 4.91 8 4.91 7.57C4.91 6.96 5.13 6.37 5.51 5.89C5.62 5.78 5.67 5.67 5.78 5.57C5.89 5.51 6 5.41 6.11 5.35L6.16 5.3C6.27 5.3 6.38 5.25 6.49 5.25H7.09C7.25 5.29 7.38 5.38 7.47 5.52C7.8 6.19 8.09 6.87 8.34 7.57C8.36 7.66 8.36 7.76 8.34 7.85C8.32 7.94 8.28 8.03 8.23 8.11C8.12 8.22 8.07 8.38 7.96 8.49C7.8 8.65 7.58 8.92 7.58 8.92C7.53 9 7.51 9.1 7.53 9.19C7.58 9.3 7.58 9.35 7.64 9.41L7.69 9.52C7.97 10 8.32 10.43 8.73 10.82C8.84 10.93 9 11.04 9.11 11.14C9.57 11.57 10.11 11.92 10.69 12.17L10.96 12.28C11.02 12.34 11.1 12.37 11.18 12.39H11.23C11.29 12.39 11.34 12.38 11.39 12.35C11.44 12.32 11.48 12.28 11.5 12.23C12.26 11.37 12.32 11.31 12.32 11.31C12.44 11.24 12.57 11.21 12.7 11.2C12.75 11.2 12.81 11.25 12.86 11.25C13.4 11.52 14.28 11.9 14.28 11.9L14.88 12.17V12.16Z" fill="#374957"/>
</svg>
