<svg width="20" height="20" viewBox="0 0 20 20" fill="none" xmlns="http://www.w3.org/2000/svg">
<path d="M14.5815 1.5C13.6435 1.51411 12.726 1.76742 11.9215 2.23434C11.1171 2.70126 10.4543 3.36525 10 4.15927C9.54572 3.36525 8.8829 2.70126 8.07847 2.23434C7.27405 1.76742 6.35651 1.51411 5.41852 1.5C3.92324 1.56285 2.51444 2.19564 1.49991 3.26014C0.485388 4.32464 -0.0524034 5.7343 0.00403263 7.18117C0.00403263 10.8453 3.99076 14.8471 7.33441 17.5604C8.08096 18.1673 9.02486 18.5 10 18.5C10.9751 18.5 11.919 18.1673 12.6656 17.5604C16.0092 14.8471 19.996 10.8453 19.996 7.18117C20.0524 5.7343 19.5146 4.32464 18.5001 3.26014C17.4856 2.19564 16.0768 1.56285 14.5815 1.5ZM11.5952 16.3274C11.1487 16.6912 10.5837 16.8906 10 16.8906C9.41628 16.8906 8.85131 16.6912 8.40481 16.3274C4.12487 12.8535 1.67003 9.52052 1.67003 7.18117C1.61308 6.16155 1.97521 5.16151 2.67742 4.39917C3.37964 3.63682 4.36497 3.17401 5.41852 3.11168C6.47206 3.17401 7.45739 3.63682 8.15961 4.39917C8.86182 5.16151 9.22395 6.16155 9.167 7.18117C9.167 7.39489 9.25477 7.59985 9.41098 7.75098C9.5672 7.9021 9.77908 7.987 10 7.987C10.2209 7.987 10.4328 7.9021 10.589 7.75098C10.7452 7.59985 10.833 7.39489 10.833 7.18117C10.7761 6.16155 11.1382 5.16151 11.8404 4.39917C12.5426 3.63682 13.5279 3.17401 14.5815 3.11168C15.635 3.17401 16.6204 3.63682 17.3226 4.39917C18.0248 5.16151 18.3869 6.16155 18.33 7.18117C18.33 9.52052 15.8751 12.8535 11.5952 16.3242V16.3274Z" fill="#374957"/>
</svg>
