<svg width="30" height="30" viewBox="0 0 30 30" fill="none" xmlns="http://www.w3.org/2000/svg">
<g clip-path="url(#clip0_5348_5118)">
<path d="M22.0069 2C20.5723 2.02159 19.169 2.409 17.9387 3.1231C16.7084 3.83721 15.6947 4.85274 14.9999 6.06712C14.3051 4.85274 13.2914 3.83721 12.0611 3.1231C10.8308 2.409 9.42753 2.02159 7.99295 2C5.70605 2.09612 3.55143 3.06393 1.9998 4.69198C0.448169 6.32003 -0.374336 8.47599 -0.288022 10.6888C-0.288022 16.2928 5.80932 22.4132 10.9231 26.5629C12.0649 27.4911 13.5085 28 14.9999 28C16.4913 28 17.9349 27.4911 19.0767 26.5629C24.1905 22.4132 30.2879 16.2928 30.2879 10.6888C30.3742 8.47599 29.5517 6.32003 28.0001 4.69198C26.4484 3.06393 24.2938 2.09612 22.0069 2ZM17.4396 24.6773C16.7567 25.2336 15.8927 25.5386 14.9999 25.5386C14.1072 25.5386 13.2431 25.2336 12.5602 24.6773C6.01443 19.3641 2.25997 14.2667 2.25997 10.6888C2.17288 9.12943 2.72672 7.59996 3.80069 6.43402C4.87467 5.26808 6.38164 4.56025 7.99295 4.46492C9.60426 4.56025 11.1112 5.26808 12.1852 6.43402C13.2592 7.59996 13.813 9.12943 13.7259 10.6888C13.7259 11.0157 13.8602 11.3292 14.0991 11.5603C14.338 11.7915 14.662 11.9213 14.9999 11.9213C15.3378 11.9213 15.6619 11.7915 15.9008 11.5603C16.1397 11.3292 16.2739 11.0157 16.2739 10.6888C16.1868 9.12943 16.7407 7.59996 17.8146 6.43402C18.8886 5.26808 20.3956 4.56025 22.0069 4.46492C23.6182 4.56025 25.1252 5.26808 26.1992 6.43402C27.2731 7.59996 27.827 9.12943 27.7399 10.6888C27.7399 14.2667 23.9854 19.3641 17.4396 24.6723V24.6773Z" fill="#D9D9D9"/>
</g>
<defs>
<clipPath id="clip0_5348_5118">
<rect width="30" height="30" fill="white"/>
</clipPath>
</defs>
</svg>
