<svg width="30" height="30" viewBox="0 0 30 30" fill="none" xmlns="http://www.w3.org/2000/svg">
<path d="M21.8722 2.25C20.4652 2.27117 19.0889 2.65113 17.8823 3.35151C16.6757 4.05188 15.6814 5.04788 15 6.2389C14.3186 5.04788 13.3243 4.05188 12.1177 3.35151C10.9111 2.65113 9.53477 2.27117 8.12777 2.25C5.88485 2.34427 3.77166 3.29347 2.24987 4.89021C0.728082 6.48695 -0.0786051 8.60145 0.00604894 10.7717C0.00604894 16.268 5.98614 22.2707 11.0016 26.3406C12.1214 27.2509 13.5373 27.75 15 27.75C16.4627 27.75 17.8786 27.2509 18.9984 26.3406C24.0139 22.2707 29.994 16.268 29.994 10.7717C30.0786 8.60145 29.2719 6.48695 27.7501 4.89021C26.2283 3.29347 24.1151 2.34427 21.8722 2.25Z" fill="#FE5000"/>
</svg>
