<svg width="105" height="30" viewBox="0 0 105 30" fill="none" xmlns="http://www.w3.org/2000/svg">
<path d="M35.0122 4.27528H33.0146V2.24328H35.0122V4.27528ZM37.968 15.3847C37.968 16.0003 37.8184 16.5299 37.5217 16.9785C37.2251 17.4246 36.7894 17.7767 36.2145 18.0376C35.6396 18.2958 34.9414 18.4262 34.1198 18.4262C33.2981 18.4262 32.5762 18.2906 31.9515 18.0167C31.3267 17.7428 30.8464 17.3698 30.5051 16.8951C30.1639 16.4203 29.9959 15.8751 29.9959 15.2595C29.9959 14.9804 30.0274 14.5579 30.0904 13.9918C30.1534 13.4258 30.2452 12.7424 30.366 11.939C30.4867 11.1356 30.6232 10.2513 30.7807 9.28876L28.8041 8.99661C28.7201 9.55482 28.6309 10.1365 28.539 10.7365C28.4471 11.3364 28.3605 11.9311 28.2844 12.518C28.2056 13.1049 28.1426 13.6371 28.0927 14.1118C28.0429 14.5866 28.0192 14.9726 28.0192 15.2648C28.0192 16.2142 28.2844 17.0646 28.8172 17.8106C29.3475 18.5566 30.0772 19.1383 31.0065 19.5505C31.9357 19.9626 32.9726 20.1687 34.1198 20.1687C35.2669 20.1687 36.1961 19.9757 37.0755 19.5922C37.9549 19.2088 38.6558 18.6584 39.1808 17.9463C39.7057 17.2342 39.9683 16.3812 39.9683 15.39V4.46309H37.9706V15.3821L37.968 15.3847ZM74.9175 14.9648H79.4246V0H77.448V13.2249H50.7019V10.2487C50.7019 8.82445 50.4814 7.68716 50.043 6.84201C49.6046 5.99687 48.9668 5.3891 48.1294 5.01869C47.292 4.64829 46.2866 4.46309 45.1106 4.46309H43.3886V6.22381H45.1106C46.0031 6.22381 46.7119 6.3464 47.2369 6.5916C47.7619 6.8368 48.1399 7.25154 48.3735 7.83845C48.6071 8.42535 48.7253 9.22876 48.7253 10.2487V13.2249H42.3701V14.9648H74.9201H74.9175ZM104.997 4.46309V14.9648H91.266V15.5308C91.266 16.4255 91.0534 17.1898 90.6281 17.8263C90.2029 18.4627 89.6017 18.9453 88.8221 19.2714C88.0425 19.6 87.1132 19.7644 86.037 19.7644C85.5277 19.7644 84.9922 19.7252 84.4331 19.6496C83.874 19.5739 83.2597 19.4644 82.593 19.3235L82.8896 17.7532C83.6404 17.8367 84.2651 17.8993 84.7612 17.941C85.2574 17.9828 85.6826 18.0037 86.037 18.0037C87.171 18.0037 87.9952 17.795 88.5124 17.375C89.0295 16.955 89.2894 16.3473 89.2894 15.5517V14.9648H86.7589C85.5251 14.9648 84.5539 14.7796 83.8477 14.4092C83.139 14.0388 82.6324 13.4649 82.3279 12.6902C82.0234 11.9155 81.8711 10.9321 81.8711 9.74524C81.8711 8.55839 82.0234 7.55152 82.3279 6.76898C82.6324 5.98644 83.139 5.40736 83.8477 5.02913C84.5565 4.6509 85.5277 4.46309 86.7589 4.46309H91.266V13.2249H96.4241C96.2824 13.0371 96.159 12.8285 96.0619 12.5963C95.7574 11.8842 95.6051 10.9269 95.6051 9.72437C95.6051 8.52187 95.7574 7.55413 96.0619 6.77941C96.3664 6.0047 96.873 5.42562 97.5817 5.03956C98.2905 4.65612 99.2617 4.46309 100.493 4.46309H105H104.997ZM89.2894 6.22381H86.7589C86.0081 6.22381 85.4201 6.31249 84.9949 6.48465C84.5696 6.65942 84.273 7.00113 84.1024 7.51239C83.9317 8.02365 83.8477 8.76706 83.8477 9.74524C83.8477 10.7234 83.9317 11.4407 84.1024 11.9364C84.273 12.432 84.567 12.7711 84.9844 12.9537C85.4017 13.1362 85.995 13.2249 86.7589 13.2249H89.2894V6.22381ZM100.49 13.2249H103.021V6.22381H100.49C99.7237 6.22381 99.1305 6.3151 98.7052 6.4977C98.28 6.68029 97.986 7.022 97.8232 7.52543C97.6605 8.02887 97.5791 8.76185 97.5791 9.72698C97.5791 10.6921 97.6605 11.4251 97.8232 11.9285C97.986 12.432 98.28 12.7737 98.7052 12.9563C99.1305 13.1389 99.7264 13.2275 100.49 13.2275V13.2249ZM103.359 0.54517H101.404V2.57717H103.359V0.54517ZM100.194 0.54517H98.238V2.57717H100.194V0.54517ZM7.9275 17.4637H9.88313V19.4957H7.9275V17.4637ZM6.71475 19.4957V17.4637H4.75912V19.4957H6.71475ZM21.1706 15.5778H19.173V17.6098H21.1706V15.5778ZM76.818 21.1521C76.7182 20.5521 76.6185 19.9991 76.5214 19.4957L74.5867 19.8113C74.7154 20.4113 74.823 21.0034 74.9175 21.5825C75.0094 22.1616 75.0802 22.6806 75.1301 23.1345C75.18 23.5884 75.2036 23.9405 75.2036 24.1935V28.2602H72.2269C71.9565 28.2602 71.6966 28.2002 71.4394 28.0828C71.2819 28.0097 71.1139 27.908 70.938 27.7854C71.1296 27.1437 71.2294 26.3377 71.2294 25.3674V20.5678H69.2317V25.3674C69.2317 26.1786 69.1819 26.7916 69.0821 27.2115C68.9824 27.6315 68.8117 27.9106 68.5729 28.0489C68.3314 28.1897 67.9691 28.2575 67.4887 28.2575H65.2785V21.6138H63.3019V28.2575H21.1706V19.4957H19.173V28.2575H16.8997H14.6265V19.4957H12.6289V28.2575H6.54937C5.712 28.2575 5.0085 28.2054 4.43362 28.101C3.85875 27.9967 3.3915 27.8245 3.03187 27.5872C2.66963 27.3498 2.4045 27.042 2.23388 26.6638C2.06325 26.2855 1.97925 25.8395 1.97925 25.323C1.97925 24.9317 2.01337 24.5196 2.08425 24.0866C2.15512 23.6536 2.22862 23.2493 2.30737 22.8711C2.38612 22.4928 2.4465 22.1929 2.4885 21.9711L0.553875 21.6138C0.525 21.7259 0.483 21.9137 0.42525 22.1798C0.3675 22.4459 0.307125 22.7589 0.244125 23.1241C0.181125 23.4867 0.123375 23.8623 0.0735 24.2457C0.023625 24.6292 0 24.9891 0 25.3256C0 26.3873 0.244125 27.2611 0.732375 27.9445C1.22062 28.6306 1.94775 29.1418 2.91112 29.4861C3.8745 29.8278 5.0715 30 6.50475 30H16.8997H67.4887C68.3812 30 69.0979 29.8539 69.636 29.5592C69.7594 29.4913 69.8722 29.4131 69.9799 29.327C70.224 29.4861 70.4734 29.6166 70.7306 29.7157C71.2189 29.9035 71.7202 30 72.2295 30H77.1829V24.1935C77.1829 23.8571 77.1488 23.4188 77.0779 22.8737C77.007 22.3285 76.923 21.7572 76.8232 21.1547L76.818 21.1521Z" fill="#F9F9F9"/>
</svg>
