<svg width="105" height="30" viewBox="0 0 105 30" fill="none" xmlns="http://www.w3.org/2000/svg">
<path d="M39.48 25.619C39.48 28.1539 37.4475 29.9988 33.8925 29.9988C30.3375 29.9988 28.0725 28.1689 28.0725 25.0565H30.465C30.5325 26.9164 31.7925 28.0189 33.9675 28.0189C36.1425 28.0189 37.2375 27.1189 37.2375 25.6415C37.2375 21.9891 28.4775 25.5365 28.4775 19.5442C28.4775 17.0993 30.5625 15.4344 33.8025 15.4344C37.0425 15.4344 39.3225 17.2268 39.3225 19.9492H36.99C36.8475 18.3593 35.715 17.4143 33.75 17.4143C31.785 17.4143 30.705 18.2468 30.705 19.6642C30.705 23.1891 39.48 19.7542 39.48 25.619ZM39.4725 12.652H31.245V0H29.085V14.5644H39.4725V12.652ZM21.3525 0C17.1225 0 14.205 2.99238 14.205 7.21471C14.205 11.437 17.0925 14.5344 21.2925 14.5644V12.5095C18.405 12.4795 16.455 10.2596 16.455 7.12471C16.455 4.16233 18.435 2.05492 21.3525 2.05492C24.27 2.05492 26.145 4.16233 26.145 7.12471C26.145 10.2821 24.2025 12.5095 21.3375 12.5095C21.3225 12.5095 21.3075 12.5095 21.2925 12.5095V14.5644C21.2925 14.5644 21.3225 14.5644 21.3375 14.5644C25.515 14.5644 28.395 11.5195 28.395 7.21471C28.395 2.99988 25.53 0 21.3525 0ZM6.8325 8.75214H11.205C11.1525 10.8221 9.4725 12.5095 6.96 12.5095C4.11 12.5095 2.25 10.3496 2.25 7.12471C2.25 4.07983 4.125 2.03992 7.0275 2.05492C9.045 2.06992 10.71 3.17237 11.0625 4.76981H13.29C12.81 1.82993 10.245 0 7.065 0C2.9025 0 0 2.99238 0 7.21471C0 11.437 2.7225 14.5644 6.825 14.5644C9.2475 14.5644 10.7325 13.6794 11.5875 12.052L11.625 14.2869H13.4625V6.89972H6.8325V8.75964V8.75214ZM91.86 15.4344V17.5418H97.3575V29.9988H99.495V17.5418H105V15.4344H91.86ZM88.815 26.8114L81.105 15.4344H78.6075V29.9988H80.7675V18.6067L88.515 29.9988H90.975V15.4344H88.815V26.8114ZM53.9325 29.9988H77.7225V27.9439H56.085V23.8865H76.9875V21.8991H56.085V17.4893H77.7225V15.4344H53.9325V29.9988ZM46.8075 27.9439C43.995 27.9439 42.0975 25.784 42.0975 22.5591C42.0975 19.5142 44.01 17.4743 46.875 17.4893C48.8925 17.5043 50.55 18.7492 50.91 20.5567H53.1375C52.68 17.4368 50.13 15.4344 46.9125 15.4344C42.7725 15.4344 39.855 18.4268 39.855 22.6491C39.855 26.9539 42.7875 29.9988 46.95 29.9988C48.4725 30.0288 49.9575 29.5038 51.1275 28.5138C52.2975 27.5239 53.07 26.1439 53.3025 24.629H51.075C50.7075 26.6164 49.005 27.9439 46.815 27.9439H46.8075ZM67.515 3.17237L75.2625 14.5644H77.7225V0H75.5625V11.377L67.8525 0H65.355V14.5644H67.515V3.17237ZM64.47 12.5095H56.085V8.45216H63.765V6.46474H56.085V2.05492H64.38V0H53.925V14.5644H64.47V12.5095ZM42.5175 11.527V1.94992H46.095C49.17 1.94992 51.015 4.37982 51.015 7.52969C51.015 10.7396 49.1775 12.6145 46.095 12.6145H42.525V14.5644H46.1025C50.4 14.5644 53.25 11.9095 53.25 7.54469C53.25 3.13487 50.475 0 46.1025 0H40.3725V14.5644H42.5325V11.527H42.5175Z" fill="#F9F9F9"/>
</svg>
