<svg width="20" height="27" viewBox="0 0 20 27" fill="none" xmlns="http://www.w3.org/2000/svg">
<path d="M13.9154 19.5338L12.9952 18.8962L13.0596 18.7975L13.9798 19.4321L13.9154 19.5338ZM14.3132 18.9152L13.3859 18.2909C13.2999 18.4267 13.2127 18.5632 13.124 18.7002L14.0456 19.3338C14.1358 19.1907 14.226 19.0537 14.3132 18.9152ZM14.7854 18.1608L13.8481 17.5527L13.6192 17.9223L14.5508 18.5392L14.7854 18.1608ZM14.3374 22.4908L13.2026 21.6761C11.8645 23.649 10.6195 25.3054 9.99699 26.1167L11.0832 27C11.7158 26.1755 12.9794 24.4897 14.3374 22.4902V22.4908ZM7.9204 23.302C7.66994 22.9502 7.42182 22.5954 7.18192 22.2459L6.05424 23.0704C6.29752 23.4238 6.54945 23.783 6.80211 24.1409L7.9204 23.302ZM6.94582 21.8931L6.67762 21.4993L5.54129 22.3105L5.81463 22.7124L6.94582 21.8931ZM14.6738 21.9902L13.529 21.1849L13.2628 21.5809L14.3992 22.3936C14.4936 22.2612 14.5838 22.1257 14.674 21.9872L14.6738 21.9902ZM6.60679 21.4018C5.48483 19.7321 4.52023 18.1626 3.74464 16.755L2.54115 17.4558C3.34108 18.9061 4.3271 20.5066 5.47398 22.2115L6.60679 21.4018ZM15.6226 20.5268L14.4641 19.7478C14.2395 20.0997 14.0047 20.4634 13.7644 20.8257L14.9092 21.6266C15.1585 21.2511 15.3987 20.8874 15.6277 20.5283L15.6226 20.5268ZM19.9946 10.2827C19.9959 9.09227 19.7964 7.91063 19.4049 6.79038L18.1026 7.27316C18.4408 8.23835 18.6132 9.25672 18.612 10.2827C18.612 11.4503 18.0868 13.1111 17.0507 15.2195L18.2843 15.8614C19.4428 13.5219 20 11.6962 20 10.2842L19.9946 10.2827ZM1.66966 12.0607C1.55794 11.6775 1.47422 11.2863 1.4192 10.8903L0.0482454 11.0772C0.109381 11.5444 0.205074 12.0061 0.33449 12.4583L1.66966 12.0607ZM1.38386 10.5098V10.0813L0 10.0489V10.2844C0 10.3624 8.41275e-07 10.4861 0.00865269 10.5891L1.38386 10.5098ZM2.95761 5.16596L1.82847 4.34297C0.701217 5.97839 0.0657613 7.91848 0.00102705 9.92229L1.38342 9.97238C1.43891 8.24613 1.98632 6.57472 2.95761 5.16596ZM19.3678 6.67466C19.3092 6.51263 19.2448 6.34924 19.179 6.19188L17.9096 6.7587C17.9668 6.89448 18.0212 7.03403 18.0728 7.17389L19.3678 6.67466ZM18.9886 5.76944C18.7887 5.34955 18.5611 4.94422 18.3075 4.5563L17.1626 5.34987C17.3811 5.68392 17.5766 6.03322 17.7479 6.39525L18.9886 5.76944ZM14.1229 0.911433C12.8273 0.307406 11.4208 -0.0033997 9.99846 2.80466e-05C9.48069 2.71483e-05 8.96369 0.0408308 8.45198 0.122081L8.66329 1.52381C9.10512 1.45398 9.55145 1.41868 9.99846 1.4182C11.224 1.41543 12.4358 1.68353 13.5519 2.20439L14.1229 0.911433ZM7.75176 1.72613L7.38971 0.345067C6.95053 0.465968 6.52015 0.618471 6.10175 0.801449L6.63978 2.1119C7.00094 1.95555 7.37196 1.8245 7.7503 1.71964L7.75176 1.72613ZM8.56035 1.54509L8.33144 0.141996C8.16544 0.169907 7.99798 0.203853 7.83286 0.240666L8.13054 1.63063C8.27073 1.59231 8.41532 1.5644 8.55844 1.53935L8.56035 1.54509ZM10.4308 24.3664C10.4308 24.3575 11.2063 23.3918 12.2353 21.965L11.3408 21.2804C10.7914 22.043 10.3176 22.6684 9.99846 23.0855C9.45471 22.3764 8.46151 21.0507 7.39821 19.4813L6.48376 20.138C8.09799 22.5174 9.5534 24.3489 9.56777 24.3666L9.99714 24.9083L10.4308 24.3664ZM12.4113 21.7164L11.514 21.0361L11.3709 21.2304L12.2667 21.9121C12.3154 21.8415 12.3626 21.781 12.4098 21.7147L12.4113 21.7164ZM13.413 20.2883L12.4943 19.633C12.2182 20.038 11.9305 20.4516 11.6357 20.864L12.5345 21.5429C12.8336 21.1188 13.1269 20.698 13.4074 20.287L13.413 20.2883ZM18.0969 10.2631C18.0979 8.64096 17.6366 7.05411 16.7702 5.69884L15.8388 6.32766C16.5873 7.49723 16.9854 8.86727 16.9836 10.2676C16.9836 11.7474 15.9289 14.2283 13.9334 17.4409L14.8719 18.0578C17.0057 14.6051 18.0904 11.9829 18.0904 10.2602L18.0969 10.2631ZM5.97139 17.2773C5.70098 16.8356 5.44348 16.4058 5.20885 15.9919L4.24718 16.5735C4.48899 16.9976 4.75236 17.4407 5.02995 17.8986L5.97139 17.2773ZM5.10269 15.805L4.98684 15.5974L4.01901 16.1672L4.13778 16.3807L5.10269 15.805ZM4.95956 15.5473C3.69023 13.2541 3.01906 11.4248 3.01906 10.2601C3.01878 9.56988 3.11503 8.88322 3.30486 8.22123L2.2357 7.89791C2.01587 8.66268 1.90454 9.45609 1.90517 10.2536C1.90517 11.6362 2.60641 13.6061 3.99173 16.1092L4.95956 15.5473ZM16.7302 5.64573C16.6844 5.57512 16.6357 5.49848 16.5871 5.43225L15.6757 6.08627C15.7172 6.14662 15.7602 6.20847 15.8002 6.27033L16.7302 5.64573ZM5.2744 4.98311L4.51304 4.13205C4.12439 4.5019 3.77207 4.91021 3.46118 5.35108L4.36127 6.02833C4.63114 5.64732 4.93696 5.29469 5.27426 4.97557L5.2744 4.98311ZM16.4526 5.24366C16.1318 4.80935 15.7709 4.40798 15.3749 4.04515L14.6337 4.90209C14.9755 5.21375 15.287 5.55891 15.5638 5.93268L16.4526 5.24366ZM5.58646 4.696L4.88258 3.81266C4.81674 3.86712 4.75236 3.9231 4.68798 3.98058L5.42119 4.84627C5.47516 4.7912 5.53073 4.74262 5.58646 4.6954V4.696ZM9.99699 3.07642C10.892 3.07499 11.7788 3.25147 12.6087 3.59616L13.0266 2.53162C11.6921 1.97941 10.2389 1.80241 8.81601 2.01878C7.39312 2.23515 6.05178 2.8371 4.92965 3.76287L5.62796 4.65663C6.86462 3.62955 8.40769 3.07262 9.99699 3.07973V3.07642ZM10.5308 20.7063C10.8485 20.2386 11.1562 19.7744 11.4482 19.3268C12.6381 17.5347 13.7151 15.6659 14.6724 13.7319C15.7786 11.4262 15.8748 10.425 15.883 10.2483V10.2159C15.883 8.60949 15.2628 7.06889 14.1587 5.93301C13.0547 4.79712 11.5573 4.15898 9.99589 4.15898C8.43453 4.15898 6.93711 4.79712 5.83305 5.93301C4.729 7.06889 4.10875 8.60949 4.10875 10.2159V10.2483C4.10875 10.425 4.21316 11.4262 5.31796 13.7319C6.27593 15.6659 7.35352 17.5347 8.54407 19.3268C8.83031 19.7685 9.14369 20.2397 9.46146 20.7063L9.99377 21.4925L10.5308 20.7063ZM6.75431 6.88588C7.39395 6.22793 8.20838 5.77924 9.09521 5.59623C9.98204 5.41322 10.9017 5.50406 11.7385 5.85733C12.5752 6.21059 13.2918 6.81052 13.7981 7.58166C14.3044 8.3528 14.5777 9.26074 14.5838 10.1913C14.5709 10.3017 14.4407 11.1807 13.5061 13.136C12.5743 15.0193 11.5255 16.839 10.3664 18.5837C10.2461 18.7692 10.1231 18.9567 9.99714 19.1462C9.87264 18.9562 9.74785 18.769 9.6279 18.5837C8.4698 16.8384 7.42109 15.0188 6.48816 13.1361C5.53938 11.1558 5.42193 10.2783 5.41195 10.1914C5.41685 8.95029 5.89952 7.7617 6.75431 6.88588Z" fill="url(#paint0_linear_108_5184)"/>
<defs>
<linearGradient id="paint0_linear_108_5184" x1="0" y1="13.5" x2="20" y2="13.5" gradientUnits="userSpaceOnUse">
<stop offset="0.2" stop-color="#009BBA"/>
<stop offset="0.49" stop-color="#243269"/>
<stop offset="1" stop-color="#DC2027"/>
</linearGradient>
</defs>
</svg>
