<svg width="20" height="20" viewBox="0 0 20 20" fill="none" xmlns="http://www.w3.org/2000/svg">
<path d="M13 10.005C13 11.6658 11.66 13.0065 10 13.0065C8.34 13.0065 7 11.6658 7 10.005C7 8.34417 8.34 7.0035 10 7.0035C11.66 7.0035 13 8.34417 13 10.005ZM20 10.005V10.2851V11.0355C20 12.1661 20 12.7364 19.98 13.2266V13.4167C19.97 13.6368 19.96 13.8669 19.94 14.1271C19.89 15.1876 19.72 15.918 19.47 16.5583C19.22 17.2186 18.87 17.7789 18.32 18.3292C17.76 18.8894 17.2 19.2296 16.55 19.4797C15.91 19.7299 15.19 19.8899 14.12 19.94C13.85 19.95 13.63 19.96 13.41 19.97H13.22C12.73 19.99 12.16 20 11.03 20H10.28C10.19 20 10.09 20 10 20H9.72H8.97C7.84 20 7.27 20 6.78 19.98H6.59C6.37 19.97 6.14 19.96 5.88 19.94C4.82 19.8899 4.09 19.7199 3.45 19.4797C2.79 19.2296 2.23 18.8794 1.68 18.3292C1.12 17.7689 0.78 17.2186 0.53 16.5583C0.28 15.918 0.12 15.1976 0.07 14.1271C0.06 13.8569 0.05 13.6368 0.04 13.4167V13.2266C0 12.7264 0 12.1561 0 11.0355V8.97449C0 7.84392 0 7.27364 0.02 6.78339V6.5933C0.03 6.37319 0.04 6.14307 0.06 5.88294C0.11 4.81241 0.28 4.09205 0.52 3.45173C0.77 2.7914 1.12 2.23112 1.67 1.68084C2.23 1.12056 2.78 0.78039 3.44 0.530265C4.08 0.28014 4.8 0.12006 5.87 0.06003C6.14 0.050025 6.36 0.04002 6.58 0.030015H6.77C7.28 0 7.85 0 8.97 0H11.03C12.16 0 12.73 0 13.22 0.02001H13.41C13.63 0.030015 13.86 0.04002 14.12 0.06003C15.18 0.110055 15.91 0.28014 16.55 0.530265C17.21 0.78039 17.77 1.13057 18.32 1.68084C18.87 2.24112 19.22 2.7914 19.47 3.45173C19.72 4.09205 19.88 4.81241 19.94 5.88294C19.95 6.15308 19.96 6.37319 19.97 6.5933V6.78339C19.99 7.27364 20 7.84392 20 8.97449V9.72486C20 9.81491 20 9.91496 20 10.005ZM15 10.005C15 7.24362 12.76 5.0025 10 5.0025C7.24 5.0025 5 7.24362 5 10.005C5 12.7664 7.24 15.0075 10 15.0075C12.76 15.0075 15 12.7664 15 10.005ZM16.5 4.75238C16.5 4.06203 15.94 3.50175 15.25 3.50175C14.56 3.50175 14 4.06203 14 4.75238C14 5.44272 14.56 6.003 15.25 6.003C15.94 6.003 16.5 5.44272 16.5 4.75238Z" fill="#CDCDCD"/>
</svg>
