<svg width="20" height="20" viewBox="0 0 20 20" fill="none" xmlns="http://www.w3.org/2000/svg">
<path d="M18.5154 0H1.47623C0.658882 0 0 0.642202 0 1.44287V18.5571C0 19.3495 0.658882 20 1.47623 20H18.5154C19.3328 20 20 19.3578 20 18.5571V1.44287C20 0.650542 19.3328 0 18.5154 0ZM5.92994 17.0392H2.9608V7.49791H5.92994V17.0392ZM4.44537 6.19683C3.49458 6.19683 2.72727 5.42118 2.72727 4.47873C2.72727 3.53628 3.49458 2.76063 4.44537 2.76063C5.39616 2.76063 6.16347 3.52794 6.16347 4.47873C6.16347 5.42952 5.39616 6.19683 4.44537 6.19683ZM17.0392 17.0392H14.0784V12.402C14.0784 11.2927 14.0534 9.8749 12.5354 9.8749C11.0175 9.8749 10.759 11.0759 10.759 12.3269V17.0475H7.79817V7.50626H10.6422V8.80734H10.6839C11.0842 8.05671 12.0517 7.26439 13.4946 7.26439C16.4971 7.26439 17.0475 9.24103 17.0475 11.8098V17.0475L17.0392 17.0392Z" fill="#0C64C5"/>
</svg>
