<svg width="20" height="20" viewBox="0 0 20 20" fill="none" xmlns="http://www.w3.org/2000/svg">
<path d="M4.74121 7.76074C4.69765 7.03993 4.64995 6.24427 4.66895 5.49414C4.68805 4.73987 4.77401 4.05903 4.98242 3.55859C6.26565 0.494468 8.97916 0.25 9.7832 0.25H10.1689C10.9582 0.25 13.5284 0.470237 14.8633 3.26953L14.9883 3.54883C15.1966 4.04927 15.2836 4.73021 15.3027 5.48438C15.3217 6.23447 15.274 7.03024 15.2305 7.75098L15.2109 8.06934L15.1992 8.25684L15.377 8.32031C15.4549 8.34791 15.5422 8.34475 15.5664 8.34473C15.7492 8.34473 15.961 8.28601 16.1807 8.19434L16.4023 8.09277C16.5313 8.03291 16.6728 8.01568 16.7637 8.01562C16.9092 8.01562 17.0464 8.04131 17.1611 8.09473L17.1689 8.09863L17.1777 8.10254C17.5393 8.2393 17.75 8.53034 17.75 8.81348V8.81836C17.7566 9.17369 17.5064 9.52797 16.7783 9.83301L16.4854 9.93457C16.3386 9.98824 16.1109 10.0665 15.9102 10.167C15.8088 10.2177 15.7045 10.2783 15.6152 10.3516C15.5492 10.4058 15.4827 10.4736 15.4336 10.5566L15.3936 10.6396C15.3327 10.7879 15.3438 10.943 15.3691 11.0635C15.3924 11.1738 15.433 11.2784 15.4717 11.3643C15.4741 11.3734 15.4763 11.3813 15.4785 11.3877C15.479 11.3891 15.48 11.3903 15.4805 11.3916V11.4062L15.5049 11.457C15.5044 11.456 15.5046 11.4573 15.5088 11.4668C15.5121 11.4744 15.5167 11.4851 15.5225 11.498C15.5342 11.5244 15.5513 11.5611 15.5723 11.6055C15.6141 11.694 15.6741 11.8156 15.7529 11.96C15.9106 12.2487 16.1444 12.6308 16.459 13.0254C17.0856 13.8113 18.0515 14.6687 19.3955 14.9043L19.46 14.916L19.4766 14.9102C19.6377 14.9683 19.7572 15.1331 19.748 15.3379C19.74 15.4101 19.7263 15.4757 19.7002 15.5381L19.6992 15.541C19.6164 15.7463 19.4145 15.9504 19.0127 16.1396C18.6115 16.3286 18.0404 16.4882 17.2725 16.6201L17.1162 16.6475L17.0742 16.7988C17.0475 16.8936 17.0094 17.0442 16.9941 17.1279C16.9512 17.3108 16.9283 17.4492 16.8818 17.6182C16.8128 17.853 16.6501 17.9727 16.4453 17.9727C16.3143 17.9726 16.1771 17.9555 15.9824 17.916C15.6917 17.8522 15.3559 17.7979 14.9395 17.7979C14.6926 17.7979 14.4465 17.82 14.1924 17.8633L14.1885 17.8643C13.6752 17.9593 13.2121 18.3101 12.7803 18.6396C12.0553 19.1847 11.2944 19.7499 10.1113 19.75H9.87012L9.6543 19.7432C8.74161 19.6876 8.08578 19.2835 7.48438 18.8438L7.20996 18.6396C6.76057 18.301 6.31542 17.9593 5.80176 17.8643L5.7998 17.8633L5.61328 17.835C5.4258 17.8104 5.23523 17.7979 5.05078 17.7979C4.60738 17.7979 4.2645 17.8754 4.00879 17.9258L3.99902 17.9287C3.82843 17.969 3.68816 17.9931 3.57422 17.9932C3.40185 17.9932 3.30572 17.9303 3.24414 17.8633C3.20986 17.826 3.18333 17.7842 3.16309 17.7432L3.11816 17.6289C3.07198 17.4615 3.03589 17.3061 3.00879 17.1523L3.00684 17.1416L3.00391 17.1309L2.97168 16.9893C2.95863 16.9312 2.94181 16.8601 2.92383 16.8027L2.87793 16.6562L2.72754 16.6309L2.18848 16.5264C1.68499 16.4169 1.28829 16.2921 0.987305 16.1504C0.585221 15.9611 0.383538 15.7562 0.300781 15.5508L0.299805 15.5479L0.262695 15.4424C0.254985 15.4129 0.250977 15.3884 0.250977 15.3672H0.251953L0.250977 15.3535C0.239499 15.1459 0.358046 14.9801 0.506836 14.9229L0.572266 14.9053L0.575195 14.9043C1.91942 14.6687 2.88572 13.8114 3.51367 13.0215C4.14315 12.2296 4.45277 11.4805 4.47949 11.418L4.47852 11.417C4.52886 11.3137 4.58048 11.1938 4.6084 11.0703C4.63632 10.9466 4.64678 10.7943 4.58887 10.6475H4.59082C4.54395 10.5207 4.45603 10.4223 4.36719 10.3477C4.27755 10.2724 4.17334 10.2103 4.07129 10.1592C3.86946 10.0581 3.64356 9.9839 3.49219 9.93359H3.49316C3.36617 9.88856 3.28863 9.86404 3.2168 9.83008H3.21777L3.20605 9.82617L3.02344 9.74316C2.6254 9.54953 2.42602 9.34731 2.32715 9.18164C2.21612 8.99536 2.21577 8.82815 2.23633 8.71484V8.71289C2.28101 8.45697 2.47383 8.24969 2.73633 8.13086C3.00416 8.00968 3.28841 8.00636 3.46387 8.09277C3.66867 8.19332 3.87375 8.2651 4.05762 8.30566C4.23528 8.34481 4.41561 8.36033 4.5625 8.3291L4.78516 8.28125L4.75879 8.05469C4.74901 7.97145 4.74121 7.90284 4.74121 7.82715V7.76074Z" fill="#FFFC00" stroke="#090909" stroke-width="0.5"/>
</svg>
