<svg width="20" height="20" viewBox="0 0 20 20" fill="none" xmlns="http://www.w3.org/2000/svg">
<path fill-rule="evenodd" clip-rule="evenodd" d="M19.4388 14.6585C16.9186 14.2167 15.7695 11.433 15.7309 11.3508C15.7309 11.3303 15.7116 11.3097 15.7116 11.2892C15.6343 11.1248 15.5571 10.8988 15.6247 10.7345C15.7309 10.4571 16.262 10.2825 16.571 10.1695C16.6772 10.1284 16.7834 10.0976 16.8703 10.0668C17.6331 9.74833 18.0097 9.32717 18.0001 8.81356C18.0001 8.40267 17.7007 8.03287 17.2662 7.86852C17.1117 7.79661 16.9379 7.76579 16.7641 7.76579C16.6482 7.76579 16.4647 7.78634 16.2909 7.86852C16.0013 8.01233 15.7502 8.09451 15.5667 8.09451C15.5281 8.09451 15.4895 8.09451 15.4605 8.08423L15.4798 7.76579C15.5667 6.32768 15.673 4.54032 15.2191 3.45146C13.8673 0.246533 11.0187 0 10.169 0H9.78274C8.94266 0 6.09411 0.256805 4.75192 3.46174C4.29808 4.55059 4.4043 6.33796 4.4912 7.77607V7.82743C4.4912 7.91988 4.50086 8.00206 4.51052 8.08423C4.31739 8.12532 3.95046 8.05342 3.57388 7.86852C3.05245 7.61171 2.11581 7.95069 1.99028 8.66975C1.93234 8.98819 1.99993 9.59425 3.11038 10.0565C3.19729 10.0976 3.29385 10.1284 3.40972 10.1695C3.71872 10.2722 4.2498 10.4468 4.35602 10.7345C4.42361 10.8988 4.34636 11.1248 4.2498 11.32C4.20152 11.433 3.05245 14.2167 0.532208 14.6585C0.213558 14.7098 -0.0181885 15.018 0.00112368 15.3672C0.00112368 15.4597 0.0300919 15.5521 0.0687163 15.6446C0.300462 16.2198 1.13089 16.6102 2.68552 16.8772C2.71448 16.9697 2.74345 17.1238 2.76276 17.1957C2.79173 17.36 2.83036 17.5244 2.87864 17.699C2.92692 17.8634 3.08142 18.2435 3.57388 18.2435C3.71872 18.2435 3.88287 18.2126 4.05668 18.1715C4.31739 18.1202 4.63604 18.0483 5.05126 18.0483C5.283 18.0483 5.5244 18.0688 5.75615 18.1099C6.20033 18.1921 6.59623 18.49 7.05972 18.8392C7.78393 19.3837 8.6047 20 9.86964 20C9.90827 20 9.93724 20 9.9662 20C10.0145 20 10.0628 20 10.111 20C11.3856 20 12.2064 19.3837 12.9306 18.8392C13.3748 18.5003 13.79 18.1921 14.2342 18.1099C14.4756 18.0688 14.7073 18.0483 14.9391 18.0483C15.335 18.0483 15.6536 18.0996 15.9337 18.1613C16.1364 18.2024 16.2909 18.2229 16.4454 18.2229C16.7737 18.2229 17.0248 18.0175 17.1214 17.6888C17.1696 17.5141 17.1986 17.3498 17.2372 17.1854C17.2469 17.1238 17.2855 16.9697 17.3145 16.867C18.8691 16.5999 19.6995 16.2096 19.9313 15.6343C19.9699 15.5419 19.9892 15.4494 19.9989 15.357C20.0182 15.0077 19.7864 14.7098 19.4678 14.6482L19.4388 14.6585Z" fill="#CDCDCD"/>
</svg>
