<svg width="20" height="20" viewBox="0 0 20 20" fill="none" xmlns="http://www.w3.org/2000/svg">
<path d="M10.074 0H9.92605C4.44536 0 0 4.47848 0 10C0 15.5215 4.44536 20 9.92605 20H10.074C15.5546 20 20 15.5215 20 10C20 4.47848 15.5546 0 10.074 0ZM16.1791 8.61755C14.8809 8.61755 13.6894 8.16225 12.7445 7.40066V12.4172C12.7445 14.9007 10.7477 16.9123 8.28266 16.9123C5.81758 16.9123 3.82087 14.9007 3.82087 12.4172C3.82087 9.93377 5.81758 7.92219 8.28266 7.92219C8.63599 7.92219 8.9811 7.96358 9.30978 8.04636V10.2318C8.99753 10.0828 8.65242 10 8.28266 10C6.95152 10 5.88332 11.0844 5.88332 12.4172C5.88332 13.75 6.95974 14.8344 8.28266 14.8344C9.60559 14.8344 10.682 13.75 10.682 12.4172V3.07947H12.7445C12.7445 4.99172 14.281 6.53974 16.1791 6.53974V8.61755Z" fill="#CDCDCD"/>
</svg>
