<svg width="20" height="16" viewBox="0 0 20 16" fill="none" xmlns="http://www.w3.org/2000/svg">
<path d="M17.81 0.95C16.25 0.5 10 0.5 10 0.5C10 0.5 3.75 0.5 2.19 0.95C1.33 1.19643 0.649998 1.925 0.419998 2.84643C-1.81794e-06 4.51786 0 8 0 8C0 8 -1.81794e-06 11.4821 0.419998 13.1536C0.649998 14.075 1.33 14.8036 2.19 15.05C3.75 15.5 10 15.5 10 15.5C10 15.5 16.25 15.5 17.81 15.05C18.67 14.8036 19.35 14.075 19.58 13.1536C20 11.4821 20 8 20 8C20 8 20 4.51786 19.58 2.84643C19.35 1.925 18.67 1.19643 17.81 0.95ZM8 11.2143V4.78571L13.2 8L8 11.2143Z" fill="#FF0000"/>
</svg>
